<svg id="Layer_1" data-name="Layer 1" xmlns="http://www.w3.org/2000/svg" viewBox="0 0 195 295"><defs><style>.cls-1{fill:#fff;}.cls-2{fill:#e29074;}.cls-3{fill:#442318;}.cls-4{fill:#2a4277;}.cls-5{fill:#cc8f7a;}.cls-6{fill:#aa593d;}.cls-7{fill:#10213a;}.cls-8{fill:#301710;}.cls-9{fill:#aa6d5c;}.cls-10{fill:#f2b78b;}.cls-11{fill:#cebf97;}.cls-12{fill:#663a28;}.cls-13{fill:#f4e8c3;}.cls-14{fill:#d88361;}</style></defs><title>abe_front_final</title><path class="cls-1" d="M105,148.57a6.11,6.11,0,0,1-4.89-2.3,7.2,7.2,0,0,1-1.49-4.47c0-3.79,2.59-6.64,6-6.64s6,2.66,6,6.46C110.61,145,108.5,148.57,105,148.57Zm-.35-7.83c-.27,0-.44.62-.44,1.05a1.66,1.66,0,0,0,.28,1,.41.41,0,0,0,.23.16,2.69,2.69,0,0,0,.33-1.34,1.51,1.51,0,0,0-.19-.85h0Z"/><path class="cls-1" d="M104.62,137.77c-2.24,0-3.42,2-3.42,4a4.58,4.58,0,0,0,.92,2.85A3.5,3.5,0,0,0,105,146c1.87,0,3-2.26,3-4.34C108,139.84,107.12,137.77,104.62,137.77Zm2.27,6.59A2.32,2.32,0,0,1,105,145.6a3.15,3.15,0,0,1-2.56-1.18,4.21,4.21,0,0,1-.85-2.62c0-1.82,1-3.66,3.05-3.66,2.23,0,3,1.8,3,3.48A5.28,5.28,0,0,1,106.89,144.36Z"/><path class="cls-1" d="M35.05,288.06a2.79,2.79,0,0,1-2.79-2.67c-.16-3.72-1.54-36.5,0-47.95,3.1-22.66,18.55-42.37,47.22-60.23l-.06-.39a24.22,24.22,0,0,1-.08-3.4c-2.71-2.15-9.2-7.86-11.88-15.12-3.32-9-3.2-17.79.3-23A8,8,0,0,1,73,131.81a10,10,0,0,1,1.91-.18,12.77,12.77,0,0,1,2.27.21,3.8,3.8,0,0,1-.21-.35c-.94-1.72-1-4.89-.72-8-5.08.32-14.21.86-18.15.86-3.59,0-5.76-3.78-6-7.33s1.61-4.88,3.26-5.1c4.65-.61,18.6-1.59,24.35-2L78.08,17.05c0-2.71,1.91-4.21,3.08-5.1l.36-.28c3.93-3.08,13.46-4.19,21-4.57A2.75,2.75,0,0,1,104.24,7c1.43-.05,2.87-.09,4.3-.1h1c4.69,0,20.37.28,25,3.82l.07.06c.69.53,2.5,1.91,2.12,4.28l-6.14,95.39,28.82,3.42a4.85,4.85,0,0,1,4.28,4.81V120a4.85,4.85,0,0,1-4.83,4.85l-.39,0-27.55-2c0,.94,0,1.87-.06,2.71a7.62,7.62,0,0,1,.72.32,8.41,8.41,0,0,1,4.63,7.11,5.67,5.67,0,0,1-2.65,5.22,5.11,5.11,0,0,1-2.6.68h-.25a31.64,31.64,0,0,1-2.84,10.21c3.89,6.51,5.26,14.87,4.07,24.89a6.11,6.11,0,0,1-4.23,5.11,9,9,0,0,0,.74,1.46c.24.38,1.22,1.55,2.11,2.55,7,3.81,11.08,6.57,12.1,8.2,1.8,2.9.27,8.34-1.85,12.73,14,15.87,21.28,31,22.88,47.34.79,8.12.09,31.27,0,33.88a2.79,2.79,0,0,1-2.79,2.72Zm123.1-5.59c.08-3,.21-8.26.26-13.69-.53.68-1.09,1.38-1.69,2.09-3.35,4-8.45,8.91-14.67,11.6Zm-54.38,0c-9.21-2.69-17.29-7.08-23.15-12.65C69.92,259.65,67.38,251.44,63.54,239c-1.73-5.61-3.7-12-6.81-20.06-1.34-3.49-.68-7.88,1.87-12.37a34.55,34.55,0,0,1,20.63-15.36q-.74-3.06-1.49-6.24c-24.16,16.09-37.24,33.52-39.93,53.21-1.13,8.28-.63,30.63-.09,44.27ZM80.59,196.65a28.68,28.68,0,0,0-17.12,12.7c-1.68,3-2.23,5.73-1.51,7.6,3.17,8.26,5.16,14.71,6.92,20.4,3.84,12.42,5.95,19.25,15.6,28.41,6.36,6,15.74,10.55,26.41,12.71a68.47,68.47,0,0,0,13.52,1.38,47.76,47.76,0,0,0,13.12-1.68c6.23-1.82,11.56-6.95,14.93-10.93a58.38,58.38,0,0,0,5.94-8.4c-.05-3-.16-5.31-.3-6.85-1.43-14.7-7.91-28.37-20.31-42.82a23.78,23.78,0,0,1-4.49,4.8,19.1,19.1,0,0,1-2.22,1.5c9.9,23.72,12.36,40.36,7.3,49.49a13.93,13.93,0,0,1-10.46,7.15,17.71,17.71,0,0,1-2.68.21c-10.3,0-19.86-9.19-28.42-27.32C91.08,232.88,85.77,217,80.59,196.65ZM102.53,244c7.35,15.09,15,22.73,22.71,22.73a12.09,12.09,0,0,0,1.82-.14,8.31,8.31,0,0,0,6.42-4.33,12.06,12.06,0,0,0,.89-2.07A173.55,173.55,0,0,0,129.72,237c-1.35,2.11-2.66,3.39-3.91,3.8a4.63,4.63,0,0,1-1.45.23c-1.85,0-3.74-1-5.74-2a17.75,17.75,0,0,0-3-1.36,12.22,12.22,0,0,0-2.57,2.8c-1.64,2.14-3.67,4.81-6.74,4.81a5.17,5.17,0,0,1-1.14-.13A9.85,9.85,0,0,1,102.53,244Zm16.08-13.76c2.62,1.64,5.46,3,6.71,3.06a1.64,1.64,0,0,0,.32-.31,3.85,3.85,0,0,0,.47-.75c-2.21-1.43-3.42-2.62-3.56-4.05a3.64,3.64,0,0,1-1.12-.67,5.57,5.57,0,0,1-2.36,2.53A4.33,4.33,0,0,1,118.61,230.25ZM101,230a26.19,26.19,0,0,0,1.56,2.71c1.22-.73,2.32-1.45,3.21-2.07A35.71,35.71,0,0,0,101,230Zm21.59-8.87q.34-.33.69-.62l-.71.19Q122.54,220.95,122.55,221.17ZM86.9,198.74q2.6,9.93,5.25,18.35a7.09,7.09,0,0,1,3.17-2.5,6.07,6.07,0,0,1,3.74-1.09q.39,0,.79,0A50.64,50.64,0,0,1,86.9,198.74Zm1.76-9c6.67,16.32,18.67,22.2,20.31,22.94a16.44,16.44,0,0,0,6.6,1.17c5.32,0,11.06-1.7,14.27-4.23,5.37-4.23,8.36-13.24,8-15.29a47.21,47.21,0,0,0-6.7-4.37c-.48,2.76-1.46,5.54-3.46,6.41a3.44,3.44,0,0,1-2.65,0c-1.2,1.92-2.75,3.71-4.63,4.36a11.4,11.4,0,0,1-3.75.58,19,19,0,0,1-4.33-.54q-.19.38-.37.76a4.1,4.1,0,0,1-4,2.31,8.26,8.26,0,0,1-1.44-.14C101.64,202.86,93.6,197.75,88.66,189.72Zm27.61,6h.37a5.9,5.9,0,0,0,1.92-.27,4.26,4.26,0,0,0,1.21-1.25,5.31,5.31,0,0,0-.59.09A7.31,7.31,0,0,0,116.27,195.74ZM99.55,185.27a23.45,23.45,0,0,0,7.67,7.54,25.31,25.31,0,0,0,2.75,1.35,14.53,14.53,0,0,1,8-5.31,10.72,10.72,0,0,1,2.25-.24,10.28,10.28,0,0,1,2.1.22c0-.12.06-.24.09-.35.18-.82.32-1.57.43-2.25l-.26.14a25.15,25.15,0,0,1-10.92,2.7A21.68,21.68,0,0,1,99.55,185.27Zm-9-5a26.58,26.58,0,0,0,7.72,12.49,37.41,37.41,0,0,1-7.47-12.4Zm8.77-4.08c4,4,8.13,5.92,12.41,5.92a14.6,14.6,0,0,0,1.5-.08,29.7,29.7,0,0,1-6.71-3.77,5.41,5.41,0,0,1-.63,0,6.92,6.92,0,0,1-5.9-4,2.81,2.81,0,0,1-.52,1.68ZM112.74,169a46.88,46.88,0,0,0,12.84,2.22l1,0c.89-11.41-2.12-19.88-9-25.24ZM97,170.21a2.79,2.79,0,0,1,2,.82s0-.09,0-.14a6.55,6.55,0,0,1,5.59-7.23,8.37,8.37,0,0,1,1.67-.17,7.26,7.26,0,0,1,1.88.24l4.58-21.66a3.76,3.76,0,0,1,5.67-2.41,29.47,29.47,0,0,1,5.49,4.37,18.45,18.45,0,0,0,1.24-7.13,15,15,0,0,0-2.34-.47c-1.68-.24-4-.57-5.1-2.89a4.59,4.59,0,0,1,1.2-5.41,9.36,9.36,0,0,1,2.29-1.6c-3.67-.23-7.7-.36-12.14-.38a16.51,16.51,0,0,1,4.14,2.3,3.42,3.42,0,0,1-1.4,6.07l-.76.15c-2,.41-4.51.91-6.82,1.5a12.17,12.17,0,0,0-3.15,1.77,17.16,17.16,0,0,1-4,2.22c-.12.9-.17,1.48-.18,1.83a33.18,33.18,0,0,0,.7,5.39,35.5,35.5,0,0,1,.78,6.46A49.53,49.53,0,0,1,96.64,163c-.64,2.57-1.33,5.34-1.66,7.62a14.67,14.67,0,0,1,1.51-.35l.22,0Zm7.77-.67a3.48,3.48,0,0,0,.82.11,2.63,2.63,0,0,0,1.37-.38v0a1.32,1.32,0,0,0-.68-.15,3,3,0,0,0-.59.06A1.78,1.78,0,0,0,104.78,169.54ZM92.2,148.88a89.9,89.9,0,0,1-1,12.74,48,48,0,0,0,1.58-7.95A29.67,29.67,0,0,0,92.2,148.88Zm-16.86-6.95c-.63,2-.37,6.18,1.58,11.41a33.58,33.58,0,0,0,4.22,8,130.35,130.35,0,0,0,.2-17.52,14.93,14.93,0,0,0-5.64-1.92A1.91,1.91,0,0,0,75.34,141.94Zm16-2.64q0,.81,0,1.61c0-.44.09-.92.17-1.46Zm-9.5-10.64c.19.14.48.31.67.43a7.14,7.14,0,0,1,2.38,2A10.26,10.26,0,0,1,85.93,134c.2-2.55.53-5,.9-7.32L81.7,127A8.84,8.84,0,0,0,81.83,128.66Zm24.64-19.24c5,.11,10.26.33,16.06.65l5.53-96c-4.11-1-11-1.56-18.54-1.56-1.07,0-2.14,0-3.2,0Zm-21.18.22h.25V15.71a4.16,4.16,0,0,0-.58.37l-.35.27a9.59,9.59,0,0,0-.93.77Zm5.84-.22c2.34-.06,4.78-.09,7.28-.09h2.47l-.16-96.49A78.11,78.11,0,0,0,91.13,14Z"/><path class="cls-1" d="M161.05,251.71c-1.59-16.27-9-31.27-23.42-47.2,2.65-4.83,3.87-10,2.77-11.75s-10.81-7.11-11.53-7.5c-.22-.25-2.14-2.41-2.67-3.23a14.34,14.34,0,0,1-1.85-5.15h.06q.77,0,1.53,0a3.52,3.52,0,0,0,3.37-3.09c1.2-10.08-.3-18.22-4.43-24.36,2-4.32,3.85-9.36,3-14.14l.41.23a5.09,5.09,0,0,0,2.61.88,2.52,2.52,0,0,0,1.29-.33,3.12,3.12,0,0,0,1.35-2.89,5.76,5.76,0,0,0-3.2-4.86,6.24,6.24,0,0,0-2.35-.61c.12-.92.63-5.33-.13-7.59l30.78,2.18a2.23,2.23,0,0,0,2.39-2.23v-1.34a2.23,2.23,0,0,0-2-2.22l-31.28-3.71,6.31-98c.19-.88-.47-1.39-1.12-1.89l-.06,0c-3-2.28-13.72-3.28-23.39-3.28h-1c-1.59,0-3.23.05-4.89.12a.16.16,0,0,0-.32,0c-8.44.38-17.09,1.58-20.23,4l-.38.29c-1,.78-2.07,1.59-2,3l1.67,95.42c-2,.13-21.12,1.4-26.66,2.14-.71.09-1.08,1-1,2.34.13,2,1.29,4.89,3.37,4.89h0c5,0,19.15-.92,21.1-1.05-.19,1.29-1,7.56.05,9.51a4.94,4.94,0,0,0,1.66,1.36,5.17,5.17,0,0,1,1.45,1.13,17.76,17.76,0,0,1,1.15,4.5c-1.32-.83-6.13-3.62-10-2.86A5.36,5.36,0,0,0,70,136.73c-3,4.47-3,12.57,0,20.65S81.11,171.5,82,172.15a35.73,35.73,0,0,0,0,4.28c.1.71.22,1.39.35,2.07-28.92,17.66-44.46,37.06-47.5,59.28-1.59,11.63,0,47.12,0,47.48a.18.18,0,0,0,.18.17H160.87a.18.18,0,0,0,.18-.18C161.06,285,161.86,260,161.05,251.71Zm-.36,0c.19,2,.3,5,.34,8.38a.18.18,0,0,0-.09-.11.18.18,0,0,0-.25.07,60.22,60.22,0,0,1-6.24,8.85c-3.6,4.25-9.34,9.74-16.19,11.74-7.69,2.25-17.86,2.37-27.89.35-11.15-2.25-21-7-27.69-13.37C72.53,258,70.22,250.54,66.39,238.14c-1.75-5.66-3.73-12.07-6.87-20.25-1-2.64-.42-6.13,1.68-9.83A31.49,31.49,0,0,1,82.5,193.55c5.33,21.38,10.81,37.93,16.67,50.34,8.1,17.15,16.85,25.82,26.06,25.82a15,15,0,0,0,2.28-.18,11.26,11.26,0,0,0,8.58-5.83c4.74-8.54,1.84-25.64-8.37-49.44a18.91,18.91,0,0,0,4-2.33,24.21,24.21,0,0,0,5.77-7.08C151.73,220.69,159.12,235.6,160.69,251.75ZM110,220c3.65,4.73,4.19,9.53,1.62,14.26h0c-2.38,3.31-4.42,5.1-5.65,4.86a7.6,7.6,0,0,1-3.91-2.69c1.51-.84,8.61-4.86,8.6-6.71a.75.75,0,0,0-.45-.68c-4.28-2.28-12.73-2.14-13.08-2.13a.18.18,0,0,0-.18.19.18.18,0,0,0,.19.18c.09,0,8.71-.14,12.91,2.09.23.12.26.27.26.36,0,1.44-6,5.05-8.48,6.42a28.84,28.84,0,0,1-4.76-8.67,23.5,23.5,0,0,1-1.17-4.83c.95.13,4,.55,7,.91a65.05,65.05,0,0,0,6.52.56c1.05,0,1.1-.15,1.14-.27s-.21-.39-.32-.45c-3.9-2.07-12.78-3.45-14.34-3.68a4.77,4.77,0,0,1,1-2.53,2.82,2.82,0,0,1,2.2-.73C101.67,216.48,105.88,218,110,220Zm-14.17.08c1.57.23,10.37,1.6,14.21,3.64h0c-1.32.23-9.16-.74-14.21-1.46A11.8,11.8,0,0,1,95.82,220.09Zm-.32-.36a.16.16,0,0,0,0,.27,12.14,12.14,0,0,0,0,2.3.18.18,0,0,0-.07.12.17.17,0,0,0,.09.17,23.45,23.45,0,0,0,1.2,5c1.88,5.4,5.63,11.22,9.19,11.88l.29,0c2.34,0,5.69-4.8,7.53-7.74a1,1,0,0,1,1.38-.28c1.41,1,8.61,5.85,11.38,4.57a3.56,3.56,0,0,0,.43-.24,6.33,6.33,0,0,1-2,2.13c-1.08.36-3-.65-4.88-1.62s-3.66-1.92-4.84-1.67c-1.7.36-3.09,2.18-4.44,3.94-1.57,2.05-3,4-4.85,3.58-5.51-1.25-11.15-11.2-12.11-16.11-.61-3.11-.36-5.51.72-7.12a4.21,4.21,0,0,1,1.76-1.51A5.71,5.71,0,0,0,95.5,219.73Zm32.16,14.92h0a3.84,3.84,0,0,1-1.34,1.09c-2.63,1.22-10.17-3.95-11-4.54a1.34,1.34,0,0,0-1.9.39l-.6.94c1.5-4.05.79-8.14-2.11-12.18l1.73.89c.26.51,2.58,5.07,3.47,6a1.84,1.84,0,0,0,1.31.65,1.45,1.45,0,0,0,.66-.17c1.53-.78,2.61-4.28,1.81-8.79,2.56-1,5.24-1.66,6.58-.82a6,6,0,0,1,2,2.39c-.83.38-4.3,2.1-5.22,4.43a.54.54,0,0,0,.07.56c.3.38,1.28.5,2.38.5a32.67,32.67,0,0,0,4.1-.34,19.85,19.85,0,0,1,0,2.47,10.4,10.4,0,0,0-4.12-.59.38.38,0,0,0-.34.31c-.11.7,2.65,2.42,4.08,3.25A8.65,8.65,0,0,1,127.66,234.64Zm-10.87-14.53c.62,1.73,1.18,4.12.67,4.65l-3.33-3.5c.5-.19,1.13-.47,1.85-.79Zm-3,1.27,3.55,3.74a.18.18,0,0,0,.13.06l.08,0c1.19-.55,0-4.13-.39-5.19.69-.3,1.44-.61,2.21-.91.73,4.26-.26,7.64-1.63,8.34a1.28,1.28,0,0,1-1.55-.41,42.94,42.94,0,0,1-3.24-5.57A1.72,1.72,0,0,0,113.75,221.39Zm15.79,3.91h0c-2.13.31-5.68.57-6.16,0a.18.18,0,0,1,0-.2c.86-2.18,4.25-3.87,5-4.24A14,14,0,0,1,129.54,225.3Zm-4,2.61.07,0c1.12-.26,3.45.43,4,.61a17,17,0,0,1-.28,2.22C127.4,229.59,125.49,228.24,125.5,227.91Zm3.16-7.4h0a6.29,6.29,0,0,0-2.16-2.68L125,215.32c.83-.27,1.65-.56,2.42-.9,8.75,20.4,12.11,35.82,9.89,45.1A167.46,167.46,0,0,0,130,227.68,16.86,16.86,0,0,0,128.66,220.51Zm-2.42-37.83c.73,1,2.07,2.48,2.35,2.79-.12,4-1.07,7.69-2.1,8.14-.13.06-.33.1-.63-.16a9.81,9.81,0,0,0-1.62-1.16,17.67,17.67,0,0,0,1.11-3.17A35.84,35.84,0,0,0,126.24,182.69Zm-1.57-3.09h0c-5,1.89-10.9.4-17-4.31a4.59,4.59,0,0,0,2.21-1.87,3.25,3.25,0,0,0,1.71,1.28A43.17,43.17,0,0,0,124,176.88,15.28,15.28,0,0,0,124.67,179.6ZM102,171.06a3.65,3.65,0,0,1,3.17-4.49,3.84,3.84,0,0,1,4.55,2s0,0,0,0l-.46,2.19c-2.11,1.8-4.49,1.94-7.26.46C102,171.18,102,171.12,102,171.06Zm7.23.24a3.3,3.3,0,0,0,.35,1.76,4.38,4.38,0,0,1-3.34,2.21c-1.84.24-3.5-1.57-4.09-3.55C104.81,173,107.18,172.9,109.25,171.31Zm16.69,5.18a41,41,0,0,1-14.3-2.14A2.91,2.91,0,0,1,110,173h0a3,3,0,0,1-.34-1.89c6.42,2,11.6,3,15.95,3a24.89,24.89,0,0,0,3.33-.22A3.16,3.16,0,0,1,125.94,176.49Zm3-2.91c-5,.69-11.11-.2-19.28-2.81l.45-2.12,5.49-26a.77.77,0,0,1,.45-.55.78.78,0,0,1,.73.06C126.6,148.27,130.69,158.83,129,173.58ZM132,135.72c-.87.51-2.12.31-3.53-.54a12.93,12.93,0,0,0-5.31-1.7c-1.4-.2-2.42-.35-2.85-1.24a1.26,1.26,0,0,1-.12-.71c5.61-.9,9.72-.11,12.9,2.48A2.44,2.44,0,0,1,132,135.72Zm1.17-2.57a4.16,4.16,0,0,1,0,.44c-3.22-2.53-7.33-3.31-12.87-2.44a2.7,2.7,0,0,1,.63-.9c1.88-1.84,6.6-3,9.24-1.64A5.4,5.4,0,0,1,133.21,133.15ZM120.71,130a2.05,2.05,0,0,0-.68,2.41c.51,1.07,1.67,1.23,3.12,1.44a13.54,13.54,0,0,1,4.37,1.21c.91,4.69-.91,9.68-2.86,14a25.8,25.8,0,0,0-7.64-7.15,1.16,1.16,0,0,0-1.06-.08,1.12,1.12,0,0,0-.67.81l-5.39,25.49a4.25,4.25,0,0,0-4.77-1.88,4,4,0,0,0-3.45,4.91v0s0,0-.06,0a.18.18,0,0,0,.07.25l.06,0c.5,2.12,2.23,4.17,4.2,4.17l.38,0a5.42,5.42,0,0,0,.9-.21s0,0,0,.05c4.52,3.5,8.91,5.29,13,5.29a12.8,12.8,0,0,0,4.56-.82l0,0a12.45,12.45,0,0,0,1.1,2.26A32.75,32.75,0,0,1,125,189a17.48,17.48,0,0,1-1.08,3.09,7.86,7.86,0,0,0-5.37-.73c-2.87.61-5.55,2.71-7.65,5.9a28.14,28.14,0,0,1-5-2.23c-7.24-4.14-11.57-12.65-13.14-18.4a8.22,8.22,0,0,1,.66-.57c5.79,7,11.76,10.35,18.25,10.35a22.62,22.62,0,0,0,9.82-2.46.18.18,0,0,0,.08-.24l-.59-1.22a.18.18,0,0,0-.24-.08c-9.44,4.56-17.88,2.2-25.82-7.23a9.55,9.55,0,0,1,2.32-.7.18.18,0,0,0,.15-.21L97.19,173a.18.18,0,0,0-.07-.12.17.17,0,0,0-.14,0,10.33,10.33,0,0,0-4.63,1.94c0-.14-.06-.3-.08-.44-.44-2.81.72-7.46,1.84-12a48.37,48.37,0,0,0,1.67-8.6,34.13,34.13,0,0,0-.74-5.93,33.5,33.5,0,0,1-.74-5.95,33.1,33.1,0,0,1,.5-4h.12c1.52,0,3.05-1,4.67-2.15a13.71,13.71,0,0,1,4-2.14c2.39-.61,4.91-1.12,6.94-1.53l.75-.15a.79.79,0,0,0,.62-.6.82.82,0,0,0-.3-.84c-3.9-3-10-3.78-14.62-2.83.48-2,.87-3.58,1-4a221.56,221.56,0,0,1,30,.82c-.05,1.48-.2,2.78-.25,3.18A10.33,10.33,0,0,0,120.71,130Zm3.06,62.47c-1.11,2.41-2.76,4.93-4.35,5.48-2.22.77-5.22.41-8.15-.52,2-3.06,4.62-5.07,7.37-5.66A7.52,7.52,0,0,1,123.77,192.46ZM89.28,145.74c-1.36-7.26,0-16.57,1.08-21.82q3.73-.16,7.19-.25c-.14.56-.53,2.1-1,4.09a11,11,0,0,0-4.53,2,3.67,3.67,0,0,0-1.09,4.81c.95,1.87,2,2.93,3.19,3.23l.3.06a33.31,33.31,0,0,0-.5,4,33.72,33.72,0,0,0,.75,6,34,34,0,0,1,.74,5.85,48.15,48.15,0,0,1-1.66,8.52c-1.13,4.54-2.3,9.23-1.84,12.11,0,.2.08.43.12.64a10.4,10.4,0,0,0-1.62,1.68.18.18,0,0,0,0,.25l1.08.83a.18.18,0,0,0,.25,0,8.82,8.82,0,0,1,.71-.81c1.63,5.82,6,14.29,13.25,18.44a28.42,28.42,0,0,0,5,2.22,22.58,22.58,0,0,0-1.46,2.71c-.24.52-1,.69-2.22.47-6.14-1.09-18.65-10.6-19.67-24.11-.26-3.43.37-8.38,1-13.62C89.22,156.64,90.07,150,89.28,145.74Zm21.9-14.15-.75.15c-2,.41-4.56.92-7,1.53a13.94,13.94,0,0,0-4.1,2.19c-1.59,1.08-3.09,2.11-4.52,2.08.24-1.38.54-2.88.86-4.37,3.66-2.48,8.44-3.52,14.47-3.16a10.57,10.57,0,0,1,1.17.77.46.46,0,0,1,.17.47A.43.43,0,0,1,111.18,131.59Zm-16.69,5.91a2.63,2.63,0,0,1-.27,0,3.61,3.61,0,0,1-1.84-1.29,16.4,16.4,0,0,1,2.89-2.69C95,134.87,94.71,136.24,94.49,137.51Zm1.32-4.79c.35-1.65.73-3.27,1.06-4.68a18.37,18.37,0,0,1,3.67-.36,20.73,20.73,0,0,1,8.9,2C103.91,129.41,99.35,130.45,95.81,132.71Zm-.43.27a16.39,16.39,0,0,0-3.22,2.9,10.11,10.11,0,0,1-.9-1.47,3.31,3.31,0,0,1,1-4.37,10.25,10.25,0,0,1,4.21-1.93C96.13,129.59,95.74,131.28,95.38,133Zm-.86,42.29c8.06,9.67,16.64,12.15,26.24,7.58l.43.9a22.16,22.16,0,0,1-9.5,2.34c-6.42,0-12.33-3.39-18.08-10.35a.18.18,0,0,0-.25,0,8.53,8.53,0,0,0-.68.57q-.15-.57-.26-1.1a9.87,9.87,0,0,1,4.43-2l.17,1a9.7,9.7,0,0,0-2.45.8.18.18,0,0,0-.1.12A.18.18,0,0,0,94.51,175.27Zm-2.14,1.27a9.07,9.07,0,0,0-.77.85l-.79-.61a10,10,0,0,1,1.29-1.36C92.18,175.79,92.28,176.16,92.38,176.55Zm35.54-52.43c-9.38-1.05-21.46-1.24-37.48-.56.31-1.51.57-2.65.72-3.24,12-.33,24.14-.41,36.33-.25A11.94,11.94,0,0,1,127.92,124.12Zm4.86-111c.61.47,1.13.87,1,1.55l-6.32,98.21s0,0,0,0l-2.11-.13s0,0,0-.05l5.79-100.49a6.38,6.38,0,0,1,1.56.81Zm-2-1L125,112.77s0,0,0,.05c-7.76-.46-14.77-.75-21.15-.85L103.7,10.06C114.25,9.63,125.76,10.41,130.79,12.18ZM103.5,112c-5.41-.08-10.38,0-15,.14V11.9a79.29,79.29,0,0,1,14.82-1.82ZM81.06,17c0-1.21.92-1.92,1.91-2.68l.38-.3a13.83,13.83,0,0,1,4.81-2V112.11h0q-2.8.11-5.43.28ZM55.75,114.92c5.82-.77,26.6-2.13,26.81-2.15,12.81-.85,28.49-.58,49.33.86h0L159,116.85a1.87,1.87,0,0,1,1.65,1.86v.9c-29.91-5.12-64.43-5.93-105.54-2.48l-.05,0c0-.1,0-.19,0-.28C55,115.75,55.26,115,55.75,114.92Zm2.35,6.51h0c-1.59,0-2.65-2.13-2.94-3.95h0C96.29,114,130.8,114.86,160.69,120V120a1.87,1.87,0,0,1-2,1.87l-31.06-2.2h0c-12.2-.16-24.39-.08-36.37.25l0-.1a.18.18,0,0,0-.35-.09l-.05.2q-5.77.16-11.46.39h0C79.24,120.37,63.49,121.42,58.1,121.42Zm12.17,35.83c-2.95-8-3-15.95,0-20.32a5,5,0,0,1,3.31-2.2c4.05-.79,9.35,2.54,10,3,.1,1.4.19,2.76.26,4.1-1.31-.77-6.64-3.71-9.6-2.66a2.73,2.73,0,0,0-1.72,1.77C70.41,147,75.55,162,83,167.52q-.38,2.23-.88,4.24C80.72,170.75,73.1,164.9,70.27,157.26ZM83,167.11C75.8,161.63,70.8,147,72.87,141a2.35,2.35,0,0,1,1.5-1.55c3-1.06,8.74,2.29,9.5,2.75C84.41,152.22,84.14,160.43,83,167.11Zm-.66,5c1.93-7.5,2.53-17.34,1.84-30h0c-.08-1.47-.17-3-.29-4.51h0c0-.16-.56-3.94-1.27-5a5.2,5.2,0,0,0-1.56-1.24,4.79,4.79,0,0,1-1.53-1.23c-1-1.87-.15-8.31,0-9.36q5.57-.23,11.21-.38c-.15.63-.42,1.76-.72,3.25-3.38.14-6.92.33-10.66.55a.18.18,0,0,0-.17.19.19.19,0,0,0,.19.17c3.71-.22,7.21-.4,10.57-.54-1,5.29-2.43,14.59-1.07,21.87.78,4.18-.06,10.81-.88,17.22-.67,5.26-1.3,10.22-1,13.69,1,13.69,13.73,23.33,20,24.44a5.58,5.58,0,0,0,1,.1c1,0,1.46-.4,1.63-.78a22.15,22.15,0,0,1,1.48-2.74,18.78,18.78,0,0,0,5.59,1,8.81,8.81,0,0,0,2.89-.44c1.67-.58,3.39-3.17,4.55-5.66a9.44,9.44,0,0,1,1.54,1.1.91.91,0,0,0,1,.22c1.41-.62,2.18-5.09,2.31-8.24,1.59.87,10.13,5.58,11.16,7.25,1.64,2.64-2.53,13.88-8.65,18.7-5.82,4.58-17.27,6.23-23.56,3.39-2.17-1-21.34-10.38-25.5-38.66A37.72,37.72,0,0,1,82.39,172.09Zm25.35,43.29a19.38,19.38,0,0,0,7.8,1.42,31.59,31.59,0,0,0,9.06-1.37l1.3,2.12c-2.16-.7-6.05.84-9.07,2.15h0l-1,.43c-.85.37-1.58.69-2.09.88a1.37,1.37,0,0,1-1.1-.08c-3.12-1.65-13.43-6.77-16-4a4.29,4.29,0,0,0-2.45,1.82c-1.15,1.7-1.41,4.19-.79,7.4,1,5,6.74,15.1,12.39,16.39a2.54,2.54,0,0,0,.56.06c1.77,0,3.24-1.92,4.66-3.78,1.3-1.71,2.65-3.48,4.22-3.81,1.07-.23,2.86.72,4.6,1.63,2,1.06,3.92,2.06,5.16,1.65s2.91-3.34,3-3.47h0a9.06,9.06,0,0,0,1.59-3.57.18.18,0,0,0,.09-.34h0a17,17,0,0,0,.3-2.21,168.71,168.71,0,0,1,7.1,31.72,15.19,15.19,0,0,1-1.27,3.11,10.91,10.91,0,0,1-8.31,5.65c-9.87,1.51-19.27-7-28-25.44-5.86-12.42-11.35-29-16.69-50.43h0q-1.52-6.11-3-12.76l2.65-1.65C87.35,205.45,105.62,214.42,107.74,215.37Zm53,69.71H35.23c-.12-2.71-1.52-36.06,0-47.24,2.92-21.3,17.4-40,44.23-57.09q1.47,6.48,3,12.44a31.87,31.87,0,0,0-21.54,14.68c-2.15,3.79-2.76,7.39-1.7,10.14,3.14,8.17,5.12,14.58,6.86,20.23,3.85,12.46,6.17,20,16.38,29.67,6.76,6.42,16.66,11.2,27.87,13.47a71.65,71.65,0,0,0,14.11,1.44,50.5,50.5,0,0,0,14-1.79c6.94-2,12.73-7.57,16.37-11.86a60.73,60.73,0,0,0,6.29-8.91.18.18,0,0,0,0-.14C161.15,270.07,160.75,283.4,160.7,285.08Z"/><path class="cls-1" d="M122.75,147.15c-3.45,0-5.52-3.31-5.52-6.51a5.49,5.49,0,0,1,5.52-5.82c3,0,5.22,2.59,5.22,6.17a7.17,7.17,0,0,1-1,3.82A4.9,4.9,0,0,1,122.75,147.15Z"/><path class="cls-1" d="M122.75,144.54a2.27,2.27,0,0,0,2-1.14,4.54,4.54,0,0,0,.63-2.42c0-1.71-.82-3.56-2.61-3.56-2.14,0-2.91,1.73-2.91,3.21C119.84,142.51,121,144.54,122.75,144.54Zm0-6.75c1.54,0,2.24,1.65,2.24,3.19a4.18,4.18,0,0,1-.58,2.22,1.94,1.94,0,0,1-1.67,1c-1.52,0-2.54-1.83-2.54-3.54C120.21,139.26,120.87,137.79,122.75,137.79Z"/><path class="cls-1" d="M120.38,247.5a5.85,5.85,0,0,1-5.51-4.36,5.14,5.14,0,0,1,3.58-6.58,6.3,6.3,0,0,1,1.74-.26,5.12,5.12,0,0,1,3.64,1.47,6.23,6.23,0,0,1,1.56,5.86,5,5,0,0,1-3.46,3.66A5.8,5.8,0,0,1,120.38,247.5Z"/><path class="cls-1" d="M120.38,244.89a3.16,3.16,0,0,0,.84-.12,2.36,2.36,0,0,0,1.63-1.79,3.59,3.59,0,0,0-.85-3.34,2.72,2.72,0,0,0-2.83-.57,2.56,2.56,0,0,0-1.78,3.36A3.23,3.23,0,0,0,120.38,244.89Zm-1.12-5.47a3.28,3.28,0,0,1,.91-.14,2.18,2.18,0,0,1,1.57.62,3.21,3.21,0,0,1,.76,3,2,2,0,0,1-1.37,1.53,2.78,2.78,0,0,1-3.39-2.09A2.2,2.2,0,0,1,119.26,239.42Z"/><path class="cls-1" d="M124.05,259.92a5.85,5.85,0,0,1-5.51-4.36,5.14,5.14,0,0,1,3.58-6.58,6.3,6.3,0,0,1,1.74-.25,5.19,5.19,0,0,1,3.64,1.46,6.23,6.23,0,0,1,1.56,5.86,5,5,0,0,1-3.46,3.66A5.79,5.79,0,0,1,124.05,259.92Z"/><path class="cls-1" d="M121.05,254.84a3.23,3.23,0,0,0,3,2.46,3.16,3.16,0,0,0,.84-.12,2.36,2.36,0,0,0,1.63-1.79,3.59,3.59,0,0,0-.85-3.34,2.73,2.73,0,0,0-2.83-.57A2.56,2.56,0,0,0,121.05,254.84Zm4.36-2.53a3.21,3.21,0,0,1,.75,3,2,2,0,0,1-1.37,1.53,2.78,2.78,0,0,1-3.39-2.09,2.2,2.2,0,0,1,1.53-2.91A2.41,2.41,0,0,1,125.41,252.32Z"/><path class="cls-2" d="M101.9,171.37a3.85,3.85,0,0,1,3.25-5,4,4,0,0,1,4.75,2.08l.09,0,0,.12-.48,2.28C107.36,172.73,104.85,173,101.9,171.37Z"/><path class="cls-3" d="M94.64,137.73c.24-1.45.56-3,.9-4.63,3.61-2.47,8.45-3.64,14.73-3.26h0a12.34,12.34,0,0,1,1.2.82.63.63,0,0,1-.24,1.12c-2,.41-5,1-7.7,1.69C100.4,134.25,97.41,138,94.64,137.73Z"/><path class="cls-4" d="M95.66,219.88a5,5,0,0,1,1.07-2.79c2-2.24,9.2.77,13.39,2.79a17.45,17.45,0,0,1,2.24,3.72l-2,.16a.61.61,0,0,0-.22-.17C106,221.39,96.51,220,95.66,219.88Z"/><path class="cls-5" d="M90.21,123.75c.35-1.75.66-3,.8-3.61q18.19-.5,36.6-.25a11.83,11.83,0,0,1,.48,4.41h-.15a226.09,226.09,0,0,0-30.15-.82Q94.09,123.59,90.21,123.75Z"/><path class="cls-6" d="M109.48,170.88c7.26,2.33,14,3.68,19.66,2.85a3.36,3.36,0,0,1-3.19,2.93c-.6,0-1.2,0-1.79,0a43.19,43.19,0,0,1-12.58-2.17,3,3,0,0,1-1.77-1.45A3.15,3.15,0,0,1,109.48,170.88Z"/><path class="cls-6" d="M109.48,170.88a3.15,3.15,0,0,0,.33,2.19,4.42,4.42,0,0,1-2.49,2.13,4.72,4.72,0,0,1-1,.24c-2,.27-3.9-1.82-4.4-4.08C104.85,173,107.36,172.73,109.48,170.88Z"/><path class="cls-7" d="M97.12,227.12s8.71-.18,13,2.11c2.43,1.29-8.35,7.17-8.35,7.17a28.53,28.53,0,0,1-5-9.17Z"/><path d="M122.75,144.36c-3.11,0-4.12-6.75,0-6.75C126,137.61,126,144.36,122.75,144.36Z"/><path class="cls-4" d="M59.34,217.95c-2.95-7.69,7.73-21.92,23.3-24.61A363.93,363.93,0,0,0,93.09,228.6c9.14,25.27,20.45,42.9,34.39,40.76,4.72-.73,8.19-3.55,9.74-8.92,2.46-8.49.11-23.33-9.74-46.25a19.23,19.23,0,0,0,4.08-2.4,24.22,24.22,0,0,0,5.85-7.26c11.68,12.9,21.61,28.16,23.46,47.19.2,2,.3,5,.34,8.45h-.36s-9.19,16.78-22.54,20.68c-15,4.38-41,.91-55.76-13.07S69.62,244.71,59.34,217.95Z"/><path class="cls-4" d="M103.51,9.86c10.7-.46,22.41.34,27.47,2.18h0l-5.81,100.73V113c-7.45-.45-14.64-.75-21.48-.86v0Z"/><path class="cls-4" d="M88.33,11.75V112.3c-2,.07-3.91.17-5.8.3L80.87,17c0-1.46,1.21-2.22,2.36-3.13A14.44,14.44,0,0,1,88.33,11.75Z"/><path class="cls-8" d="M91,120.14c-.14.58-.45,1.85-.8,3.61q-5.27.22-10.8.55H79c.15-2,.41-3.75.41-3.75Q85.2,120.3,91,120.14Z"/><path class="cls-4" d="M54.94,117.35c-.19-1.35,0-2.51.78-2.6,5.89-.78,26.82-2.15,26.82-2.15,1.89-.13,3.82-.22,5.8-.3,4.86-.18,10-.22,15.33-.14,6.84.1,14,.41,21.48.86q3.34.2,6.75.43l27.16,3.22a2,2,0,0,1,1.81,2v1.11h0c-32.88-5.65-68.54-5.63-105.69-2.51Z"/><path class="cls-9" d="M72.7,141c-2,5.9,3,21,10.48,26.46-.27,1.62-.6,3.17-1,4.63,0,0-8.95-6.22-12.1-14.75s-2.85-16.23,0-20.49c3.91-5.82,13.66.78,13.66.78q.17,2.3.29,4.53S74.36,136.18,72.7,141Z"/><path class="cls-5" d="M87.18,176.7c-.58-7.72,3.35-23.31,1.92-30.92a48.74,48.74,0,0,1-.21-13.43l1.76.08a3.75,3.75,0,0,0,.45,2.07,9.79,9.79,0,0,0,1,1.67,3.56,3.56,0,0,0,2.49,1.55,32.66,32.66,0,0,0-.53,4.16c-.11,3,1.58,8.88,1.49,11.87-.15,5-4.29,15.66-3.51,20.6,0,.24.08.48.14.73a10.14,10.14,0,0,0-1.67,1.73l1.08.82a8.75,8.75,0,0,1,.94-1c1.6,6,6.14,14.57,13.25,18.64a28.08,28.08,0,0,0,5.15,2.29,21.28,21.28,0,0,0-1.57,2.87C107.86,203.8,88.48,194,87.18,176.7Z"/><path class="cls-4" d="M128.5,220.59a15,15,0,0,1,1.23,4.87h-.17a36.57,36.57,0,0,1-3.76.33c-1.53,0-2.87-.12-2.6-.8,1-2.57,5.3-4.42,5.3-4.42Z"/><path class="cls-6" d="M90.56,176.82a10.14,10.14,0,0,1,1.67-1.73c.09.48.21,1,.35,1.51a8.75,8.75,0,0,0-.94,1Z"/><path class="cls-10" d="M122.75,137.61c-4.12,0-3.11,6.75,0,6.75S126,137.61,122.75,137.61Zm-18.13.34c-4.3,0-4.44,7.83.35,7.83C108.3,145.78,109.34,138,104.62,138Zm-9,15.8c.09-3-1.6-8.88-1.49-11.87a32.66,32.66,0,0,1,.53-4.16c2.77.24,5.76-3.48,8.87-4.27,2.71-.69,5.66-1.27,7.7-1.69a.63.63,0,0,0,.24-1.12,12.34,12.34,0,0,0-1.2-.82c-3.93-2.37-9.4-2.81-13.57-1.9.61-2.58,1.09-4.44,1.09-4.44a226.09,226.09,0,0,1,30.15.82h.15a35.08,35.08,0,0,1-.28,3.53h0c-3.34-.18-7.34,1.61-7.73,3.52a1.46,1.46,0,0,0,.12,1c.88,1.83,3.87.76,7.49,2.6h0c.92,4.58-.71,9.47-3,14.45h0a25.73,25.73,0,0,0-7.78-7.34,1,1,0,0,0-1.45.61L110,168.49l-.09,0a4,4,0,0,0-4.75-2.08,3.85,3.85,0,0,0-3.25,5c.5,2.26,2.38,4.36,4.4,4.08a4.72,4.72,0,0,0,1-.24l0,.13c5.67,4.4,11.77,6.54,17.34,4.44h.22a12.33,12.33,0,0,0,1.14,2.36,31.62,31.62,0,0,1-.89,7,17.74,17.74,0,0,1-1.17,3.29c-4.33-2.34-9.46-.35-13,5.16a28.08,28.08,0,0,1-5.15-2.29c-7.11-4.06-11.65-12.61-13.25-18.64a7,7,0,0,1,.89-.74c5.74,7,11.77,10.42,18.22,10.42a22.35,22.35,0,0,0,9.74-2.44l-.59-1.22c-9.58,4.63-18.15,2.19-26.19-7.45a9.34,9.34,0,0,1,2.58-.82L97,173a10.12,10.12,0,0,0-4.78,2.09c-.05-.25-.1-.5-.14-.73C91.31,169.42,95.45,158.76,95.6,153.76Z"/><path class="cls-11" d="M95.66,219.88a11.64,11.64,0,0,0,0,2.57,23,23,0,0,0,1.09,4.78,28.53,28.53,0,0,0,5,9.17,8,8,0,0,0,4.16,2.91c1.66.31,4.06-2.47,5.85-5,.73-1,1.35-2,1.79-2.67a1.15,1.15,0,0,1,1.64-.33c2.49,1.73,8.79,5.67,11.2,4.55a4,4,0,0,0,1.4-1.13c-.2.33-1.82,3-2.86,3.36-2.25.74-7.42-3.78-9.74-3.29-3.56.74-5.82,8.33-9.37,7.52-4.86-1.11-9.83-8.88-11.67-14.15a15.36,15.36,0,0,1-.58-2.1c-1.59-8.13,3.15-9,3.15-9A5,5,0,0,0,95.66,219.88Z"/><path d="M104.62,138c4.72,0,3.68,7.83.35,7.83C100.18,145.78,100.32,138,104.62,138Z"/><path class="cls-5" d="M126.06,182.13c.57.9,2.7,3.28,2.7,3.28-.12,4.36-1.37,9.63-3,8.18a9.63,9.63,0,0,0-1.74-1.22,17.74,17.74,0,0,0,1.17-3.29A31.62,31.62,0,0,0,126.06,182.13Z"/><path class="cls-4" d="M124.85,257c-3.39.93-5.38-4.37-2-5.35C126.76,250.54,127.56,256.26,124.85,257Z"/><path class="cls-5" d="M84.05,142.14c.52,9.65.31,18.2-.88,25.3C75.66,162,70.66,146.89,72.7,141,74.36,136.18,84.05,142.14,84.05,142.14Z"/><path class="cls-7" d="M110.34,223.75c.52.84-13.48-1.13-14.66-1.3a11.64,11.64,0,0,1,0-2.57c.86.12,10.37,1.52,14.46,3.7A.61.61,0,0,1,110.34,223.75Z"/><path class="cls-11" d="M127.48,214.19c9.85,22.92,12.2,37.76,9.74,46.25a169.62,169.62,0,0,0-7.42-32.72,20.92,20.92,0,0,0-.08-2.26,15,15,0,0,0-1.23-4.87,6.14,6.14,0,0,0-2.14-2.63l-1.66-2.72A27.11,27.11,0,0,0,127.48,214.19Z"/><path class="cls-12" d="M95.54,133.1c.39-1.82.8-3.63,1.16-5.17,4.16-.91,9.63-.47,13.57,1.9h0C104,129.46,99.15,130.63,95.54,133.1Z"/><path class="cls-5" d="M107.32,175.21a4.42,4.42,0,0,0,2.49-2.13,3,3,0,0,0,1.77,1.45,43.19,43.19,0,0,0,12.58,2.17,14.7,14.7,0,0,0,.77,3.06h-.22c-5.57,2.11-11.67,0-17.34-4.44Z"/><path class="cls-7" d="M116.89,219.87s1.71,4.59.54,5.13l-3.63-3.82C114.51,220.93,115.61,220.42,116.89,219.87Z"/><path class="cls-3" d="M92.15,136.18a16,16,0,0,1,3.39-3.08c-.33,1.58-.65,3.18-.9,4.63A3.56,3.56,0,0,1,92.15,136.18Z"/><path class="cls-12" d="M111,197.53c3.56-5.5,8.7-7.5,13-5.16-1.12,2.49-2.84,5.16-4.53,5.75C117.2,198.91,114.07,198.54,111,197.53Z"/><path class="cls-7" d="M110.12,219.87c1,.5,1.9.94,2.44,1.23,0,0,2.55,5.06,3.47,6,2.15,2.24,4.59-2.15,3.45-8.3h0c2.66-1,5.45-1.75,6.88-.85a6.14,6.14,0,0,1,2.14,2.63h0s-4.29,1.85-5.3,4.42c-.27.69,1.07.84,2.6.8l0,1.85-.3,0c-1.16.27,3.12,2.83,3.91,3.3a9.08,9.08,0,0,1-1.62,3.74l0,0a4,4,0,0,1-1.4,1.13c-2.41,1.11-8.7-2.82-11.2-4.55a1.15,1.15,0,0,0-1.64.33c-.43.69-1.06,1.66-1.79,2.67a11.7,11.7,0,0,0,.58-10.76A17.45,17.45,0,0,0,110.12,219.87Z"/><path class="cls-4" d="M110.12,229.22c-4.29-2.28-13-2.11-13-2.11l-.35.12a23,23,0,0,1-1.09-4.78c1.18.16,15.19,2.14,14.66,1.3l2-.16a11.7,11.7,0,0,1-.58,10.76c-1.79,2.49-4.19,5.27-5.85,5a8,8,0,0,1-4.16-2.91S112.55,230.51,110.12,229.22Z"/><path class="cls-3" d="M84.05,142.14q-.12-2.23-.29-4.53s-.55-3.89-1.24-5c-.54-.84-2.63-1.62-3.11-2.49-.6-1.1-.58-3.66-.41-5.87h.41q5.52-.33,10.8-.55c-.46,2.26-1,5.29-1.32,8.6a48.74,48.74,0,0,0,.21,13.43c1.43,7.61-2.5,23.2-1.92,30.92,1.3,17.34,20.68,27.1,22.23,23.7a21.28,21.28,0,0,1,1.57-2.87c3.09,1,6.22,1.39,8.5.59,1.69-.59,3.4-3.26,4.53-5.75a9.63,9.63,0,0,1,1.74,1.22c1.65,1.45,2.91-3.83,3-8.18,0,0,10.31,5.56,11.48,7.45s-.18,6.88-2.84,11.68a24.22,24.22,0,0,1-5.85,7.26,19.23,19.23,0,0,1-4.08,2.4,27.11,27.11,0,0,1-2.79,1c-5.78,1.8-12.57,1.92-16.88,0-5.39-2.43-20.91-12.73-25.25-36.61-.13-.72-.25-1.45-.36-2.19a38.86,38.86,0,0,1,0-4.34c.37-1.46.7-3,1-4.63C84.37,160.35,84.58,151.79,84.05,142.14Z"/><path class="cls-4" d="M117.43,225c1.17-.54-.54-5.13-.54-5.13.81-.35,1.69-.73,2.59-1.06,1.13,6.16-1.3,10.54-3.45,8.3-.92-1-3.47-6-3.47-6a1.54,1.54,0,0,0,1.25.08Z"/><path class="cls-4" d="M125.83,227.66a13.08,13.08,0,0,1,4,.71h0a17.12,17.12,0,0,1-.35,2.64c-.79-.46-5.07-3-3.91-3.3Z"/><path class="cls-4" d="M119.21,239.25c3.87-1.12,4.67,4.6,2,5.35C117.78,245.53,115.79,240.23,119.21,239.25Z"/><path class="cls-3" d="M90.65,132.44c.21-2.17,2.71-3.77,6-4.5-.36,1.54-.77,3.35-1.16,5.17a16,16,0,0,0-3.39,3.08,9.79,9.79,0,0,1-1-1.67A3.75,3.75,0,0,1,90.65,132.44Z"/><path class="cls-12" d="M130.28,128.45a5.44,5.44,0,0,1,3.06,5.48h0c-3.68-3-8.28-3.38-13.26-2.56.39-1.91,4.39-3.7,7.73-3.52A6.19,6.19,0,0,1,130.28,128.45Z"/><path class="cls-13" d="M121.17,244.6c2.72-.75,1.92-6.47-2-5.35C115.79,240.23,117.78,245.53,121.17,244.6Zm1.71,7.07c-3.42,1-1.43,6.28,2,5.35C127.56,256.26,126.76,250.54,122.88,251.66ZM93.09,228.6l1.07-.39c1.83,5.27,6.8,13,11.67,14.15,3.55.81,5.81-6.78,9.37-7.52,2.32-.49,7.49,4,9.74,3.29,1-.35,2.66-3,2.86-3.36l0,0a9.08,9.08,0,0,0,1.62-3.74,17.12,17.12,0,0,0,.35-2.64c0-.21,0-.43,0-.65a169.62,169.62,0,0,1,7.42,32.72c-1.56,5.37-5,8.19-9.74,8.92C113.54,271.5,102.23,253.87,93.09,228.6Z"/><path class="cls-7" d="M82.64,193.34c-15.57,2.69-26.25,16.92-23.3,24.61,10.27,26.76,8.55,35.92,23.2,49.84s40.77,17.45,55.76,13.07c13.36-3.9,22.54-20.68,22.54-20.68h.36c.13,10.63-.34,25.08-.34,25.08H35.05s-1.6-35.69,0-47.45c3.37-24.6,21.65-42.85,44.53-57.35C80.56,184.79,81.58,189.09,82.64,193.34Z"/><path class="cls-14" d="M124.69,149.37c4.08,6,5.68,14,4.45,24.36-5.65.82-12.41-.52-19.66-2.85l.48-2.28,0-.12,5.47-25.85a1,1,0,0,1,1.45-.61A25.73,25.73,0,0,1,124.69,149.37Z"/><path class="cls-13" d="M96.73,217.09s-4.74.89-3.15,9a15.36,15.36,0,0,0,.58,2.1l-1.07.39a363.93,363.93,0,0,1-10.45-35.26c-1.06-4.25-2.08-8.55-3.06-12.88,1-.63,2-1.24,3-1.86,4.33,23.88,19.85,34.18,25.25,36.61,4.31,1.94,11.11,1.83,16.88,0l1.66,2.72c-1.43-.9-4.21-.16-6.88.85h0c-.9.33-1.78.71-2.59,1.06-1.28.55-2.38,1.05-3.08,1.31a1.54,1.54,0,0,1-1.25-.08c-.54-.29-1.39-.73-2.44-1.23C105.92,217.85,98.68,214.85,96.73,217.09Z"/><path class="cls-6" d="M92.58,176.6c-.14-.52-.26-1-.35-1.51A10.12,10.12,0,0,1,97,173l.22,1.34a9.34,9.34,0,0,0-2.58.82c8,9.64,16.61,12.08,26.19,7.45l.59,1.22a22.35,22.35,0,0,1-9.74,2.44c-6.45,0-12.48-3.47-18.22-10.42A7,7,0,0,0,92.58,176.6Z"/><path class="cls-4" d="M132.82,13c.65.5,1.29,1,1.12,1.75l-6.33,98.21,4.29.51q-3.4-.23-6.75-.43v-.23L131,12.05A6.84,6.84,0,0,1,132.82,13Z"/><path class="cls-7" d="M88.33,11.75a78.56,78.56,0,0,1,15.18-1.89l.16,102.25v0c-5.34-.09-10.47,0-15.33.14V11.75Z"/><path class="cls-7" d="M91,120.14q-5.81.15-11.6.39s-15.89,1.07-21.33,1.07c-1.75,0-2.88-2.32-3.15-4.26l.22,0c37.15-3.12,72.8-3.15,105.69,2.51h0V120a2.05,2.05,0,0,1-2.19,2l-31.06-2.2Q109.21,119.65,91,120.14Z"/><path class="cls-3" d="M120.08,131.37c5-.82,9.57-.48,13.26,2.56h0c-.31,1.94-2,3.16-4.92,1.4-.25-.15-.5-.29-.74-.41h0c-3.61-1.83-6.6-.76-7.49-2.6A1.46,1.46,0,0,1,120.08,131.37Z"/><path class="cls-7" d="M129.81,227.72c0,.22,0,.43,0,.65h0a13.08,13.08,0,0,0-4-.71l0-1.85a36.57,36.57,0,0,0,3.76-.33h.17A20.92,20.92,0,0,1,129.81,227.72Z"/><path class="cls-5" d="M96.7,127.93c-3.34.73-5.84,2.33-6,4.5l-1.76-.08c.34-3.32.86-6.35,1.32-8.6q3.87-.16,7.58-.26S97.31,125.35,96.7,127.93Z"/></svg>