<svg id="Layer_1" data-name="Layer 1" xmlns="http://www.w3.org/2000/svg" viewBox="0 0 470.16 440"><defs><style>.cls-1{fill:#fff;}.cls-2{fill:#e29074;}.cls-3{fill:#442318;}.cls-4{fill:#2a4277;}.cls-5{fill:#cc8f7a;}.cls-6{fill:#aa593d;}.cls-7{fill:#10213a;}.cls-8{fill:#301710;}.cls-9{fill:#aa6d5c;}.cls-10{fill:#f2b78b;}.cls-11{fill:#cebf97;}.cls-12{fill:#663a28;}.cls-13{fill:#f4e8c3;}.cls-14{fill:#d88361;}</style></defs><title>abe_back_final</title><path class="cls-1" d="M236,221.48a9.42,9.42,0,0,1-7.54-3.55,11.1,11.1,0,0,1-2.3-6.89c0-5.84,4-10.24,9.3-10.24s9.24,4.09,9.24,10C244.67,216,241.41,221.48,236,221.48Zm-.54-12.07c-.41,0-.68,1-.68,1.62a2.56,2.56,0,0,0,.43,1.53.63.63,0,0,0,.36.24,4.15,4.15,0,0,0,.51-2.06,2.33,2.33,0,0,0-.29-1.32h0A2.56,2.56,0,0,0,235.43,209.41Z"/><path class="cls-1" d="M235.43,204.82c-3.46,0-5.27,3.12-5.27,6.21a7.06,7.06,0,0,0,1.42,4.39,5.39,5.39,0,0,0,4.39,2c2.89,0,4.67-3.48,4.67-6.7C240.64,208,239.27,204.82,235.43,204.82Zm3.5,10.16a3.57,3.57,0,0,1-3,1.9,4.85,4.85,0,0,1-3.95-1.82,6.49,6.49,0,0,1-1.3-4c0-2.81,1.62-5.65,4.71-5.65,3.43,0,4.65,2.77,4.65,5.37A8.15,8.15,0,0,1,238.93,215Z"/><path class="cls-1" d="M128.17,436.53a4.3,4.3,0,0,1-4.31-4.12c-.25-5.73-2.38-56.27,0-73.92,4.78-34.93,28.6-65.33,72.8-92.86l-.09-.61a37.34,37.34,0,0,1-.13-5.25c-4.18-3.32-14.18-12.12-18.32-23.32-5.11-13.83-4.94-27.43.46-35.48a12.33,12.33,0,0,1,8-5.34,15.41,15.41,0,0,1,2.95-.28,19.69,19.69,0,0,1,3.5.33,5.85,5.85,0,0,1-.33-.54c-1.45-2.65-1.51-7.54-1.11-12.27-7.84.49-21.9,1.32-28,1.32-5.53,0-8.89-5.83-9.25-11.31-.35-5.27,2.49-7.53,5-7.86,7.17-.94,28.68-2.46,37.54-3.06L194.51,18.72c-.07-4.18,2.94-6.48,4.74-7.86l.55-.42c6.05-4.75,20.75-6.46,32.43-7a4.23,4.23,0,0,1,2.61-.11c2.21-.08,4.43-.13,6.62-.15H243c7.24,0,31.41.42,38.52,5.89l.11.09c1.06.81,3.86,3,3.26,6.59l-9.47,147.06L319.87,168a7.48,7.48,0,0,1,6.59,7.42v2.06A7.48,7.48,0,0,1,319,185l-.61,0-42.47-3c0,1.44,0,2.89-.09,4.18a11.74,11.74,0,0,1,1.1.49,13,13,0,0,1,7.14,11,8.74,8.74,0,0,1-4.09,8.05,7.88,7.88,0,0,1-4,1.05h-.39c-.39,5.51-2.27,10.88-4.38,15.74,6,10,8.11,22.93,6.28,38.37a9.41,9.41,0,0,1-6.52,7.87,13.89,13.89,0,0,0,1.13,2.25c.37.59,1.89,2.39,3.25,3.94,10.82,5.87,17.09,10.13,18.65,12.64,2.77,4.47.41,12.85-2.85,19.62,21.58,24.47,32.81,47.73,35.27,73,1.22,12.52.15,48.2,0,52.23a4.3,4.3,0,0,1-4.31,4.19ZM318,427.91c.13-4.67.32-12.73.4-21.11-.81,1-1.68,2.12-2.61,3.22-5.16,6.09-13,13.74-22.62,17.89Zm-83.84,0c-14.2-4.15-26.65-10.92-35.7-19.51-16.51-15.67-20.42-28.33-26.33-47.48-2.67-8.65-5.7-18.45-10.49-30.93-2.07-5.38-1-12.15,2.88-19.06,4.88-8.59,16-19.48,31.81-23.68q-1.15-4.71-2.29-9.62c-37.25,24.81-57.41,51.68-61.56,82-1.75,12.77-1,47.23-.14,68.25Zm-35.75-132.3c-13.21,3.52-22.38,12.5-26.4,19.58-2.59,4.56-3.44,8.83-2.33,11.72,4.89,12.73,8,22.67,10.67,31.45,5.92,19.15,9.17,29.69,24,43.81,9.8,9.31,24.26,16.26,40.72,19.59a105.56,105.56,0,0,0,20.84,2.13,73.63,73.63,0,0,0,20.23-2.58c9.61-2.81,17.82-10.71,23-16.84a90,90,0,0,0,9.16-13c-.08-4.65-.24-8.19-.47-10.56-2.21-22.66-12.19-43.74-31.31-66a36.67,36.67,0,0,1-6.92,7.41,29.45,29.45,0,0,1-3.43,2.31c15.27,36.57,19.06,62.23,11.26,76.29a21.47,21.47,0,0,1-16.13,11,27.31,27.31,0,0,1-4.13.32c-15.88,0-30.62-14.17-43.82-42.11C214.55,351.45,206.36,327,198.37,295.61Zm33.83,73c11.33,23.26,23.11,35,35,35a18.63,18.63,0,0,0,2.81-.22,12.81,12.81,0,0,0,9.91-6.68,18.6,18.6,0,0,0,1.37-3.19,267.56,267.56,0,0,0-7.16-35.8c-2.08,3.26-4.11,5.23-6,5.86a7.13,7.13,0,0,1-2.24.35c-2.85,0-5.76-1.53-8.85-3.14a27.37,27.37,0,0,0-4.57-2.09c-1,.45-2.92,2.94-4,4.31-2.52,3.3-5.66,7.41-10.39,7.41a8,8,0,0,1-1.76-.2A15.18,15.18,0,0,1,232.2,368.61ZM257,347.4c4,2.52,8.41,4.69,10.34,4.72a2.53,2.53,0,0,0,.49-.48,5.93,5.93,0,0,0,.72-1.16c-3.4-2.2-5.28-4-5.48-6.25a5.61,5.61,0,0,1-1.73-1,8.59,8.59,0,0,1-3.64,3.9A6.68,6.68,0,0,1,257,347.4Zm-27.21-.33a40.37,40.37,0,0,0,2.41,4.18c1.88-1.13,3.57-2.23,4.94-3.19A55.06,55.06,0,0,0,229.78,347.07Zm33.29-13.67q.52-.5,1.07-1c-.33.08-.7.17-1.1.29Q263.06,333.06,263.07,333.4Zm-55-34.57q4,15.32,8.1,28.3a10.94,10.94,0,0,1,4.89-3.85,9.35,9.35,0,0,1,5.77-1.68q.6,0,1.23,0A78.08,78.08,0,0,1,208.1,298.83Zm2.71-13.91c10.29,25.16,28.78,34.23,31.31,35.37a25.34,25.34,0,0,0,10.17,1.8c8.2,0,17-2.62,22-6.52,8.28-6.51,12.89-20.42,12.33-23.57-1.06-1-4.74-3.51-10.33-6.74-.74,4.25-2.25,8.54-5.33,9.88a5.3,5.3,0,0,1-4.09.07c-1.84,3-4.24,5.72-7.13,6.73a17.57,17.57,0,0,1-5.78.9,29.36,29.36,0,0,1-6.67-.83q-.29.58-.56,1.17c-.49,1.07-2.07,3.56-6.18,3.56a12.73,12.73,0,0,1-2.22-.21C230.82,305.18,218.44,297.29,210.81,284.92Zm42.57,9.28H254a9.1,9.1,0,0,0,3-.42,6.56,6.56,0,0,0,1.86-1.93,8.18,8.18,0,0,0-.9.14A11.27,11.27,0,0,0,253.38,294.2ZM227.6,278.06a36.16,36.16,0,0,0,11.83,11.62,39,39,0,0,0,4.24,2.09c3.54-4.35,7.85-7.22,12.39-8.19a16.53,16.53,0,0,1,3.47-.37,15.86,15.86,0,0,1,3.24.33c.05-.19.1-.37.13-.53.28-1.26.5-2.43.67-3.47l-.4.22a38.77,38.77,0,0,1-16.84,4.17A33.42,33.42,0,0,1,227.6,278.06Zm-13.81-7.77a41,41,0,0,0,11.9,19.25,57.68,57.68,0,0,1-11.52-19.12ZM227.31,264c6.24,6.14,12.53,9.13,19.14,9.13a22.51,22.51,0,0,0,2.32-.12,45.79,45.79,0,0,1-10.34-5.81,8.34,8.34,0,0,1-1,.06c-4,0-7.28-2.75-9.1-6.15a4.34,4.34,0,0,1-.8,2.58Zm20.63-11.09c7.87,2.3,14.38,3.42,19.79,3.42q.79,0,1.55,0c1.38-17.59-3.26-30.65-13.82-38.91Zm-24.25,1.91a4.3,4.3,0,0,1,3,1.26c0-.07,0-.14,0-.21-.39-4.74,2-9.81,8.62-11.15a12.91,12.91,0,0,1,2.58-.27,11.19,11.19,0,0,1,2.89.37l7.06-33.39a5.8,5.8,0,0,1,8.74-3.71,45.44,45.44,0,0,1,8.46,6.73,28.45,28.45,0,0,0,1.92-11,23.18,23.18,0,0,0-3.61-.73c-2.6-.37-6.15-.88-7.87-4.45-1.34-2.77-.65-5.89,1.86-8.34a14.43,14.43,0,0,1,3.54-2.47c-5.66-.36-11.86-.55-18.72-.59a25.45,25.45,0,0,1,6.39,3.55,5.28,5.28,0,0,1-2.16,9.35l-1.17.23c-3.14.63-7,1.41-10.51,2.31a18.76,18.76,0,0,0-4.86,2.72,26.46,26.46,0,0,1-6.11,3.43c-.19,1.39-.26,2.28-.28,2.83a51.16,51.16,0,0,0,1.08,8.32,54.73,54.73,0,0,1,1.21,10c-.11,3.73-1.37,8.77-2.69,14.09-1,4-2.05,8.24-2.56,11.74a22.62,22.62,0,0,1,2.33-.53l.34-.07Zm12-1a5.37,5.37,0,0,0,1.27.17,4.05,4.05,0,0,0,2.11-.59v-.07a2,2,0,0,0-1-.23,4.66,4.66,0,0,0-.91.1A2.74,2.74,0,0,0,235.67,253.8ZM216.27,222c.15,5.78-.63,12.72-1.5,19.64,1.16-4.66,2.35-9.45,2.43-12.25A45.74,45.74,0,0,0,216.27,222Zm-26-10.71c-1,3-.57,9.53,2.44,17.6a51.77,51.77,0,0,0,6.5,12.33,201,201,0,0,0,.31-27c-3-1.56-6.52-3-8.69-3A3,3,0,0,0,190.28,211.25Zm24.66-4.07q0,1.25.06,2.48c.06-.67.14-1.42.25-2.25Zm-14.65-16.41c.3.21.73.48,1,.67A11,11,0,0,1,205,194.6a15.82,15.82,0,0,1,1.64,4.46c.3-3.94.81-7.78,1.39-11.29-2.59.13-5.24.26-7.92.41A13.63,13.63,0,0,0,200.29,190.77Zm38-29.67c7.65.18,15.82.51,24.76,1l8.53-147.93c-6.34-1.48-17-2.4-28.59-2.4-1.65,0-3.3,0-4.94.06Zm-32.65.34.38,0V16.64a6.41,6.41,0,0,0-.89.57l-.54.42a14.78,14.78,0,0,0-1.44,1.19Zm9-.35c3.61-.09,7.37-.14,11.22-.14l3.81,0-.24-148.76A120.42,120.42,0,0,0,214.62,14Z"/><path class="cls-1" d="M322.43,380.49c-2.44-25.08-13.92-48.2-36.11-72.76,4.08-7.45,6-15.4,4.28-18.12-1.8-2.9-16.67-11-17.77-11.56-.34-.38-3.3-3.71-4.11-5a22.11,22.11,0,0,1-2.85-7.94h.1q1.19,0,2.35-.05a5.43,5.43,0,0,0,5.19-4.77c1.84-15.54-.47-28.1-6.84-37.56,3-6.66,5.93-14.43,4.68-21.8.21.12.42.22.63.35a7.84,7.84,0,0,0,4,1.35,3.89,3.89,0,0,0,2-.51,4.8,4.8,0,0,0,2.08-4.46,8.88,8.88,0,0,0-4.94-7.49,9.62,9.62,0,0,0-3.63-.93c.18-1.42,1-8.21-.21-11.7l47.46,3.37a3.44,3.44,0,0,0,3.69-3.44v-2.06a3.44,3.44,0,0,0-3-3.42l-48.23-5.72,9.73-151.11c.3-1.36-.73-2.15-1.73-2.91l-.1-.08C274.49,8.69,257.92,7.15,243,7.15H241.5c-2.45,0-5,.08-7.53.19a.25.25,0,0,0-.5,0c-13,.59-26.34,2.44-31.19,6.24l-.58.45c-1.57,1.2-3.2,2.44-3.16,4.59l2.57,147.1C198,166,168.55,167.91,160,169c-1.1.14-1.67,1.49-1.53,3.6.2,3,2,7.54,5.2,7.54h0c7.78,0,29.52-1.43,32.53-1.63-.29,2-1.57,11.65.08,14.67a7.62,7.62,0,0,0,2.56,2.1,8,8,0,0,1,2.24,1.74c.82,1.28,1.53,5.37,1.78,6.93-2-1.28-9.45-5.59-15.46-4.41a8.27,8.27,0,0,0-5.46,3.63c-4.62,6.89-4.63,19.39,0,31.84s17.23,21.76,18.64,22.77a55.08,55.08,0,0,0,0,6.6c.16,1.09.35,2.14.53,3.2-44.59,27.23-68.54,57.13-73.23,91.4-2.45,17.94,0,72.65,0,73.2a.28.28,0,0,0,.28.27h194a.28.28,0,0,0,.28-.27C322.44,431.84,323.67,393.23,322.43,380.49Zm-.56.05c.3,3.09.45,7.7.52,12.92a.28.28,0,0,0-.13-.17.28.28,0,0,0-.38.11,92.83,92.83,0,0,1-9.63,13.64c-5.55,6.56-14.4,15-25,18.11-11.86,3.47-27.54,3.66-43,.53-17.19-3.48-32.35-10.8-42.69-20.62-15.64-14.85-19.2-26.39-25.11-45.51-2.7-8.72-5.75-18.61-10.59-31.23-1.57-4.08-.65-9.46,2.59-15.15,4.83-8.5,16.32-19.42,32.85-22.36,8.21,33,16.67,58.48,25.7,77.62,12.48,26.44,26,39.8,40.17,39.8a23.16,23.16,0,0,0,3.51-.27,17.36,17.36,0,0,0,13.22-9c7.3-13.17,2.84-39.53-12.91-76.22a29.16,29.16,0,0,0,6.11-3.6,37.32,37.32,0,0,0,8.9-10.92C308.05,332.66,319.45,355.64,321.87,380.55Zm-78.17-48.94c5.62,7.3,6.46,14.69,2.5,22h0c-3.67,5.11-6.81,7.86-8.72,7.5s-4.07-1.93-6-4.14c2.33-1.29,13.28-7.49,13.26-10.34a1.16,1.16,0,0,0-.7-1c-6.59-3.51-19.62-3.3-20.17-3.28a.28.28,0,0,0-.27.29.27.27,0,0,0,.29.27c.14,0,13.43-.22,19.9,3.22.36.19.4.41.4.56,0,2.22-9.24,7.79-13.07,9.9a44.46,44.46,0,0,1-7.34-13.37,36.23,36.23,0,0,1-1.81-7.45c1.46.21,6.12.85,10.77,1.4a100.3,100.3,0,0,0,10,.87c1.62,0,1.7-.23,1.76-.42.12-.36-.33-.6-.5-.69-6-3.2-19.71-5.32-22.11-5.68a7.35,7.35,0,0,1,1.55-3.89,4.35,4.35,0,0,1,3.39-1.12C230.88,326.17,237.37,328.56,243.71,331.61Zm-21.85.13c2.43.36,16,2.46,21.91,5.61l0,0c-2,.35-14.12-1.14-21.91-2.25A18.19,18.19,0,0,1,221.85,331.74Zm-.49-.56a.25.25,0,0,0,0,.41,18.72,18.72,0,0,0,0,3.55.28.28,0,0,0-.1.18.26.26,0,0,0,.14.26,36.16,36.16,0,0,0,1.85,7.75c2.89,8.33,8.69,17.3,14.16,18.32a2.45,2.45,0,0,0,.45,0c3.6,0,8.77-7.39,11.6-11.93a1.5,1.5,0,0,1,2.13-.44c2.18,1.52,13.28,9,17.54,7a5.49,5.49,0,0,0,.66-.37c-1,1.41-2.25,3-3.12,3.29-1.67.56-4.65-1-7.52-2.5s-5.64-3-7.47-2.57c-2.62.55-4.77,3.36-6.84,6.08-2.42,3.16-4.7,6.15-7.48,5.52-8.5-1.93-17.19-17.27-18.67-24.83-.94-4.8-.56-8.49,1.12-11a6.49,6.49,0,0,1,2.71-2.33A8.81,8.81,0,0,0,221.37,331.18Zm49.58,23h0a5.91,5.91,0,0,1-2.07,1.68c-4.06,1.88-15.67-6.08-17-7a2.06,2.06,0,0,0-2.93.6q-.47.75-.93,1.45c2.32-6.25,1.22-12.55-3.26-18.78.9.45,1.79.9,2.67,1.37.4.78,4,7.82,5.36,9.25a2.84,2.84,0,0,0,2,1,2.23,2.23,0,0,0,1-.26c2.35-1.21,4-6.59,2.79-13.56,3.95-1.48,8.09-2.55,10.14-1.27a9.22,9.22,0,0,1,3.05,3.69c-1.28.59-6.63,3.23-8,6.84a.83.83,0,0,0,.1.86c.46.58,2,.77,3.68.77a50.37,50.37,0,0,0,6.32-.52,30.6,30.6,0,0,1,0,3.8c-1.11-.35-4.54-1.33-6.35-.91a.59.59,0,0,0-.52.48c-.16,1.08,4.08,3.72,6.29,5A13.34,13.34,0,0,1,270.95,354.18Zm-16.77-22.4c1,2.67,1.83,6.36,1,7.16l-5.14-5.4c.77-.3,1.74-.73,2.86-1.22Zm-4.68,2L255,339.5a.28.28,0,0,0,.2.09l.12,0c1.84-.85,0-6.37-.6-8,1.07-.46,2.23-.95,3.41-1.4,1.13,6.57-.4,11.77-2.51,12.86a2,2,0,0,1-2.38-.63c-1.14-1.19-4-6.74-5-8.59A2.66,2.66,0,0,0,249.5,333.74Zm24.34,6h0c-3.28.48-8.75.89-9.49,0a.28.28,0,0,1,0-.31c1.32-3.37,6.55-6,7.76-6.53A21.51,21.51,0,0,1,273.84,339.77Zm-6.23,4a.25.25,0,0,1,.1,0c1.73-.4,5.31.66,6.2.94a26.23,26.23,0,0,1-.44,3.42C270.54,346.38,267.6,344.31,267.62,343.8Zm4.87-11.4h0a9.69,9.69,0,0,0-3.34-4.14l-2.36-3.87c1.29-.41,2.54-.87,3.74-1.38,13.49,31.45,18.68,55.22,15.25,69.53a258.17,258.17,0,0,0-11.24-49.08A26,26,0,0,0,272.48,332.39Zm-3.73-58.32c1.12,1.49,3.19,3.82,3.62,4.3-.18,6.13-1.66,11.86-3.23,12.55-.2.09-.51.16-1-.24a15.13,15.13,0,0,0-2.5-1.79,27.24,27.24,0,0,0,1.72-4.89A55.25,55.25,0,0,0,268.75,274.08Zm-2.41-4.76h-.06c-7.72,2.92-16.8.62-26.26-6.65a7.07,7.07,0,0,0,3.41-2.89,5,5,0,0,0,2.64,2,66.55,66.55,0,0,0,19.23,3.36A23.55,23.55,0,0,0,266.34,269.32Zm-34.93-13.17c-.61-3.59,1.22-6.18,4.88-6.92,3.19-.65,5.74.47,7,3.06,0,0,0,0,.07.06l-.71,3.38c-3.26,2.78-6.92,3-11.2.7C231.45,256.34,231.43,256.24,231.41,256.15Zm11.15.38a5.09,5.09,0,0,0,.55,2.71,6.75,6.75,0,0,1-5.15,3.4c-2.84.38-5.4-2.42-6.31-5.47C235.72,259.2,239.38,259,242.56,256.53Zm25.73,8a63.19,63.19,0,0,1-22-3.29,4.48,4.48,0,0,1-2.55-2v0a4.56,4.56,0,0,1-.53-2.91c9.9,3.15,17.88,4.69,24.59,4.69a38.38,38.38,0,0,0,5.13-.34A4.86,4.86,0,0,1,268.29,264.52ZM273,260c-7.67,1.06-17.13-.31-29.73-4.34l.69-3.27,8.47-40a1.18,1.18,0,0,1,.7-.85,1.2,1.2,0,0,1,1.13.09C269.31,221,275.61,237.29,273,260Zm4.73-58.37c-1.34.78-3.27.48-5.44-.84a19.93,19.93,0,0,0-8.19-2.62c-2.16-.31-3.72-.53-4.39-1.91a2,2,0,0,1-.18-1.09c8.65-1.39,15-.18,19.89,3.82A3.77,3.77,0,0,1,277.7,201.66Zm1.8-4a6.42,6.42,0,0,1,0,.68c-5-3.9-11.3-5.1-19.84-3.76a4.16,4.16,0,0,1,1-1.38c2.89-2.84,10.18-4.6,14.25-2.53A8.32,8.32,0,0,1,279.5,197.71Zm-19.27-4.87c-1.24,1.22-1.62,2.53-1,3.71.79,1.64,2.57,1.9,4.81,2.22a20.87,20.87,0,0,1,6.73,1.86c1.4,7.23-1.4,14.93-4.42,21.57a39.77,39.77,0,0,0-11.78-11,1.78,1.78,0,0,0-1.64-.13,1.73,1.73,0,0,0-1,1.25l-8.31,39.3c-1.46-2.46-4.16-3.56-7.36-2.9-4.71,1-5.84,4.54-5.32,7.57v.06s-.07,0-.1.08a.28.28,0,0,0,.11.38l.09,0c.78,3.26,3.43,6.43,6.47,6.43a4.48,4.48,0,0,0,.59,0,8.36,8.36,0,0,0,1.39-.32s0,.06,0,.08c7,5.4,13.74,8.15,20,8.15a19.74,19.74,0,0,0,7-1.27l0,0a19.2,19.2,0,0,0,1.69,3.49,50.5,50.5,0,0,1-1.37,10.58,27,27,0,0,1-1.66,4.76,12.12,12.12,0,0,0-8.27-1.12c-4.42.95-8.56,4.19-11.79,9.1a43.38,43.38,0,0,1-7.69-3.43c-11.17-6.39-17.84-19.5-20.25-28.38a12.67,12.67,0,0,1,1-.88c8.92,10.74,18.13,16,28.14,16a34.87,34.87,0,0,0,15.14-3.79.28.28,0,0,0,.13-.37l-.91-1.89a.28.28,0,0,0-.37-.13c-14.55,7-27.57,3.39-39.8-11.14a14.72,14.72,0,0,1,3.58-1.08.28.28,0,0,0,.23-.32L224,259.1a.28.28,0,0,0-.11-.18.27.27,0,0,0-.21,0,15.93,15.93,0,0,0-7.13,3c0-.22-.09-.46-.13-.68-.68-4.33,1.1-11.51,2.83-18.45,1.27-5.12,2.48-9.95,2.58-13.25a52.62,52.62,0,0,0-1.15-9.14,51.65,51.65,0,0,1-1.14-9.17,51,51,0,0,1,.76-6.13h.19c2.34,0,4.71-1.62,7.19-3.31a21.13,21.13,0,0,1,6.14-3.3c3.68-.94,7.58-1.72,10.7-2.36l1.16-.23a1.22,1.22,0,0,0,1-.93,1.26,1.26,0,0,0-.46-1.3c-6-4.67-15.37-5.83-22.55-4.37.75-3.15,1.34-5.52,1.51-6.19,19.08-.51,34.1-.09,46.21,1.27-.08,2.28-.31,4.28-.39,4.91C267,189.11,262.45,190.65,260.23,192.83Zm4.72,96.31c-1.72,3.72-4.26,7.6-6.71,8.45-3.42,1.19-8,.63-12.57-.81,3.14-4.72,7.12-7.82,11.36-8.73A11.59,11.59,0,0,1,264.95,289.15Zm-53.17-72c-2.1-11.19.06-25.55,1.67-33.64q5.76-.24,11.08-.39c-.22.86-.81,3.24-1.54,6.31a17,17,0,0,0-7,3.1c-2.48,2-3.08,4.68-1.68,7.42s3.07,4.51,4.92,5a4.58,4.58,0,0,0,.45.09,51.35,51.35,0,0,0-.77,6.17,52,52,0,0,0,1.15,9.29,52.44,52.44,0,0,1,1.14,9c-.1,3.24-1.29,8-2.56,13.13-1.74,7-3.54,14.23-2.84,18.67,0,.31.12.66.19,1a16,16,0,0,0-2.49,2.59.28.28,0,0,0,.05.39l1.66,1.27a.28.28,0,0,0,.39-.05,13.6,13.6,0,0,1,1.09-1.24c2.51,9,9.24,22,20.43,28.43a43.81,43.81,0,0,0,7.66,3.42,34.81,34.81,0,0,0-2.25,4.18c-.36.8-1.58,1.06-3.42.73-9.47-1.69-28.76-16.33-30.32-37.17-.4-5.29.58-12.92,1.61-21C211.69,233.91,213,223.65,211.78,217.12Zm33.77-21.82-1.16.23c-3.14.63-7,1.42-10.73,2.36a21.49,21.49,0,0,0-6.32,3.38c-2.44,1.67-4.76,3.25-7,3.21.37-2.12.83-4.43,1.32-6.74,5.65-3.82,13-5.43,22.31-4.88a16.3,16.3,0,0,1,1.81,1.19.71.71,0,0,1,.26.73A.66.66,0,0,1,245.54,195.3Zm-25.73,9.12a4,4,0,0,1-.42-.06,5.57,5.57,0,0,1-2.83-2,25.28,25.28,0,0,1,4.45-4.14C220.57,200.35,220.15,202.47,219.81,204.42Zm2-7.39c.55-2.54,1.12-5,1.63-7.22a28.32,28.32,0,0,1,5.66-.55,32,32,0,0,1,13.73,3C234.33,191.94,227.3,193.54,221.84,197Zm-.66.42a25.27,25.27,0,0,0-5,4.48,15.58,15.58,0,0,1-1.38-2.26c-1.61-3.18-.05-5.42,1.54-6.74a15.8,15.8,0,0,1,6.49-3C222.33,192.22,221.74,194.82,221.18,197.45Zm-1.33,65.19c12.42,14.91,25.66,18.73,40.46,11.69l.67,1.38a34.16,34.16,0,0,1-14.64,3.61c-9.89,0-19-5.22-27.88-16a.28.28,0,0,0-.38,0,13.14,13.14,0,0,0-1.06.88q-.23-.88-.39-1.7a15.21,15.21,0,0,1,6.83-3l.26,1.51a15,15,0,0,0-3.78,1.23.28.28,0,0,0-.15.19A.28.28,0,0,0,219.85,262.64Zm-3.3,2a14,14,0,0,0-1.19,1.3l-1.22-.93a15.47,15.47,0,0,1,2-2.09C216.25,263.44,216.39,264,216.55,264.61Zm54.79-80.83c-14.47-1.62-33.09-1.91-57.78-.86.47-2.33.89-4.08,1.11-5,18.45-.5,37.22-.63,56-.38A18.41,18.41,0,0,1,271.34,183.78Zm7.49-171.05c.94.72,1.74,1.34,1.51,2.39l-9.75,151.42s0,0,0,.07l-3.26-.2s0,0,0-.08L276.32,11.4a9.84,9.84,0,0,1,2.41,1.25Zm-3.05-1.53-8.94,155.09s0,.06,0,.08c-12-.71-22.77-1.15-32.61-1.31L234,7.94C250.27,7.26,268,8.47,275.77,11.19ZM233.69,165c-8.34-.13-16-.06-23.1.21V10.77c6-1.51,14.2-2.42,22.85-2.8ZM199.09,18.64c0-1.86,1.41-3,2.94-4.13l.59-.46A21.32,21.32,0,0,1,210,10.91V165.27h0q-4.31.17-8.37.43Zm-39,151c9-1.18,41-3.29,41.34-3.31,19.76-1.32,43.92-.9,76.05,1.32h0l41.86,5a2.89,2.89,0,0,1,2.54,2.86v1.39c-46.11-7.89-99.34-9.14-162.72-3.82,0,0-.05,0-.08,0,0-.15,0-.29,0-.44C158.92,170.88,159.33,169.69,160.08,169.6Zm3.63,10h0c-2.45,0-4.08-3.28-4.53-6.08,0,0,0,0,.06,0,63.38-5.32,116.59-4.06,162.67,3.83v.11a2.88,2.88,0,0,1-3.09,2.88L270.89,177h0c-18.81-.25-37.6-.12-56.07.38l0-.15a.28.28,0,1,0-.54-.14l-.08.31q-8.89.25-17.68.6h0C196.3,178,172,179.63,163.7,179.63Zm18.77,55.24c-4.54-12.29-4.56-24.59,0-31.33a7.73,7.73,0,0,1,5.1-3.39c6.25-1.21,14.41,3.91,15.45,4.59.16,2.16.29,4.26.41,6.32-2-1.18-10.24-5.73-14.8-4.1a4.21,4.21,0,0,0-2.65,2.73c-3.27,9.43,4.65,32.56,16.11,41q-.59,3.44-1.36,6.54C198.58,255.67,186.83,246.65,182.47,234.87Zm19.7,15.2c-11.18-8.46-18.88-31-15.69-40.19a3.62,3.62,0,0,1,2.31-2.38c4.55-1.63,13.47,3.54,14.65,4.24C204.27,227.1,203.85,239.76,202.17,250.07Zm-1,7.67c3-11.56,3.9-26.74,2.84-46.22h0c-.12-2.26-.27-4.57-.44-6.95h0c0-.25-.87-6.08-2-7.77a8,8,0,0,0-2.41-1.92,7.38,7.38,0,0,1-2.36-1.9c-1.58-2.89-.23-12.82,0-14.43q8.58-.35,17.28-.59c-.24,1-.64,2.71-1.11,5-5.21.22-10.67.5-16.43.84a.28.28,0,0,0-.26.3.29.29,0,0,0,.3.26c5.71-.34,11.12-.61,16.29-.84-1.61,8.16-3.74,22.5-1.65,33.71,1.21,6.45-.1,16.67-1.36,26.54-1,8.1-2,15.76-1.61,21.11,1.58,21.11,21.16,36,30.78,37.68a8.6,8.6,0,0,0,1.51.15c1.59,0,2.25-.61,2.52-1.2a34.15,34.15,0,0,1,2.29-4.22A29,29,0,0,0,254,298.8a13.59,13.59,0,0,0,4.46-.67c2.57-.9,5.22-4.89,7-8.73a14.56,14.56,0,0,1,2.37,1.7,1.4,1.4,0,0,0,1.56.34c2.18-.95,3.36-7.84,3.55-12.7,2.45,1.34,15.61,8.6,17.21,11.17,2.53,4.07-3.9,21.4-13.33,28.82-9,7.06-26.62,9.6-36.32,5.23-3.35-1.51-32.9-16-39.32-59.61A58.15,58.15,0,0,1,201.15,257.73Zm39.09,66.73a29.87,29.87,0,0,0,12,2.19,48.7,48.7,0,0,0,14-2.11l2,3.27c-3.33-1.09-9.33,1.29-14,3.31h0l-1.53.67c-1.3.57-2.43,1.07-3.22,1.36a2.11,2.11,0,0,1-1.7-.12c-4.8-2.54-20.7-10.44-24.68-6.2a6.62,6.62,0,0,0-3.78,2.81c-1.77,2.62-2.18,6.46-1.21,11.42,1.5,7.69,10.39,23.29,19.1,25.27a3.92,3.92,0,0,0,.87.1c2.73,0,5-3,7.18-5.83,2-2.64,4.09-5.36,6.51-5.87,1.65-.35,4.41,1.11,7.1,2.52,3.11,1.63,6,3.17,8,2.54s4.48-5.15,4.6-5.35h0a14,14,0,0,0,2.44-5.51.28.28,0,0,0,.13-.52h0a26.2,26.2,0,0,0,.47-3.4,260.1,260.1,0,0,1,10.95,48.9,23.42,23.42,0,0,1-2,4.8,16.82,16.82,0,0,1-12.82,8.71c-15.22,2.33-29.7-10.86-43.1-39.22-9-19.15-17.5-44.71-25.72-77.75h0q-2.34-9.43-4.67-19.67,2-1.28,4.09-2.55C208.8,309.17,237,323,240.24,324.47Zm81.64,107.47H128.44c-.18-4.18-2.35-55.59,0-72.83,4.49-32.85,26.82-61.68,68.19-88q2.26,10,4.55,19.19c-16.71,3-28.32,14-33.2,22.63-3.32,5.84-4.25,11.39-2.62,15.63,4.84,12.6,7.89,22.48,10.58,31.19,5.93,19.2,9.52,30.8,25.26,45.75,10.42,9.89,25.68,17.27,43,20.76a110.47,110.47,0,0,0,21.75,2.22,77.85,77.85,0,0,0,21.53-2.77c10.7-3.13,19.63-11.67,25.23-18.28a93.62,93.62,0,0,0,9.69-13.73.28.28,0,0,0,0-.21C322.57,408.79,322,429.34,321.88,431.94Z"/><path class="cls-1" d="M263.37,219.29c-5.33,0-8.51-5.11-8.51-10,0-5.2,3.58-9,8.51-9,4.66,0,8,4,8,9.51a11.06,11.06,0,0,1-1.61,5.89A7.55,7.55,0,0,1,263.37,219.29Z"/><path class="cls-1" d="M263.37,215.26a3.51,3.51,0,0,0,3-1.75,7,7,0,0,0,1-3.73c0-2.64-1.26-5.48-4-5.48-3.31,0-4.48,2.67-4.48,4.95C258.9,212.14,260.61,215.26,263.37,215.26Zm0-10.4c2.38,0,3.46,2.55,3.46,4.92a6.44,6.44,0,0,1-.89,3.43,3,3,0,0,1-2.57,1.5c-2.34,0-3.92-2.82-3.92-5.45C259.46,207.12,260.48,204.86,263.37,204.86Z"/><path class="cls-1" d="M259.72,374a9,9,0,0,1-8.5-6.73,7.93,7.93,0,0,1,5.51-10.14,9.71,9.71,0,0,1,2.68-.39A7.89,7.89,0,0,1,265,359a9.6,9.6,0,0,1,2.41,9,7.67,7.67,0,0,1-5.34,5.64A8.94,8.94,0,0,1,259.72,374Z"/><path class="cls-1" d="M259.72,370a4.87,4.87,0,0,0,1.3-.18,3.64,3.64,0,0,0,2.51-2.76,5.53,5.53,0,0,0-1.32-5.15,4.2,4.2,0,0,0-4.36-.88,4,4,0,0,0-2.75,5.18A5,5,0,0,0,259.72,370ZM258,361.54a5.06,5.06,0,0,1,1.4-.21,3.37,3.37,0,0,1,2.42,1,5,5,0,0,1,1.17,4.61,3.06,3.06,0,0,1-2.12,2.36,4.29,4.29,0,0,1-5.23-3.22A3.39,3.39,0,0,1,258,361.54Z"/><path class="cls-1" d="M265.38,393.14a9,9,0,0,1-8.5-6.73,7.93,7.93,0,0,1,5.51-10.14,9.71,9.71,0,0,1,2.68-.39,8,8,0,0,1,5.61,2.26,9.6,9.6,0,0,1,2.41,9,7.67,7.67,0,0,1-5.34,5.64A8.93,8.93,0,0,1,265.38,393.14Z"/><path class="cls-1" d="M260.76,385.32a5,5,0,0,0,4.62,3.79,4.88,4.88,0,0,0,1.3-.18,3.64,3.64,0,0,0,2.51-2.76,5.53,5.53,0,0,0-1.32-5.15,4.21,4.21,0,0,0-4.36-.88A4,4,0,0,0,260.76,385.32Zm6.72-3.89a5,5,0,0,1,1.16,4.61,3.06,3.06,0,0,1-2.11,2.36,4.29,4.29,0,0,1-5.23-3.22,3.39,3.39,0,0,1,2.37-4.49A3.72,3.72,0,0,1,267.48,381.43Z"/><path class="cls-2" d="M231.22,256.62c-.72-3.26.42-6.74,5-7.67,3.69-.75,6.16.85,7.32,3.21l.14,0,0,.18-.74,3.51C239.65,258.72,235.78,259.12,231.22,256.62Z"/><path class="cls-3" d="M220,204.76c.38-2.23.87-4.69,1.38-7.13,5.57-3.81,13-5.61,22.71-5h0a19,19,0,0,1,1.84,1.26,1,1,0,0,1-.38,1.73c-3.15.64-7.7,1.53-11.88,2.6C228.92,199.4,224.31,205.14,220,204.76Z"/><path class="cls-4" d="M221.61,331.41a7.71,7.71,0,0,1,1.64-4.31c3-3.45,14.18,1.18,20.65,4.29a26.91,26.91,0,0,1,3.46,5.73l-3.11.24a1,1,0,0,0-.35-.26C237.59,333.75,222.93,331.6,221.61,331.41Z"/><path class="cls-5" d="M213.21,183.21c.54-2.7,1-4.67,1.24-5.56q28-.77,56.43-.39a18.23,18.23,0,0,1,.73,6.8h-.23c-12.91-1.45-28.72-1.74-46.49-1.26Q219.18,183,213.21,183.21Z"/><path class="cls-6" d="M242.91,255.88c11.19,3.59,21.6,5.67,30.31,4.4a5.18,5.18,0,0,1-4.92,4.51c-.92,0-1.84.06-2.77.05a66.58,66.58,0,0,1-19.39-3.35,4.7,4.7,0,0,1-2.72-2.24A4.85,4.85,0,0,1,242.91,255.88Z"/><path class="cls-6" d="M242.91,255.88a4.85,4.85,0,0,0,.51,3.37,6.82,6.82,0,0,1-3.84,3.29,7.28,7.28,0,0,1-1.58.38c-3.1.42-6-2.81-6.78-6.3C235.78,259.12,239.65,258.72,242.91,255.88Z"/><path class="cls-7" d="M223.86,342.57s13.43-.27,20,3.25c3.75,2-12.87,11.06-12.87,11.06a44,44,0,0,1-7.7-14.13Z"/><path d="M263.37,215c-4.8,0-6.35-10.4,0-10.4C268.36,204.58,268.36,215,263.37,215Z"/><path class="cls-4" d="M165.62,328.44c-4.55-11.86,11.92-33.79,35.92-37.94a561.08,561.08,0,0,0,16.11,54.37c14.09,39,31.53,66.14,53,62.84,7.27-1.12,12.62-5.48,15-13.75,3.79-13.08.17-36-15-71.3a29.65,29.65,0,0,0,6.29-3.7,37.34,37.34,0,0,0,9-11.19c18,19.89,33.31,43.42,36.17,72.76.3,3.12.46,7.77.52,13h-.56S308,419.42,287.36,425.43c-23.11,6.75-63.27,1.4-86-20.15S181.46,369.69,165.62,328.44Z"/><path class="cls-4" d="M233.72,7.63c16.5-.71,34.56.52,42.35,3.36h0l-9,155.3,0,.36c-11.48-.69-22.57-1.16-33.12-1.32v-.07Z"/><path class="cls-4" d="M210.32,10.54v155c-3,.12-6,.26-8.94.46L198.81,18.64c0-2.25,1.86-3.43,3.63-4.82A22.26,22.26,0,0,1,210.32,10.54Z"/><path class="cls-8" d="M214.44,177.65c-.22.89-.69,2.86-1.24,5.56q-8.12.35-16.64.85l-.64,0c.23-3.12.64-5.78.64-5.78Q205.49,177.9,214.44,177.65Z"/><path class="cls-4" d="M158.83,173.34c-.29-2.07.07-3.87,1.2-4,9.08-1.2,41.36-3.31,41.36-3.31,2.91-.2,5.89-.35,8.94-.46,7.5-.28,15.41-.35,23.64-.21,10.55.16,21.64.63,33.12,1.32q5.15.31,10.4.67l41.87,5a3.16,3.16,0,0,1,2.79,3.14v1.71h0c-50.7-8.72-105.66-8.67-162.94-3.87Z"/><path class="cls-9" d="M186.21,209.78c-3.14,9.1,4.56,32.39,16.15,40.79-.42,2.49-.92,4.88-1.5,7.13,0,0-13.8-9.6-18.66-22.74-4.81-13-4.4-25,0-31.58,6-9,21.05,1.2,21.05,1.2q.27,3.55.45,7S188.78,202.37,186.21,209.78Z"/><path class="cls-5" d="M208.54,264.85c-.89-11.9,5.16-35.94,3-47.67-1.22-6.48-1-14-.32-20.7l2.71.13a5.78,5.78,0,0,0,.69,3.19,15.1,15.1,0,0,0,1.61,2.58,5.49,5.49,0,0,0,3.84,2.39,50.35,50.35,0,0,0-.82,6.41c-.17,4.61,2.43,13.69,2.29,18.3-.23,7.71-6.61,24.14-5.41,31.76.06.37.13.74.21,1.13a15.63,15.63,0,0,0-2.58,2.67l1.67,1.27a13.49,13.49,0,0,1,1.46-1.61c2.47,9.29,9.47,22.47,20.43,28.73a43.29,43.29,0,0,0,7.94,3.53,32.8,32.8,0,0,0-2.42,4.43C240.42,306.62,210.54,291.58,208.54,264.85Z"/><path class="cls-4" d="M272.23,332.5a23.19,23.19,0,0,1,1.9,7.51l-.26,0a56.38,56.38,0,0,1-5.8.51c-2.36.05-4.43-.18-4-1.24,1.55-4,8.17-6.81,8.17-6.81Z"/><path class="cls-6" d="M213.74,265a15.63,15.63,0,0,1,2.58-2.67c.14.74.32,1.52.54,2.33a13.49,13.49,0,0,0-1.46,1.61Z"/><path class="cls-10" d="M263.37,204.58c-6.35,0-4.8,10.4,0,10.4C268.36,215,268.36,204.58,263.37,204.58Zm-27.95.52c-6.63,0-6.85,12.07.54,12.07C241.09,217.17,242.7,205.11,235.42,205.11Zm-13.91,24.36c.14-4.61-2.46-13.69-2.29-18.3a50.35,50.35,0,0,1,.82-6.41c4.27.38,8.88-5.36,13.68-6.59,4.18-1.07,8.73-2,11.88-2.6a1,1,0,0,0,.38-1.73,19,19,0,0,0-1.84-1.26c-6.07-3.66-14.5-4.34-20.92-2.93.94-4,1.68-6.85,1.68-6.85,17.77-.48,33.58-.19,46.49,1.26h.23a54.09,54.09,0,0,1-.43,5.45v0c-5.15-.27-11.31,2.48-11.92,5.43a2.25,2.25,0,0,0,.18,1.47c1.36,2.83,6,1.17,11.54,4h0c1.41,7.06-1.09,14.6-4.6,22.28h0a39.67,39.67,0,0,0-12-11.32,1.48,1.48,0,0,0-2.24.94l-8.43,39.86-.14,0c-1.16-2.36-3.63-4-7.32-3.21-4.6.93-5.74,4.41-5,7.67.76,3.49,3.68,6.71,6.78,6.3a7.28,7.28,0,0,0,1.58-.38l.06.2c8.75,6.78,18.14,10.09,26.73,6.84h.35a19,19,0,0,0,1.76,3.65,48.75,48.75,0,0,1-1.37,10.72,27.35,27.35,0,0,1-1.8,5.07c-6.67-3.61-14.59-.53-20.08,8a43.29,43.29,0,0,1-7.94-3.53c-11-6.26-18-19.44-20.43-28.73a10.72,10.72,0,0,1,1.37-1.14c8.85,10.72,18.14,16.06,28.09,16.06a34.46,34.46,0,0,0,15-3.76l-.91-1.89c-14.77,7.13-28,3.37-40.38-11.49a14.4,14.4,0,0,1,4-1.26l-.35-2.06a15.6,15.6,0,0,0-7.37,3.22c-.08-.39-.15-.76-.21-1.13C214.9,253.62,221.28,237.18,221.51,229.47Z"/><path class="cls-11" d="M221.61,331.41a18,18,0,0,0,0,4,35.47,35.47,0,0,0,1.69,7.37,44,44,0,0,0,7.7,14.13c2.08,2.43,4.31,4.1,6.41,4.49,2.56.48,6.26-3.8,9-7.65,1.12-1.56,2.08-3,2.75-4.12a1.77,1.77,0,0,1,2.52-.51c3.84,2.67,13.54,8.74,17.26,7a6.17,6.17,0,0,0,2.16-1.74c-.3.51-2.81,4.64-4.41,5.17-3.47,1.14-11.44-5.82-15-5.07-5.49,1.14-9,12.84-14.45,11.6-7.5-1.71-15.16-13.69-18-21.82a23.69,23.69,0,0,1-.9-3.24c-2.45-12.54,4.85-13.91,4.85-13.91A7.71,7.71,0,0,0,221.61,331.41Z"/><path d="M235.42,205.11c7.28,0,5.67,12.07.54,12.07C228.57,217.17,228.79,205.11,235.42,205.11Z"/><path class="cls-5" d="M268.48,273.22c.88,1.38,4.17,5.06,4.17,5.06-.18,6.71-2.12,14.85-4.66,12.61a14.85,14.85,0,0,0-2.68-1.89,27.35,27.35,0,0,0,1.8-5.07A48.75,48.75,0,0,0,268.48,273.22Z"/><path class="cls-4" d="M266.61,388.66c-5.23,1.44-8.3-6.74-3-8.24C269.56,378.69,270.8,387.51,266.61,388.66Z"/><path class="cls-5" d="M203.72,211.57c.81,14.87.48,28.06-1.35,39-11.6-8.4-19.3-31.69-16.15-40.79C188.78,202.37,203.72,211.57,203.72,211.57Z"/><path class="cls-7" d="M244.24,337.37c.81,1.3-20.78-1.75-22.61-2a18,18,0,0,1,0-4c1.32.19,16,2.34,22.29,5.7A1,1,0,0,1,244.24,337.37Z"/><path class="cls-11" d="M270.67,322.65c15.19,35.33,18.81,58.22,15,71.3a261.51,261.51,0,0,0-11.44-50.45,32.26,32.26,0,0,0-.13-3.49,23.19,23.19,0,0,0-1.9-7.51,9.46,9.46,0,0,0-3.3-4.05l-2.56-4.19A41.79,41.79,0,0,0,270.67,322.65Z"/><path class="cls-12" d="M221.42,197.63c.6-2.81,1.24-5.59,1.79-8,6.42-1.4,14.85-.72,20.92,2.93h0C234.44,192,227,193.81,221.42,197.63Z"/><path class="cls-5" d="M239.58,262.54a6.82,6.82,0,0,0,3.84-3.29,4.7,4.7,0,0,0,2.72,2.24,66.58,66.58,0,0,0,19.39,3.35,22.67,22.67,0,0,0,1.18,4.72h-.35c-8.59,3.25-18-.06-26.73-6.84Z"/><path class="cls-7" d="M254.34,331.4s2.64,7.07.84,7.91l-5.59-5.89C250.68,333,252.37,332.25,254.34,331.4Z"/><path class="cls-3" d="M216.19,202.37a24.74,24.74,0,0,1,5.23-4.75c-.51,2.44-1,4.9-1.38,7.13A5.49,5.49,0,0,1,216.19,202.37Z"/><path class="cls-12" d="M245.23,297c5.49-8.48,13.41-11.56,20.08-8-1.73,3.83-4.38,8-7,8.86C254.81,299.09,250,298.51,245.23,297Z"/><path class="cls-7" d="M243.9,331.4c1.61.78,2.93,1.46,3.76,1.9,0,0,3.94,7.79,5.35,9.27,3.32,3.46,7.07-3.31,5.32-12.8h0c4.11-1.56,8.4-2.69,10.6-1.31a9.46,9.46,0,0,1,3.3,4.05h0s-6.62,2.85-8.17,6.81c-.42,1.06,1.66,1.29,4,1.24l.05,2.86-.46.07c-1.79.42,4.81,4.37,6,5.08a14,14,0,0,1-2.49,5.76l0,.05a6.17,6.17,0,0,1-2.16,1.74c-3.72,1.72-13.42-4.35-17.26-7a1.77,1.77,0,0,0-2.52.51c-.67,1.07-1.63,2.56-2.75,4.12a18,18,0,0,0,.9-16.59A26.91,26.91,0,0,0,243.9,331.4Z"/><path class="cls-4" d="M243.9,345.82c-6.61-3.52-20-3.25-20-3.25l-.53.18a35.47,35.47,0,0,1-1.69-7.37c1.82.25,23.41,3.3,22.61,2l3.11-.24a18,18,0,0,1-.9,16.59c-2.75,3.84-6.46,8.13-9,7.65-2.11-.4-4.33-2.06-6.41-4.49C231,356.88,247.65,347.81,243.9,345.82Z"/><path class="cls-3" d="M203.72,211.57q-.19-3.44-.45-7s-.85-6-1.92-7.66c-.83-1.3-4.05-2.49-4.79-3.83-.93-1.7-.89-5.65-.64-9.05l.64,0q8.52-.5,16.64-.85c-.7,3.48-1.51,8.15-2,13.26-.69,6.74-.89,14.21.32,20.7,2.2,11.73-3.85,35.77-3,47.67,2,26.73,31.89,41.77,34.27,36.54a32.8,32.8,0,0,1,2.42-4.43c4.77,1.56,9.58,2.14,13.1.91,2.6-.91,5.25-5,7-8.86a14.85,14.85,0,0,1,2.68,1.89c2.55,2.24,4.48-5.9,4.66-12.61,0,0,15.9,8.57,17.7,11.48,1.67,2.68-.28,10.61-4.38,18a37.34,37.34,0,0,1-9,11.19,29.65,29.65,0,0,1-6.29,3.7,41.79,41.79,0,0,1-4.29,1.61c-8.9,2.78-19.38,3-26,0-8.32-3.75-32.24-19.62-38.93-56.44-.2-1.11-.39-2.23-.56-3.38a59.9,59.9,0,0,1,0-6.69c.58-2.25,1.08-4.64,1.5-7.13C204.2,239.63,204.52,226.44,203.72,211.57Z"/><path class="cls-4" d="M255.18,339.31c1.8-.84-.84-7.91-.84-7.91,1.25-.54,2.61-1.12,4-1.63,1.75,9.49-2,16.26-5.32,12.8-1.41-1.48-5.35-9.27-5.35-9.27a2.38,2.38,0,0,0,1.93.13Z"/><path class="cls-4" d="M268.12,343.41c2.21-.21,6.1,1.09,6.1,1.09h0a26.4,26.4,0,0,1-.54,4.06c-1.22-.71-7.81-4.66-6-5.08Z"/><path class="cls-4" d="M257.92,361.28c6-1.73,7.21,7.09,3,8.24C255.71,371,252.65,362.79,257.92,361.28Z"/><path class="cls-3" d="M213.89,196.6c.32-3.35,4.18-5.81,9.32-6.94-.56,2.38-1.19,5.16-1.79,8a24.74,24.74,0,0,0-5.23,4.75,15.1,15.1,0,0,1-1.61-2.58A5.78,5.78,0,0,1,213.89,196.6Z"/><path class="cls-12" d="M275,190.45a8.38,8.38,0,0,1,4.71,8.45h0c-5.68-4.69-12.76-5.22-20.44-3.95.61-2.94,6.77-5.7,11.92-5.43A9.55,9.55,0,0,1,275,190.45Z"/><path class="cls-13" d="M260.94,369.52c4.19-1.15,3-10-3-8.24C252.65,362.79,255.71,371,260.94,369.52Zm2.64,10.89c-5.27,1.51-2.2,9.68,3,8.24C270.8,387.51,269.56,378.69,263.58,380.42Zm-45.93-35.55,1.66-.61c2.83,8.13,10.49,20.11,18,21.82,5.47,1.25,9-10.45,14.45-11.6,3.57-.75,11.54,6.21,15,5.07,1.6-.53,4.11-4.66,4.41-5.17l0-.05a14,14,0,0,0,2.49-5.76,26.4,26.4,0,0,0,.54-4.06c0-.32,0-.66,0-1A261.51,261.51,0,0,1,285.69,394c-2.4,8.28-7.75,12.63-15,13.75C249.18,411,231.74,383.82,217.65,344.86Z"/><path class="cls-7" d="M201.54,290.5c-24,4.15-40.47,26.08-35.92,37.94,15.84,41.25,13.18,55.38,35.77,76.83s62.86,26.9,86,20.15c20.59-6,34.76-31.88,34.76-31.88h.56c.2,16.39-.52,38.66-.52,38.66h-194s-2.47-55,0-73.15c5.2-37.92,33.37-66.07,68.65-88.42C198.33,277.31,199.9,283.94,201.54,290.5Z"/><path class="cls-14" d="M266.37,222.71c6.3,9.2,8.76,21.58,6.86,37.56-8.72,1.27-19.13-.81-30.31-4.4l.74-3.51,0-.18,8.43-39.86a1.48,1.48,0,0,1,2.24-.94A39.67,39.67,0,0,1,266.37,222.71Z"/><path class="cls-13" d="M223.25,327.11S216,328.48,218.4,341a23.69,23.69,0,0,0,.9,3.24l-1.66.61a561.08,561.08,0,0,1-16.11-54.37c-1.63-6.56-3.21-13.19-4.71-19.85,1.52-1,3.06-1.92,4.6-2.87,6.68,36.82,30.61,52.69,38.93,56.44,6.65,3,17.13,2.82,26,0l2.56,4.19c-2.2-1.38-6.49-.25-10.6,1.31h0c-1.38.51-2.74,1.09-4,1.63-2,.85-3.67,1.62-4.76,2a2.38,2.38,0,0,1-1.93-.13c-.83-.44-2.15-1.12-3.76-1.9C237.44,328.29,226.27,323.66,223.25,327.11Z"/><path class="cls-6" d="M216.86,264.69c-.22-.81-.41-1.58-.54-2.33a15.6,15.6,0,0,1,7.37-3.22l.35,2.06a14.4,14.4,0,0,0-4,1.26c12.39,14.86,25.61,18.62,40.38,11.49l.91,1.89a34.46,34.46,0,0,1-15,3.76c-10,0-19.24-5.34-28.09-16.06A10.72,10.72,0,0,0,216.86,264.69Z"/><path class="cls-4" d="M278.9,12.43c1,.76,2,1.48,1.73,2.7l-9.75,151.42,6.62.79q-5.25-.36-10.4-.67l0-.36,9-155.3A10.55,10.55,0,0,1,278.9,12.43Z"/><path class="cls-7" d="M210.32,10.54C216.43,9,224.86,8,233.72,7.63L234,165.27v.07c-8.23-.14-16.14-.07-23.64.21v-155Z"/><path class="cls-7" d="M214.44,177.65q-9,.24-17.88.61s-24.5,1.66-32.88,1.64c-2.7,0-4.44-3.57-4.85-6.57l.35-.05c57.28-4.81,112.24-4.85,162.94,3.87h0v.36a3.16,3.16,0,0,1-3.38,3.15l-47.89-3.39Q242.5,176.89,214.44,177.65Z"/><path class="cls-3" d="M259.26,195c7.68-1.27,14.76-.74,20.44,3.95h0c-.48,3-3.14,4.87-7.58,2.16-.39-.23-.76-.44-1.14-.63h0c-5.57-2.83-10.18-1.17-11.54-4A2.25,2.25,0,0,1,259.26,195Z"/><path class="cls-7" d="M274.26,343.5c0,.34,0,.67,0,1h0s-3.89-1.3-6.1-1.09l-.05-2.86a56.38,56.38,0,0,0,5.8-.51l.26,0A32.26,32.26,0,0,1,274.26,343.5Z"/><path class="cls-5" d="M223.21,189.66c-5.14,1.13-9,3.59-9.32,6.94l-2.71-.13c.52-5.11,1.33-9.78,2-13.26q6-.25,11.68-.41S224.15,185.68,223.21,189.66Z"/></svg>