<?xml version="1.0" encoding="utf-8"?>
<!-- Generator: Adobe Illustrator 20.0.0, SVG Export Plug-In . SVG Version: 6.00 Build 0)  -->
<svg version="1.1" id="Layer_1" xmlns="http://www.w3.org/2000/svg" xmlns:xlink="http://www.w3.org/1999/xlink" x="0px" y="0px"
	 viewBox="0 0 651.4 609.6" style="enable-background:new 0 0 651.4 609.6;" xml:space="preserve">
<style type="text/css">
	.st0{fill:#FFFFFF;}
	.st1{fill:#E29074;}
	.st2{fill:#442318;}
	.st3{fill:#2A4277;}
	.st4{fill:#CC8F7A;}
	.st5{fill:#AA593D;}
	.st6{fill:#10213A;}
	.st7{fill:#301710;}
	.st8{fill:#AA6D5C;}
	.st9{fill:#F2B78B;}
	.st10{fill:#CEBF97;}
	.st11{fill:#663A28;}
	.st12{fill:#F4E8C3;}
	.st13{fill:#D88361;}
	.st14{fill:#8A9FBC;}
	.st15{fill:#6A83A0;}
	.st16{fill:#9B7726;}
	.st17{fill:#D9E7ED;}
	.st18{fill:#AD3821;}
	.st19{fill:#EA6647;}
	.st20{fill:#172D44;}
	.st21{fill:#466084;}
	.st22{fill:#B7A67D;}
	.st23{fill:#B2A893;}
	.st24{fill:#EFE7D0;}
</style>
<g>
	<g>
		<path class="st0" d="M342.2,307.4c-4,0-7.5-1.7-9.9-4.7c-1.9-2.5-3-5.7-3-9.1c0-7.7,5.3-13.5,12.2-13.5c7.2,0,12.1,5.4,12.1,13.1
			C353.6,300.3,349.4,307.4,342.2,307.4z M341.5,291.6c-0.5,0-0.9,1.3-0.9,2.1c0,0.8,0.2,1.6,0.6,2c0.1,0.1,0.2,0.2,0.5,0.3
			c0.3-0.5,0.7-1.5,0.7-2.7c0-1-0.3-1.6-0.4-1.7l0,0C341.9,291.6,341.7,291.6,341.5,291.6z"/>
		<path class="st0" d="M341.5,285.6c-4.5,0-6.9,4.1-6.9,8.2c0,2.2,0.7,4.2,1.9,5.8c1.4,1.7,3.4,2.7,5.8,2.7c3.8,0,6.1-4.6,6.1-8.8
			C348.3,289.8,346.5,285.6,341.5,285.6z M346.1,298.9c-1,1.6-2.4,2.5-3.9,2.5c-2.2,0-3.9-0.8-5.2-2.4c-1.1-1.4-1.7-3.3-1.7-5.3
			c0-3.7,2.1-7.4,6.2-7.4c4.5,0,6.1,3.6,6.1,7.1C347.6,295.4,347,297.4,346.1,298.9z"/>
		<path class="st0" d="M200.5,590.1c-3,0-5.5-2.4-5.7-5.4c-0.3-7.5-3.1-74,0-97.2c6.3-45.9,37.6-85.9,95.7-122
			c0-0.3-0.1-0.5-0.1-0.8c-0.2-1.6-0.2-4.4-0.2-6.9c-5.5-4.4-18.6-15.9-24.1-30.6c-6.7-18.2-6.5-36.1,0.6-46.6
			c2.5-3.7,6.2-6.2,10.6-7c1.2-0.2,2.5-0.4,3.9-0.4c1.5,0,3.1,0.2,4.6,0.4c-0.2-0.2-0.3-0.5-0.4-0.7c-1.9-3.5-2-9.9-1.5-16.1
			c-10.3,0.6-28.8,1.7-36.8,1.7c-7.3,0-11.7-7.7-12.2-14.9c-0.5-6.9,3.3-9.9,6.6-10.3c9.4-1.2,37.7-3.2,49.3-4l-3.3-188.3
			c-0.1-5.5,3.9-8.5,6.2-10.3l0.7-0.6c8-6.2,27.3-8.5,42.6-9.3c0.6-0.2,1.3-0.4,2-0.4c0.5,0,1,0.1,1.5,0.2c2.9-0.1,5.8-0.2,8.7-0.2
			c0.7,0,1.3,0,2,0c9.5,0,41.3,0.6,50.6,7.7l0.1,0.1c1.4,1.1,5.1,3.9,4.3,8.7l-12.4,193.3l58.4,6.9c4.9,0.6,8.7,4.8,8.7,9.8v2.7
			c0,2.8-1.1,5.3-3.1,7.2c-1.8,1.7-4.2,2.6-6.7,2.6c-0.3,0-0.5,0-0.8,0l-55.8-4c0.1,1.9,0,3.8-0.1,5.5c0.5,0.2,1,0.4,1.5,0.6
			c6.7,3.4,9.3,9.9,9.4,14.4c0.1,4.6-1.9,8.6-5.4,10.6c-1.6,0.9-3.4,1.4-5.3,1.4c-0.2,0-0.3,0-0.5,0c-0.5,7.2-3,14.3-5.8,20.7
			c7.9,13.2,10.7,30.1,8.3,50.4c-0.6,4.9-4,8.9-8.6,10.3c0.4,1,0.9,2,1.5,3c0.5,0.8,2.5,3.1,4.3,5.2c14.2,7.7,22.5,13.3,24.5,16.6
			c3.6,5.9,0.5,16.9-3.7,25.8c28.4,32.2,43.1,62.7,46.4,95.9c1.6,16.4,0.2,63.4,0,68.7c-0.1,3.1-2.6,5.5-5.7,5.5H200.5z M450,578.8
			c0.2-6.1,0.4-16.7,0.5-27.7c-1.1,1.4-2.2,2.8-3.4,4.2c-6.8,8-17.1,18.1-29.7,23.5H450z M339.8,578.8c-18.7-5.5-35-14.4-46.9-25.6
			c-21.7-20.6-26.8-37.2-34.6-62.4c-3.5-11.4-7.5-24.3-13.8-40.7c-2.7-7.1-1.4-16,3.8-25.1c6.4-11.3,21-25.6,41.8-31.1
			c-1-4.1-2-8.4-3-12.6c-49,32.6-75.5,67.9-80.9,107.8c-2.3,16.8-1.3,62.1-0.2,89.7H339.8z M292.8,404.9
			c-17.4,4.6-29.4,16.4-34.7,25.7c-3.4,6-4.5,11.6-3.1,15.4c6.4,16.7,10.5,29.8,14,41.3c7.8,25.2,12.1,39,31.6,57.6
			c12.9,12.2,31.9,21.4,53.5,25.8c9.2,1.9,18.4,2.8,27.4,2.8c9.8,0,19-1.2,26.6-3.4c12.6-3.7,23.4-14.1,30.3-22.1
			c7.3-8.6,11.7-16.5,12-17c-0.1-6.1-0.3-10.8-0.6-13.9c-2.9-29.8-16-57.5-41.2-86.8c-2.4,3.4-5.5,6.9-9.1,9.7
			c-1.4,1.1-2.9,2.1-4.5,3c20.1,48.1,25.1,81.8,14.8,100.3c-4.4,8-11.8,13-21.2,14.5c-1.8,0.3-3.6,0.4-5.4,0.4
			c-20.9,0-40.3-18.6-57.6-55.4C314,478.3,303.3,446.2,292.8,404.9z M337.2,500.8c14.9,30.6,30.4,46.1,46,46.1
			c1.2,0,2.5-0.1,3.7-0.3c6-0.9,10.3-3.8,13-8.8c0.7-1.2,1.3-2.6,1.8-4.2c-2.3-16.8-5.4-32.3-9.4-47.1c-2.7,4.3-5.4,6.9-7.9,7.7
			c-0.9,0.3-1.9,0.5-2.9,0.5c-3.7,0-7.6-2-11.6-4.1c-1.9-1-4.8-2.5-6-2.7c-1.3,0.6-3.8,3.9-5.2,5.7c-3.3,4.3-7.4,9.7-13.6,9.7
			c-0.8,0-1.5-0.1-2.3-0.3C340.8,502.6,339,501.9,337.2,500.8z M369.8,473c5.3,3.3,11.1,6.2,13.6,6.2c0.2-0.1,0.4-0.3,0.6-0.6
			c0.3-0.4,0.7-0.9,0.9-1.5c-4.5-2.9-6.9-5.3-7.2-8.2c-0.8-0.3-1.6-0.8-2.3-1.4c-1.2,2.3-2.8,4.1-4.8,5.1
			C370.4,472.7,370.1,472.8,369.8,473z M334.1,472.5c1,1.9,2,3.8,3.2,5.5c2.5-1.5,4.7-2.9,6.5-4.2
			C340.8,473.2,337.4,472.8,334.1,472.5z M377.8,454.5c0.5-0.4,0.9-0.9,1.4-1.3c-0.4,0.1-0.9,0.2-1.4,0.4
			C377.8,454,377.8,454.3,377.8,454.5z M305.6,409.1c3.5,13.4,7.1,25.8,10.6,37.2c2.1-3,4.7-4.4,6.4-5.1c1.9-1.5,4.5-2.2,7.6-2.2
			c0.5,0,1.1,0,1.6,0.1C323.9,433,313.9,423.4,305.6,409.1z M309.1,390.8c13.5,33.1,37.8,45,41.2,46.5c3.4,1.5,8.1,2.4,13.4,2.4
			c10.8,0,22.4-3.4,28.9-8.6c10.9-8.6,16.9-26.8,16.2-31c-1.4-1.4-6.2-4.6-13.6-8.9c-1,5.6-3,11.2-7,13c-0.9,0.4-1.8,0.6-2.8,0.6
			c-0.9,0-1.8-0.2-2.6-0.5c-2.4,3.9-5.6,7.5-9.4,8.8c-2.2,0.8-4.8,1.2-7.6,1.2c-2.7,0-5.7-0.4-8.8-1.1c-0.3,0.5-0.5,1-0.7,1.5
			c-0.6,1.4-2.7,4.7-8.1,4.7c-0.9,0-1.9-0.1-2.9-0.3C335.4,417.5,319.2,407.1,309.1,390.8z M365.1,403c0.3,0,0.5,0,0.8,0
			c1.5,0,2.8-0.2,3.9-0.6c0.4-0.2,1.3-1,2.4-2.5c-0.4,0-0.8,0.1-1.2,0.2C369,400.6,367,401.6,365.1,403z M331.2,381.8
			c4,6.1,9.2,11.6,15.5,15.3c1.8,1,3.7,1.9,5.6,2.7c4.6-5.7,10.3-9.5,16.3-10.8c1.5-0.3,3-0.5,4.6-0.5c1.4,0,2.9,0.1,4.3,0.4
			c0.1-0.2,0.1-0.5,0.2-0.7c0.4-1.7,0.7-3.2,0.9-4.6c-0.2,0.1-0.3,0.2-0.5,0.3c-7.5,3.6-15,5.5-22.1,5.5
			C347.2,389.5,339,387,331.2,381.8z M313,371.6c2.7,10.4,8.9,19,15.6,25.3c-7-7.6-12.1-16.8-15.1-25.1
			C313.4,371.7,313.2,371.7,313,371.6z M330.8,363.3c8.2,8.1,16.5,12,25.2,12c1,0,2-0.1,3-0.2c-4.5-1.7-9-4.3-13.6-7.6
			c-0.4,0.1-0.9,0.1-1.3,0.1c-5.3,0-9.6-3.6-12-8.1c0,1.2-0.3,2.4-1,3.4C331,363.1,330.9,363.2,330.8,363.3z M357.9,348.8
			c10.4,3,18.9,4.5,26,4.5c0.7,0,1.4,0,2,0c1.8-23.1-4.3-40.3-18.2-51.1L357.9,348.8z M326.1,351.3c1.2,0,2.3,0.4,3.3,1
			c0.3,0.2,0.5,0.4,0.7,0.6c0-0.1,0-0.2,0-0.3c-0.5-6.2,2.7-12.9,11.3-14.7c1.1-0.2,2.3-0.4,3.4-0.4c1.3,0,2.6,0.2,3.8,0.5l9.3-43.9
			c0.5-2.4,2.2-4.4,4.5-5.4c1-0.4,2-0.6,3-0.6c1.4,0,2.8,0.4,4,1.2c4.1,2.6,7.9,5.5,11.1,8.9c1.7-4.8,2.8-9.7,2.5-14.5
			c-1.7-0.5-3.3-0.7-4.7-1c-3.4-0.5-8.1-1.2-10.3-5.9c-1.8-3.6-0.8-7.7,2.4-11c1.3-1.2,2.8-2.3,4.6-3.2c-7.4-0.5-15.6-0.7-24.6-0.8
			c3.1,1.2,6,2.8,8.4,4.7c2.2,1.7,3.1,4.5,2.5,7.1c-0.6,2.6-2.7,4.7-5.4,5.2l-1.5,0.3c-4.1,0.8-9.1,1.8-13.8,3
			c-1.8,0.5-4.1,2-6.4,3.6c-2.6,1.7-5.2,3.5-8,4.5c-0.2,1.8-0.3,3-0.4,3.7c-0.1,2.4,0.7,7,1.4,10.9c0.8,4.7,1.7,9.5,1.6,13.1
			c-0.1,4.9-1.8,11.5-3.5,18.5c-1.3,5.2-2.7,10.8-3.4,15.4c1-0.3,2-0.5,3.1-0.7l0.4-0.1L326.1,351.3z M341.8,349.9
			c0.6,0.1,1.1,0.2,1.7,0.2c0.7,0,1.6-0.1,2.8-0.8l0-0.1c-0.3-0.2-0.8-0.3-1.4-0.3c-0.4,0-0.8,0-1.2,0.1
			C342.8,349.3,342.2,349.6,341.8,349.9z M316.3,308.1c0.2,7.6-0.8,16.7-2,25.8c1.5-6.1,3.1-12.4,3.2-16.1
			C317.6,315.6,316.9,311.7,316.3,308.1z M282.1,294c-1.3,4-0.8,12.5,3.2,23.1c2.3,6.1,5.3,11.7,8.5,16.2c0.9-10.2,1-22,0.4-35.5
			c-3.9-2.1-8.6-3.9-11.4-3.9C282.5,293.9,282.3,294,282.1,294z M314.6,288.6c0,1.1,0,2.2,0.1,3.3c0.1-0.9,0.2-1.9,0.3-3
			C314.8,288.9,314.7,288.8,314.6,288.6z M295.3,267.1c0.4,0.3,1,0.6,1.4,0.9c1.7,1.1,3.6,2.3,4.8,4.1c0.9,1.4,1.6,3.6,2.2,5.9
			c0.4-5.2,1.1-10.2,1.8-14.8c-3.4,0.2-6.9,0.3-10.4,0.5C295,265.2,295.1,266.4,295.3,267.1z M345.2,228.1
			c10.1,0.2,20.8,0.7,32.5,1.3L389,35c-8.3-1.9-22.4-3.2-37.6-3.2c-2.2,0-4.3,0-6.5,0.1L345.2,228.1z M302.3,228.5
			c0.2,0,0.3,0,0.5,0V38.2c-0.6,0.3-0.9,0.6-1.2,0.8l-0.7,0.6c-0.7,0.5-1.5,1.2-1.9,1.6L302.3,228.5z M314.1,228.1
			c4.7-0.1,9.7-0.2,14.7-0.2c1.6,0,3.3,0,5,0l-0.3-195.5c-7.5,0.5-14.1,1.3-19.4,2.3V228.1z"/>
		<path class="st0" d="M455.8,516.5c-3.2-33-18.3-63.4-47.5-95.6c5.4-9.8,7.8-20.2,5.6-23.8c-2.4-3.8-21.9-14.4-23.4-15.2
			c-0.5-0.5-4.3-4.9-5.4-6.6c-2.6-4.2-3.5-9-3.8-10.4c0,0,0.1,0,0.1,0c1,0,2.1,0,3.1-0.1c3.5-0.2,6.4-2.8,6.8-6.3
			c2.4-20.4-0.6-36.9-9-49.4c4-8.8,7.8-19,6.1-28.6c0.3,0.2,0.5,0.3,0.8,0.5c2.2,1.3,3.9,1.8,5.3,1.8c1.1,0,2-0.3,2.6-0.7
			c1.8-1,2.8-3.2,2.7-5.9c-0.1-3.1-1.8-7.5-6.5-9.8c-1.4-0.7-3-1.1-4.8-1.2c0.2-1.9,1.3-10.8-0.3-15.4l62.4,4.4
			c1.2,0.1,2.5-0.3,3.4-1.2c0.9-0.9,1.4-2,1.4-3.3v-2.7c0-2.3-1.7-4.2-4-4.5l-63.4-7.5l12.8-198.6c0.4-1.8-1-2.8-2.3-3.8l-0.1-0.1
			c-6-4.6-27.8-6.6-47.4-6.6c-0.7,0-1.3,0-2,0c-3.2,0-6.6,0.1-9.9,0.2c-0.1-0.1-0.2-0.3-0.3-0.3c-0.2,0-0.3,0.1-0.3,0.3
			c-17.1,0.8-34.6,3.2-41,8.2c-0.3,0.2-0.5,0.4-0.8,0.6c-2.1,1.6-4.2,3.2-4.2,6l3.4,193.4c-4.1,0.3-42.8,2.8-54,4.3
			c-1.4,0.2-2.2,2-2,4.7c0.3,4,2.6,9.9,6.8,9.9c0,0,0,0,0,0c10.2,0,38.8-1.9,42.8-2.1c-0.4,2.6-2.1,15.3,0.1,19.3
			c0.5,1,2,1.9,3.4,2.8c1.2,0.8,2.5,1.5,2.9,2.3c1.1,1.7,2,7.1,2.3,9.1c-2.7-1.7-12.4-7.3-20.3-5.8c-3,0.6-5.4,2.2-7.2,4.8
			c-6.1,9.1-6.1,25.5,0,41.8c6,16.3,22.6,28.6,24.5,29.9c-0.1,1.1-0.3,6.7,0,8.7c0.2,1.4,0.5,2.8,0.7,4.2
			c-58.6,35.8-90.1,75.1-96.3,120.1c-3.2,23.6,0,95.5,0,96.2c0,0.2,0.2,0.4,0.4,0.4h255c0.2,0,0.4-0.2,0.4-0.4
			C455.9,583.9,457.5,533.2,455.8,516.5z M455.1,516.5c0.4,4.1,0.6,10.1,0.7,17c0-0.1-0.1-0.2-0.2-0.2c-0.2-0.1-0.4,0-0.5,0.1
			c0,0.1-4.7,8.6-12.7,17.9c-7.3,8.6-18.9,19.7-32.8,23.8c-15.6,4.6-36.2,4.8-56.5,0.7c-22.6-4.6-42.5-14.2-56.1-27.1
			c-20.6-19.5-25.2-34.7-33-59.8c-3.5-11.5-7.6-24.5-13.9-41c-2.1-5.4-0.9-12.4,3.4-19.9c6.3-11.2,21.4-25.5,43.2-29.4
			c10.8,43.3,21.9,76.9,33.8,102c16.4,34.8,34.1,52.3,52.8,52.3c1.5,0,3.1-0.1,4.6-0.4c7.9-1.2,13.7-5.2,17.4-11.8
			c9.6-17.3,3.7-52-17-100.2c3-1.3,5.7-2.9,8-4.7c4.6-3.6,8.6-8.9,11.7-14.4C436.9,453.6,451.9,483.8,455.1,516.5z M352.4,452.2
			c7.4,9.6,8.5,19.3,3.3,28.9l0,0c-4.8,6.7-8.9,10.3-11.5,9.9c-2.6-0.5-5.3-2.5-7.9-5.4c3.1-1.7,17.4-9.8,17.4-13.6
			c0-0.4-0.2-1-0.9-1.4c-8.7-4.6-25.8-4.3-26.5-4.3c-0.2,0-0.4,0.2-0.4,0.4c0,0.2,0.2,0.4,0.4,0.4c0.2,0,17.7-0.3,26.2,4.2
			c0.5,0.2,0.5,0.5,0.5,0.7c0,2.9-12.1,10.2-17.2,13c-4-4.7-7.5-11.4-9.7-17.6c-1.2-3.5-2-6.9-2.4-9.8c1.9,0.3,8,1.1,14.2,1.8
			c7.4,0.9,11.2,1.1,13.2,1.1c2.1,0,2.2-0.3,2.3-0.6c0.2-0.5-0.4-0.8-0.7-0.9c-7.9-4.2-25.9-7-29.1-7.5c0.3-2.1,1-3.9,2-5.1
			c0.9-1,2.4-1.5,4.5-1.5C335.5,445,344,448.2,352.4,452.2z M323.6,452.4c3.2,0.5,21,3.2,28.8,7.4c0,0,0,0,0,0
			c-2.7,0.5-18.6-1.5-28.8-3C323.5,455.2,323.5,453.7,323.6,452.4z M323,451.6c-0.1,0.1-0.2,0.1-0.2,0.2c0,0.1,0,0.2,0.1,0.3
			c-0.1,1.4-0.1,3,0,4.7c-0.1,0.1-0.1,0.1-0.1,0.2c0,0.2,0.1,0.3,0.2,0.3c0.3,3.1,1.1,6.5,2.4,10.2c3.8,10.9,11.4,22.7,18.6,24.1
			c0.2,0,0.4,0.1,0.6,0.1c4.7,0,11.5-9.7,15.3-15.7c0.3-0.5,0.7-0.8,1.3-0.9c0.5-0.1,1.1,0,1.5,0.3c2.9,2,17.5,11.9,23.1,9.3
			c0.3-0.1,0.6-0.3,0.9-0.5c-1.3,1.9-3,3.9-4.1,4.3c-2.2,0.7-6.1-1.3-9.9-3.3c-3.8-2-7.4-3.9-9.8-3.4c-3.4,0.7-6.3,4.4-9,8
			c-3.2,4.2-6.2,8.1-9.8,7.3c-11.2-2.5-22.6-22.7-24.5-32.6c-1.2-6.3-0.7-11.2,1.5-14.4c1.2-1.8,2.6-2.6,3.6-3.1
			C323.7,448.2,323.2,449.8,323,451.6z M388.2,481.9L388.2,481.9L388.2,481.9c-0.8,1-1.7,1.7-2.7,2.2c-5.3,2.5-20.6-8-22.3-9.2
			c-0.6-0.4-1.4-0.6-2.1-0.4c-0.7,0.1-1.4,0.6-1.8,1.2c-0.4,0.7-0.8,1.3-1.2,1.9c3-8.2,1.6-16.5-4.3-24.7c1.2,0.6,2.4,1.2,3.5,1.8
			c0.5,1,5.2,10.3,7,12.2c0.8,0.9,1.7,1.3,2.7,1.3c0.5,0,0.9-0.1,1.3-0.3c3.1-1.6,5.3-8.7,3.7-17.8c5.2-1.9,10.6-3.4,13.3-1.7
			c1.4,0.9,2.8,2.5,4,4.8c-1.7,0.8-8.7,4.2-10.6,9c-0.2,0.5,0,0.9,0.1,1.1c0.6,0.8,2.6,1,4.8,1c3.5,0,7.6-0.6,8.3-0.7
			c0.1,1.6,0.1,3.2,0.1,5c-1.5-0.5-6-1.8-8.3-1.2c-0.5,0.1-0.7,0.4-0.7,0.6c-0.2,1.4,5.4,4.9,8.3,6.6
			C390.7,477.7,389.6,480.1,388.2,481.9z M366.1,452.4c1.3,3.5,2.4,8.4,1.4,9.4l-6.8-7.1c1-0.4,2.3-1,3.8-1.6
			C365,452.9,365.6,452.7,366.1,452.4z M360,455l7.2,7.6c0.1,0.1,0.2,0.1,0.3,0.1c0.1,0,0.1,0,0.2,0c2.4-1.1,0-8.4-0.8-10.5
			c1.4-0.6,2.9-1.2,4.5-1.8c1.5,8.6-0.5,15.5-3.3,16.9c-1.3,0.7-2.4-0.1-3.1-0.8c-1.5-1.6-5.3-8.9-6.6-11.3
			C358.9,455.2,359.4,455.2,360,455z M392,462.9L392,462.9c-4.3,0.6-11.5,1.2-12.5-0.1c-0.1-0.1-0.1-0.2,0-0.4
			c1.7-4.4,8.6-7.8,10.2-8.6C390.8,456.3,391.6,459.3,392,462.9z M383.8,468.2c0,0,0,0,0.1-0.1c2.3-0.5,7,0.9,8.2,1.2
			c-0.1,1.6-0.3,3.1-0.6,4.5C387.6,471.6,383.8,468.9,383.8,468.2z M390.2,453.2L390.2,453.2L390.2,453.2c-1.1-2.3-2.5-4.3-4.4-5.4
			l-3.1-5.1c1.7-0.5,3.3-1.1,4.9-1.8c17.7,41.3,24.5,72.6,20,91.4c-3.2-23.6-8-44.7-14.8-64.5C393,462.8,392.2,457.4,390.2,453.2z
			 M385.3,376.6c1.5,2,4.2,5,4.8,5.7c-0.2,8.1-2.2,15.6-4.2,16.5c-0.3,0.1-0.7,0.2-1.3-0.3c-1.1-0.9-2.2-1.7-3.3-2.4
			c1.1-2.4,1.9-4.7,2.3-6.4C384.9,383.3,385.2,378.6,385.3,376.6z M382.1,370.3C382.1,370.3,382.1,370.3,382.1,370.3
			c-10.2,3.8-22.2,0.8-34.6-8.7c1.9-0.8,3.4-2.1,4.5-3.8c0.8,1.2,2,2.1,3.5,2.6c9.1,2.9,17.4,4.3,25.3,4.4
			C380.9,365.6,381.2,367.7,382.1,370.3z M336.2,353c-0.8-4.7,1.6-8.1,6.4-9.1c4.2-0.9,7.5,0.6,9.2,4c0,0,0.1,0,0.1,0.1l-0.9,4.4
			c-4.3,3.6-9.1,3.9-14.7,0.9C336.3,353.3,336.2,353.1,336.2,353z M350.9,353.5c-0.1,1.3,0.2,2.5,0.7,3.6c-1.4,2.5-3.8,4.1-6.8,4.5
			c-3.7,0.5-7.1-3.2-8.3-7.2C341.9,357,346.7,356.7,350.9,353.5z M384.7,364c-9,0.4-18.4-1-29-4.3c-1.5-0.5-2.6-1.4-3.3-2.7l0,0
			c-0.6-1.1-0.9-2.5-0.7-3.8c13,4.1,23.5,6.2,32.3,6.2c2.4,0,4.6-0.2,6.7-0.4C390.1,361.7,387.7,363.9,384.7,364z M390.8,358.1
			c-10.1,1.4-22.5-0.4-39.1-5.7l0.9-4.3l11.1-52.6c0.1-0.5,0.4-0.9,0.9-1.1c0.5-0.2,1-0.2,1.5,0.1
			C386,306.8,394.3,328.2,390.8,358.1z M397,281.4c-1.8,1-4.3,0.6-7.1-1.1c-4.1-2.5-7.8-3-10.8-3.4c-2.8-0.4-4.9-0.7-5.8-2.5
			c-0.2-0.5-0.3-1-0.2-1.4c11.4-1.8,19.7-0.2,26.1,5C399,279.5,398.2,280.7,397,281.4z M399.4,276.2c0,0.3,0,0.6,0,0.9
			c-6.5-5.1-14.8-6.7-26.1-4.9c0.3-0.7,0.8-1.3,1.3-1.8c3.8-3.7,13.4-6,18.7-3.3C397.7,269.2,399.3,273.3,399.4,276.2z M374.1,269.8
			c-1.6,1.6-2.1,3.3-1.4,4.9c1,2.2,3.4,2.5,6.3,2.9c2.5,0.4,5.5,0.8,8.8,2.4c1.8,9.5-1.8,19.6-5.8,28.3c-4-5.7-9.2-10.6-15.5-14.5
			c-0.7-0.4-1.5-0.5-2.2-0.2c-0.7,0.3-1.2,0.9-1.4,1.6L352.2,347c-1.9-3.2-5.5-4.7-9.7-3.8c-6.2,1.3-7.7,6-7,9.9c0,0,0,0.1,0,0.1
			c0,0-0.1,0-0.1,0.1c-0.1,0.2,0,0.4,0.1,0.5c0,0,0.1,0,0.1,0.1c1,4.3,4.5,8.4,8.5,8.4c0.3,0,0.5,0,0.8-0.1c0.6-0.1,1.2-0.2,1.8-0.4
			c0,0,0,0.1,0.1,0.1c9.2,7.1,18.1,10.7,26.2,10.7c3.2,0,6.3-0.6,9.2-1.7c0,0,0,0,0,0c0.6,1.5,1.3,3.1,2.2,4.6c0,0.7,0,6-1.8,13.9
			c-0.4,1.7-1.1,3.9-2.2,6.3c-3.4-1.8-7.1-2.3-10.9-1.5c-5.8,1.2-11.2,5.5-15.5,12c-3.6-1.2-7.1-2.8-10.1-4.5
			c-14.7-8.4-23.4-25.6-26.6-37.3c0.4-0.4,0.9-0.8,1.3-1.2c11.7,14.1,23.8,21,37,21c6.4,0,13.1-1.7,19.9-5c0.1,0,0.2-0.1,0.2-0.2
			c0-0.1,0-0.2,0-0.3l-1.2-2.5c-0.1-0.2-0.3-0.3-0.5-0.2c-19.1,9.2-36.2,4.5-52.3-14.6c1.4-0.7,3-1.1,4.7-1.4c0.2,0,0.3-0.2,0.3-0.4
			l-0.5-2.7c0-0.1-0.1-0.2-0.1-0.2s-0.2-0.1-0.3-0.1c-3.6,0.6-6.7,1.9-9.4,3.9c-0.1-0.3-0.1-0.6-0.2-0.9c-0.9-5.7,1.5-15.1,3.7-24.3
			c1.7-6.7,3.3-13.1,3.4-17.4c0.1-3-0.7-7.6-1.5-12c-0.8-4.4-1.6-9-1.5-12.1c0.1-2,0.5-4.8,1-8.1c0.1,0,0.2,0,0.2,0
			c3.1,0,6.2-2.1,9.5-4.4c2.6-1.8,5.3-3.6,8.1-4.3c4.8-1.2,10-2.3,14.1-3.1l1.5-0.3c0.6-0.1,1.1-0.6,1.3-1.2
			c0.2-0.6-0.1-1.3-0.6-1.7c-7.9-6.1-20.2-7.7-29.6-5.7c1-4.1,1.8-7.3,2-8.1c25.1-0.7,44.8-0.1,60.7,1.7c-0.1,3-0.4,5.6-0.5,6.4
			C382.9,264.9,377,266.9,374.1,269.8z M380.3,396.4c-2.3,4.9-5.6,10-8.8,11.1c-4.5,1.6-10.6,0.8-16.5-1.1
			c4.1-6.2,9.4-10.3,14.9-11.5C373.5,394.2,377,394.7,380.3,396.4z M310.4,301.7c-2.8-14.7,0.1-33.6,2.2-44.2
			c5-0.2,9.9-0.4,14.6-0.5c-0.3,1.1-1.1,4.3-2,8.3c-3.7,0.8-6.9,2.2-9.2,4.1c-3.3,2.7-4,6.2-2.2,9.8c1.9,3.8,4,5.9,6.5,6.6
			c0.2,0.1,0.4,0.1,0.6,0.1c-0.6,3.2-0.9,6.1-1,8.1c-0.1,3.1,0.7,7.7,1.5,12.2c0.8,4.4,1.6,8.9,1.5,11.9c-0.1,4.3-1.7,10.6-3.4,17.3
			c-2.3,9.2-4.7,18.7-3.7,24.5c0.1,0.4,0.2,0.9,0.2,1.3c-1.2,1-2.3,2.1-3.3,3.4c-0.1,0.2-0.1,0.4,0.1,0.5l2.2,1.7
			c0.2,0.1,0.4,0.1,0.5-0.1c0.4-0.6,0.9-1.1,1.4-1.6c3.3,11.8,12.1,29,26.9,37.4c3,1.7,6.5,3.3,10.1,4.5c-1.1,1.7-2.1,3.5-3,5.5
			c-0.5,1.1-2.1,1.4-4.5,1c-12.5-2.2-37.8-21.5-39.9-48.9c-0.5-7,0.8-17,2.1-27.6C310.3,323.8,312,310.3,310.4,301.7z M354.8,273
			l-1.5,0.3c-4.1,0.8-9.2,1.9-14.1,3.1c-2.8,0.7-5.6,2.6-8.3,4.4c-3.2,2.2-6.3,4.3-9.2,4.2c0.5-2.8,1.1-5.8,1.7-8.9
			c7.4-5,17.1-7.1,29.3-6.4c0.8,0.5,1.7,1,2.4,1.6c0.4,0.3,0.4,0.7,0.3,1C355.4,272.7,355.1,273,354.8,273z M321,285
			c-0.2,0-0.4,0-0.5-0.1c-1.3-0.3-2.6-1.2-3.7-2.6c1.8-2.1,3.7-3.9,5.9-5.4C322,279.7,321.4,282.5,321,285z M323.6,275.3
			c0.7-3.3,1.5-6.6,2.1-9.5c2.4-0.5,4.9-0.7,7.4-0.7c6.4,0,13,1.5,18,4C340,268.6,330.8,270.7,323.6,275.3z M322.8,275.9
			c-2.4,1.7-4.6,3.6-6.5,5.9c-0.6-0.8-1.2-1.8-1.8-3c-2.1-4.2-0.1-7.1,2-8.9c2.3-1.9,5.2-3.1,8.5-3.9
			C324.3,269,323.5,272.4,322.8,275.9z M321,361.5c16.3,19.6,33.7,24.6,53.2,15.4l0.9,1.8c-6.6,3.2-13.1,4.7-19.2,4.7
			c-13,0-25-6.9-36.6-21c-0.1-0.1-0.2-0.1-0.3-0.1c-0.1,0-0.1,0-0.2,0.1c-0.5,0.3-0.9,0.8-1.4,1.2c-0.2-0.8-0.4-1.5-0.5-2.2
			c2.5-2,5.5-3.3,9-4l0.3,2c-1.8,0.3-3.4,0.9-5,1.6c-0.1,0-0.2,0.1-0.2,0.3C320.9,361.3,320.9,361.5,321,361.5z M316.7,364.1
			c-0.5,0.5-1.1,1.1-1.6,1.7l-1.6-1.2c0.8-1,1.7-1.9,2.6-2.7C316.3,362.6,316.5,363.4,316.7,364.1z M388.7,257.9
			c-19-2.1-43.5-2.5-75.9-1.1c0.6-3.1,1.2-5.4,1.5-6.6c24.3-0.7,48.9-0.8,73.6-0.5C388.6,251.7,388.8,254.9,388.7,257.9z
			 M398.5,33.1c1.2,0.9,2.3,1.8,2,3.1l-12.8,199c0,0,0,0.1,0,0.1c-1.4-0.1-2.9-0.2-4.3-0.3c0,0,0-0.1,0.1-0.1l11.7-203.6
			c1.3,0.5,2.4,1.1,3.2,1.6L398.5,33.1z M394.5,31.1l-11.7,203.8c0,0,0,0.1,0,0.1c-15.7-0.9-29.9-1.5-42.9-1.7l-0.3-206.5
			C361,25.9,384.3,27.5,394.5,31.1z M339.2,233.3c-11-0.2-21-0.1-30.4,0.3V30.5c7.9-2,18.7-3.2,30-3.7L339.2,233.3z M293.7,40.8
			c0-2.4,1.9-3.9,3.9-5.4c0.3-0.2,0.5-0.4,0.8-0.6c2.1-1.6,5.5-3,9.7-4.1v202.9c0,0,0,0,0,0c-3.8,0.1-7.4,0.3-11,0.6L293.7,40.8z
			 M242.4,239.3c11.8-1.6,53.9-4.3,54.3-4.3c26-1.7,57.7-1.2,100,1.7h0l55,6.5c1.9,0.2,3.3,1.8,3.3,3.8v1.8
			c-60.6-10.4-130.6-12-213.9-5c0,0-0.1,0-0.1,0.1c0-0.2,0-0.4-0.1-0.6C240.9,240.9,241.5,239.4,242.4,239.3z M247.2,252.4
			C247.2,252.4,247.2,252.4,247.2,252.4c-3.3,0-5.4-4.3-6-8c0,0,0,0,0.1,0c83.3-7,153.2-5.3,213.8,5v0.1c0,1.1-0.4,2-1.2,2.8
			s-1.8,1.1-2.9,1l-62.9-4.5c0,0,0,0,0,0c0,0,0,0,0,0c-24.7-0.3-49.4-0.2-73.7,0.5c0-0.1,0-0.2,0.1-0.2c0.1-0.2-0.1-0.4-0.3-0.4
			c-0.2-0.1-0.4,0.1-0.4,0.3c0,0,0,0.2-0.1,0.4c-7.8,0.2-15.5,0.5-23.2,0.8l0,0l0,0C290.1,250.3,258.1,252.4,247.2,252.4z
			 M271.9,325c-6-16.2-6-32.3,0-41.2c1.6-2.4,3.9-3.9,6.7-4.5c8.2-1.6,18.9,5.1,20.3,6c0.2,2.8,0.4,5.6,0.5,8.3
			c-2.7-1.6-13.5-7.5-19.5-5.4c-1.7,0.6-2.9,1.8-3.5,3.6c-4.3,12.4,6.1,42.8,21.2,53.9c-0.5,3-1.1,5.9-1.8,8.6
			C293.1,352.4,277.6,340.5,271.9,325z M297.8,345c-14.7-11.1-24.8-40.7-20.6-52.8c0.5-1.6,1.5-2.6,3-3.1c6-2.1,17.7,4.6,19.3,5.6
			C300.5,314.8,300,331.5,297.8,345z M296.4,355.1c3.9-15.2,5.1-35.1,3.7-60.8c0,0,0,0,0,0c-0.2-3-0.4-6-0.6-9.1c0,0,0,0,0,0
			c0,0,0,0,0,0c0-0.3-1.1-8-2.6-10.2c-0.6-0.9-1.8-1.7-3.2-2.5c-1.3-0.8-2.7-1.7-3.1-2.5c-2.1-3.8-0.3-16.8,0-19
			c7.5-0.3,15.1-0.6,22.7-0.8c-0.3,1.3-0.8,3.6-1.5,6.6c-6.8,0.3-14,0.7-21.6,1.1c-0.2,0-0.4,0.2-0.3,0.4c0,0.2,0.2,0.3,0.4,0.3
			c7.5-0.4,14.6-0.8,21.4-1.1c-2.1,10.7-4.9,29.6-2.2,44.3c1.6,8.5-0.1,21.9-1.8,34.9c-1.4,10.7-2.6,20.7-2.1,27.7
			c2.1,27.8,27.8,47.3,40.5,49.5c0.8,0.1,1.4,0.2,2,0.2c2.1,0,3-0.8,3.3-1.6c0.9-2,1.9-3.8,3-5.5c3.8,1.2,7.8,2,11.3,2
			c2.1,0,4.1-0.3,5.9-0.9c3.4-1.2,6.9-6.4,9.2-11.5c1.1,0.6,2.1,1.4,3.1,2.2c0.8,0.7,1.6,0.6,2,0.4c2.9-1.2,4.4-10.3,4.7-16.7
			c3.2,1.8,20.5,11.3,22.6,14.7c3.3,5.4-5.1,28.1-17.5,37.9c-11.8,9.3-35,12.6-47.7,6.9c-4.4-2-43.2-21-51.7-78.3
			C296.1,361.7,296.4,355.5,296.4,355.1z M347.8,442.8c4.4,2,9.9,2.9,15.8,2.9c6,0,12.5-1,18.4-2.8l2.6,4.3
			c-4.4-1.4-12.3,1.7-18.4,4.4h0l0,0c-0.7,0.3-1.4,0.6-2,0.9c-1.7,0.8-3.2,1.4-4.2,1.8c-0.7,0.3-1.5,0.2-2.2-0.2
			c-6.3-3.3-27.2-13.7-32.4-8.2c-0.5,0.1-3,0.8-5,3.7c-2.3,3.4-2.9,8.5-1.6,15c2,10.1,13.7,30.6,25.1,33.2c0.4,0.1,0.8,0.1,1.1,0.1
			c3.6,0,6.6-3.9,9.4-7.7c2.6-3.5,5.4-7,8.6-7.7c2.2-0.5,5.8,1.5,9.3,3.3c4.1,2.1,7.9,4.2,10.5,3.3c2.3-0.8,5.9-6.8,6-7l0,0
			c1.4-1.8,2.5-4.2,3.2-7.2c0.1,0,0.2-0.1,0.3-0.2c0.1-0.2,0-0.4-0.1-0.5c0,0,0,0,0,0c0.3-1.4,0.5-2.9,0.6-4.5
			c6.6,19.7,11.3,40.8,14.4,64.3c-0.7,2.3-1.5,4.4-2.6,6.3c-3.6,6.4-9.2,10.3-16.8,11.4c-20,3.1-39-14.3-56.6-51.6
			c-11.9-25.2-23-58.8-33.8-102.2c0,0,0,0,0,0l0,0c-2.1-8.3-4.1-16.9-6.1-25.9c1.8-1.1,3.6-2.2,5.4-3.3
			C306.5,422.7,343.5,440.9,347.8,442.8z M455.1,584.1H200.9c-0.2-5.5-3.1-73.1,0-95.7c5.9-43.2,35.3-81.1,89.6-115.7
			c2,8.7,4,17.2,6,25.2c-22,3.9-37.2,18.4-43.6,29.7c-4.4,7.7-5.6,15-3.4,20.5c6.4,16.6,10.4,29.5,13.9,41
			c7.8,25.2,12.5,40.5,33.2,60.1c13.7,13,33.7,22.7,56.5,27.3c9.7,2,19.4,2.9,28.6,2.9c10.3,0,20-1.2,28.3-3.6
			c14.1-4.1,25.8-15.3,33.2-24c8-9.4,12.7-18,12.7-18c0-0.1,0.1-0.2,0-0.3C456,553.6,455.2,580.7,455.1,584.1z"/>
		<path class="st0" d="M378.2,304.6c-7,0-11.2-6.7-11.2-13.2c0-6.8,4.7-11.8,11.2-11.8c6.1,0,10.6,5.3,10.6,12.5
			c0,2.9-0.8,5.6-2.1,7.7C384.7,302.8,381.7,304.6,378.2,304.6z"/>
		<path class="st0" d="M378.2,299.3c1.7,0,3-0.8,4-2.3c0.8-1.3,1.3-3,1.3-4.9c0-3.5-1.7-7.2-5.3-7.2c-4.3,0-5.9,3.5-5.9,6.5
			C372.3,295.2,374.6,299.3,378.2,299.3z M378.2,285.6c3.1,0,4.5,3.4,4.5,6.5c0,1.7-0.4,3.3-1.2,4.5c-0.6,0.9-1.6,2-3.4,2
			c-3.1,0-5.2-3.7-5.2-7.2C373.1,288.6,374.4,285.6,378.2,285.6z"/>
		<path class="st0" d="M373.4,507.9c-5.1,0-9.7-3.6-11.2-8.8c-1.7-6,1.4-11.6,7.2-13.3c1.2-0.3,2.4-0.5,3.5-0.5c2.8,0,5.4,1,7.4,3
			c3,2.9,4.2,7.7,3.2,11.9c-0.9,3.7-3.6,6.5-7,7.4C375.5,507.8,374.4,507.9,373.4,507.9z"/>
		<path class="st0" d="M373.4,502.6c0.5,0,1.1-0.1,1.7-0.2c1.6-0.4,2.8-1.8,3.3-3.6c0.6-2.4-0.1-5.2-1.7-6.8c-1-1-2.8-2-5.7-1.2
			c-3.5,1-4.4,4.2-3.6,6.8C368.1,500.3,370.4,502.6,373.4,502.6z M371.2,491.5c0.6-0.2,1.3-0.3,1.8-0.3c1.2,0,2.3,0.4,3.2,1.3
			c1.5,1.4,2.1,3.9,1.5,6.1c-0.4,1.6-1.4,2.7-2.8,3.1c-3.4,0.9-6.1-1.5-6.9-4.2C367.4,495.3,367.9,492.5,371.2,491.5z"/>
		<path class="st0" d="M380.9,533.1c-5.1,0-9.7-3.6-11.2-8.8c-1.7-6,1.3-11.6,7.2-13.3c1.2-0.3,2.4-0.5,3.5-0.5c2.8,0,5.4,1.1,7.4,3
			c3,2.9,4.3,7.7,3.2,11.9c-0.9,3.7-3.6,6.5-7,7.4C382.9,532.9,381.9,533.1,380.9,533.1z"/>
		<path class="st0" d="M374.8,522.8c0.7,2.6,3,5,6.1,5c0.5,0,1.1-0.1,1.7-0.2c1.6-0.4,2.8-1.8,3.3-3.6c0.6-2.4-0.1-5.2-1.7-6.8
			c-1-1-2.8-2-5.7-1.2C374.9,517,374,520.1,374.8,522.8z M383.6,517.7c1.5,1.4,2.1,3.9,1.5,6.1c-0.4,1.6-1.4,2.7-2.8,3.1
			c-3.4,0.9-6.1-1.5-6.9-4.2c-0.6-2.1-0.1-5,3.1-5.9C380.6,516.1,382.4,516.5,383.6,517.7z"/>
	</g>
	<path class="st1" d="M336,353.6c-1-4.3,0.6-8.9,6.6-10.1c4.8-1,8.1,1.1,9.6,4.2l0.2,0l-0.1,0.2l-1,4.6
		C347,356.4,341.9,356.9,336,353.6z"/>
	<path class="st2" d="M321.3,285.5c0.5-2.9,1.1-6.2,1.8-9.4c7.3-5,17.1-7.4,29.8-6.6v0c0.9,0.5,1.7,1.1,2.4,1.7
		c0.9,0.7,0.6,2.1-0.5,2.3c-4.1,0.8-10.1,2-15.6,3.4C332.9,278.4,326.9,286,321.3,285.5z"/>
	<path class="st3" d="M323.3,451.9c0.2-2.3,1-4.3,2.2-5.7c4-4.5,18.6,1.6,27.1,5.6c1.9,2.5,3.5,5,4.5,7.5l-4.1,0.3
		c-0.1-0.1-0.2-0.2-0.5-0.3C344.3,455,325.1,452.2,323.3,451.9z"/>
	<path class="st4" d="M312.3,257.1c0.7-3.6,1.3-6.1,1.6-7.3c24.6-0.7,49.3-0.8,74.2-0.5c0.9,2.2,1.1,5.7,1,8.9h-0.3
		c-17-1.9-37.8-2.3-61.1-1.7C322.6,256.8,317.5,256.9,312.3,257.1z"/>
	<path class="st5" d="M351.3,352.7c14.7,4.7,28.4,7.4,39.8,5.8c-0.4,3.3-3.2,5.8-6.5,5.9c-1.2,0.1-2.4,0.1-3.6,0.1
		c-8.4-0.1-16.9-1.7-25.5-4.4c-1.6-0.5-2.8-1.6-3.6-2.9C351.3,355.8,351,354.2,351.3,352.7z"/>
	<path class="st5" d="M351.3,352.7c-0.3,1.6-0.1,3.1,0.7,4.4c-1,1.9-2.7,3.5-5.1,4.3c-0.6,0.2-1.3,0.4-2.1,0.5
		c-4.1,0.6-7.9-3.7-8.9-8.3C341.9,356.9,347,356.4,351.3,352.7z"/>
	<path class="st6" d="M326.3,466.6c0,0,17.7-0.4,26.3,4.3c4.9,2.6-16.9,14.5-16.9,14.5c-4.1-4.8-7.8-11.7-10.1-18.6L326.3,466.6z"/>
	<path d="M378.2,298.9c-6.3,0-8.3-13.7,0-13.7C384.8,285.2,384.8,298.9,378.2,298.9z"/>
	<path class="st3" d="M249.7,448c-6-15.6,15.7-44.4,47.2-49.9c6.3,25.3,13.3,49.8,21.2,71.5c18.5,51.2,41.4,86.9,69.7,82.6
		c9.6-1.5,16.6-7.2,19.7-18.1c5-17.2,0.2-47.3-19.7-93.7c3.1-1.4,5.9-3,8.3-4.9c4.7-3.7,8.7-9.1,11.9-14.7
		c23.7,26.1,43.8,57.1,47.5,95.6c0.4,4.1,0.6,10.2,0.7,17.1h-0.7c0,0-18.6,34-45.7,41.9c-30.4,8.9-83.2,1.8-113-26.5
		C267.1,520.8,270.5,502.3,249.7,448z"/>
	<path class="st3" d="M339.2,26.4c21.7-0.9,45.4,0.7,55.7,4.4v0l-11.8,204.1l0,0.5c-15.1-0.9-29.7-1.5-43.5-1.7v-0.1L339.2,26.4z"/>
	<path class="st3" d="M308.5,30.2v203.4l0,0.4c-4,0.2-7.9,0.3-11.7,0.6l-3.4-193.7c-0.1-3,2.5-4.5,4.8-6.3
		C300.3,32.8,303.9,31.4,308.5,30.2z"/>
	<path class="st7" d="M313.9,249.8c-0.3,1.2-0.9,3.8-1.6,7.3c-7.1,0.3-14.4,0.7-21.9,1.1l-0.8,0c0.3-4.1,0.8-7.6,0.8-7.6
		C298.2,250.3,306.1,250,313.9,249.8z"/>
	<path class="st3" d="M240.8,244.2c-0.4-2.7,0.1-5.1,1.6-5.3c11.9-1.6,54.4-4.4,54.4-4.4c3.8-0.3,7.7-0.5,11.7-0.6
		c9.9-0.4,20.3-0.5,31.1-0.3c13.9,0.2,28.4,0.8,43.5,1.7c4.5,0.3,9.1,0.6,13.7,0.9l55,6.5c2.1,0.2,3.7,2,3.7,4.1v2.2h0
		c-66.6-11.5-138.9-11.4-214.2-5.1L240.8,244.2z"/>
	<path class="st8" d="M276.8,292.1c-4.1,12,6,42.6,21.2,53.6c-0.6,3.3-1.2,6.4-2,9.4c0,0-18.1-12.6-24.5-29.9
		c-6.3-17.1-5.8-32.9,0-41.5c7.9-11.8,27.7,1.6,27.7,1.6c0.2,3.1,0.4,6.2,0.6,9.2C299.8,294.4,280.2,282.3,276.8,292.1z"/>
	<path class="st4" d="M306.1,364.4c-1.2-15.6,6.8-47.2,3.9-62.7c-1.6-8.5-1.3-18.4-0.4-27.2l3.6,0.2c-0.1,1.3,0.2,2.7,0.9,4.2
		c0.7,1.4,1.4,2.5,2.1,3.4c1.6,2.1,3.3,3,5.1,3.1c-0.6,3.4-1,6.3-1.1,8.4c-0.2,6.1,3.2,18,3,24.1c-0.3,10.1-8.7,31.7-7.1,41.7
		c0.1,0.5,0.2,1,0.3,1.5c-1.2,1-2.4,2.2-3.4,3.5l2.2,1.7c0.6-0.8,1.2-1.5,1.9-2.1c3.2,12.2,12.4,29.5,26.8,37.8
		c3.2,1.8,6.8,3.5,10.4,4.6c-1.2,1.8-2.2,3.7-3.2,5.8C348,419.4,308.8,399.6,306.1,364.4z"/>
	<path class="st3" d="M389.9,453.4c1.3,2.8,2.1,6.3,2.5,9.9l-0.3,0c0,0-4.1,0.6-7.6,0.7c-3.1,0.1-5.8-0.2-5.3-1.6
		C381.1,457.1,389.8,453.4,389.9,453.4L389.9,453.4z"/>
	<path class="st5" d="M313,364.7c1-1.3,2.2-2.5,3.4-3.5c0.2,1,0.4,2,0.7,3.1c-0.7,0.6-1.3,1.3-1.9,2.1L313,364.7z"/>
	<path class="st9" d="M378.2,285.2c-8.3,0-6.3,13.7,0,13.7C384.8,298.9,384.8,285.2,378.2,285.2z M341.5,285.9
		c-8.7,0-9,15.9,0.7,15.9C348.9,301.8,351.1,285.9,341.5,285.9z M323.2,317.9c0.2-6.1-3.2-18-3-24.1c0.1-2.1,0.5-5.1,1.1-8.4
		c5.6,0.5,11.7-7,18-8.7c5.5-1.4,11.5-2.6,15.6-3.4c1.1-0.2,1.4-1.6,0.5-2.3c-0.8-0.6-1.6-1.1-2.4-1.7c-8-4.8-19.1-5.7-27.5-3.9
		c1.2-5.2,2.2-9,2.2-9c23.4-0.6,44.1-0.2,61.1,1.7h0.3c-0.1,3.8-0.6,7.2-0.6,7.2v0c-6.8-0.4-14.9,3.3-15.7,7.1
		c-0.1,0.6-0.1,1.3,0.2,1.9c1.8,3.7,7.8,1.5,15.2,5.3v0c1.9,9.3-1.4,19.2-6,29.3h0c-4.1-5.9-9.3-10.9-15.8-14.9
		c-1.2-0.7-2.7-0.1-2.9,1.2l-11.1,52.4l-0.2,0c-1.5-3.1-4.8-5.2-9.6-4.2c-6,1.2-7.5,5.8-6.6,10.1c1,4.6,4.8,8.8,8.9,8.3
		c0.7-0.1,1.4-0.3,2.1-0.5l0.1,0.3c11.5,8.9,23.8,13.3,35.1,9l0.5,0c0.6,1.6,1.3,3.2,2.3,4.8c0,0,0.1,5.4-1.8,14.1
		c-0.4,1.7-1.2,4.2-2.4,6.7c-8.8-4.8-19.2-0.7-26.4,10.5c-3.6-1.2-7.2-2.8-10.4-4.6c-14.4-8.2-23.6-25.6-26.8-37.8
		c0.6-0.6,1.2-1.1,1.8-1.5c11.6,14.1,23.8,21.1,36.9,21.1c6.4,0,12.9-1.7,19.7-4.9l-1.2-2.5c-19.4,9.4-36.8,4.4-53.1-15.1
		c1.6-0.8,3.3-1.3,5.2-1.7l-0.5-2.7c-3.8,0.6-7,2-9.7,4.2c-0.1-0.5-0.2-1-0.3-1.5C314.5,349.7,322.9,328.1,323.2,317.9z"/>
	<path class="st10" d="M323.3,451.9c-0.2,1.6-0.2,3.3,0,5.2c0.3,3,1.1,6.3,2.2,9.7c2.3,6.9,6,13.8,10.1,18.6
		c2.7,3.2,5.7,5.4,8.4,5.9c3.4,0.6,8.2-5,11.9-10.1c1.5-2.1,2.7-4,3.6-5.4c0.7-1.1,2.2-1.4,3.3-0.7c5.1,3.5,17.8,11.5,22.7,9.2
		c1.1-0.5,2-1.3,2.8-2.3c-0.4,0.7-3.7,6.1-5.8,6.8c-4.6,1.5-15-7.7-19.7-6.7c-7.2,1.5-11.8,16.9-19,15.2c-9.9-2.2-19.9-18-23.6-28.7
		c-0.5-1.5-0.9-3-1.2-4.3c-3.2-16.5,6.4-18.3,6.4-18.3C324.3,447.7,323.6,449.6,323.3,451.9z"/>
	<path d="M341.5,285.9c9.6,0,7.4,15.9,0.7,15.9C332.5,301.8,332.8,285.9,341.5,285.9z"/>
	<path class="st4" d="M384.9,375.4c1.2,1.8,5.5,6.7,5.5,6.7c-0.2,8.8-2.8,19.5-6.1,16.6c-1.1-1-2.3-1.8-3.5-2.5
		c1.1-2.5,2-4.9,2.4-6.7C385.1,380.8,384.9,375.4,384.9,375.4z"/>
	<path class="st3" d="M382.5,527.2c-6.9,1.9-10.9-8.9-4-10.8C386.4,514.1,388,525.7,382.5,527.2z"/>
	<path class="st4" d="M299.8,294.4c1.1,19.6,0.6,36.9-1.8,51.3c-15.2-11-25.4-41.6-21.2-53.6C280.2,282.3,299.8,294.4,299.8,294.4z"
		/>
	<path class="st6" d="M353.1,459.8c1.1,1.7-27.3-2.3-29.7-2.6c-0.2-1.9-0.2-3.6,0-5.2c1.7,0.2,21,3.1,29.3,7.5
		C352.9,459.6,353,459.7,353.1,459.8z"/>
	<path class="st10" d="M387.8,440.4c20,46.4,24.7,76.5,19.7,93.7c-3-23-7.8-45.2-15-66.3c0-1.5,0-3.1-0.2-4.6
		c-0.3-3.6-1.2-7.1-2.5-9.9c-1.1-2.3-2.6-4.2-4.3-5.3l-3.4-5.5C384.1,441.9,386,441.2,387.8,440.4z"/>
	<path class="st11" d="M323.1,276.1c0.8-3.7,1.6-7.4,2.4-10.5c8.4-1.8,19.5-1,27.5,3.9v0C340.2,268.7,330.4,271.1,323.1,276.1z"/>
	<path class="st4" d="M346.9,361.4c2.4-0.8,4-2.4,5.1-4.3c0.7,1.4,2,2.5,3.6,2.9c8.5,2.7,17,4.3,25.5,4.4c0,0,0.3,2.8,1.6,6.2
		l-0.5,0c-11.3,4.3-23.6-0.1-35.1-9L346.9,361.4z"/>
	<path class="st6" d="M366.3,451.9c0,0,3.5,9.3,1.1,10.4l-7.4-7.7C361.5,454.1,363.8,453,366.3,451.9z"/>
	<path class="st2" d="M316.2,282.3c2-2.4,4.3-4.5,6.9-6.2c-0.7,3.2-1.3,6.4-1.8,9.4C319.5,285.3,317.8,284.4,316.2,282.3z"/>
	<path class="st11" d="M354.4,406.6c7.2-11.2,17.6-15.2,26.4-10.5c-2.3,5-5.8,10.5-9.2,11.6C367,409.5,360.6,408.7,354.4,406.6z"/>
	<path class="st6" d="M352.6,451.9c2.1,1,3.9,1.9,4.9,2.5c0,0,5.2,10.2,7,12.2c4.4,4.5,9.3-4.4,7-16.8v0c5.4-2.1,11-3.5,13.9-1.7
		c1.8,1.1,3.2,3,4.3,5.3h0c0,0-8.7,3.7-10.7,8.9c-0.6,1.4,2.2,1.7,5.3,1.6l0.1,3.8c-0.2,0-0.4,0.1-0.6,0.1c-2.4,0.6,6.3,5.7,7.9,6.7
		c-0.7,3-1.7,5.7-3.3,7.6c0,0,0,0,0,0.1c-0.8,1-1.8,1.8-2.8,2.3c-4.9,2.3-17.6-5.7-22.7-9.2c-1.1-0.8-2.6-0.5-3.3,0.7
		c-0.9,1.4-2.1,3.4-3.6,5.4c4-7.3,4.4-14.5,1.2-21.8C356.1,457,354.6,454.4,352.6,451.9z"/>
	<path class="st3" d="M352.6,470.9c-8.7-4.6-26.3-4.3-26.3-4.3l-0.7,0.2c-1.1-3.3-1.9-6.7-2.2-9.7c2.4,0.3,30.8,4.3,29.7,2.6
		l4.1-0.3c3.2,7.3,2.8,14.5-1.2,21.8c-3.6,5.1-8.5,10.7-11.9,10.1c-2.8-0.5-5.7-2.7-8.4-5.9C335.7,485.4,357.5,473.5,352.6,470.9z"
		/>
	<path class="st2" d="M299.8,294.4c-0.2-3-0.4-6.1-0.6-9.2c0,0-1.1-7.9-2.5-10.1c-1.1-1.7-5.3-3.3-6.3-5c-1.2-2.2-1.2-7.4-0.8-11.9
		l0.8,0c7.5-0.4,14.8-0.8,21.9-1.1c-0.9,4.6-2,10.7-2.7,17.4c-0.9,8.9-1.2,18.7,0.4,27.2c2.9,15.4-5.1,47-3.9,62.7
		c2.6,35.1,41.9,54.9,45,48c1-2.1,2-4.1,3.2-5.8c6.3,2.1,12.6,2.8,17.2,1.2c3.4-1.2,6.9-6.6,9.2-11.6c1.2,0.7,2.4,1.5,3.5,2.5
		c3.3,2.9,5.9-7.8,6.1-16.6c0,0,20.9,11.3,23.3,15.1c2.2,3.5-0.4,13.9-5.8,23.7c-3.1,5.6-7.2,11-11.9,14.7c-2.4,1.9-5.2,3.5-8.3,4.9
		c-1.8,0.8-3.7,1.5-5.6,2.1c-11.7,3.6-25.5,3.9-34.2-0.1c-10.9-4.9-42.4-25.8-51.2-74.2c-0.3-1.5-0.5-2.9-0.7-4.4
		c-0.3-2.2,0-8.8,0-8.8c0.8-3,1.4-6.1,2-9.4C300.4,331.3,300.9,314,299.8,294.4z"/>
	<path class="st3" d="M367.4,462.3c2.4-1.1-1.1-10.4-1.1-10.4c1.6-0.7,3.4-1.5,5.2-2.1c2.3,12.5-2.6,21.4-7,16.8
		c-1.9-1.9-7-12.2-7-12.2c0.8,0.4,1.7,0.5,2.5,0.2L367.4,462.3z"/>
	<path class="st3" d="M384.5,467.7c2.9-0.3,8,1.4,8,1.4h0c-0.1,1.8-0.3,3.6-0.7,5.3c-1.6-0.9-10.3-6.1-7.9-6.7
		C384,467.8,384.2,467.7,384.5,467.7z"/>
	<path class="st3" d="M371.1,491.2c7.8-2.3,9.5,9.3,4,10.8C368.2,503.9,364.1,493.2,371.1,491.2z"/>
	<path class="st2" d="M313.2,274.7c0.4-4.4,5.5-7.6,12.3-9.1c-0.7,3.1-1.6,6.8-2.4,10.5c-2.6,1.7-4.9,3.8-6.9,6.2
		c-0.7-0.9-1.4-2-2.1-3.4C313.3,277.5,313.1,276.1,313.2,274.7z"/>
	<path class="st11" d="M393.5,266.7c4.9,2.5,6.8,7.4,6.2,11.1h0c-7.5-6.2-16.8-6.9-26.9-5.2c0.8-3.9,8.9-7.5,15.7-7.1
		C390.3,265.5,392,265.9,393.5,266.7z"/>
	<path class="st12" d="M375,502c5.5-1.5,3.9-13.1-4-10.8C364.1,493.2,368.2,503.9,375,502z M378.5,516.4c-6.9,2-2.9,12.7,4,10.8
		C388,525.7,386.4,514.1,378.5,516.4z M318.1,469.6l2.2-0.8c3.7,10.7,13.8,26.4,23.6,28.7c7.2,1.6,11.8-13.7,19-15.2
		c4.7-1,15.2,8.2,19.7,6.7c2.1-0.7,5.4-6.1,5.8-6.8c0,0,0-0.1,0-0.1c1.5-1.9,2.6-4.6,3.3-7.6c0.4-1.7,0.6-3.5,0.7-5.3
		c0-0.4,0-0.9,0-1.3c7.2,21.1,12,43.3,15,66.3c-3.2,10.9-10.2,16.6-19.7,18.1C359.6,556.6,336.6,520.8,318.1,469.6z"/>
	<path class="st6" d="M296.9,398.2c-31.5,5.5-53.2,34.3-47.2,49.9c20.8,54.2,17.3,72.8,47,101c29.8,28.3,82.6,35.4,113,26.5
		c27.1-7.9,45.7-41.9,45.7-41.9h0.7c0.3,21.5-0.7,50.8-0.7,50.8h-255c0,0-3.2-72.3,0-96.1c6.8-49.8,43.9-86.8,90.2-116.2
		C292.7,380.8,294.8,389.5,296.9,398.2z"/>
	<path class="st13" d="M382.2,309.1c8.3,12.1,11.5,28.4,9,49.4c-11.5,1.7-25.1-1.1-39.8-5.8l1-4.6l0.1-0.2l11.1-52.4
		c0.3-1.3,1.8-2,2.9-1.2C372.8,298.2,378.1,303.1,382.2,309.1z"/>
	<path class="st12" d="M325.5,446.3c0,0-9.6,1.8-6.4,18.3c0.2,1.3,0.6,2.7,1.2,4.3l-2.2,0.8c-7.8-21.7-14.9-46.1-21.2-71.5
		c-2.1-8.6-4.2-17.3-6.2-26.1c2-1.3,4-2.5,6-3.8c8.8,48.4,40.2,69.3,51.2,74.2c8.7,3.9,22.5,3.7,34.2,0.1l3.4,5.5
		c-2.9-1.8-8.5-0.3-13.9,1.7v0c-1.8,0.7-3.6,1.4-5.2,2.1c-2.6,1.1-4.8,2.1-6.3,2.7c-0.8,0.3-1.7,0.2-2.5-0.2
		c-1.1-0.6-2.8-1.5-4.9-2.5C344.1,447.8,329.4,441.8,325.5,446.3z"/>
	<path class="st5" d="M317.1,364.2c-0.3-1.1-0.5-2.1-0.7-3.1c2.7-2.2,5.9-3.6,9.7-4.2l0.5,2.7c-1.9,0.3-3.6,0.9-5.2,1.7
		c16.3,19.5,33.7,24.5,53.1,15.1l1.2,2.5c-6.8,3.3-13.4,4.9-19.7,4.9c-13.1,0-25.3-7-36.9-21.1C318.3,363.2,317.7,363.7,317.1,364.2
		z"/>
	<path class="st3" d="M398.6,32.7c1.3,1,2.6,1.9,2.3,3.6l-12.8,199l8.7,1c-4.6-0.3-9.2-0.6-13.7-0.9l0-0.5l11.8-204.1
		C396.5,31.4,397.7,32,398.6,32.7z"/>
	<path class="st6" d="M308.5,30.2c8-2.1,19.1-3.3,30.8-3.8l0.3,207.2v0.1c-10.8-0.2-21.2-0.1-31.1,0.3l0-0.4V30.2z"/>
	<path class="st6" d="M313.9,249.8c-7.8,0.2-15.7,0.5-23.5,0.8c0,0-32.2,2.2-43.2,2.2c-3.6,0-5.8-4.7-6.4-8.6l0.5-0.1
		c75.3-6.3,147.5-6.4,214.2,5.1h0v0.5c0,2.4-2,4.3-4.4,4.1l-62.9-4.5C363.2,249,338.5,249.2,313.9,249.8z"/>
	<path class="st2" d="M372.8,272.6c10.1-1.7,19.4-1,26.9,5.2h0c-0.6,3.9-4.1,6.4-10,2.8c-0.5-0.3-1-0.6-1.5-0.8v0
		c-7.3-3.7-13.4-1.5-15.2-5.3C372.7,273.9,372.7,273.2,372.8,272.6z"/>
	<path class="st6" d="M392.5,467.8c0,0.4,0,0.9,0,1.3h0c0,0-5.1-1.7-8-1.4l-0.1-3.8c3.6-0.1,7.6-0.7,7.6-0.7l0.3,0
		C392.5,464.8,392.5,466.3,392.5,467.8z"/>
	<path class="st4" d="M325.4,265.6c-6.8,1.5-11.8,4.7-12.3,9.1l-3.6-0.2c0.7-6.7,1.7-12.9,2.7-17.4c5.2-0.2,10.4-0.4,15.4-0.5
		C327.6,256.6,326.7,260.4,325.4,265.6z"/>
</g>
</svg>
