<svg id="Layer_1" data-name="Layer 1" xmlns="http://www.w3.org/2000/svg" viewBox="0 0 195 295"><defs><style>.cls-1{fill:#fff;}.cls-2{fill:#172d44;}.cls-3{fill:#466084;}.cls-4{fill:#b7a67d;}.cls-5{fill:#f4e8c3;}.cls-6{fill:#cc8f7a;}.cls-7{fill:#f2b78b;}.cls-8{fill:#b2a893;}.cls-9{fill:#efe7d0;}.cls-10{fill:#aa593d;}.cls-11{fill:#d88361;}</style></defs><title>george_front_final-03</title><path class="cls-1" d="M114.13,174.11a29.49,29.49,0,0,1-22.21-9.75,2.76,2.76,0,0,1-1.45.71l-.19,0H90a2.79,2.79,0,0,1-1.75-.62l-1.13-.93a2.79,2.79,0,0,1-.38-3.93c1.75-2.14,4.53-5,8.31-5a2.8,2.8,0,0,1,2.81,2.79v1.44a2.81,2.81,0,0,1-.29,1.25,22.41,22.41,0,0,0,16.42,7,22,22,0,0,0,6.52-.92l.41-.14h.49a2.79,2.79,0,0,1,2.63,1.88l.47,1.38a2.79,2.79,0,0,1-1.78,3.56h0a29.48,29.48,0,0,1-8.27,1.2Z"/><path class="cls-1" d="M121.37,168.72a25.54,25.54,0,0,1-27.82-9.27,3.65,3.65,0,0,1,1.54-.39.18.18,0,0,0,.18-.18v-1.45a.18.18,0,0,0-.2-.18c-2,0-4,1.29-6.3,4a.18.18,0,0,0,0,.25l1.12.92a.17.17,0,0,0,.13,0,.18.18,0,0,0,.12-.07,15.84,15.84,0,0,1,1.88-2,27.16,27.16,0,0,0,22.09,11h.33a26.66,26.66,0,0,0,7.5-1.07.18.18,0,0,0,.1-.09.18.18,0,0,0,0-.14l-.47-1.37A.18.18,0,0,0,121.37,168.72Zm-6.91,2.42c-6.22.09-15.13-1.79-22.24-11a.18.18,0,0,0-.12-.07h0a.18.18,0,0,0-.12,0,15.42,15.42,0,0,0-2,2l-.84-.69c2.08-2.5,3.92-3.71,5.75-3.77v1.09a4.17,4.17,0,0,0-1.72.52.18.18,0,0,0-.06.27,25.92,25.92,0,0,0,28.18,9.62l.35,1A27.14,27.14,0,0,1,114.45,171.14Z"/><path class="cls-1" d="M97.5,138a5.66,5.66,0,0,1-5-2.81,6.65,6.65,0,0,1-.05-6.54,6.06,6.06,0,0,1,5.37-3.09c3.12,0,5.46,2.64,5.5,6.13a6.71,6.71,0,0,1-1.27,4.1,5.55,5.55,0,0,1-4.48,2.2H97.5Zm.14-6.83a.41.41,0,0,0-.33.22,1.08,1.08,0,0,0,0,1,.22.22,0,0,0,.2.07h.13a1.64,1.64,0,0,0,.11-.65A1.73,1.73,0,0,0,97.65,131.18Z"/><path class="cls-1" d="M97.5,135.41h0c2.22,0,3.19-1.86,3.17-3.67s-1-3.55-2.83-3.55h0a3.47,3.47,0,0,0-3.13,1.76,4.05,4.05,0,0,0,0,3.94A3.07,3.07,0,0,0,97.5,135.41ZM95,130.12a3.12,3.12,0,0,1,2.82-1.57h0c1.6,0,2.45,1.6,2.47,3.19s-.85,3.28-2.82,3.3h0a2.72,2.72,0,0,1-2.44-1.35A3.68,3.68,0,0,1,95,130.12Z"/><path class="cls-1" d="M118.87,137.89a5.17,5.17,0,0,1-3.74-1.71c-1.81-1.84-3.06-5.11-2-7.8a5,5,0,0,1,4.81-3c3.21,0,5.39,2.77,5.92,5.5a5.76,5.76,0,0,1-3.42,6.72A4.44,4.44,0,0,1,118.87,137.89Zm-.41-5.5h0Z"/><path class="cls-1" d="M121.35,131.36C121,129.71,119.76,128,118,128h0a2.38,2.38,0,0,0-2.43,1.41c-.64,1.54.23,3.78,1.4,5a2.69,2.69,0,0,0,1.87.93,1.83,1.83,0,0,0,.67-.13A3.17,3.17,0,0,0,121.35,131.36Zm-1.95,3.46a2.08,2.08,0,0,1-2.15-.72c-1.09-1.11-1.89-3.22-1.33-4.58a2.05,2.05,0,0,1,2.1-1.19h0c1.47,0,2.65,1.57,3,3.1A2.77,2.77,0,0,1,119.4,134.82Z"/><path class="cls-1" d="M122,127.12a3,3,0,0,1-.48,0A7.07,7.07,0,0,1,118,125a14.39,14.39,0,0,0-1.63-1.33,5.51,5.51,0,0,0-.51,1,3,3,0,0,1-2.6,1.86h-.16a3.57,3.57,0,0,1-2.61-1.26l-.79-.33.18-.44a7.37,7.37,0,0,1-.45-.77,3.68,3.68,0,0,1,.13-4.14c2.22-2.8,4.56-4.22,7-4.22a6,6,0,0,1,1,.08c4,.66,6.19,5,7.12,7.59a3,3,0,0,1-.46,3.06A2.89,2.89,0,0,1,122,127.12Z"/><path class="cls-1" d="M113.14,123.89h0a.37.37,0,0,0,.34-.25h0c.66-1.59,1.44-2.5,2.31-2.69,1.32-.3,2.74,1,4,2.09a5.51,5.51,0,0,0,2.11,1.47H122a.3.3,0,0,0,.24-.1.52.52,0,0,0,0-.5c-.59-1.62-2.26-5.45-5.09-5.91-1.74-.29-3.59.79-5.48,3.18-.28.36,0,1,.15,1.35C112.08,123.06,112.67,123.89,113.14,123.89Zm-1.21-2.48c1.81-2.28,3.54-3.31,5.14-3,2.71.44,4.36,4.45,4.81,5.67a.74.74,0,0,1,0,.11,6,6,0,0,1-1.88-1.37c-1.17-1.05-2.48-2.23-3.82-2.23a2.19,2.19,0,0,0-.49.05c-1,.23-1.85,1.18-2.57,2.91l.17.07-.18,0c-.08,0-.47-.26-.85-.87S111.82,121.56,111.94,121.41Z"/><path class="cls-1" d="M88.82,127.48a3.1,3.1,0,0,1-1.88-.64A3.06,3.06,0,0,1,86,123.1l.11-.23c.8-1.79,2.62-5.84,8.67-5.84a25.89,25.89,0,0,1,9.39,2.22,3.08,3.08,0,0,1,1.9,2.57,6.1,6.1,0,0,1-2.22,5,3.16,3.16,0,0,1-1.8.57,3,3,0,0,1-1.35-.32,14.66,14.66,0,0,0-6.26-1.95A4.69,4.69,0,0,0,91,126.55l-.23.19A3.09,3.09,0,0,1,88.82,127.48Z"/><path class="cls-1" d="M88.82,124.87a.48.48,0,0,0,.31-.12l.22-.19c1.72-1.48,4.6-3.95,12.54.12a.47.47,0,0,0,.5-.07,3.7,3.7,0,0,0,1.11-2.52.48.48,0,0,0-.28-.44c-11.6-4.66-13.6-.2-14.67,2.2l-.15.33a.46.46,0,0,0,.14.57A.48.48,0,0,0,88.82,124.87Zm-.1-.52.15-.34c.7-1.55,1.8-4,6-4a23,23,0,0,1,8.24,2s0,.06.06.14a3.49,3.49,0,0,1-1,2.18s-.1.06-.12,0c-8.15-4.18-11.15-1.61-12.94-.07l-.22.19a.11.11,0,0,1-.15,0A.1.1,0,0,1,88.72,124.35Z"/><path class="cls-1" d="M37.73,284.61A2.8,2.8,0,0,1,34.95,282c-1.39-18.58-3-39.63,1.89-58.06,5-19.14,16.27-34,35.27-46.48a14,14,0,0,1-.77-2.84,52.79,52.79,0,0,1-.48-5.44c-12.19-1.73-29.73-7.65-27.72-27.54,1.15-11.31,7.59-14.54,15.06-18.27,5.51-2.76,12.35-6.18,19.5-13.92,9.68-10.48,19.81-16,29.3-16a24.25,24.25,0,0,1,2.72.15c9.24,1,11.22,8.18,12.53,12.91.54,2,1.05,3.8,1.84,4.72s1.93,2.19,3.07,3.45c3.48,3.86,7.8,8.64,10,12.38,1.26,2.17,4,4.94,6.93,7.86s6.46,6.48,8.7,9.9l.22.16.21.52c2.06,3.37,2.68,6.34,1.9,9.07-1.35,4.74-9.77,9.33-14.79,11.69q0,.3.06.59a3.24,3.24,0,0,1,.09,1.22c.26,4.72-.5,8.39-2.35,11.2a19.22,19.22,0,0,1-4.1,3.92c-.07.43-.17,1-.3,1.74a61.91,61.91,0,0,1,23.87,19.21l.21.14.23.45a76.36,76.36,0,0,1,5.71,8.94c8.87,16.25,13.87,38,15.29,66.51a2.81,2.81,0,0,1-.77,2.07,2.77,2.77,0,0,1-2,.86l-21.88.24a2.77,2.77,0,0,1-1.64.53,2.8,2.8,0,0,1-1.59-.49l-113.4,1.24ZM75.92,181.67c-18.23,11.82-29,25.75-33.68,43.72C38.12,241,38.81,258.26,40.32,279l49.3-.54a101.74,101.74,0,0,1-11.7-12.81C75.14,262,50.8,229.79,53.84,207.79c.63-4.54,4.57-9.61,12-15.48a117.36,117.36,0,0,1,11.71-8q-.08-.89-.13-1.77l-.06-.21C76.86,182.12,76.37,181.9,75.92,181.67Zm2.53,8.69c-2.09,1.31-4.76,3.08-7.45,5.09-9.88,7.38-11.42,11.62-11.62,13.1-.92,6.66,1.35,16,6.56,27a151.38,151.38,0,0,0,16.41,26.64,91.63,91.63,0,0,0,15.77,16.13l53.58-.59c3.95-5.6,8.55-14.72,9.7-27.75,1.19-13.44-1.57-27.71-8.19-42.42a56.43,56.43,0,0,0-20.7-17.08,23.7,23.7,0,0,1-2.52,6.89,15.14,15.14,0,0,1-1.18,4.38,26.65,26.65,0,0,1-1,4.8c7.93,14.67,12.54,28.92,13.37,41.29.73,10.82-1.55,19.87-6.24,24.82a11.35,11.35,0,0,1-8.31,3.84,11.08,11.08,0,0,1-4.83-1.14c-4.08-2-11.36-8.7-22.92-29.63-7.59-13.74-14.54-29.4-17.77-40A31.9,31.9,0,0,1,78.45,190.35Zm88.43,46.1a77.19,77.19,0,0,1,.07,14.07,63.07,63.07,0,0,1-8.56,27.18l14.87-.16C172.32,261.66,170.21,248,166.88,236.45ZM91.14,217a268.17,268.17,0,0,0,12.6,26.07c12.18,22.06,18.74,26.47,20.46,27.3a5.64,5.64,0,0,0,2.44.6,5.84,5.84,0,0,0,4.22-2.11c3.57-3.77,5.34-11.48,4.73-20.61-.7-10.5-4.39-22.58-10.72-35.17a25.74,25.74,0,0,1-5.88,6.83,13.48,13.48,0,0,1-8.2,3.35,8.43,8.43,0,0,1-1.15-.08C102.17,222.16,96,220.09,91.14,217ZM87.2,205.36c4,6.59,11.82,10.73,23.2,12.31l.39,0a8.38,8.38,0,0,0,4.71-2.13,21.52,21.52,0,0,0,6.13-8.38,31.4,31.4,0,0,1-15.9,4.76h-.16A27.1,27.1,0,0,1,87.2,205.36Zm-1.65-17.6a29.66,29.66,0,0,0,7.14,8.86,23.79,23.79,0,0,0,8.29,4.53c-.92-.4-1.9-.87-2.95-1.42C94.71,198,89.36,192.2,85.55,187.77Zm12,4.63a16.35,16.35,0,0,0,3,2.39c4.37,2.28,6.66,2.74,8.76,2.74a33,33,0,0,0,4.13-.37l.15,0c1.09-.14,3.06-1.19,5.37-2.71a39.6,39.6,0,0,1-7.88.74C108.43,195.17,101.77,194.9,97.56,192.4Zm-5.43-5.62c1.14,1.26,2.25,2.46,3.29,3.52A14.22,14.22,0,0,1,94.7,189a5.23,5.23,0,0,0-.62-1.08A7.85,7.85,0,0,0,92.14,186.78Zm6.39-2.29a10.67,10.67,0,0,1,1.18,2,5.4,5.4,0,0,0,.58,1c2,1.26,6.26,2.08,10.86,2.08,4.77,0,9.19-.88,11.07-2.19,0-.1.08-.27.12-.4a6.34,6.34,0,0,1,1.4-2.8c-3.74,1.48-8.59,1.79-12,1.79a55.85,55.85,0,0,1-12.88-1.43Zm-8.67-71c-.84,2.22-1.9,9.38-1.33,11.68C90,131,87.9,139,85.71,147.52s-4.66,18.1-2.3,22.68c.37.71,1.79,2.64,7.06,5.26a53.9,53.9,0,0,0,9.77,3.71,50.75,50.75,0,0,0,11.51,1.26,28.91,28.91,0,0,0,9.95-1.4c4.13-1.63,11.65-9.28,13.08-11.65-.07-.74-.16-1.53-.28-2.35-.24-1.62-.59-3.37-1.07-5.34l-.24-.61,0-.2c-.85-3.4-1.91-6.86-2.93-10.22-1.56-5.11-3-9.92-3.48-13.68a7.77,7.77,0,0,1,.54-3.46,6.36,6.36,0,0,0,.3-1.08c-.45-4.17-6.8-13.18-10.44-14.79a43.2,43.2,0,0,0-17.33-3.78A29.82,29.82,0,0,0,89.86,113.49Zm-8.3,64.4c1.1.34,2.29.67,3.49,1-2.9-1.74-5.41-3.8-6.59-6.1-3.35-6.47-.71-16.72,1.85-26.63,1.62-6.3,3.17-12.31,3.13-16.71-2.82,10.94-5,19.77-6.19,27.38l.05.14-.17.68a70.13,70.13,0,0,0-.72,8.43,2.78,2.78,0,0,1,.08,1,2.8,2.8,0,0,1-.09.47,47.72,47.72,0,0,0,.46,6.38,7.79,7.79,0,0,0,.8,2.36,9.47,9.47,0,0,0,1.8.91h.21A2.77,2.77,0,0,1,81.56,177.88ZM65.09,126.13c-1.54.83-3,1.57-4.4,2.26-7.43,3.72-11.16,5.59-12,13.84-1.2,11.81,6.28,19,22.23,21.35.08-1.46.21-3,.4-4.54-4.28-1.48-12.39-5.31-13.69-13.44C56.64,139.31,59.87,132.68,65.09,126.13Zm74.24,34.36c5.52-2.79,9.93-5.9,10.37-7.46a3,3,0,0,0,.1-.85,36.25,36.25,0,0,1-10.49,8.26Zm-6.15-29.25a11.14,11.14,0,0,1-.53,2,6.16,6.16,0,0,0-.3,1.08c.39,3.22,1.79,7.81,3.27,12.67.78,2.57,1.59,5.2,2.31,7.84a35.14,35.14,0,0,0,9.29-8.21,78.67,78.67,0,0,0-7.14-7.8A66.93,66.93,0,0,1,133.19,131.24ZM78.36,120c-8.11,7.72-16.39,17.31-15.22,24.7.75,4.71,5.74,7.4,9,8.67,1.34-7.75,3.62-16.58,6.41-27.42l.39-1.5a10.11,10.11,0,0,0-.23-1.87A24.61,24.61,0,0,1,78.36,120ZM99.92,106.3a48.39,48.39,0,0,1,17.42,3.35c-.16-.55-.32-1.1-.47-1.65-1.41-5.11-2.55-8.27-7.77-8.85A18.71,18.71,0,0,0,107,99a21.32,21.32,0,0,0-5.4.73,70.46,70.46,0,0,0-8.8,7.17A38.52,38.52,0,0,1,99.92,106.3Z"/><path class="cls-1" d="M161.42,214.91a73.13,73.13,0,0,0-5.65-8.82h0a59.81,59.81,0,0,0-25-19.6c.47-2.35.75-4.21.78-4.39a.17.17,0,0,0-.11-.18,24.38,24.38,0,0,0,4.5-4.06c1.7-2.59,2.16-6,1.91-9.94,0,0,0-.07,0-.1a.53.53,0,0,0-.06-.39c-.07-.89-.18-1.8-.32-2.73,1.47-.65,13.8-6.21,15.12-10.83.64-2.24-.16-4.68-1.72-7.18l0,0h0c-2.07-3.31-5.47-6.72-8.63-9.89s-5.91-5.93-7.34-8.39c-2-3.5-6.24-8.17-9.63-11.92-1.15-1.27-2.24-2.48-3.12-3.51-1.17-1.36-1.76-3.48-2.38-5.72-1.32-4.77-2.82-10.17-10.31-11-9.43-1.06-19.75,4.15-29.81,15-7.47,8.09-14.55,11.64-20.25,14.49-7.33,3.67-12.63,6.32-13.63,16.2-1.44,14.24,8.14,22.87,27.7,25a51.36,51.36,0,0,0,.49,7.38,8.9,8.9,0,0,0,1.66,4.07c-19.66,12.42-31.18,27.13-36.22,46.28-4.74,18-3.19,38.83-1.81,57.2a.18.18,0,0,0,.18.17h0l59.43-.65h0l55.58-.61-.16.22a.18.18,0,0,0,0,.25.18.18,0,0,0,.11,0,.18.18,0,0,0,.14-.07l.33-.45,23-.25a.18.18,0,0,0,.18-.19C175,252.19,170.09,230.8,161.42,214.91Zm-31.77-25.27c-.77.66-11.26,9.53-15.66,10.09l-.16,0c-4.84.62-7.5,1-14.43-2.64-4.11-2.14-13.11-13-15-15.33l1.09.28c4,1,8.23,2.13,10.25,3.83A5.69,5.69,0,0,1,97,187.8,5,5,0,0,0,98.68,190c2.68,1.7,7.57,2.54,12.46,2.54,5.21,0,10.41-.95,12.95-2.82a3.14,3.14,0,0,0,1.12-1.94,3.36,3.36,0,0,1,.84-1.7c.65-.63,2-1.7,3.53-2.83l1.56-1.19C131.07,182.6,130.51,186.14,129.65,189.63Zm-4.87,17.67c8,14.54,12.6,28.64,13.41,40.78.67,10-1.31,18.23-5.43,22.58-2.82,3-6.26,3.71-9.69,2.06-5.14-2.47-13-12.82-21.61-28.39-7.12-12.89-13.65-27.41-17-37.76,4.42,7.52,13,12.3,25.55,14a5.87,5.87,0,0,0,.79.05,11,11,0,0,0,6.57-2.78A24.83,24.83,0,0,0,124.78,207.3Zm-7.64,10.3c-2.5,2-5,2.94-7.09,2.65-13.36-1.85-22.2-7.18-26.21-15.64l0-.07,0,0a28.63,28.63,0,0,1-2.39-13.64c3.24,11.59,12,18.46,24.17,18.46h.15c8,0,14.43-3.89,20.15-8.12A25.12,25.12,0,0,1,117.13,217.6ZM126,200.68h0c-5.74,4.28-12.17,8.24-20.25,8.28h-.15c-12.39,0-21.15-7.21-24.1-19.28,0-.05,0-.1,0-.16a.17.17,0,0,0-.09-.16c-.26-1.11-.47-2.27-.63-3.47l.37-.21a.18.18,0,0,0,.07-.25.18.18,0,0,0-.25-.07l-.24.14c-.08-.65-.15-1.31-.2-2a34,34,0,0,0,10.3,15.37,26.07,26.07,0,0,0,16.88,6.19,28.22,28.22,0,0,0,4.11-.31c4.15-.61,12.13-4.51,15.26-7.88C126.8,198.42,126.36,200.39,126,200.68Zm1.19-4.45c-2.75,3.41-11.16,7.58-15.44,8.21A25.79,25.79,0,0,1,91,198.64,34.25,34.25,0,0,1,80,180.5c1.18.39,2.49.75,3.84,1.11.75.94,10.84,13.43,15.41,15.81s7.37,3.08,10.11,3.08a35.72,35.72,0,0,0,4.53-.4l.16,0c4.2-.54,13.35-8.06,15.46-9.85C128.86,192.75,128.06,195.13,127.17,196.23ZM88.06,111.38a31.51,31.51,0,0,1,11.84-2.12,46.06,46.06,0,0,1,18.38,4c4.48,2,11.43,11.8,12,16.93a5.41,5.41,0,0,1-.42,2.14,5.57,5.57,0,0,0-.43,2.33c.43,3.53,1.87,8.24,3.39,13.23,1.09,3.58,2.23,7.32,3.11,11h0c.48,2,.88,3.9,1.16,5.76h0c.14,1,.26,1.89.33,2.81a.15.15,0,0,0,0,.05c0,.12,0,.24,0,.36-.63,2.2-9.6,11.55-14.78,13.6-6.14,2.43-17.34,1.7-23.06.25a56.71,56.71,0,0,1-10.29-3.9c-3-1.5-6.88-3.82-8.21-6.4-2.82-5.46-.33-15.15,2.09-24.53,2.11-8.19,4.1-15.93,2.81-21.07-.8-3.21.67-12.62,2-14.3Zm64.16,42.36c-1.23,4.32-13.07,9.77-14.82,10.56-.27-1.75-.65-3.56-1.09-5.39,4.8-1.8,9.64-5.77,14.39-11.81C152.1,149.44,152.8,151.69,152.22,153.75ZM109.38,96.56c7.25.81,8.71,6.09,10,10.75.63,2.29,1.23,4.44,2.45,5.86.89,1,2,2.24,3.13,3.51,3.38,3.74,7.58,8.39,9.59,11.86,1.45,2.51,4.34,5.4,7.4,8.47s6.5,6.52,8.54,9.77c-4.72,6-9.52,10-14.27,11.78-.88-3.58-2-7.25-3.07-10.77-1.52-5-2.95-9.67-3.37-13.17a5.33,5.33,0,0,1,.41-2.17,5.67,5.67,0,0,0,.43-2.29c-.58-5.34-7.53-15.16-12.2-17.23-10.37-4.59-21.95-5.25-30.24-2h0a.51.51,0,0,0-.29.11,21.71,21.71,0,0,0-3.32,1.7c-4.44,2.79-3.77,6.61-3.28,9.4a7.82,7.82,0,0,1,.19,3l-.39,1.5c-3.18,12.33-5.64,21.88-6.85,30.19-1.57-.4-12.36-3.42-13.67-11.69-1.72-10.85,12-23.83,25.06-35.15,1.48-1.28,2.84-2.56,4.16-3.8a78.22,78.22,0,0,1,10.7-8.82h0A23.15,23.15,0,0,1,109.38,96.56ZM46.09,142c1-9.68,5.93-12.16,13.43-15.91,5.72-2.86,12.84-6.43,20.35-14.56,6.5-7,13.09-11.67,19.47-13.76a81.62,81.62,0,0,0-9.8,8.19c-1.32,1.24-2.68,2.52-4.15,3.8-13.1,11.38-26.94,24.44-25.18,35.48,1.36,8.54,12.48,11.61,14,12a72,72,0,0,0-.75,9.35C54.13,164.46,44.68,156,46.09,142Zm28.18,32.27a51,51,0,0,1-.48-7.33.16.16,0,0,0,0-.3,71.89,71.89,0,0,1,.77-9.51h0c1.19-8.34,3.66-17.93,6.87-30.36l.39-1.5a8,8,0,0,0-.18-3.13c-.5-2.84-1.12-6.37,3.12-9a21.09,21.09,0,0,1,2.67-1.39c-1.29,2.48-2.57,11.05-1.78,14.22,1.27,5.06-.72,12.75-2.81,20.9-2.43,9.44-4.95,19.2-2.06,24.78,2.55,4.93,13.93,9.26,18.73,10.49a53.54,53.54,0,0,0,12.24,1.35,31.82,31.82,0,0,0,11-1.61c4.83-1.91,12.9-10.12,14.68-13.19.15,3.54-.34,6.67-1.89,9-.81,1.24-3.81,3.52-6.22,5.36-1.56,1.19-2.9,2.21-3.57,2.86a3.71,3.71,0,0,0-.94,1.86,2.81,2.81,0,0,1-1,1.75c-4.83,3.56-19.55,3.72-25,.27a4.7,4.7,0,0,1-1.51-2.08,6,6,0,0,0-1.37-2c-2.08-1.75-6.3-2.84-10.39-3.9-2-.51-4-1-5.72-1.62l0-.19a.18.18,0,0,0-.35.05A13.55,13.55,0,0,1,76,178.24C75.13,177.61,74.43,175.33,74.28,174.24ZM39.71,224.72c5-19.09,16.52-33.74,36.16-46.12a14.64,14.64,0,0,0,3.71,1.76q.22.89.47,1.76c.05,1.24.16,2.43.31,3.6-3.64,2.1-22.71,13.47-23.94,22.43-2.35,17,13.71,43.15,23.56,55.91A94.13,94.13,0,0,0,96.66,281l-58.76.64C36.25,259.54,35.34,241.31,39.71,224.72ZM97.23,281a93.5,93.5,0,0,1-17-17.15,154.09,154.09,0,0,1-16.71-27.12c-5.43-11.5-7.77-21.36-6.79-28.52.54-3.93,4.91-9.06,12.64-14.83a121.29,121.29,0,0,1,11-7.25q.26,1.88.68,3.63a29.57,29.57,0,0,0,2.43,15.11c3.15,10.43,10,26,17.61,39.67,11.82,21.4,18.71,27.07,21.77,28.54a8.49,8.49,0,0,0,3.7.88,8.81,8.81,0,0,0,6.42-3c4.19-4.43,6.21-12.76,5.53-22.85-.82-12.27-5.53-26.52-13.6-41.21a24.29,24.29,0,0,0,1.32-6c.64-.66,1.12-3.75,1.22-4.48,1.34-1.72,2.46-6.11,3.17-9.59a59.45,59.45,0,0,1,24.79,19.44c6.89,15.22,9.77,30,8.53,44-1.27,14.37-6.56,24.23-11,30.11Zm56.25-.62c4.39-6,9.6-15.8,10.86-30.08,1.2-13.58-1.47-27.93-7.91-42.69a73.88,73.88,0,0,1,4.66,7.47c8.63,15.81,13.51,37.09,14.92,65Z"/><path class="cls-1" d="M109.06,169.7a4.26,4.26,0,0,1-.62,0c-3.92-.55-9.68-4.72-11.49-9.46-1.2-3.14.57-7.8,1.26-9.41.08-6.34,1.27-12.12,4.08-19.78a6.5,6.5,0,0,1,3.69-3.66,6.65,6.65,0,0,1,1.17-.36l.17-.09.45,0a6.05,6.05,0,0,1,.73,0,4.43,4.43,0,0,1,1.88.39c5.89,2.73,10.49,10.29,11.73,19.25a26.91,26.91,0,0,1-1.39,13.87,4.65,4.65,0,0,1-.35.78,15.83,15.83,0,0,1-3.43,4.87l-.14.36-.72.36C114.63,167.69,111.41,169.7,109.06,169.7Zm.75-36.32c-2.62,8.65-3.29,14.92-2,18.64s4.09,6.62,5.88,7h.08a3.12,3.12,0,0,0,1.7-.67,21.45,21.45,0,0,0,1.1-11.15C115.75,141.24,113.13,136,109.8,133.38Z"/><path class="cls-1" d="M99.39,159.27c1.45,3.79,6.34,7.37,9.42,7.81l.24,0c1.88,0,5.52-2.53,5.68-2.64h0a13,13,0,0,0,3.3-4.53,2,2,0,0,0,.22-.48,24.34,24.34,0,0,0,1.26-12.61c-1.12-8.1-5.14-14.87-10.24-17.24a2.34,2.34,0,0,0-1.28-.11h0a4.27,4.27,0,0,0-1,.27,3.89,3.89,0,0,0-2.24,2.15c-3.07,8.38-3.92,13.85-3.93,19.45C99.78,153.5,98.66,157.36,99.39,159.27Zm9.47,7.45c-3-.42-7.77-4-9.13-7.58-.61-1.59.22-4.79,1.09-6.91,0,.7,0,1.41.06,2.13.14,3.28,5.49,8.73,8.63,10.16a8,8,0,0,0,2.89.5,7,7,0,0,0,.88-.06C112,165.77,109.93,166.87,108.86,166.72Zm-.39-36.92a1.59,1.59,0,0,1,.66.12c5,2.32,8.93,9,10,17a23.61,23.61,0,0,1-1.41,12.82,5.09,5.09,0,0,1-4.62,1.89c-2.91-.66-6.25-4.4-7.77-8.7-2.45-7,1.47-18.95,2.83-23.06ZM105.08,132a3.53,3.53,0,0,1,2-1.94,4.12,4.12,0,0,1,.68-.21c-2.29,7-5,16.82-2.78,23.14,1.55,4.41,5,8.26,8,8.94a3.47,3.47,0,0,0,.76.08,5.9,5.9,0,0,0,3.37-1.19,12.17,12.17,0,0,1-2.66,3.32l-.21.14a7,7,0,0,1-4.65-.11,18.88,18.88,0,0,1-5.27-4.24c-1.94-2.14-3.08-4.18-3.15-5.61C101,147.64,101.49,141.83,105.08,132Z"/><g id="_Group_" data-name="&lt;Group&gt;"><path class="cls-2" d="M176.48,280.29l-23.09.25c11.46-15.28,17.27-41.78,2.49-74.39C167,221,174.68,244.14,176.48,280.29Z"/><path class="cls-3" d="M155.88,206.15c14.78,32.61,9,59.11-2.49,74.39l-55.95.61a93.31,93.31,0,0,1-17-17.23c-11-14.23-25.76-39.59-23.53-55.78,1.23-8.88,20.64-20.43,23.95-22.35a35.7,35.7,0,0,0,.72,3.93,29.39,29.39,0,0,0,2.37,14.84c6.2,20.73,27.76,62.72,39.34,68.3,12.87,6.19,26.43-21.21,1.77-66a23.93,23.93,0,0,0,1.33-6.06c.66-.49,1.23-4.48,1.23-4.48,1-1.2,1.83-3.89,2.5-6.62.27-1.08.51-2.16.71-3.16a59.62,59.62,0,0,1,25.07,19.58Z"/><path class="cls-4" d="M151,146.76c1.53,2.45,2.3,4.83,1.68,7-1.36,4.78-15.15,10.77-15.15,10.77-.28-1.87-.68-3.8-1.16-5.76Q143.71,156.1,151,146.76Z"/><path class="cls-5" d="M151,146.76q-7.27,9.34-14.63,12c-2.14-8.83-5.77-18.17-6.5-24.16-.17-1.42,1-3,.85-4.47-.43-4-4.71-10.9-8.79-14.73l1.77-.76c3.64,4.08,8.93,9.68,11.29,13.76C137.94,133.54,147,140.39,151,146.76Z"/><path class="cls-6" d="M80,180.21a14.47,14.47,0,0,1-3.86-1.84c-.9-.67-1.61-3-1.77-4.12a51.84,51.84,0,0,1-.49-7.53,71.26,71.26,0,0,1,.79-9.68c1.24-8.72,3.88-18.79,7.25-31.88.64-2.49-2.49-7.42,1.6-11.2a9.64,9.64,0,0,1,1.41-1.07,21.15,21.15,0,0,1,3.3-1.69c-1.31,1.09-3,11.14-2.14,14.62,2.79,11.13-10.16,35.44-4.89,45.64,2.45,4.73,13.46,9.08,18.62,10.39,5.61,1.42,16.86,2.24,23.17-.25,5.12-2,14.18-11.4,14.89-13.71.25,3.85-.2,7.27-1.87,9.81a24.78,24.78,0,0,1-4.57,4.11c-2.13,1.64-4.35,3.27-5.25,4.14-1.17,1.14-.63,2.65-1.95,3.62-5.07,3.74-19.88,3.65-25.2.28-1.44-.91-1.61-3-2.9-4.14-2.32-2-7.35-3.07-11.95-4.28C82.72,181,81.29,180.65,80,180.21Z"/><path class="cls-7" d="M137.85,167.44c0,.15,0,.3,0,.46-.71,2.31-9.77,11.68-14.89,13.71-6.31,2.5-17.56,1.68-23.17.25-5.17-1.31-16.17-5.66-18.62-10.39-5.27-10.2,7.67-34.51,4.89-45.64-.86-3.48.83-13.53,2.14-14.62h0c8.41-3.46,20-2.69,30.38,1.88a12.57,12.57,0,0,1,3.29,2.36c4.09,3.83,8.37,10.74,8.79,14.73.15,1.42-1,3-.85,4.47.73,6,4.36,15.33,6.5,24.16.48,2,.88,3.9,1.16,5.76C137.67,165.54,137.78,166.5,137.85,167.44ZM122.2,124.31c.22,0,.2-.15.13-.36-1.18-3.26-4.69-9.7-10.26-2.67-.49.61,1.23,3,1.53,2.27C116.37,116.87,120.29,124,122.2,124.31Zm0,45.93-.46-1.37a25.74,25.74,0,0,1-28.15-9.5,3.88,3.88,0,0,1,1.81-.51V157.4c-2,0-4,1.28-6.18,4l1.12.92a15.73,15.73,0,0,1,2-2.12,27,27,0,0,0,22.39,11.11A26.27,26.27,0,0,0,122.16,170.24ZM119.74,135c3.36-1.32,1.46-6.87-1.45-6.83C113.41,128.18,116.81,136.12,119.74,135Zm-1.36,24.35c4-9.71-.29-25.59-8.91-29.59a2.17,2.17,0,0,0-1.14-.11,4.06,4.06,0,0,0-3.16,2.32c-3.15,8.63-3.91,14.17-3.91,19.44h0c-1.06,2.2-2.12,6-1.44,7.8,1.41,3.69,6.23,7.27,9.28,7.7,1.5.21,4.73-1.88,5.58-2.45l.21-.14a12.63,12.63,0,0,0,3.26-4.48h0A1.75,1.75,0,0,0,118.38,159.32Zm-16.14-34.81c.6.31,1.8-2.44,1.17-2.69-12-4.81-13.54.17-14.59,2.44a.3.3,0,0,0,.46.34C91.06,123.09,93.86,120.21,102.24,124.51Zm-4.42,10.7c4.14,0,3.74-6.89.32-6.85C93.55,128.4,93.62,135.25,97.82,135.2Z"/><path class="cls-8" d="M131.44,181.82l.16.21s-.29,2-.81,4.52c-.21,1-.44,2.08-.71,3.16,0,0-11.14,9.58-15.8,10.17-5,.64-7.64,1-14.69-2.64-4.66-2.43-15.39-15.81-15.39-15.81,4.6,1.21,9.63,2.33,11.95,4.28,1.29,1.09,1.46,3.22,2.9,4.14,5.32,3.38,20.13,3.46,25.2-.28,1.32-1,.78-2.48,1.95-3.62C127.09,185.08,129.32,183.46,131.44,181.82Z"/><path class="cls-9" d="M130.09,189.71c-.67,2.73-1.53,5.42-2.5,6.62-2.77,3.43-11.2,7.64-15.56,8.28C96.56,206.87,84.6,196,80.5,182.07q-.27-.92-.5-1.86c1.29.44,2.72.84,4.2,1.23,0,0,10.73,13.38,15.39,15.81,7.06,3.68,9.71,3.29,14.69,2.64C118.94,199.29,130.09,189.71,130.09,189.71Z"/><path class="cls-9" d="M80.82,185.8c-.16-1.19-.27-2.44-.32-3.73C84.6,196,96.56,206.87,112,204.61c4.36-.64,12.79-4.85,15.56-8.28,0,0-.57,4-1.23,4.48-5.69,4.24-12.17,8.29-20.37,8.33-11.78.06-21.32-6.54-24.44-19.4A35.7,35.7,0,0,1,80.82,185.8Z"/><path class="cls-9" d="M125,206.86c24.66,44.8,11.1,72.2-1.77,66-11.59-5.58-33.14-47.57-39.34-68.3,4,8.41,12.7,13.94,26.38,15.84C115.17,221.09,122.09,215.11,125,206.86Z"/><path class="cls-8" d="M126.36,200.8a23.93,23.93,0,0,1-1.33,6.06c-2.94,8.24-9.85,14.23-14.73,13.55-13.68-1.89-22.43-7.42-26.38-15.84a29.39,29.39,0,0,1-2.37-14.84c3.13,12.85,12.66,19.45,24.44,19.4C114.19,209.1,120.67,205,126.36,200.8Z"/><path class="cls-5" d="M88.24,111.2h0a21.15,21.15,0,0,0-3.3,1.69A9.64,9.64,0,0,0,83.52,114l-1.69-.66c1.32-1.18,2.64-2.34,3.95-3.47,4.84-4.19,8.23-8.17,14.88-12.63h0a23.2,23.2,0,0,1,9-.84c10.94,1.22,8.91,12.41,12.57,16.67.44.51.92,1.06,1.45,1.64l-1.77.76a12.57,12.57,0,0,0-3.29-2.36C108.29,108.5,96.65,107.73,88.24,111.2Z"/><path class="cls-5" d="M122.32,123.95c.07.2.09.4-.13.36-1.9-.31-5.83-7.44-8.6-.75-.3.73-2-1.66-1.53-2.27C117.63,114.25,121.14,120.69,122.32,123.95Z"/><path class="cls-10" d="M121.7,168.86l.46,1.37a26.27,26.27,0,0,1-7.44,1.07,27,27,0,0,1-22.39-11.11,15.73,15.73,0,0,0-2,2.12l-1.12-.92c2.22-2.71,4.2-4,6.18-4v1.45a3.88,3.88,0,0,0-1.81.51A25.74,25.74,0,0,0,121.7,168.86Z"/><path d="M118.29,128.13c2.91,0,4.81,5.51,1.45,6.83C116.81,136.12,113.41,128.18,118.29,128.13Z"/><path class="cls-11" d="M109.48,129.73c8.62,4,12.93,19.88,8.91,29.59-.07.16-.13.32-.21.48h0a5.26,5.26,0,0,1-4.81,1.94c-2.88-.65-6.31-4.31-7.9-8.82-2.3-6.54.84-17.17,2.88-23.3h0A2.17,2.17,0,0,1,109.48,129.73Z"/><path class="cls-7" d="M118.17,159.8c.08-.16.14-.32.21-.48A1.75,1.75,0,0,1,118.17,159.8Z"/><path class="cls-10" d="M118.16,159.81a12.63,12.63,0,0,1-3.26,4.48l-.21.14c-1.12.65-3.76.4-4.84-.08-3-1.36-8.38-6.72-8.52-10,0-1-.06-2-.06-3,0-5.27.76-10.81,3.91-19.44a4.06,4.06,0,0,1,3.16-2.32h0c-2,6.13-5.18,16.76-2.88,23.3,1.59,4.51,5,8.17,7.9,8.82A5.26,5.26,0,0,0,118.16,159.81Z"/><path class="cls-6" d="M109.86,164.34c1.08.49,3.72.73,4.84.08-.85.57-4.08,2.66-5.58,2.45-3-.43-7.87-4-9.28-7.7-.68-1.79.37-5.6,1.44-7.8h0c0,1,0,2,.06,3C101.48,157.62,106.87,163,109.86,164.34Z"/><path class="cls-5" d="M103.41,121.81c.63.25-.58,3-1.17,2.69-8.38-4.3-11.18-1.42-13,.09a.3.3,0,0,1-.46-.34C89.87,122,91.41,117,103.41,121.81Z"/><path d="M98.13,128.35c3.43,0,3.82,6.81-.32,6.85S93.55,128.4,98.13,128.35Z"/><path class="cls-2" d="M97.44,281.15,38,281.8c-3.1-41.47-4.79-76.43,38.14-103.44A14.47,14.47,0,0,0,80,180.21q.23.94.5,1.86c.06,1.29.17,2.53.32,3.73-3.31,1.91-22.72,13.46-23.95,22.35-2.24,16.19,12.53,41.55,23.53,55.78A93.31,93.31,0,0,0,97.44,281.15Z"/><path class="cls-4" d="M100.66,97.2c-6.65,4.46-10,8.44-14.88,12.63-1.31,1.13-2.63,2.29-3.95,3.47-11.41,10.2-22.74,22-21.17,31.85,1.44,9.09,14,11.89,14,11.89a71.26,71.26,0,0,0-.79,9.68c-18-1.9-29.25-9.46-27.7-24.78,1.76-17.39,16.71-12,33.82-30.59C86.64,104.18,93.7,99.19,100.66,97.2Z"/><path class="cls-5" d="M81.84,113.3l1.69.66c-4.09,3.78-1,8.71-1.6,11.2-3.38,13.09-6,23.16-7.25,31.88,0,0-12.56-2.79-14-11.89C59.09,135.27,70.42,123.5,81.84,113.3Z"/></g></svg>