<svg xmlns="http://www.w3.org/2000/svg" viewBox="0 0 230.27 288.35"><defs><style>.cls-1{fill:#fff;}.cls-2{fill:#f4e8c3;}.cls-3{fill:#466084;}.cls-4{fill:#efe7d0;}.cls-5{fill:#aa593d;}.cls-6{fill:#cc8f7a;}.cls-7{fill:#172d44;}.cls-8{fill:#f2b78b;}.cls-9{fill:#b2a893;}.cls-10{fill:#d88361;}.cls-11{fill:#b7a67d;}</style></defs><title>george</title><g id="Layer_5" data-name="Layer 5"><path class="cls-1" d="M126.1,122.28a40.68,40.68,0,0,1-30.64-13.45,3.81,3.81,0,0,1-2,1l-.26,0h-.37A3.85,3.85,0,0,1,90.4,109l-1.56-1.28a3.85,3.85,0,0,1-.53-5.43c2.42-3,6.25-6.89,11.47-6.89a3.87,3.87,0,0,1,3.88,3.85v2a3.88,3.88,0,0,1-.4,1.73,30.92,30.92,0,0,0,22.66,9.72,30.35,30.35,0,0,0,9-1.26l.56-.19h.68a3.85,3.85,0,0,1,3.63,2.59l.65,1.9a3.85,3.85,0,0,1-2.46,4.91h0a40.68,40.68,0,0,1-11.41,1.66Z"/><path class="cls-1" d="M136.08,114.83c-.92.31-22.58,7.39-38.38-12.79a5,5,0,0,1,2.13-.54.25.25,0,0,0,.24-.25v-2a.26.26,0,0,0-.28-.25c-2.81,0-5.57,1.77-8.69,5.58a.25.25,0,0,0,0,.35l1.55,1.27a.23.23,0,0,0,.18.06.25.25,0,0,0,.17-.09,21.85,21.85,0,0,1,2.59-2.71c9.74,12.52,21.85,15.22,30.48,15.22h.45a36.79,36.79,0,0,0,10.34-1.48.25.25,0,0,0,.14-.13.25.25,0,0,0,0-.19L136.4,115A.25.25,0,0,0,136.08,114.83Zm-9.54,3.35c-8.58.12-20.87-2.47-30.69-15.23a.25.25,0,0,0-.17-.1h0a.25.25,0,0,0-.16.06,21.27,21.27,0,0,0-2.7,2.76l-1.16-1c2.87-3.45,5.4-5.11,7.93-5.2V101a5.75,5.75,0,0,0-2.37.72.25.25,0,0,0-.08.37C112.46,122,133.41,116.2,136,115.38l.49,1.42A37.44,37.44,0,0,1,126.54,118.18Z"/><path class="cls-1" d="M103.16,72.47a7.81,7.81,0,0,1-6.9-3.87,9.18,9.18,0,0,1-.07-9,8.36,8.36,0,0,1,7.42-4.26c4.31,0,7.54,3.64,7.59,8.46a9.25,9.25,0,0,1-1.76,5.66,7.66,7.66,0,0,1-6.18,3h-.1Zm.2-9.43a.57.57,0,0,0-.45.3,1.5,1.5,0,0,0,0,1.33.31.31,0,0,0,.27.1.59.59,0,0,0,.18,0,2.27,2.27,0,0,0,.16-.9A2.39,2.39,0,0,0,103.36,63Z"/><path class="cls-1" d="M103.16,68.87h.06c3.06,0,4.41-2.57,4.38-5.06s-1.38-4.9-3.91-4.9h0a4.79,4.79,0,0,0-4.32,2.42,5.59,5.59,0,0,0,0,5.43A4.24,4.24,0,0,0,103.16,68.87Zm-3.39-7.29a4.3,4.3,0,0,1,3.89-2.17h0c2.21,0,3.39,2.21,3.41,4.4s-1.17,4.53-3.89,4.56h-.05a3.76,3.76,0,0,1-3.37-1.86A5.08,5.08,0,0,1,99.77,61.58Z"/><path class="cls-1" d="M132.64,72.3a7.14,7.14,0,0,1-5.15-2.36c-2.5-2.54-4.23-7-2.7-10.76A6.85,6.85,0,0,1,131.42,55c4.42,0,7.44,3.82,8.17,7.59.81,4.12-1.09,7.85-4.72,9.28A6.12,6.12,0,0,1,132.64,72.3Zm-.57-7.59h0Z"/><path class="cls-1" d="M136.06,63.29c-.44-2.28-2.19-4.68-4.56-4.68h0a3.29,3.29,0,0,0-3.35,1.95c-.88,2.13.32,5.22,1.94,6.86a3.72,3.72,0,0,0,2.58,1.29,2.52,2.52,0,0,0,.92-.18C136,67.58,136.44,65.2,136.06,63.29Zm-2.69,4.77a2.88,2.88,0,0,1-3-1c-1.51-1.54-2.61-4.44-1.83-6.32a2.83,2.83,0,0,1,2.89-1.64h0c2,0,3.66,2.17,4.07,4.27S135.18,67.35,133.38,68.06Z"/><path class="cls-1" d="M136.92,57.44a4.18,4.18,0,0,1-.67-.05c-1.88-.31-3.27-1.57-4.75-2.9a19.85,19.85,0,0,0-2.25-1.84,7.6,7.6,0,0,0-.7,1.37A4.1,4.1,0,0,1,125,56.58h-.22a4.93,4.93,0,0,1-3.6-1.74l-1.09-.45.25-.61a10.17,10.17,0,0,1-.62-1.06c-1.53-3-.39-5,.17-5.72,3.06-3.86,6.29-5.82,9.62-5.82a8.31,8.31,0,0,1,1.36.11c5.57.91,8.54,7,9.82,10.48A4.19,4.19,0,0,1,140,56,4,4,0,0,1,136.92,57.44Z"/><path class="cls-1" d="M124.74,53h0a.52.52,0,0,0,.47-.34h0c.91-2.19,2-3.44,3.19-3.72,1.83-.41,3.78,1.34,5.5,2.89a7.6,7.6,0,0,0,2.91,2h.1a.41.41,0,0,0,.33-.14.71.71,0,0,0,0-.69c-.81-2.24-3.12-7.52-7-8.15-2.41-.4-4.95,1.08-7.56,4.39-.39.49,0,1.38.21,1.86C123.27,51.84,124.09,53,124.74,53Zm-1.66-3.43c2.49-3.15,4.88-4.56,7.09-4.2,3.75.61,6,6.14,6.63,7.83a1,1,0,0,1,0,.15,8.25,8.25,0,0,1-2.59-1.89c-1.61-1.45-3.42-3.08-5.27-3.08a3,3,0,0,0-.67.07c-1.4.32-2.56,1.63-3.55,4l.23.1-.25-.06c-.12,0-.65-.36-1.18-1.2S122.92,49.76,123.08,49.56Z"/><path class="cls-1" d="M91.17,57.94a4.28,4.28,0,0,1-2.59-.88,4.22,4.22,0,0,1-1.27-5.17l.15-.32c1.11-2.48,3.61-8.06,12-8.06,3.57,0,7.81,1,13,3.07A4.25,4.25,0,0,1,115,50.12,8.42,8.42,0,0,1,111.93,57a4.36,4.36,0,0,1-2.48.79,4.18,4.18,0,0,1-1.86-.44c-3.49-1.79-6.39-2.69-8.64-2.69a6.47,6.47,0,0,0-4.71,2l-.31.27A4.26,4.26,0,0,1,91.17,57.94Z"/><path class="cls-1" d="M91.17,54.34a.66.66,0,0,0,.43-.16l.31-.26c2.38-2,6.35-5.44,17.3.17a.64.64,0,0,0,.68-.09,5.11,5.11,0,0,0,1.54-3.47.66.66,0,0,0-.39-.6c-16-6.42-18.76-.27-20.25,3l-.21.46a.64.64,0,0,0,.19.79A.66.66,0,0,0,91.17,54.34ZM91,53.62l.21-.46c1-2.14,2.48-5.54,8.23-5.54,2.72,0,6.38.76,11.37,2.76,0,0,.07.09.08.2a4.81,4.81,0,0,1-1.32,3s-.13.09-.17.06c-11.25-5.76-15.38-2.22-17.85-.1l-.3.26a.16.16,0,0,1-.2,0A.14.14,0,0,1,91,53.62Z"/><path class="cls-1" d="M20.68,274.75a3.87,3.87,0,0,1-3.84-3.56c-1.92-25.63-4.09-54.68,2.61-80.11,7-26.41,22.46-46.86,48.67-64.13A19.31,19.31,0,0,1,67.05,123a72.84,72.84,0,0,1-.66-7.5c-16.82-2.38-41-10.56-38.25-38,1.58-15.61,10.48-20.06,20.77-25.21,7.6-3.8,17-8.53,26.9-19.21C89.17,18.63,103.15,11,116.25,11a33.46,33.46,0,0,1,3.75.21c12.75,1.43,15.48,11.28,17.29,17.81.75,2.7,1.45,5.25,2.54,6.51s2.67,3,4.23,4.75c4.81,5.32,10.76,11.92,13.75,17.08,1.74,3,5.54,6.81,9.56,10.85,4.19,4.2,8.91,8.94,12,13.66l.3.22.29.71c2.84,4.65,3.69,8.75,2.62,12.52-1.86,6.54-13.48,12.87-20.41,16.13q0,.41.08.82a4.47,4.47,0,0,1,.12,1.68c.37,6.51-.7,11.57-3.24,15.46-.88,1.34-2.51,2.91-5.65,5.41-.1.6-.23,1.42-.41,2.39A85.43,85.43,0,0,1,186,163.69l.29.19.32.62a105.36,105.36,0,0,1,7.88,12.34c12.24,22.42,19.14,52.44,21.09,91.77a3.88,3.88,0,0,1-1.07,2.86,3.82,3.82,0,0,1-2.72,1.18l-30.19.33a3.82,3.82,0,0,1-2.26.73,3.87,3.87,0,0,1-2.19-.68L20.71,274.75Zm52.69-142C48.22,149,33.43,168.23,26.9,193c-5.67,21.55-4.73,45.36-2.64,74l68-.74a140.37,140.37,0,0,1-16.14-17.68c-3.84-5-37.42-49.48-33.23-79.84.86-6.27,6.3-13.26,16.61-21.36a161.94,161.94,0,0,1,16.16-11q-.11-1.23-.17-2.45l-.08-.3C74.68,133.33,74,133,73.38,132.7Zm3.49,12c-2.88,1.81-6.57,4.25-10.29,7-13.63,10.19-15.75,16-16,18.08-1.27,9.18,1.86,22.09,9.05,37.32a208.87,208.87,0,0,0,22.64,36.76A126.43,126.43,0,0,0,104,266.14l73.93-.81c5.44-7.73,11.8-20.31,13.38-38.29,1.64-18.54-2.17-38.23-11.3-58.54a77.86,77.86,0,0,0-28.56-23.56c-1.43,5.71-2.7,8.27-3.48,9.5a20.89,20.89,0,0,1-1.63,6,36.77,36.77,0,0,1-1.4,6.63c10.94,20.24,17.31,39.9,18.45,57,1,14.93-2.14,27.41-8.61,34.25a15.67,15.67,0,0,1-11.47,5.29,15.28,15.28,0,0,1-6.66-1.57C131,259.34,121,250,105,221.16,94.55,202.21,85,180.59,80.51,166,77.64,159.86,76.42,152.7,76.86,144.69Zm122,63.61a106.5,106.5,0,0,1,.09,19.42,87,87,0,0,1-11.81,37.51l20.52-.22C206.39,243.08,203.48,224.29,198.88,208.3ZM94.38,181.47a370,370,0,0,0,17.39,36C128.57,247.87,137.62,254,140,255.11a7.79,7.79,0,0,0,3.37.83,8.06,8.06,0,0,0,5.83-2.91c4.93-5.2,7.37-15.83,6.52-28.44-1-14.49-6.06-31.15-14.79-48.52a35.51,35.51,0,0,1-8.11,9.42c-3.79,3-7.7,4.63-11.31,4.63a11.63,11.63,0,0,1-1.58-.11C109.6,188.58,101.07,185.73,94.38,181.47ZM88.95,165.4c5.56,9.1,16.31,14.8,32,17a3.82,3.82,0,0,0,.54,0c1.79,0,4.16-1.07,6.5-2.94a29.69,29.69,0,0,0,8.45-11.56c-6.27,3.68-13.51,6.52-21.94,6.56h-.22C104.25,174.48,95.55,171.26,88.95,165.4Zm-2.28-24.28a40.92,40.92,0,0,0,9.85,12.23A32.83,32.83,0,0,0,108,159.6c-1.27-.56-2.62-1.21-4.07-2C99.3,155.25,91.92,147.24,86.67,141.12Zm16.57,6.39a22.56,22.56,0,0,0,4.21,3.29c6,3.14,9.2,3.78,12.09,3.78a45.52,45.52,0,0,0,5.69-.51l.21,0c1.51-.19,4.23-1.65,7.41-3.74a54.63,54.63,0,0,1-10.87,1C118.23,151.34,109,151,103.24,147.51Zm-7.49-7.75c1.57,1.74,3.1,3.39,4.54,4.86a19.63,19.63,0,0,1-1-1.87,7.22,7.22,0,0,0-.85-1.49A10.83,10.83,0,0,0,95.75,139.76Zm8.82-3.16a14.73,14.73,0,0,1,1.63,2.77,7.45,7.45,0,0,0,.8,1.42c2.74,1.74,8.63,2.87,15,2.87,6.58,0,12.67-1.21,15.28-3,0-.14.11-.37.16-.55a8.75,8.75,0,0,1,1.94-3.86c-5.16,2-11.85,2.46-16.55,2.46a77.07,77.07,0,0,1-17.77-2Zm-12-98C91.45,41.7,90,51.58,90.77,54.75c2,8-.86,19.09-3.89,30.85s-6.43,25-3.17,31.29c.51,1,2.47,3.65,9.74,7.26a74.37,74.37,0,0,0,13.49,5.12A70,70,0,0,0,122.82,131c5.7,0,10.57-.69,13.73-1.94,5.69-2.25,16.07-12.81,18.05-16.08-.09-1-.22-2.12-.39-3.24-.34-2.24-.82-4.65-1.47-7.37l-.34-.84.06-.27c-1.17-4.68-2.63-9.47-4-14.1-2.15-7-4.17-13.69-4.8-18.87a10.72,10.72,0,0,1,.75-4.78,8.78,8.78,0,0,0,.41-1.49c-.62-5.75-9.38-18.18-14.41-20.41a59.61,59.61,0,0,0-23.91-5.21A41.14,41.14,0,0,0,92.61,38.63ZM81.16,127.48c1.52.47,3.17.92,4.82,1.35-4-2.4-7.46-5.25-9.1-8.41-4.62-8.92-1-23.07,2.55-36.75,2.24-8.69,4.37-17,4.32-23.06-3.89,15.09-7,27.28-8.54,37.77l.07.2-.24.94a96.77,96.77,0,0,0-1,11.63,3.83,3.83,0,0,1,.11,1.35,3.87,3.87,0,0,1-.12.65,65.84,65.84,0,0,0,.63,8.8,10.74,10.74,0,0,0,1.1,3.26,13.07,13.07,0,0,0,2.48,1.26h.29A3.83,3.83,0,0,1,81.16,127.48ZM58.44,56.07c-2.12,1.15-4.15,2.16-6.07,3.12C42.11,64.33,37,66.9,35.81,78.3c-1.65,16.29,8.67,26.2,30.68,29.46.11-2,.29-4.09.55-6.27-5.91-2-17.1-7.32-18.88-18.55C46.77,74.27,51.24,65.12,58.44,56.07Zm102.44,47.41c7.62-3.84,13.7-8.14,14.31-10.29a4.08,4.08,0,0,0,.14-1.17,50,50,0,0,1-14.47,11.4ZM152.4,63.12a15.37,15.37,0,0,1-.73,2.81,8.49,8.49,0,0,0-.41,1.49c.54,4.45,2.47,10.78,4.52,17.48,1.08,3.55,2.19,7.17,3.19,10.82A48.48,48.48,0,0,0,171.78,84.4a108.55,108.55,0,0,0-9.85-10.77A92.35,92.35,0,0,1,152.4,63.12ZM76.75,47.66c-11.19,10.66-22.62,23.88-21,34.08,1,6.5,7.92,10.21,12.42,12C70,83,73.16,70.83,77,55.87l.54-2.08a14,14,0,0,0-.32-2.59A34,34,0,0,1,76.75,47.66Zm29.74-18.94a66.77,66.77,0,0,1,24,4.63c-.23-.76-.44-1.52-.65-2.28-2-7-3.51-11.4-10.73-12.21a25.82,25.82,0,0,0-2.85-.16,29.42,29.42,0,0,0-7.46,1,97.22,97.22,0,0,0-12.15,9.89A53.15,53.15,0,0,1,106.49,28.71Z"/><path class="cls-1" d="M191.35,178.57a100.9,100.9,0,0,0-7.79-12.17v0l0,0a82.53,82.53,0,0,0-34.52-27c.65-3.24,1-5.8,1.07-6.06a.24.24,0,0,0-.16-.25c2.74-2.12,5.31-4.24,6.2-5.6,2.34-3.57,3-8.34,2.63-13.71,0,0,0-.1,0-.14a.73.73,0,0,0-.08-.54c-.1-1.23-.25-2.48-.44-3.77,2-.9,19-8.57,20.86-14.94.88-3.09-.23-6.45-2.38-9.9,0,0,0,0,0,0h0c-2.86-4.57-7.54-9.27-11.9-13.64-4.19-4.21-8.16-8.18-10.13-11.58-2.8-4.83-8.62-11.27-13.29-16.45-1.59-1.76-3.09-3.42-4.31-4.84-1.61-1.87-2.42-4.8-3.28-7.9-1.82-6.58-3.89-14-14.22-15.19-13-1.47-27.25,5.72-41.13,20.77-10.3,11.17-20.08,16.06-27.94,20-10.11,5.06-17.42,8.72-18.8,22.36-2,19.65,11.23,31.55,38.22,34.45a70.87,70.87,0,0,0,.67,10.19c.2,1.4,1.08,4.41,2.29,5.61-27.13,17.13-43,37.43-50,63.85-6.54,24.85-4.4,53.58-2.5,78.93a.25.25,0,0,0,.25.23h0l82-.9h0l76.7-.84-.23.3a.25.25,0,0,0,0,.35.25.25,0,0,0,.15.05.25.25,0,0,0,.2-.1l.46-.62,31.74-.35a.25.25,0,0,0,.25-.26C210.08,230,203.32,200.5,191.35,178.57ZM147.52,143.7c-1.06.9-15.53,13.15-21.61,13.93l-.22,0c-6.67.86-10.34,1.33-19.91-3.65-5.67-3-18.09-18-20.67-21.16l1.51.39c5.58,1.44,11.35,2.93,14.14,5.28a7.85,7.85,0,0,1,1.77,2.66,7,7,0,0,0,2.27,3.07c3.7,2.34,10.44,3.5,17.19,3.5,7.18,0,14.37-1.31,17.87-3.89a4.33,4.33,0,0,0,1.55-2.68,4.64,4.64,0,0,1,1.17-2.34c.89-.87,2.83-2.34,4.88-3.9l2.15-1.64C149.47,134,148.7,138.88,147.52,143.7Zm-6.72,24.38c11,20.07,17.38,39.52,18.5,56.27.92,13.79-1.81,25.15-7.5,31.16-3.89,4.11-8.64,5.12-13.37,2.85-7.09-3.41-18-17.69-29.82-39.17-9.82-17.79-18.83-37.82-23.46-52.1,6.1,10.38,18,17,35.25,19.36a8.1,8.1,0,0,0,1.1.07c2.76,0,5.93-1.34,9.06-3.84A34.26,34.26,0,0,0,140.79,168.08Zm-10.55,14.21c-3.45,2.76-6.93,4.06-9.78,3.66C102,183.39,89.84,176,84.3,164.37l0-.1s0,0,0,0a39.51,39.51,0,0,1-3.3-18.82c4.47,16,16.52,25.47,33.36,25.47h.21c11.09-.05,19.92-5.37,27.8-11.2C141.4,168.29,136.72,177.11,130.25,182.29Zm12.21-23.35h0l0,0c-7.92,5.91-16.79,11.37-27.94,11.42h-.2c-17.09,0-29.19-9.95-33.26-26.61,0-.07,0-.14,0-.21a.23.23,0,0,0-.12-.21c-.36-1.54-.65-3.14-.87-4.79l.5-.29a.25.25,0,0,0,.1-.34.25.25,0,0,0-.34-.1L80,138c-.11-.9-.21-1.8-.28-2.73A46.91,46.91,0,0,0,93.91,156.5a36,36,0,0,0,23.28,8.55,38.93,38.93,0,0,0,5.67-.42c5.73-.84,16.74-6.23,21.06-10.88C143.58,155.82,143,158.54,142.45,158.94Zm1.64-6.13c-3.79,4.7-15.4,10.46-21.31,11.33a35.58,35.58,0,0,1-28.56-8A47.26,47.26,0,0,1,79,131.1c1.64.54,3.43,1,5.3,1.53,1,1.29,15,18.54,21.26,21.81s10.18,4.25,14,4.25a49.28,49.28,0,0,0,6.25-.55l.22,0c5.79-.74,18.41-11.13,21.34-13.59C146.42,148,145.32,151.29,144.1,152.8Zm-54-117.08a43.48,43.48,0,0,1,16.33-2.92,63.55,63.55,0,0,1,25.36,5.52c6.19,2.74,15.77,16.28,16.53,23.36a7.47,7.47,0,0,1-.58,3,7.69,7.69,0,0,0-.59,3.21c.59,4.87,2.57,11.37,4.67,18.26,1.51,4.94,3.08,10.1,4.3,15.12,0,0,0,0,0,0h0c.66,2.71,1.21,5.38,1.6,8h0c.2,1.32.35,2.61.45,3.87a.21.21,0,0,0,0,.08c0,.17,0,.33,0,.49-.87,3-13.24,15.93-20.39,18.76-8.47,3.35-23.92,2.35-31.82.34a78.25,78.25,0,0,1-14.2-5.38c-4.15-2.07-9.49-5.28-11.33-8.83-3.9-7.53-.45-20.91,2.88-33.84,2.91-11.3,5.66-22,3.88-29.08-1.11-4.43.92-17.41,2.7-19.74A1.15,1.15,0,0,1,90.12,35.73Zm88.53,58.45c-1.7,6-18,13.48-20.45,14.57-.38-2.41-.9-4.91-1.51-7.43,6.63-2.48,13.31-8,19.85-16.29C178.49,88.23,179.46,91.35,178.65,94.18ZM119.54,15.27c10,1.12,12,8.4,13.79,14.83.87,3.15,1.7,6.13,3.38,8.09C138,39.61,139.45,41.27,141,43c4.66,5.16,10.45,11.58,13.23,16.37,2,3.46,6,7.45,10.21,11.69s9,9,11.79,13.48c-6.51,8.31-13.13,13.78-19.69,16.25-1.21-4.94-2.75-10-4.23-14.86-2.09-6.86-4.07-13.35-4.66-18.17a7.35,7.35,0,0,1,.57-3,7.83,7.83,0,0,0,.6-3.17c-.8-7.37-10.39-20.92-16.83-23.77-14.3-6.34-30.28-7.25-41.73-2.73h0a.71.71,0,0,0-.4.15,30,30,0,0,0-4.59,2.34c-6.13,3.85-5.2,9.12-4.53,13A10.79,10.79,0,0,1,81,54.7l-.54,2.08c-4.39,17-7.79,30.19-9.45,41.66C68.89,97.88,54,93.71,52.2,82.3c-2.38-15,16.6-32.89,34.58-48.5,2-1.77,3.92-3.54,5.74-5.25a107.92,107.92,0,0,1,14.77-12.17h0A31.94,31.94,0,0,1,119.54,15.27ZM32.22,77.93c1.35-13.36,8.19-16.78,18.53-22,7.89-3.95,17.71-8.87,28.08-20.1,9-9.71,18.06-16.1,26.86-19a112.62,112.62,0,0,0-13.52,11.3c-1.82,1.71-3.7,3.47-5.73,5.24-18.08,15.7-37.17,33.73-34.75,49,1.87,11.78,17.22,16,19.29,16.55a99.41,99.41,0,0,0-1,12.9C43.32,109,30.27,97.24,32.22,77.93Zm38.89,44.52a70.32,70.32,0,0,1-.67-10.12.22.22,0,0,0,0-.41A99.19,99.19,0,0,1,71.52,98.8h0C73.16,87.28,76.57,74,81,56.9l.54-2.08a11.06,11.06,0,0,0-.25-4.32c-.69-3.92-1.54-8.79,4.3-12.46a29.1,29.1,0,0,1,3.68-1.92c-1.78,3.42-3.55,15.25-2.46,19.62,1.75,7-1,17.59-3.88,28.83-3.35,13-6.82,26.49-2.84,34.2,3.52,6.8,19.23,12.78,25.85,14.47a73.88,73.88,0,0,0,16.89,1.86c5.62,0,11.21-.62,15.24-2.22,6.66-2.64,17.8-14,20.26-18.2.21,4.88-.47,9.2-2.6,12.46-1.12,1.7-5.26,4.86-8.59,7.39-2.15,1.64-4,3-4.92,3.94a5.11,5.11,0,0,0-1.3,2.57,3.88,3.88,0,0,1-1.36,2.41c-6.67,4.92-27,5.14-34.49.37A6.49,6.49,0,0,1,103,141a8.22,8.22,0,0,0-1.89-2.82c-2.87-2.42-8.7-3.92-14.33-5.38-2.72-.7-5.48-1.42-7.9-2.24l-.07-.26a.24.24,0,0,0-.48.07A18.69,18.69,0,0,1,73.46,128C72.29,127.1,71.32,124,71.11,122.45ZM23.42,192.11c6.94-26.34,22.79-46.56,49.89-63.64a20.2,20.2,0,0,0,5.12,2.43q.3,1.22.65,2.42c.07,1.71.22,3.36.43,5-5,2.89-31.33,18.58-33,30.94C43.24,192.71,65.39,228.78,79,246.38a129.88,129.88,0,0,0,23,23.37l-81.07.89C18.64,240.16,17.39,215,23.42,192.11Zm79.36,77.64a129,129,0,0,1-23.39-23.67,212.61,212.61,0,0,1-23-37.43C48.85,192.79,45.61,179.18,47,169.3c.75-5.42,6.78-12.49,17.45-20.47a167.36,167.36,0,0,1,15.16-10q.36,2.59.94,5c-.59,8,.54,15,3.35,20.85,4.34,14.4,13.86,35.83,24.3,54.74,16.31,29.53,25.82,37.35,30,39.38a11.71,11.71,0,0,0,5.1,1.22,12.16,12.16,0,0,0,8.85-4.17c5.79-6.11,8.57-17.6,7.63-31.53-1.14-16.93-7.63-36.59-18.77-56.86a33.51,33.51,0,0,0,1.81-8.21c.88-.91,1.54-5.17,1.69-6.19,1.85-2.37,3.39-8.43,4.38-13.23a82,82,0,0,1,34.21,26.83c9.51,21,13.48,41.43,11.77,60.7-1.75,19.83-9.06,33.43-15.12,41.55Zm77.62-.85c6.06-8.21,13.25-21.81,15-41.5,1.65-18.73-2-38.54-10.92-58.9a101.93,101.93,0,0,1,6.44,10.31c11.91,21.81,18.64,51.18,20.59,89.75Z"/><path class="cls-1" d="M119.1,116.19a5.88,5.88,0,0,1-.86-.06c-5.41-.76-13.35-6.51-15.85-13.05-1.65-4.33.79-10.76,1.74-13,.11-8.75,1.76-16.73,5.63-27.3a9,9,0,0,1,5.08-5,9.18,9.18,0,0,1,1.61-.5l.24-.12.62,0a8.35,8.35,0,0,1,1-.06,6.11,6.11,0,0,1,2.59.54c8.12,3.77,14.47,14.2,16.18,26.56,1,7.1.32,13.71-1.92,19.13a6.42,6.42,0,0,1-.48,1.08,21.84,21.84,0,0,1-4.74,6.71l-.2.5-1,.5C126.79,113.42,122.35,116.19,119.1,116.19Zm1-50.11C116.51,78,115.59,86.67,117.4,91.8s5.65,9.14,8.11,9.69h.11a4.31,4.31,0,0,0,2.34-.92c1.78-4.15,2.32-9.59,1.52-15.38C128.34,76.93,124.72,69.68,120.13,66.08Z"/><path class="cls-1" d="M105.76,101.8c2,5.24,8.74,10.18,13,10.77l.34,0c2.59,0,7.61-3.49,7.84-3.64h0a18,18,0,0,0,4.55-6.25,2.78,2.78,0,0,0,.3-.66c2-4.77,2.65-10.81,1.74-17.4-1.54-11.18-7.09-20.52-14.13-23.79a3.23,3.23,0,0,0-1.76-.15h0a5.9,5.9,0,0,0-1.38.37,5.37,5.37,0,0,0-3.08,3c-4.23,11.56-5.4,19.11-5.42,26.84C106.3,93.84,104.76,99.17,105.76,101.8Zm13.07,10.28c-4.1-.58-10.72-5.52-12.6-10.46-.84-2.2.3-6.61,1.51-9.53,0,1,0,1.95.08,2.94.19,4.52,7.57,12,11.9,14a11,11,0,0,0,4,.69,9.59,9.59,0,0,0,1.21-.08C123.11,110.76,120.31,112.28,118.83,112.08Zm-.54-50.95a2.19,2.19,0,0,1,.91.17c6.89,3.2,12.33,12.38,13.85,23.4.93,6.77.2,12.93-2,17.7a7,7,0,0,1-6.38,2.61c-4-.91-8.63-6.07-10.72-12-3.38-9.6,2-26.15,3.91-31.82C118,61.16,118.17,61.13,118.29,61.13Zm-4.67,3.08a4.88,4.88,0,0,1,2.81-2.67,5.69,5.69,0,0,1,.94-.3c-3.16,9.62-6.9,23.2-3.83,31.92,2.14,6.09,6.91,11.39,11.08,12.33a4.79,4.79,0,0,0,1,.11,8.14,8.14,0,0,0,4.65-1.64,16.79,16.79,0,0,1-3.67,4.58l-.29.2c-1.43.79-4.93.52-6.41-.15a26.06,26.06,0,0,1-7.27-5.85C110,99.8,108.4,97,108.32,95,107.92,85.75,108.66,77.74,113.62,64.21Z"/><path class="cls-2" d="M149,61.63c-.59-5.49-6.49-15-12.13-20.32l2.44-1c5,5.63,12.32,13.36,15.58,19,4.09,7.06,16.61,16.51,22.09,25.3q-10,12.89-20.18,16.58c-3-12.18-8-25.05-9-33.33C147.57,65.83,149.19,63.59,149,61.63Z"/><path class="cls-3" d="M80.14,138.41a49.67,49.67,0,0,0,1,5.43c-.58,7.75.51,14.62,3.26,20.48,8.55,28.61,38.3,86.55,54.28,94.24,17.76,8.55,36.47-29.26,2.44-91.08a33.45,33.45,0,0,0,1.84-8.36c.91-.68,1.69-6.18,1.69-6.18,1.34-1.66,2.53-5.37,3.45-9.13.37-1.48.7-3,1-4.36a82.32,82.32,0,0,1,34.6,27v0c20.39,45,12.37,81.56-3.44,102.64l-77.2.84A128.75,128.75,0,0,1,79.56,246.2c-15.18-19.64-35.55-54.62-32.46-77C48.79,157,75.57,141,80.14,138.41Z"/><path class="cls-4" d="M80.14,138.41c-.22-1.65-.37-3.37-.45-5.15,5.66,19.21,22.17,34.22,43.5,31.1,6-.89,17.65-6.69,21.47-11.43,0,0-.78,5.5-1.69,6.18-7.86,5.86-16.79,11.44-28.11,11.49-16.26.08-29.41-9-33.72-26.76A49.67,49.67,0,0,1,80.14,138.41Z"/><path class="cls-2" d="M81.54,38.37c1.82-1.63,3.64-3.23,5.45-4.79,6.68-5.78,11.36-11.27,20.53-17.43a0,0,0,0,1,0,0A32,32,0,0,1,119.95,15c15.09,1.69,12.29,17.13,17.34,23,.61.7,1.28,1.47,2,2.27l-2.44,1a17.19,17.19,0,0,0-4.55-3.25C118,31.75,102,30.69,90.38,35.47a0,0,0,0,0,0,0,29.18,29.18,0,0,0-4.55,2.33,13.3,13.3,0,0,0-1.94,1.47Z"/><path class="cls-5" d="M126.92,118.4c-8.59.09-21-2.47-30.89-15.33A21.7,21.7,0,0,0,93.2,106l-1.54-1.27c3.07-3.73,5.8-5.5,8.53-5.49v2a5.36,5.36,0,0,0-2.5.71c15.91,20.6,37.9,13.43,38.85,13.11l.64,1.89A36.24,36.24,0,0,1,126.92,118.4Z"/><path class="cls-6" d="M126.87,108.91c-1.17.79-5.63,3.67-7.7,3.38-4.21-.59-10.86-5.53-12.81-10.62-.94-2.47.52-7.73,2-10.76h0c0,1.37,0,2.72.08,4.08.2,4.53,7.64,11.93,11.76,13.8C121.69,109.47,125.33,109.81,126.87,108.91Z"/><path class="cls-2" d="M125.37,52.52c-.42,1-2.79-2.29-2.11-3.14,7.67-9.69,12.52-.81,14.15,3.69.1.28.13.55-.17.49C134.6,53.13,129.19,43.29,125.37,52.52Z"/><path class="cls-7" d="M180.27,269.13c15.81-21.08,23.83-57.65,3.44-102.64,15.38,20.49,25.94,52.42,28.42,102.3Z"/><path class="cls-2" d="M52.33,82.32C50.16,68.68,65.79,52.45,81.54,38.37l2.33.9c-5.64,5.21-1.33,12-2.21,15.46-4.66,18.06-8.3,32-10,44C71.65,98.72,54.32,94.87,52.33,82.32Z"/><path d="M133.84,68.26c-4,1.59-8.73-9.36-2-9.43C135.86,58.79,138.48,66.44,133.84,68.26Z"/><path class="cls-8" d="M131.67,102.53c.11-.22.2-.44.29-.66A2.42,2.42,0,0,1,131.67,102.53Z"/><path class="cls-8" d="M104,59.14c-6.33.07-6.23,9.52-.44,9.46S108.76,59.09,104,59.14ZM91.66,104.72,93.2,106A21.7,21.7,0,0,1,96,103.07c9.9,12.86,22.3,15.43,30.89,15.33a36.24,36.24,0,0,0,10.26-1.47l-.64-1.89c-.95.32-22.94,7.49-38.85-13.11a5.36,5.36,0,0,1,2.5-.71v-2C97.46,99.21,94.72,101,91.66,104.72Zm31.6-55.34c-.67.85,1.7,4.14,2.11,3.14,3.82-9.22,9.24.61,11.86,1,.3.06.28-.21.17-.49C135.77,48.57,130.93,39.68,123.25,49.38Zm8.58,9.46c-6.73.07-2,11,2,9.43C138.48,66.44,135.86,58.79,131.84,58.84Zm-22.15-5c.82.42,2.48-3.37,1.62-3.72-16.55-6.64-18.68.23-20.13,3.37a.41.41,0,0,0,.64.47C94.27,51.88,98.12,47.9,109.69,53.84Zm22.28,48c5.55-13.39-.4-35.31-12.29-40.83a3,3,0,0,0-1.57-.15,5.61,5.61,0,0,0-4.36,3.21c-4.35,11.91-5.4,19.55-5.4,26.82h0c-1.47,3-2.92,8.29-2,10.76,1.95,5.09,8.6,10,12.81,10.62,2.07.29,6.53-2.59,7.7-3.38l.29-.19a17.55,17.55,0,0,0,4.5-6.18h0A2.42,2.42,0,0,0,132,101.87Zm-51.3,16.76c-7.27-14.07,10.59-47.62,6.74-63-1.19-4.8,1.15-18.67,3-20.17a0,0,0,0,1,0,0C102,30.69,118,31.75,132.3,38.06a17.19,17.19,0,0,1,4.55,3.25c5.64,5.28,11.54,14.82,12.13,20.32.21,2-1.4,4.21-1.17,6.16,1,8.28,6,21.16,9,33.33.65,2.7,1.21,5.38,1.6,8,.2,1.37.37,2.7.46,4,0,.21,0,.42,0,.63-1,3.17-13.47,16.12-20.54,18.92-8.7,3.45-24.23,2.32-32,.35C99.23,131.16,84,125.15,80.67,118.63Z"/><path class="cls-9" d="M150.21,133.2s-.41,2.74-1.11,6.24c-.28,1.38-.61,2.88-1,4.36,0,0-15.38,13.22-21.81,14-6.87.89-10.54,1.43-20.27-3.65-6.43-3.35-21.23-21.81-21.23-21.81,6.35,1.67,13.29,3.21,16.49,5.91,1.79,1.51,2,4.45,4,5.71,7.34,4.66,27.77,4.78,34.77-.38,1.82-1.34,1.07-3.42,2.69-5,1.24-1.2,4.3-3.45,7.24-5.71Z"/><path class="cls-10" d="M114.14,93.05c-3.18-9,1.16-23.69,4-32.16h0a3,3,0,0,1,1.57.15c11.89,5.52,17.84,27.44,12.29,40.83-.1.22-.19.44-.29.66h0a7.25,7.25,0,0,1-6.63,2.68C121.05,104.33,116.33,99.28,114.14,93.05Z"/><path class="cls-4" d="M79.7,133.26q-.37-1.27-.69-2.57c1.78.61,3.75,1.16,5.8,1.7,0,0,14.8,18.46,21.23,21.81,9.74,5.07,13.4,4.53,20.27,3.65,6.43-.82,21.81-14,21.81-14-.92,3.76-2.11,7.46-3.45,9.13-3.82,4.73-15.46,10.54-21.47,11.43C101.86,167.48,85.36,152.47,79.7,133.26Z"/><path class="cls-5" d="M118.11,60.9c-2.81,8.46-7.15,23.13-4,32.16,2.19,6.23,6.91,11.28,10.89,12.17a7.25,7.25,0,0,0,6.63-2.68,17.55,17.55,0,0,1-4.5,6.18l-.29.19c-1.54.9-5.18.56-6.67-.12-4.12-1.88-11.56-9.27-11.76-13.8-.05-1.36-.09-2.71-.08-4.08,0-7.27,1-14.91,5.4-26.82a5.61,5.61,0,0,1,4.36-3.21Z"/><path class="cls-7" d="M79,130.69q.31,1.3.69,2.57c.08,1.78.23,3.5.45,5.15C75.57,141,48.79,157,47.1,169.24c-3.09,22.34,17.29,57.32,32.46,77A128.75,128.75,0,0,0,103.07,270l-82,.9c-4.28-57.23-6.61-105.46,52.62-142.72A20,20,0,0,0,79,130.69Z"/><path class="cls-4" d="M84.41,164.31c5.46,11.61,17.52,19.24,36.4,21.85,6.73.94,16.27-7.32,20.33-18.69,34,61.82,15.32,99.63-2.44,91.08C122.71,250.86,93,192.92,84.41,164.31Z"/><path class="cls-9" d="M84.41,164.31c-2.75-5.86-3.84-12.73-3.26-20.48,4.31,17.73,17.46,26.84,33.72,26.76,11.32,0,20.25-5.63,28.11-11.49a33.45,33.45,0,0,1-1.84,8.36c-4.06,11.38-13.6,19.63-20.33,18.69C101.93,183.55,89.86,175.92,84.41,164.31Z"/><path class="cls-6" d="M87.41,55.65c3.85,15.36-14,48.91-6.74,63,3.38,6.52,18.57,12.53,25.7,14.34,7.74,2,23.27,3.1,32-.35,7.07-2.8,19.56-15.74,20.54-18.92.35,5.32-.28,10-2.58,13.54-.89,1.36-3.53,3.53-6.31,5.67-2.94,2.26-6,4.51-7.24,5.71-1.61,1.58-.87,3.66-2.69,5-7,5.16-27.43,5-34.77.38-2-1.26-2.22-4.2-4-5.71-3.2-2.7-10.14-4.24-16.49-5.91-2-.54-4-1.09-5.8-1.7a20,20,0,0,1-5.33-2.54c-1.24-.93-2.23-4.16-2.44-5.68a71.53,71.53,0,0,1-.67-10.38,100,100,0,0,1,1.08-13.36c1.71-12,5.35-25.92,10-44,.88-3.44-3.43-10.24,2.21-15.46a13.3,13.3,0,0,1,1.94-1.47,29.18,29.18,0,0,1,4.55-2.33C88.55,37,86.22,50.85,87.41,55.65Z"/><path d="M103.59,68.6c-5.79.06-5.89-9.39.44-9.46C108.76,59.09,109.3,68.53,103.59,68.6Z"/><path class="cls-11" d="M176.95,84.54c2.11,3.38,3.17,6.67,2.32,9.68-1.88,6.6-20.9,14.86-20.9,14.86-.39-2.58-.95-5.25-1.6-8Q166.92,97.43,176.95,84.54Z"/><path class="cls-11" d="M70.56,112.08C45.67,109.46,30.2,99,32.35,77.89c2.43-24,23-16.6,46.67-42.2,9.14-9.9,18.89-16.78,28.5-19.52C98.34,22.31,93.66,27.8,87,33.58c-1.8,1.56-3.63,3.16-5.45,4.79C65.79,52.45,50.16,68.68,52.33,82.32c2,12.55,19.32,16.4,19.32,16.4A100,100,0,0,0,70.56,112.08Z"/><path class="cls-2" d="M91.17,53.49c1.46-3.14,3.58-10,20.13-3.37.86.35-.79,4.14-1.62,3.72-11.57-5.93-15.42-2-17.88.13A.41.41,0,0,1,91.17,53.49Z"/></g></svg>