<svg id="Layer_1" data-name="Layer 1" xmlns="http://www.w3.org/2000/svg" viewBox="0 0 195 295"><defs><style>.cls-1{fill:#172d44;}.cls-2{fill:#466084;}.cls-3{fill:#b7a67d;}.cls-4{fill:#f4e8c3;}.cls-5{fill:#cc8f7a;}.cls-6{fill:#f2b78b;}.cls-7{fill:#b2a893;}.cls-8{fill:#efe7d0;}.cls-9{fill:#aa593d;}.cls-10{fill:#d88361;}</style></defs><title>george_front_final</title><g id="_Group_" data-name="&lt;Group&gt;"><path class="cls-1" d="M161,281.09l-23.13.25c11.48-15.31,17.3-41.85,2.5-74.51C151.48,221.71,159.15,244.88,161,281.09Z"/><path class="cls-2" d="M140.32,206.83c14.8,32.66,9,59.21-2.5,74.51l-56,.61A93.46,93.46,0,0,1,64.72,264.7c-11-14.25-25.81-39.65-23.57-55.87,1.23-8.9,20.67-20.47,24-22.38a35.76,35.76,0,0,0,.73,3.94,29.44,29.44,0,0,0,2.37,14.86C74.45,226,96,268.08,107.64,273.66c12.9,6.2,26.48-21.24,1.77-66.12a24,24,0,0,0,1.33-6.07C111.41,201,112,197,112,197c1-1.2,1.84-3.9,2.5-6.63.27-1.08.51-2.16.71-3.17a59.72,59.72,0,0,1,25.12,19.62Z"/><path class="cls-3" d="M135.42,147.35c1.53,2.45,2.3,4.84,1.68,7-1.36,4.79-15.17,10.79-15.17,10.79-.28-1.87-.68-3.81-1.16-5.77Q128.13,156.7,135.42,147.35Z"/><path class="cls-4" d="M135.42,147.35q-7.28,9.36-14.65,12c-2.14-8.84-5.77-18.19-6.51-24.2-.17-1.42,1-3.05.85-4.47-.43-4-4.71-10.92-8.81-14.75l1.77-.76c3.65,4.08,8.94,9.7,11.31,13.78C122.35,134.1,131.44,141,135.42,147.35Z"/><path class="cls-5" d="M58.19,167.34a71.37,71.37,0,0,1,.79-9.7c1.24-8.73,3.88-18.82,7.27-31.93.64-2.5-2.49-7.44,1.61-11.22a9.65,9.65,0,0,1,1.41-1.07,21.18,21.18,0,0,1,3.31-1.69c-1.32,1.09-3,11.16-2.15,14.64,2.79,11.15-10.17,35.5-4.89,45.72C68,176.83,79,181.18,84.18,182.5c5.62,1.43,16.89,2.25,23.21-.25,5.13-2,14.21-11.42,14.91-13.73.25,3.86-.2,7.28-1.87,9.83a24.82,24.82,0,0,1-4.58,4.12c-2.13,1.64-4.36,3.27-5.25,4.14-1.17,1.15-.63,2.66-1.95,3.63-5.08,3.74-19.91,3.66-25.24.28-1.44-.91-1.61-3-2.91-4.14-2.32-2-7.36-3.08-12-4.29-1.49-.39-2.92-.79-4.21-1.23A14.5,14.5,0,0,1,60.45,179c-.9-.67-1.62-3-1.77-4.13A51.92,51.92,0,0,1,58.19,167.34Z"/><path class="cls-6" d="M122.26,168.06c0,.15,0,.3,0,.46-.71,2.31-9.78,11.7-14.91,13.73-6.32,2.5-17.59,1.68-23.21.25C79,181.18,68,176.83,65.52,172.09c-5.28-10.21,7.69-34.57,4.89-45.72-.87-3.48.83-13.56,2.15-14.64h0C81,108.25,92.65,109,103,113.6a12.59,12.59,0,0,1,3.3,2.36c4.09,3.83,8.38,10.76,8.81,14.75.15,1.42-1,3.05-.85,4.47.73,6,4.36,15.36,6.51,24.2.48,2,.88,3.9,1.16,5.77C122.08,166.15,122.19,167.11,122.26,168.06Zm-15.68-43.2c.22,0,.2-.15.13-.36-1.18-3.26-4.7-9.71-10.27-2.68-.49.62,1.23,3,1.53,2.28C100.74,117.4,104.68,124.54,106.58,124.85Zm0,46-.47-1.37A25.79,25.79,0,0,1,77.88,160a3.89,3.89,0,0,1,1.82-.51V158c-2,0-4,1.28-6.19,4l1.12.92a15.75,15.75,0,0,1,2.05-2.12A27.08,27.08,0,0,0,99.1,171.93,26.31,26.31,0,0,0,106.55,170.86Zm-2.43-35.33c3.37-1.32,1.46-6.88-1.45-6.84C97.78,128.74,101.19,136.69,104.12,135.53Zm-1.36,24.39c4-9.72-.29-25.63-8.92-29.64a2.17,2.17,0,0,0-1.14-.11,4.07,4.07,0,0,0-3.16,2.33c-3.16,8.64-3.92,14.19-3.92,19.47h0c-1.06,2.2-2.12,6-1.44,7.81,1.41,3.69,6.24,7.28,9.3,7.71,1.51.21,4.74-1.88,5.59-2.46l.21-.14a12.65,12.65,0,0,0,3.27-4.49h0A1.75,1.75,0,0,0,102.76,159.92ZM86.59,125.06c.6.31,1.8-2.44,1.18-2.7-12-4.82-13.56.17-14.62,2.45a.3.3,0,0,0,.46.34C75.39,123.63,78.19,120.75,86.59,125.06Zm-4.43,10.71c4.14,0,3.75-6.9.32-6.86C77.88,129,78,135.82,82.16,135.77Z"/><path class="cls-7" d="M115.84,182.46l.16.21s-.29,2-.81,4.53c-.21,1-.44,2.09-.71,3.17,0,0-11.16,9.6-15.83,10.19-5,.64-7.65,1-14.72-2.65-4.67-2.43-15.41-15.83-15.41-15.83,4.61,1.21,9.64,2.33,12,4.29,1.3,1.1,1.47,3.23,2.91,4.14,5.33,3.38,20.16,3.47,25.24-.28,1.32-1,.78-2.48,1.95-3.63C111.49,185.73,113.71,184.1,115.84,182.46Z"/><path class="cls-8" d="M114.48,190.36c-.67,2.73-1.53,5.43-2.5,6.63-2.77,3.44-11.22,7.65-15.58,8.29-15.49,2.27-27.47-8.63-31.58-22.57q-.27-.92-.5-1.87c1.29.44,2.72.84,4.21,1.23,0,0,10.75,13.4,15.41,15.83,7.07,3.68,9.73,3.29,14.72,2.65C103.32,200,114.48,190.36,114.48,190.36Z"/><path class="cls-8" d="M65.87,190.39a35.76,35.76,0,0,1-.73-3.94c-.16-1.2-.27-2.44-.32-3.74,4.11,13.94,16.09,24.84,31.58,22.57,4.36-.64,12.81-4.86,15.58-8.29,0,0-.57,4-1.23,4.49-5.7,4.25-12.19,8.31-20.4,8.34C78.54,209.87,69,203.26,65.87,190.39Z"/><path class="cls-8" d="M109.42,207.55c24.7,44.88,11.12,72.32-1.77,66.12C96,268.08,74.45,226,68.24,205.25c4,8.43,12.72,14,26.42,15.86C99.55,221.79,106.47,215.8,109.42,207.55Z"/><path class="cls-7" d="M110.75,201.48a24,24,0,0,1-1.33,6.07c-2.94,8.26-9.87,14.25-14.76,13.57-13.71-1.9-22.46-7.43-26.42-15.86a29.44,29.44,0,0,1-2.37-14.86c3.13,12.87,12.68,19.48,24.48,19.43C98.57,209.78,105,205.73,110.75,201.48Z"/><path class="cls-4" d="M72.57,111.72h0a21.18,21.18,0,0,0-3.31,1.69,9.65,9.65,0,0,0-1.41,1.07l-1.69-.66c1.32-1.18,2.65-2.34,4-3.48,4.85-4.2,8.24-8.18,14.9-12.65h0a23.24,23.24,0,0,1,9-.84c11,1.22,8.92,12.43,12.59,16.7.44.51.93,1.06,1.45,1.65l-1.77.76a12.59,12.59,0,0,0-3.3-2.36C92.65,109,81,108.25,72.57,111.72Z"/><path class="cls-4" d="M106.71,124.5c.07.2.09.4-.13.36-1.91-.31-5.84-7.45-8.61-.76-.3.73-2-1.66-1.53-2.28C102,114.78,105.52,121.23,106.71,124.5Z"/><path class="cls-9" d="M106.08,169.48l.47,1.37a26.31,26.31,0,0,1-7.45,1.07A27.08,27.08,0,0,1,76.67,160.8a15.75,15.75,0,0,0-2.05,2.12L73.5,162c2.23-2.71,4.21-4,6.19-4v1.45a3.89,3.89,0,0,0-1.82.51A25.79,25.79,0,0,0,106.08,169.48Z"/><path d="M102.67,128.68c2.92,0,4.82,5.52,1.45,6.84C101.19,136.69,97.78,128.74,102.67,128.68Z"/><path class="cls-10" d="M93.84,130.28c8.63,4,13,19.92,8.92,29.64-.07.16-.13.32-.21.48h0a5.26,5.26,0,0,1-4.81,1.95c-2.89-.65-6.32-4.32-7.91-8.84-2.31-6.55.84-17.2,2.88-23.34h0A2.17,2.17,0,0,1,93.84,130.28Z"/><path class="cls-6" d="M102.55,160.4c.08-.16.14-.32.21-.48A1.75,1.75,0,0,1,102.55,160.4Z"/><path class="cls-9" d="M102.54,160.41a12.65,12.65,0,0,1-3.27,4.49l-.21.14c-1.12.65-3.76.4-4.84-.08-3-1.36-8.39-6.73-8.54-10,0-1-.07-2-.06-3,0-5.28.76-10.83,3.92-19.47a4.07,4.07,0,0,1,3.16-2.33h0c-2,6.14-5.19,16.79-2.88,23.34,1.59,4.52,5,8.18,7.91,8.84A5.26,5.26,0,0,0,102.54,160.41Z"/><path class="cls-5" d="M94.22,165c1.08.49,3.72.74,4.84.08-.85.58-4.09,2.67-5.59,2.46-3.05-.43-7.88-4-9.3-7.71-.68-1.79.37-5.61,1.44-7.81h0c0,1,0,2,.06,3C85.83,158.22,91.23,163.59,94.22,165Z"/><path class="cls-4" d="M87.77,122.36c.63.25-.58,3-1.18,2.7-8.4-4.31-11.2-1.42-13,.09a.3.3,0,0,1-.46-.34C74.21,122.53,75.75,117.54,87.77,122.36Z"/><path d="M82.48,128.91c3.43,0,3.83,6.82-.32,6.86S77.88,129,82.48,128.91Z"/><path class="cls-1" d="M81.79,282l-59.54.65C19.15,241.06,17.45,206,60.45,179a14.5,14.5,0,0,0,3.87,1.85q.23.94.5,1.87c.06,1.29.17,2.54.32,3.74-3.32,1.92-22.76,13.48-24,22.38C38.91,225,53.7,250.44,64.72,264.7A93.46,93.46,0,0,0,81.79,282Z"/><path class="cls-3" d="M85,97.71c-6.66,4.46-10.06,8.45-14.9,12.65-1.31,1.13-2.63,2.29-4,3.48-11.43,10.22-22.78,22-21.2,31.9,1.44,9.11,14,11.9,14,11.9a71.37,71.37,0,0,0-.79,9.7c-18.07-1.9-29.3-9.48-27.74-24.82,1.76-17.42,16.73-12.05,33.88-30.64C71,104.69,78,99.7,85,97.71Z"/><path class="cls-4" d="M66.15,113.83l1.69.66c-4.1,3.78-1,8.72-1.61,11.22-3.38,13.11-6,23.2-7.27,31.93,0,0-12.58-2.8-14-11.9C43.37,135.83,54.72,124,66.15,113.83Z"/></g></svg>