<svg id="Layer_1" data-name="Layer 1" xmlns="http://www.w3.org/2000/svg" viewBox="0 0 470.16 440"><defs><style>.cls-1{fill:#fff;}.cls-2{fill:#172d44;}.cls-3{fill:#466084;}.cls-4{fill:#b7a67d;}.cls-5{fill:#f4e8c3;}.cls-6{fill:#cc8f7a;}.cls-7{fill:#f2b78b;}.cls-8{fill:#b2a893;}.cls-9{fill:#efe7d0;}.cls-10{fill:#aa593d;}.cls-11{fill:#d88361;}</style></defs><title>george_back_final-06</title><path class="cls-1" d="M247.18,258A45.43,45.43,0,0,1,213,243a4.26,4.26,0,0,1-2.23,1.09l-.29.06H210a4.3,4.3,0,0,1-2.7-1l-1.74-1.43a4.3,4.3,0,0,1-.59-6.06c2.7-3.3,7-7.69,12.81-7.69a4.32,4.32,0,0,1,4.34,4.3v2.22a4.34,4.34,0,0,1-.45,1.93A34.53,34.53,0,0,0,247,247.28a33.89,33.89,0,0,0,10-1.41l.63-.21.76,0a4.3,4.3,0,0,1,4.06,2.9l.73,2.13a4.3,4.3,0,0,1-2.74,5.48h0A45.43,45.43,0,0,1,247.73,258Z"/><path class="cls-1" d="M258.33,249.67c-1,.35-25.21,8.26-42.86-14.28a5.62,5.62,0,0,1,2.38-.6.28.28,0,0,0,.27-.28v-2.23a.28.28,0,0,0-.32-.28c-3.14,0-6.22,2-9.71,6.23a.28.28,0,0,0,0,.39l1.73,1.42a.26.26,0,0,0,.2.06.28.28,0,0,0,.19-.1,24.4,24.4,0,0,1,2.9-3c10.88,14,24.41,17,34,17h.5a41.08,41.08,0,0,0,11.55-1.65.27.27,0,0,0,.16-.14.28.28,0,0,0,0-.21l-.72-2.11A.27.27,0,0,0,258.33,249.67Zm-10.65,3.74c-9.59.14-23.31-2.76-34.27-17a.27.27,0,0,0-.19-.11h0a.28.28,0,0,0-.18.06,23.76,23.76,0,0,0-3,3.08l-1.29-1.06c3.21-3.85,6-5.71,8.86-5.81v1.68a6.42,6.42,0,0,0-2.65.81.28.28,0,0,0-.09.42c17.14,22.18,40.53,15.73,43.43,14.82l.54,1.58A41.81,41.81,0,0,1,247.68,253.41Z"/><path class="cls-1" d="M221.56,202.37a8.73,8.73,0,0,1-7.7-4.32,10.25,10.25,0,0,1-.08-10.08,9.34,9.34,0,0,1,8.28-4.76c4.81,0,8.42,4.06,8.48,9.45a10.33,10.33,0,0,1-2,6.32,8.55,8.55,0,0,1-6.91,3.4h-.11Zm.22-10.53a.64.64,0,0,0-.51.34,1.67,1.67,0,0,0,0,1.49.34.34,0,0,0,.3.11.65.65,0,0,0,.2,0,2.53,2.53,0,0,0,.18-1A2.67,2.67,0,0,0,221.78,191.84Z"/><path class="cls-1" d="M221.56,198.35h.07c3.42,0,4.92-2.87,4.89-5.65s-1.54-5.47-4.36-5.47h0a5.34,5.34,0,0,0-4.82,2.71,6.25,6.25,0,0,0,0,6.06A4.73,4.73,0,0,0,221.56,198.35Zm-3.79-8.14a4.8,4.8,0,0,1,4.34-2.42h0c2.46,0,3.78,2.47,3.81,4.92s-1.3,5.06-4.34,5.09h-.06a4.2,4.2,0,0,1-3.76-2.08A5.67,5.67,0,0,1,217.78,190.21Z"/><path class="cls-1" d="M254.48,202.18a8,8,0,0,1-5.76-2.64c-2.79-2.83-4.72-7.87-3-12a7.65,7.65,0,0,1,7.41-4.66c4.94,0,8.31,4.26,9.13,8.48.9,4.6-1.22,8.77-5.27,10.36A6.84,6.84,0,0,1,254.48,202.18Zm-.64-8.48s0,0,0,0h0Z"/><path class="cls-1" d="M258.31,192.11c-.5-2.54-2.45-5.22-5.09-5.22h0c-2.36,0-3.34,1.2-3.74,2.17-1,2.38.36,5.83,2.16,7.66a4.15,4.15,0,0,0,2.89,1.44,2.82,2.82,0,0,0,1-.2C258.21,196.9,258.73,194.24,258.31,192.11Zm-3,5.33c-1.39.55-2.68-.46-3.32-1.11-1.69-1.72-2.91-5-2-7.06.49-1.19,1.58-1.81,3.23-1.83h0c2.27,0,4.09,2.42,4.55,4.77S257.33,196.65,255.31,197.44Z"/><path class="cls-1" d="M259.27,185.58a4.67,4.67,0,0,1-.74-.06c-2.1-.34-3.66-1.75-5.31-3.24a22.17,22.17,0,0,0-2.51-2.05,8.48,8.48,0,0,0-.79,1.52,4.57,4.57,0,0,1-4,2.86h-.24a5.5,5.5,0,0,1-4-1.94l-1.21-.5.28-.68a11.35,11.35,0,0,1-.69-1.18c-1.71-3.37-.44-5.59.19-6.39,3.41-4.32,7-6.5,10.74-6.5a9.28,9.28,0,0,1,1.51.12c6.22,1,9.54,7.77,11,11.7a4.67,4.67,0,0,1-.71,4.71A4.45,4.45,0,0,1,259.27,185.58Z"/><path class="cls-1" d="M245.66,180.6h0a.58.58,0,0,0,.52-.38h0c1-2.45,2.21-3.85,3.57-4.15,2-.46,4.22,1.5,6.14,3.23,1.26,1.13,2.34,2.11,3.25,2.26h.12a.46.46,0,0,0,.37-.16.8.8,0,0,0,0-.77c-.91-2.5-3.48-8.39-7.84-9.1-2.69-.44-5.53,1.21-8.44,4.9-.43.55,0,1.54.23,2.08C244,179.32,244.94,180.6,245.66,180.6Zm-1.86-3.83c2.78-3.52,5.46-5.1,7.91-4.69,4.18.68,6.73,6.86,7.41,8.74a1.15,1.15,0,0,1,0,.17,9.21,9.21,0,0,1-2.9-2.11c-1.8-1.62-3.82-3.44-5.88-3.44a3.38,3.38,0,0,0-.75.08c-1.56.35-2.86,1.82-4,4.48l.26.11-.28-.07c-.13,0-.73-.4-1.32-1.34S243.63,177,243.81,176.78Z"/><path class="cls-1" d="M208.18,186.14a4.78,4.78,0,0,1-2.89-1,4.71,4.71,0,0,1-1.42-5.77L204,179c1.24-2.77,4-9,13.36-9,4,0,8.72,1.12,14.46,3.43a4.75,4.75,0,0,1,2.93,4,9.4,9.4,0,0,1-3.42,7.64,4.87,4.87,0,0,1-2.77.88,4.67,4.67,0,0,1-2.08-.49c-3.9-2-7.13-3-9.65-3a7.23,7.23,0,0,0-5.26,2.27l-.35.3A4.76,4.76,0,0,1,208.18,186.14Z"/><path class="cls-1" d="M208.18,182.12a.73.73,0,0,0,.48-.18l.34-.29c2.65-2.27,7.09-6.08,19.32.19a.72.72,0,0,0,.76-.1,5.7,5.7,0,0,0,1.71-3.88.74.74,0,0,0-.44-.68c-17.88-7.17-21-.3-22.61,3.39l-.23.51a.71.71,0,0,0,.22.88A.73.73,0,0,0,208.18,182.12Zm-.16-.8.24-.52c1.07-2.39,2.77-6.18,9.19-6.18,3,0,7.12.85,12.7,3.08,0,0,.07.1.09.22a5.37,5.37,0,0,1-1.48,3.35s-.15.1-.19.07c-12.56-6.44-17.18-2.48-19.93-.11l-.34.29a.17.17,0,0,1-.23,0A.15.15,0,0,1,208,181.31Z"/><path class="cls-1" d="M129.46,428.26a4.32,4.32,0,0,1-4.29-4c-2.14-28.62-4.57-61.07,2.91-89.47,7.77-29.5,25.08-52.33,54.35-71.61a21.56,21.56,0,0,1-1.19-4.38,81.34,81.34,0,0,1-.73-8.38c-18.78-2.66-45.82-11.79-42.72-42.44,1.77-17.43,11.7-22.4,23.2-28.16,8.48-4.25,19-9.53,30-21.45,14.91-16.15,30.52-24.69,45.15-24.69a37.36,37.36,0,0,1,4.19.23c14.24,1.59,17.29,12.6,19.31,19.89.84,3,1.62,5.86,2.84,7.27s3,3.37,4.73,5.31c5.37,5.94,12,13.31,15.36,19.08,1.94,3.35,6.18,7.6,10.68,12.11,4.68,4.69,10,10,13.41,15.25l.34.24.32.8c3.17,5.19,4.12,9.77,2.92,14-2.08,7.3-15.05,14.38-22.8,18q0,.46.09.91a5,5,0,0,1,.13,1.88c.41,7.28-.78,12.92-3.62,17.26-1,1.5-2.8,3.25-6.31,6-.11.67-.26,1.58-.46,2.67a95.4,95.4,0,0,1,36.79,29.6l.33.21.35.7a117.66,117.66,0,0,1,8.8,13.78c13.67,25,21.37,58.56,23.56,102.49a4.34,4.34,0,0,1-1.19,3.19,4.27,4.27,0,0,1-3,1.32l-33.71.37a4.27,4.27,0,0,1-2.52.82,4.32,4.32,0,0,1-2.44-.76l-174.74,1.91ZM188.3,269.63c-28.09,18.22-44.61,39.68-51.9,67.37-6.34,24.06-5.28,50.65-3,82.61l76-.83a156.77,156.77,0,0,1-18-19.74c-4.29-5.56-41.79-55.26-37.11-89.16,1-7,7-14.8,18.55-23.85a180.85,180.85,0,0,1,18-12.3q-.13-1.38-.2-2.73l-.09-.33C189.75,270.32,189,270,188.3,269.63ZM192.2,283c-3.22,2-7.34,4.74-11.49,7.85-15.22,11.38-17.59,17.91-17.91,20.19-1.42,10.25,2.08,24.67,10.11,41.68a233.26,233.26,0,0,0,25.29,41.05,141.19,141.19,0,0,0,24.3,24.85l82.56-.9c6.08-8.63,13.17-22.69,14.95-42.76,1.83-20.71-2.42-42.7-12.62-65.37a87,87,0,0,0-31.89-26.32c-1.59,6.37-3,9.24-3.89,10.61a23.33,23.33,0,0,1-1.82,6.74,41.06,41.06,0,0,1-1.56,7.4c12.21,22.6,19.33,44.56,20.61,63.62,1.12,16.67-2.39,30.61-9.62,38.25a17.49,17.49,0,0,1-12.8,5.91,17.07,17.07,0,0,1-7.44-1.75c-6.28-3-17.51-13.4-35.32-45.66-11.69-21.17-22.41-45.31-27.38-61.62C193.07,300,191.7,292,192.2,283Zm136.27,71a118.94,118.94,0,0,1,.1,21.69c-1.63,18.44-7.43,32.31-13.18,41.89l22.92-.25C336.85,392.9,333.6,371.91,328.47,354.05Zm-116.71-30a413.23,413.23,0,0,0,19.42,40.16c18.77,34,28.88,40.79,31.53,42.07a8.69,8.69,0,0,0,3.76.93c2.27,0,4.46-1.09,6.51-3.25,5.5-5.81,8.23-17.68,7.28-31.76-1.09-16.18-6.77-34.79-16.51-54.19a39.66,39.66,0,0,1-9.06,10.53c-4.23,3.38-8.6,5.17-12.63,5.17a13,13,0,0,1-1.77-.12C228.76,332,219.23,328.84,211.75,324.1Zm-6.06-17.95c6.21,10.16,18.22,16.53,35.76,19a4.27,4.27,0,0,0,.6,0c2,0,4.64-1.2,7.26-3.29A33.15,33.15,0,0,0,258.74,309c-7,4.11-15.09,7.29-24.5,7.33H234C222.78,316.28,213.06,312.69,205.69,306.15ZM203.15,279a45.7,45.7,0,0,0,11,13.65,36.66,36.66,0,0,0,12.77,7c-1.42-.62-2.92-1.35-4.54-2.19C217.26,294.81,209,285.87,203.15,279Zm18.51,7.14a25.2,25.2,0,0,0,4.7,3.68c6.74,3.51,10.27,4.23,13.5,4.23a50.83,50.83,0,0,0,6.36-.57l.23,0c1.68-.22,4.72-1.84,8.27-4.17a61,61,0,0,1-12.14,1.14C238.4,290.44,228.14,290,221.65,286.17Zm-8.36-8.66c1.75,1.95,3.46,3.79,5.07,5.43a21.92,21.92,0,0,1-1.12-2.09,8.06,8.06,0,0,0-1-1.66A12.1,12.1,0,0,0,213.29,277.51Zm9.85-3.53a16.44,16.44,0,0,1,1.82,3.09,8.33,8.33,0,0,0,.9,1.59c3.06,1.94,9.64,3.21,16.73,3.21,7.35,0,14.15-1.35,17.07-3.38.05-.16.12-.42.18-.62a9.77,9.77,0,0,1,2.16-4.32c-5.76,2.27-13.23,2.75-18.49,2.75a86.07,86.07,0,0,1-19.85-2.2ZM209.78,164.57c-1.29,3.43-2.93,14.46-2,18,2.23,8.92-1,21.32-4.34,34.45s-7.18,27.89-3.54,34.94c.57,1.09,2.76,4.07,10.87,8.11a83.05,83.05,0,0,0,15.06,5.71,78.19,78.19,0,0,0,17.74,1.94c6.36,0,11.81-.77,15.33-2.16,6.36-2.52,17.94-14.3,20.16-18-.1-1.15-.25-2.36-.44-3.62-.38-2.5-.92-5.19-1.65-8.23l-.38-.94.07-.31c-1.31-5.23-2.94-10.57-4.51-15.75-2.4-7.87-4.66-15.29-5.36-21.08a12,12,0,0,1,.84-5.34,9.8,9.8,0,0,0,.46-1.66c-.7-6.42-10.47-20.3-16.09-22.79a66.57,66.57,0,0,0-26.7-5.82A46,46,0,0,0,209.78,164.57ZM197,263.8c1.69.53,3.54,1,5.38,1.51-4.47-2.68-8.33-5.86-10.16-9.4-5.16-10-1.09-25.76,2.85-41,2.5-9.7,4.88-19,4.83-25.75-4.34,16.85-7.78,30.46-9.53,42.18l.08.22-.27,1a108.07,108.07,0,0,0-1.1,13,4.28,4.28,0,0,1,.12,1.51,4.32,4.32,0,0,1-.14.73,73.53,73.53,0,0,0,.71,9.83,12,12,0,0,0,1.23,3.64,14.6,14.6,0,0,0,2.77,1.4h.32A4.27,4.27,0,0,1,197,263.8Zm-25.37-79.75c-2.37,1.28-4.64,2.41-6.78,3.49-11.46,5.73-17.2,8.61-18.49,21.33-1.84,18.2,9.68,29.25,34.26,32.91.13-2.25.33-4.57.61-7-6.6-2.27-19.1-8.18-21.09-20.71C158.59,204.37,163.58,194.15,171.62,184.05ZM286,237c8.51-4.29,15.3-9.09,16-11.49a4.55,4.55,0,0,0,.16-1.31c-5.3,5.79-10.71,10.06-16.16,12.73Zm-9.47-45.08a17.17,17.17,0,0,1-.81,3.14,9.49,9.49,0,0,0-.46,1.66c.61,5,2.76,12,5,19.52,1.21,4,2.44,8,3.56,12.08,4.72-2.67,9.51-6.91,14.31-12.65a121.23,121.23,0,0,0-11-12C283.09,199.54,279.18,195.62,276.55,191.92Zm-84.48-17.27c-12.5,11.9-25.26,26.67-23.45,38.06,1.15,7.26,8.85,11.4,13.87,13.36,2.06-11.94,5.58-25.54,9.88-42.25l.6-2.32a15.59,15.59,0,0,0-.36-2.89A37.92,37.92,0,0,1,192.07,174.65Zm33.21-21.15a74.57,74.57,0,0,1,26.84,5.17c-.25-.85-.49-1.7-.73-2.55-2.18-7.87-3.92-12.74-12-13.64a28.84,28.84,0,0,0-3.19-.18,32.85,32.85,0,0,0-8.33,1.12,108.58,108.58,0,0,0-13.57,11A59.35,59.35,0,0,1,225.28,153.5Z"/><path class="cls-1" d="M320.05,320.85a112.68,112.68,0,0,0-8.7-13.59v0l0,0A92.16,92.16,0,0,0,272.77,277c.73-3.62,1.16-6.48,1.2-6.77a.27.27,0,0,0-.18-.28c3.06-2.37,5.93-4.73,6.93-6.26,2.61-4,3.33-9.31,2.94-15.31,0-.05,0-.11,0-.16a.81.81,0,0,0-.09-.6c-.11-1.37-.28-2.78-.49-4.2,2.27-1,21.27-9.57,23.29-16.69,1-3.45-.25-7.21-2.66-11.06,0,0,0,0,0,0h0c-3.19-5.1-8.42-10.35-13.29-15.24-4.68-4.7-9.11-9.14-11.31-12.94-3.13-5.4-9.62-12.59-14.84-18.37-1.77-2-3.45-3.82-4.81-5.4-1.8-2.09-2.71-5.36-3.67-8.82-2-7.35-4.34-15.67-15.88-17-14.53-1.64-30.43,6.39-45.94,23.19-11.51,12.47-22.43,17.93-31.2,22.32-11.3,5.65-19.46,9.74-21,25-2.22,21.94,12.54,35.23,42.68,38.47a79.14,79.14,0,0,0,.75,11.38c.22,1.56,1.21,4.92,2.56,6.27-30.3,19.13-48,41.8-55.81,71.31-7.31,27.75-4.91,59.84-2.79,88.15a.28.28,0,0,0,.28.26h0l91.58-1h0l85.65-.94-.25.34a.28.28,0,0,0,.05.39.27.27,0,0,0,.17.06.28.28,0,0,0,.22-.11l.51-.69,35.44-.39a.28.28,0,0,0,.28-.29C341,378.3,333.42,345.34,320.05,320.85ZM271.1,281.91c-1.18,1-17.34,14.68-24.14,15.55l-.24,0c-7.45,1-11.55,1.48-22.23-4.08-6.33-3.3-20.21-20.09-23.08-23.63l1.68.44c6.23,1.61,12.68,3.28,15.79,5.89a8.77,8.77,0,0,1,2,3,7.77,7.77,0,0,0,2.53,3.42c4.13,2.62,11.66,3.91,19.19,3.91,8,0,16-1.46,20-4.34a4.84,4.84,0,0,0,1.73-3,5.18,5.18,0,0,1,1.3-2.61c1-1,3.16-2.62,5.44-4.36l2.4-1.83C273.28,271.07,272.43,276.53,271.1,281.91Zm-7.51,27.23C275.86,331.55,283,353.27,284.26,372c1,15.4-2,28.08-8.37,34.79-4.35,4.59-9.65,5.72-14.93,3.18-7.91-3.81-20.05-19.76-33.3-43.75-11-19.86-21-42.24-26.2-58.18,6.81,11.59,20.05,18.95,39.37,21.62a9,9,0,0,0,1.22.08c3.08,0,6.62-1.49,10.12-4.29A38.26,38.26,0,0,0,263.59,309.14ZM251.81,325c-3.85,3.08-7.73,4.53-10.92,4.09-20.59-2.85-34.2-11.06-40.39-24.1l0-.11s0,0,0,0c-2.81-6-4.06-13-3.69-21,5,17.85,18.45,28.44,37.25,28.44h.23c12.38-.06,22.24-6,31-12.51C264.27,309.37,259,319.23,251.81,325Zm13.63-26.08h0l0,0c-8.85,6.6-18.75,12.7-31.2,12.76H234c-19.09,0-32.59-11.11-37.14-29.71,0-.08,0-.16,0-.24a.26.26,0,0,0-.14-.24c-.4-1.72-.72-3.51-1-5.35l.56-.32a.28.28,0,0,0,.11-.38.28.28,0,0,0-.38-.11l-.37.21c-.13-1-.23-2-.31-3a52.39,52.39,0,0,0,15.87,23.69,40.17,40.17,0,0,0,26,9.54,43.48,43.48,0,0,0,6.33-.47c6.4-.94,18.69-7,23.52-12.15C266.7,295.45,266,298.49,265.45,298.93Zm1.84-6.85c-4.23,5.25-17.2,11.68-23.8,12.65a39.74,39.74,0,0,1-31.9-9c-8.19-6.78-14.2-16.68-17-27.94,1.83.6,3.83,1.16,5.92,1.71,1.16,1.45,16.71,20.7,23.74,24.36s11.36,4.75,15.58,4.75a55,55,0,0,0,7-.62l.24,0c6.46-.83,20.57-12.43,23.83-15.18C269.87,286.7,268.65,290.38,267.28,292.08ZM207,161.33a48.56,48.56,0,0,1,18.24-3.27,71,71,0,0,1,28.33,6.16c6.91,3.06,17.61,18.18,18.46,26.09a8.34,8.34,0,0,1-.64,3.3,8.59,8.59,0,0,0-.66,3.59c.66,5.44,2.87,12.7,5.22,20.39,1.68,5.52,3.44,11.28,4.8,16.88,0,0,0,0,0,0h0c.74,3,1.36,6,1.79,8.88h0c.22,1.47.39,2.92.51,4.32a.24.24,0,0,0,0,.08c0,.18,0,.37,0,.55-1,3.39-14.79,17.79-22.77,21-9.46,3.74-26.71,2.63-35.54.38a87.39,87.39,0,0,1-15.86-6c-4.64-2.31-10.6-5.89-12.65-9.86-4.35-8.41-.51-23.35,3.21-37.79,3.25-12.62,6.32-24.54,4.34-32.47-1.24-4.94,1-19.44,3-22A1.29,1.29,0,0,1,207,161.33Zm98.87,65.28c-1.89,6.66-20.14,15.06-22.84,16.27-.42-2.7-1-5.48-1.68-8.3,7.4-2.77,14.86-8.89,22.17-18.19C305.69,220,306.77,223.45,305.87,226.61Zm-66-88.12c11.16,1.25,13.42,9.38,15.41,16.56,1,3.52,1.9,6.85,3.78,9,1.37,1.59,3,3.45,4.82,5.41,5.2,5.76,11.67,12.93,14.77,18.28,2.24,3.86,6.69,8.32,11.4,13.05s10,10,13.17,15.06c-7.27,9.29-14.67,15.39-22,18.15-1.35-5.52-3.08-11.17-4.73-16.59-2.34-7.66-4.54-14.91-5.2-20.29a8.21,8.21,0,0,1,.64-3.34,8.74,8.74,0,0,0,.67-3.54C271.7,182,261,166.9,253.8,163.72c-16-7.08-33.82-8.1-46.6-3.05h0a.79.79,0,0,0-.44.17,33.46,33.46,0,0,0-5.12,2.61c-6.84,4.3-5.81,10.18-5.05,14.48a12.05,12.05,0,0,1,.29,4.59l-.6,2.32c-4.9,19-8.69,33.72-10.55,46.52-2.42-.61-19-5.28-21.07-18-2.65-16.72,18.54-36.73,38.62-54.16,2.28-2,4.38-4,6.41-5.86a120.53,120.53,0,0,1,16.49-13.59h0A35.67,35.67,0,0,1,239.86,138.48Zm-97.52,70c1.51-14.92,9.14-18.74,20.69-24.52,8.81-4.41,19.78-9.9,31.36-22.44,10-10.85,20.17-18,30-21.21a125.77,125.77,0,0,0-15.1,12.62c-2,1.91-4.13,3.88-6.4,5.85-20.19,17.53-41.51,37.66-38.81,54.67,2.09,13.15,19.23,17.9,21.54,18.48a111,111,0,0,0-1.16,14.41C154.73,243.11,140.16,230,142.34,208.47Zm43.43,49.72a78.53,78.53,0,0,1-.75-11.3.25.25,0,0,0,0-.46,110.78,110.78,0,0,1,1.19-14.66h0s0,0,0,0c1.83-12.85,5.64-27.63,10.58-46.78l.6-2.32a12.35,12.35,0,0,0-.28-4.82c-.77-4.37-1.72-9.82,4.8-13.91a32.5,32.5,0,0,1,4.11-2.15c-2,3.82-4,17-2.75,21.91,2,7.79-1.1,19.65-4.33,32.2-3.75,14.55-7.62,29.59-3.17,38.19,3.93,7.59,21.47,14.28,28.87,16.16a82.51,82.51,0,0,0,18.86,2.08c6.28,0,12.52-.7,17-2.48,7.44-2.94,19.88-15.6,22.63-20.33.24,5.45-.52,10.27-2.91,13.92-1.25,1.9-5.87,5.42-9.59,8.25-2.4,1.83-4.48,3.41-5.5,4.4a5.71,5.71,0,0,0-1.45,2.87,4.34,4.34,0,0,1-1.52,2.69c-7.45,5.49-30.12,5.74-38.51.41a7.25,7.25,0,0,1-2.33-3.2,9.18,9.18,0,0,0-2.12-3.15c-3.21-2.7-9.71-4.38-16-6-3-.78-6.13-1.58-8.82-2.5l-.07-.29a.27.27,0,0,0-.54.08,20.88,20.88,0,0,1-5.41-2.63C187.09,263.38,186,259.87,185.78,258.18ZM132.51,336c7.75-29.41,25.45-52,55.72-71.07a22.56,22.56,0,0,0,5.72,2.71q.33,1.37.73,2.7c.08,1.9.25,3.75.48,5.55-5.62,3.23-35,20.75-36.89,34.56-3.62,26.22,21.12,66.49,36.31,86.16a145,145,0,0,0,25.68,26.1l-90.54,1C127.17,389.63,125.78,361.54,132.51,336Zm88.63,86.7A144.07,144.07,0,0,1,195,396.24a237.43,237.43,0,0,1-25.74-41.8c-8.36-17.72-12-32.92-10.46-43.95.83-6,7.57-14,19.48-22.86a186.9,186.9,0,0,1,16.93-11.17q.4,2.89,1.05,5.59c-.66,8.93.61,16.72,3.74,23.28,4.85,16.08,15.48,40,27.13,61.13,18.22,33,28.84,41.71,33.55,44a13.08,13.08,0,0,0,5.7,1.36,13.58,13.58,0,0,0,9.89-4.66c6.46-6.82,9.57-19.66,8.53-35.22-1.27-18.91-8.52-40.86-21-63.49a37.42,37.42,0,0,0,2-9.17c1-1,1.72-5.78,1.88-6.91,2.07-2.64,3.79-9.41,4.89-14.78a91.61,91.61,0,0,1,38.21,30c10.62,23.46,15,46.26,13.15,67.79-2,22.14-10.11,37.33-16.89,46.4Zm86.68-.95c6.77-9.17,14.8-24.35,16.74-46.35,1.85-20.92-2.27-43-12.19-65.78a113.84,113.84,0,0,1,7.19,11.51c13.3,24.36,20.82,57.15,23,100.23Z"/><path class="cls-1" d="M239.37,251.19a6.57,6.57,0,0,1-1-.07c-6-.85-14.91-7.27-17.7-14.58-1.84-4.83.88-12,1.94-14.5.12-9.77,2-18.68,6.29-30.49a10,10,0,0,1,5.68-5.64,10.25,10.25,0,0,1,1.8-.55l.27-.13.7,0a9.32,9.32,0,0,1,1.13-.07,6.82,6.82,0,0,1,2.9.6c9.07,4.21,16.16,15.85,18.07,29.66,1.09,7.93.35,15.31-2.15,21.37a7.17,7.17,0,0,1-.54,1.2,24.39,24.39,0,0,1-5.29,7.5l-.22.56-1.12.55C248,248.1,243,251.19,239.37,251.19Zm1.15-56c-4,13.33-5.07,23-3.05,28.73s6.31,10.2,9.06,10.82h.12a4.81,4.81,0,0,0,2.62-1c2-4.63,2.59-10.71,1.69-17.18C249.69,207.34,245.64,199.25,240.51,195.23Z"/><path class="cls-1" d="M224.47,235.12c2.23,5.85,9.77,11.36,14.52,12l.38,0c2.89,0,8.5-3.9,8.75-4.07h0a20.08,20.08,0,0,0,5.09-7,3.1,3.1,0,0,0,.33-.74c2.23-5.32,3-12.07,1.94-19.43-1.72-12.49-7.92-22.92-15.78-26.56a3.61,3.61,0,0,0-2-.17h0a6.58,6.58,0,0,0-1.55.42,6,6,0,0,0-3.44,3.31c-4.73,12.91-6,21.35-6,30C225.08,226.23,223.35,232.18,224.47,235.12Zm14.6,11.48c-4.58-.64-12-6.16-14.08-11.68-.94-2.45.33-7.38,1.69-10.64,0,1.09,0,2.18.09,3.28.22,5.05,8.45,13.45,13.29,15.65a12.3,12.3,0,0,0,4.46.77,10.71,10.71,0,0,0,1.35-.09C243.84,245.13,240.72,246.82,239.07,246.6Zm-.61-56.9a2.45,2.45,0,0,1,1,.19c7.7,3.57,13.77,13.83,15.46,26.13,1,7.56.23,14.44-2.18,19.76-1.12,1.86-4.77,3.45-7.12,2.92-4.49-1-9.64-6.78-12-13.41-3.77-10.73,2.27-29.2,4.37-35.54C238.18,189.73,238.33,189.7,238.46,189.7Zm-5.22,3.44a5.45,5.45,0,0,1,3.13-3,6.35,6.35,0,0,1,1-.33c-3.53,10.75-7.71,25.91-4.28,35.65,2.39,6.8,7.71,12.72,12.37,13.77a5.35,5.35,0,0,0,1.17.12,9.09,9.09,0,0,0,5.2-1.83,18.75,18.75,0,0,1-4.1,5.11l-.33.22c-1.6.88-5.5.58-7.16-.17a29.1,29.1,0,0,1-8.12-6.53c-3-3.3-4.75-6.45-4.85-8.64C226.88,217.19,227.71,208.25,233.24,193.14Z"/><g id="_Group_" data-name="&lt;Group&gt;"><path class="cls-2" d="M343.26,421.6l-35.58.39c17.66-23.55,26.61-64.39,3.84-114.63C328.69,330.24,340.49,365.9,343.26,421.6Z"/><path class="cls-3" d="M311.52,307.36c22.77,50.24,13.82,91.08-3.84,114.63l-86.21.94a143.79,143.79,0,0,1-26.26-26.55c-16.95-21.93-39.7-61-36.25-85.95,1.89-13.69,31.8-31.49,36.9-34.43a55,55,0,0,0,1.12,6.06c-.64,8.65.57,16.32,3.65,22.87,9.55,31.95,42.77,96.65,60.62,105.25C281.08,419.72,302,377.5,264,308.46a36.87,36.87,0,0,0,2.05-9.34c1-.76,1.89-6.9,1.89-6.9,1.5-1.85,2.83-6,3.85-10.19.42-1.66.78-3.33,1.1-4.87a91.87,91.87,0,0,1,38.64,30.18S311.52,307.34,311.52,307.36Z"/><path class="cls-4" d="M304,215.85c2.35,3.77,3.54,7.44,2.59,10.81-2.1,7.37-23.34,16.59-23.34,16.59-.43-2.88-1-5.86-1.78-8.88Q292.76,230.24,304,215.85Z"/><path class="cls-5" d="M304,215.85q-11.2,14.4-22.54,18.52c-3.3-13.6-8.88-28-10-37.23-.26-2.19,1.55-4.7,1.31-6.88-.66-6.14-7.25-16.8-13.55-22.69l2.72-1.17c5.61,6.28,13.76,14.92,17.4,21.2C283.87,195.47,297.85,206,304,215.85Z"/><path class="cls-6" d="M194.59,267.38a22.3,22.3,0,0,1-6-2.84c-1.39-1-2.49-4.64-2.73-6.35a79.88,79.88,0,0,1-.75-11.6,109.8,109.8,0,0,1,1.21-14.92c1.91-13.43,6-28.95,11.18-49.12,1-3.84-3.83-11.44,2.47-17.26a14.85,14.85,0,0,1,2.17-1.64,32.59,32.59,0,0,1,5.09-2.6c-2,1.68-4.64,17.17-3.31,22.53,4.3,17.15-15.65,54.62-7.53,70.33,3.78,7.29,20.74,14,28.7,16,8.65,2.19,26,3.46,35.7-.39,7.9-3.12,21.85-17.57,22.94-21.12.39,5.94-.31,11.21-2.88,15.12-1,1.52-3.94,3.94-7,6.33-3.28,2.53-6.7,5-8.08,6.38-1.8,1.76-1,4.09-3,5.58-7.81,5.76-30.63,5.63-38.83.42-2.22-1.41-2.47-4.69-4.47-6.37-3.57-3-11.32-4.73-18.41-6.6C198.78,268.67,196.58,268.06,194.59,267.38Z"/><path class="cls-7" d="M283.74,247.71c0,.23,0,.47.05.7-1.09,3.55-15,18-22.94,21.12-9.72,3.85-27.05,2.59-35.7.39-8-2-24.92-8.73-28.7-16-8.12-15.71,11.83-53.18,7.53-70.33-1.33-5.36,1.28-20.85,3.31-22.53a0,0,0,0,1,0,0c13-5.33,30.89-4.15,46.82,2.89a19.38,19.38,0,0,1,5.08,3.63c6.3,5.9,12.89,16.56,13.55,22.69.24,2.19-1.57,4.7-1.31,6.88,1.13,9.24,6.71,23.63,10,37.23.74,3,1.35,6,1.78,8.88C283.46,244.77,283.63,246.26,283.74,247.71Zm-24.12-66.47c.34.06.31-.24.2-.55-1.82-5-7.23-14.94-15.8-4.12-.75.95,1.89,4.63,2.36,3.5C250.63,169.78,256.68,180.76,259.61,181.24ZM259.56,252l-.72-2.11c-1.06.36-25.62,8.37-43.38-14.64a6,6,0,0,1,2.79-.79v-2.23c-3,0-6.1,2-9.53,6.14l1.72,1.42a24.23,24.23,0,0,1,3.16-3.26c11.06,14.36,24.9,17.23,34.5,17.12A40.47,40.47,0,0,0,259.56,252Zm-3.73-54.35c5.18-2,2.25-10.58-2.24-10.53C246.07,187.22,251.31,199.45,255.83,197.67Zm-2.09,37.53c6.2-15-.44-39.43-13.72-45.6a3.34,3.34,0,0,0-1.76-.17,6.26,6.26,0,0,0-4.86,3.58c-4.86,13.3-6,21.83-6,30h0c-1.64,3.39-3.26,9.26-2.21,12,2.17,5.68,9.6,11.2,14.3,11.86,2.32.32,7.29-2.89,8.6-3.78l.32-.22a19.47,19.47,0,0,0,5-6.9h0A2.7,2.7,0,0,0,253.73,235.19Zm-24.88-53.64c.92.47,2.77-3.76,1.81-4.15-18.49-7.41-20.86.26-22.49,3.76a.45.45,0,0,0,.71.53C211.63,179.36,215.94,174.93,228.86,181.56ZM222,198c6.38-.07,5.77-10.62.49-10.56C215.46,187.55,215.58,198.11,222,198Z"/><path class="cls-8" d="M273.86,269.86l.25.32s-.45,3.07-1.24,7c-.32,1.54-.68,3.21-1.1,4.87,0,0-17.17,14.76-24.35,15.68-7.67,1-11.77,1.59-22.64-4.07-7.18-3.74-23.71-24.36-23.71-24.36,7.09,1.87,14.84,3.59,18.41,6.6,2,1.69,2.25,5,4.47,6.37,8.2,5.2,31,5.33,38.83-.42,2-1.5,1.2-3.82,3-5.58C267.16,274.89,270.58,272.39,273.86,269.86Z"/><path class="cls-9" d="M271.77,282c-1,4.2-2.35,8.35-3.85,10.19-4.26,5.28-17.26,11.77-24,12.76-23.83,3.49-42.26-13.27-48.58-34.73q-.42-1.42-.77-2.87c2,.68,4.19,1.29,6.48,1.89,0,0,16.53,20.61,23.71,24.36,10.87,5.67,15,5.06,22.64,4.07C254.6,296.79,271.77,282,271.77,282Z"/><path class="cls-9" d="M195.86,276c-.24-1.84-.41-3.76-.5-5.75,6.32,21.45,24.75,38.22,48.58,34.73,6.71-1,19.71-7.48,24-12.76,0,0-.87,6.14-1.89,6.9-8.77,6.54-18.75,12.78-31.39,12.83-18.16.09-32.84-10.08-37.66-29.89A55,55,0,0,1,195.86,276Z"/><path class="cls-9" d="M264,308.46c38,69,17.11,111.26-2.73,101.72-17.85-8.59-51.07-73.3-60.62-105.25,6.09,13,19.57,21.49,40.65,24.4C248.79,330.38,259.44,321.16,264,308.46Z"/><path class="cls-8" d="M266,299.12a36.87,36.87,0,0,1-2.05,9.34c-4.53,12.7-15.18,21.92-22.7,20.88-21.08-2.92-34.56-11.44-40.65-24.4-3.08-6.54-4.29-14.22-3.65-22.87,4.82,19.8,19.5,30,37.66,29.89C247.28,311.9,257.25,305.66,266,299.12Z"/><path class="cls-5" d="M207.29,161a0,0,0,0,0,0,0,32.59,32.59,0,0,0-5.09,2.6A14.85,14.85,0,0,0,200,165.3l-2.6-1c2-1.82,4.07-3.61,6.08-5.35,7.46-6.46,12.68-12.59,22.93-19.46a0,0,0,0,1,0,0,35.76,35.76,0,0,1,13.87-1.29c16.85,1.88,13.72,19.13,19.37,25.69.68.79,1.43,1.64,2.23,2.53l-2.72,1.17a19.38,19.38,0,0,0-5.08-3.63C238.18,156.89,220.24,155.71,207.29,161Z"/><path class="cls-5" d="M259.81,180.69c.12.31.14.61-.2.55-2.93-.48-9-11.46-13.25-1.16-.47,1.12-3.11-2.56-2.36-3.5C252.57,165.75,258,175.67,259.81,180.69Z"/><path class="cls-10" d="M258.84,249.9l.72,2.11a40.47,40.47,0,0,1-11.46,1.64c-9.59.1-23.44-2.76-34.5-17.12a24.23,24.23,0,0,0-3.16,3.26l-1.72-1.42c3.43-4.17,6.48-6.15,9.53-6.14v2.23a6,6,0,0,0-2.79.79C233.23,258.27,257.79,250.26,258.84,249.9Z"/><path d="M253.59,187.14c4.49,0,7.42,8.5,2.24,10.53C251.31,199.45,246.07,187.22,253.59,187.14Z"/><path class="cls-11" d="M240,189.6c13.28,6.16,19.92,30.64,13.72,45.6-.11.25-.21.49-.33.74h0c-1.22,2-4.93,3.55-7.41,3-4.44-1-9.72-6.64-12.17-13.59-3.55-10.08,1.3-26.46,4.43-35.91h0A3.34,3.34,0,0,1,240,189.6Z"/><path class="cls-7" d="M253.41,235.93c.12-.25.22-.49.33-.74A2.7,2.7,0,0,1,253.41,235.93Z"/><path class="cls-10" d="M253.4,235.94a19.47,19.47,0,0,1-5,6.9l-.32.22c-1.72,1-5.79.62-7.45-.13-4.6-2.09-12.91-10.36-13.14-15.41-.06-1.52-.1-3-.09-4.56,0-8.12,1.17-16.65,6-30a6.26,6.26,0,0,1,4.86-3.58h0c-3.14,9.45-8,25.83-4.43,35.91,2.44,7,7.72,12.59,12.17,13.59C248.47,239.49,252.18,237.91,253.4,235.94Z"/><path class="cls-6" d="M240.6,242.93c1.66.75,5.73,1.13,7.45.13-1.31.89-6.29,4.1-8.6,3.78-4.7-.66-12.13-6.18-14.3-11.86-1-2.76.58-8.63,2.21-12h0c0,1.53,0,3,.09,4.56C227.68,232.57,236,240.84,240.6,242.93Z"/><path class="cls-5" d="M230.67,177.4c1,.39-.89,4.62-1.81,4.15-12.92-6.63-17.22-2.19-20,.14a.45.45,0,0,1-.71-.53C209.81,177.66,212.18,170,230.67,177.4Z"/><path d="M222.53,187.48c5.28-.06,5.89,10.49-.49,10.56S215.46,187.55,222.53,187.48Z"/><path class="cls-2" d="M221.47,422.93l-91.59,1c-4.78-63.91-7.39-117.78,58.77-159.39a22.3,22.3,0,0,0,6,2.84q.35,1.45.77,2.87c.09,2,.25,3.91.5,5.75-5.11,2.95-35,20.74-36.9,34.43-3.45,24.94,19.31,64,36.25,85.95A143.79,143.79,0,0,0,221.47,422.93Z"/><path class="cls-4" d="M226.43,139.48c-10.24,6.87-15.47,13-22.93,19.46-2,1.74-4,3.53-6.08,5.35-17.59,15.72-35,33.84-32.62,49.07,2.22,14,21.58,18.31,21.58,18.31a109.8,109.8,0,0,0-1.21,14.92c-27.8-2.92-45.08-14.58-42.68-38.19,2.71-26.8,25.74-18.54,52.12-47.13C204.81,150.22,215.7,142.54,226.43,139.48Z"/><path class="cls-5" d="M197.42,164.29l2.6,1c-6.3,5.82-1.48,13.42-2.47,17.26-5.21,20.17-9.27,35.68-11.18,49.12,0,0-19.36-4.3-21.58-18.31C162.37,198.13,179.83,180,197.42,164.29Z"/></g></svg>