<svg id="Layer_1" data-name="Layer 1" xmlns="http://www.w3.org/2000/svg" viewBox="0 0 470.16 440"><defs><style>.cls-1{fill:#172d44;}.cls-2{fill:#466084;}.cls-3{fill:#b7a67d;}.cls-4{fill:#f4e8c3;}.cls-5{fill:#cc8f7a;}.cls-6{fill:#f2b78b;}.cls-7{fill:#b2a893;}.cls-8{fill:#efe7d0;}.cls-9{fill:#aa593d;}.cls-10{fill:#d88361;}</style></defs><title>george_back_final</title><g id="_Group_" data-name="&lt;Group&gt;"><path class="cls-1" d="M363.28,425.78l-35.65.39c17.69-23.6,26.67-64.52,3.85-114.87C348.68,334.23,360.5,370,363.28,425.78Z"/><path class="cls-2" d="M331.47,311.3c22.82,50.35,13.85,91.28-3.85,114.87l-86.39.95a144.09,144.09,0,0,1-26.31-26.61c-17-22-39.79-61.13-36.33-86.13,1.9-13.72,31.87-31.55,37-34.51a55.13,55.13,0,0,0,1.12,6.08c-.64,8.67.57,16.36,3.65,22.92,9.57,32,42.86,96.86,60.75,105.47,19.88,9.56,40.82-32.75,2.74-101.94a37,37,0,0,0,2.06-9.36c1-.76,1.89-6.92,1.89-6.92,1.5-1.85,2.83-6,3.86-10.22.42-1.66.78-3.33,1.1-4.88a92.06,92.06,0,0,1,38.72,30.24S331.47,311.28,331.47,311.3Z"/><path class="cls-3" d="M323.91,219.59c2.36,3.78,3.55,7.46,2.59,10.83-2.1,7.39-23.39,16.63-23.39,16.63-.43-2.88-1-5.88-1.79-8.9Q312.68,234,323.91,219.59Z"/><path class="cls-4" d="M323.91,219.59Q312.68,234,301.32,238.15c-3.31-13.63-8.9-28.05-10-37.31-.26-2.19,1.55-4.71,1.31-6.9-.66-6.15-7.27-16.83-13.58-22.74l2.73-1.17c5.62,6.3,13.78,14.95,17.43,21.24C303.76,199.17,317.78,209.75,323.91,219.59Z"/><path class="cls-5" d="M204.84,250.41a110,110,0,0,1,1.21-15c1.91-13.46,6-29,11.2-49.22,1-3.85-3.84-11.46,2.47-17.3a14.88,14.88,0,0,1,2.18-1.65,32.66,32.66,0,0,1,5.1-2.61c-2,1.68-4.65,17.21-3.31,22.58C228,204.44,208,242,216.15,257.74c3.78,7.3,20.78,14,28.76,16,8.66,2.2,26,3.46,35.78-.39,7.91-3.13,21.9-17.61,23-21.17.39,6-.31,11.23-2.89,15.15-1,1.52-4,3.95-7.06,6.34-3.29,2.53-6.72,5-8.1,6.39-1.81,1.77-1,4.1-3,5.6-7.83,5.77-30.69,5.64-38.91.43-2.22-1.41-2.48-4.7-4.48-6.39-3.58-3-11.34-4.74-18.45-6.61-2.29-.6-4.5-1.22-6.49-1.9a22.35,22.35,0,0,1-6-2.84c-1.39-1-2.49-4.65-2.73-6.36A80.05,80.05,0,0,1,204.84,250.41Z"/><path class="cls-6" d="M303.63,251.52c0,.23,0,.47.05.7-1.09,3.56-15.08,18-23,21.17-9.74,3.86-27.11,2.59-35.78.39-8-2-25-8.75-28.76-16C208,242,228,204.44,223.69,187.25c-1.33-5.37,1.28-20.9,3.31-22.58a0,0,0,0,1,0,0c13-5.35,31-4.16,46.92,2.9A19.42,19.42,0,0,1,279,171.2c6.31,5.91,12.92,16.59,13.58,22.74.24,2.19-1.57,4.71-1.31,6.9,1.13,9.25,6.73,23.68,10,37.31.74,3,1.35,6,1.79,8.9C303.35,248.58,303.52,250.07,303.63,251.52Zm-24.18-66.61c.34.06.31-.24.2-.55-1.82-5-7.25-15-15.84-4.12-.75.95,1.9,4.64,2.37,3.51C270.45,173.42,276.51,184.43,279.45,184.91Zm-.05,70.93-.72-2.12c-1.06.36-25.67,8.38-43.47-14.67a6,6,0,0,1,2.8-.79V236c-3.06,0-6.11,2-9.55,6.15l1.73,1.42a24.28,24.28,0,0,1,3.17-3.27c11.08,14.4,25,17.27,34.57,17.16A40.56,40.56,0,0,0,279.4,255.84Zm-3.74-54.47c5.19-2,2.26-10.6-2.24-10.55C265.89,190.9,271.13,203.15,275.66,201.37ZM273.56,239c6.22-15-.44-39.52-13.75-45.69a3.35,3.35,0,0,0-1.76-.17,6.27,6.27,0,0,0-4.87,3.59c-4.87,13.33-6,21.88-6,30h0c-1.64,3.4-3.27,9.28-2.22,12,2.18,5.7,9.63,11.22,14.33,11.89,2.32.32,7.31-2.9,8.62-3.79l.32-.22a19.51,19.51,0,0,0,5-6.92h0A2.7,2.7,0,0,0,273.56,239Zm-24.93-53.75c.92.47,2.78-3.77,1.81-4.16-18.53-7.43-20.9.26-22.53,3.77a.46.46,0,0,0,.71.53C231.37,183,235.69,178.58,248.63,185.22Zm-6.83,16.52c6.39-.07,5.78-10.64.49-10.58C235.21,191.24,235.33,201.81,241.81,201.74Z"/><path class="cls-7" d="M293.73,273.72l.25.32s-.45,3.07-1.24,7c-.32,1.55-.68,3.22-1.1,4.88,0,0-17.21,14.79-24.41,15.71-7.69,1-11.79,1.6-22.69-4.08-7.19-3.75-23.76-24.41-23.76-24.41,7.11,1.87,14.87,3.6,18.45,6.61,2,1.69,2.26,5,4.48,6.39,8.22,5.22,31.08,5.35,38.91-.43,2-1.5,1.2-3.83,3-5.6C287,278.76,290.45,276.25,293.73,273.72Z"/><path class="cls-8" d="M291.64,285.91c-1,4.21-2.36,8.36-3.86,10.22-4.27,5.3-17.3,11.8-24,12.79-23.88,3.5-42.35-13.3-48.69-34.8q-.42-1.42-.77-2.88c2,.68,4.2,1.3,6.49,1.9,0,0,16.57,20.66,23.76,24.41,10.9,5.68,15,5.07,22.69,4.08C274.43,300.7,291.64,285.91,291.64,285.91Z"/><path class="cls-8" d="M216.68,285.95a55.13,55.13,0,0,1-1.12-6.08c-.24-1.84-.41-3.77-.5-5.76,6.33,21.5,24.81,38.3,48.69,34.8,6.73-1,19.75-7.49,24-12.79,0,0-.87,6.15-1.89,6.92-8.79,6.55-18.79,12.81-31.46,12.86C236.23,316,221.51,305.79,216.68,285.95Z"/><path class="cls-8" d="M283.82,312.4c38.08,69.19,17.15,111.5-2.74,101.94-17.89-8.61-51.18-73.45-60.75-105.47,6.11,13,19.61,21.53,40.74,24.46C268.61,334.37,279.28,325.13,283.82,312.4Z"/><path class="cls-7" d="M285.88,303a37,37,0,0,1-2.06,9.36c-4.54,12.73-15.22,22-22.75,20.92-21.13-2.93-34.63-11.46-40.74-24.46-3.08-6.56-4.3-14.25-3.65-22.92,4.83,19.85,19.55,30,37.74,30C267.1,315.85,277.09,309.6,285.88,303Z"/><path class="cls-4" d="M227,164.67a0,0,0,0,0,0,0,32.66,32.66,0,0,0-5.1,2.61,14.88,14.88,0,0,0-2.18,1.65l-2.61-1c2-1.82,4.08-3.61,6.1-5.36,7.47-6.47,12.71-12.62,23-19.5a0,0,0,0,1,0,0,35.83,35.83,0,0,1,13.9-1.29c16.89,1.89,13.75,19.17,19.41,25.74.68.79,1.43,1.64,2.23,2.54L279,171.2a19.42,19.42,0,0,0-5.09-3.64C258,160.51,240,159.32,227,164.67Z"/><path class="cls-4" d="M279.65,184.36c.12.31.14.61-.2.55-2.94-.48-9-11.49-13.28-1.16-.47,1.12-3.12-2.56-2.37-3.51C272.4,169.39,277.82,179.33,279.65,184.36Z"/><path class="cls-9" d="M278.68,253.72l.72,2.12a40.56,40.56,0,0,1-11.49,1.65c-9.61.11-23.49-2.76-34.57-17.16a24.28,24.28,0,0,0-3.17,3.27l-1.73-1.42C231.88,238,234.94,236,238,236v2.24a6,6,0,0,0-2.8.79C253,262.1,277.62,254.08,278.68,253.72Z"/><path d="M273.42,190.82c4.5,0,7.44,8.51,2.24,10.55C271.13,203.15,265.89,190.9,273.42,190.82Z"/><path class="cls-10" d="M259.81,193.28c13.31,6.18,20,30.71,13.75,45.69-.11.25-.21.49-.33.74h0c-1.22,2-4.94,3.56-7.42,3-4.45-1-9.74-6.65-12.19-13.62-3.56-10.1,1.3-26.52,4.44-36h0A3.35,3.35,0,0,1,259.81,193.28Z"/><path class="cls-6" d="M273.24,239.72c.12-.25.22-.49.33-.74A2.7,2.7,0,0,1,273.24,239.72Z"/><path class="cls-9" d="M273.22,239.73a19.51,19.51,0,0,1-5,6.92l-.32.22c-1.72,1-5.8.62-7.47-.13-4.61-2.1-12.94-10.38-13.16-15.45-.06-1.52-.1-3-.09-4.57,0-8.14,1.17-16.69,6-30a6.27,6.27,0,0,1,4.87-3.59h0c-3.14,9.47-8,25.89-4.44,36,2.45,7,7.74,12.62,12.19,13.62C268.28,243.29,272,241.7,273.22,239.73Z"/><path class="cls-5" d="M260.4,246.73c1.66.75,5.74,1.13,7.47.13-1.31.89-6.3,4.11-8.62,3.79-4.71-.66-12.16-6.19-14.33-11.89-1-2.76.58-8.65,2.22-12h0c0,1.53,0,3,.09,4.57C247.46,236.35,255.78,244.63,260.4,246.73Z"/><path class="cls-4" d="M250.44,181.06c1,.39-.89,4.63-1.81,4.16-12.94-6.64-17.26-2.2-20,.14a.46.46,0,0,1-.71-.53C229.54,181.33,231.92,173.63,250.44,181.06Z"/><path d="M242.29,191.16c5.29-.06,5.9,10.51-.49,10.58S235.21,191.24,242.29,191.16Z"/><path class="cls-1" d="M241.23,427.12l-91.79,1c-4.79-64-7.4-118,58.89-159.73a22.35,22.35,0,0,0,6,2.84q.35,1.46.77,2.88c.09,2,.26,3.91.5,5.76-5.12,3-35.08,20.79-37,34.51-3.45,25,19.35,64.16,36.33,86.13A144.09,144.09,0,0,0,241.23,427.12Z"/><path class="cls-3" d="M246.2,143.06c-10.27,6.88-15.5,13-23,19.5-2,1.75-4.06,3.54-6.1,5.36C199.5,183.67,182,201.84,184.43,217.1c2.22,14,21.62,18.35,21.62,18.35a110,110,0,0,0-1.21,15c-27.86-2.93-45.18-14.62-42.77-38.27,2.72-26.86,25.8-18.58,52.23-47.23C224.54,153.83,235.44,146.13,246.2,143.06Z"/><path class="cls-4" d="M217.13,167.92l2.61,1c-6.32,5.83-1.49,13.45-2.47,17.3C212,206.44,208,222,206.06,235.45c0,0-19.4-4.31-21.62-18.35C182,201.84,199.5,183.67,217.13,167.92Z"/></g></svg>