<svg xmlns="http://www.w3.org/2000/svg" viewBox="0 0 208.55 409.5"><defs><style>.cls-1{fill:#fff;}.cls-2{fill:#e29074;}.cls-3{fill:#442318;}.cls-4{fill:#2a4277;}.cls-5{fill:#cc8f7a;}.cls-6{fill:#aa593d;}.cls-7{fill:#10213a;}.cls-8{fill:#301710;}.cls-9{fill:#aa6d5c;}.cls-10{fill:#f2b78b;}.cls-11{fill:#cebf97;}.cls-12{fill:#663a28;}.cls-13{fill:#f4e8c3;}.cls-14{fill:#d88361;}</style></defs><title>george</title><g id="Layer_4" data-name="Layer 4"><path class="cls-1" d="M109.53,204.9a8.41,8.41,0,0,1-6.74-3.17,9.92,9.92,0,0,1-2.05-6.16c0-5.21,3.57-9.15,8.31-9.15s8.26,3.66,8.26,8.9C117.3,200,114.39,204.9,109.53,204.9ZM109,194.12c-.37,0-.61.86-.61,1.45a2.29,2.29,0,0,0,.38,1.37.56.56,0,0,0,.32.22,3.71,3.71,0,0,0,.46-1.84,2.08,2.08,0,0,0-.26-1.18h0A2.29,2.29,0,0,0,109,194.12Z"/><path class="cls-1" d="M109,190c-3.09,0-4.71,2.79-4.71,5.55a6.3,6.3,0,0,0,1.27,3.92,4.82,4.82,0,0,0,3.92,1.81c2.58,0,4.17-3.11,4.17-6C113.7,192.87,112.48,190,109,190Zm3.13,9.08a3.19,3.19,0,0,1-2.65,1.7,4.33,4.33,0,0,1-3.53-1.62,5.8,5.8,0,0,1-1.16-3.61c0-2.51,1.44-5,4.21-5,3.07,0,4.16,2.48,4.16,4.8A7.28,7.28,0,0,1,112.17,199.1Z"/><path class="cls-1" d="M13.21,397a3.84,3.84,0,0,1-3.85-3.68c-.22-5.12-2.13-50.28,0-66.05,4.27-31.21,25.56-58.37,65-83l-.08-.54a33.36,33.36,0,0,1-.11-4.69c-3.74-3-12.67-10.83-16.37-20.83-4.57-12.36-4.41-24.51.41-31.7a11,11,0,0,1,7.18-4.77,13.77,13.77,0,0,1,2.64-.25,17.6,17.6,0,0,1,3.13.29,5.23,5.23,0,0,1-.29-.48c-1.3-2.37-1.35-6.74-1-11-7,.44-19.57,1.18-25,1.18-4.95,0-7.94-5.21-8.26-10.1-.31-4.71,2.22-6.72,4.49-7,6.4-.84,25.63-2.2,33.54-2.73l-2.24-128c-.06-3.74,2.63-5.79,4.24-7l.49-.38c5.41-4.24,18.54-5.77,29-6.29a3.78,3.78,0,0,1,2.33-.1c2-.07,4-.12,5.92-.13h1.37c6.47,0,28.06.38,34.42,5.26l.1.08c.95.72,3.45,2.64,2.92,5.89l-8.46,131.4,39.7,4.71a6.68,6.68,0,0,1,5.89,6.63v1.84a6.68,6.68,0,0,1-6.65,6.68l-.54,0-37.95-2.69c0,1.29,0,2.58-.08,3.74a10.49,10.49,0,0,1,1,.44,11.59,11.59,0,0,1,6.38,9.8,7.81,7.81,0,0,1-3.65,7.2,7,7,0,0,1-3.58.94h-.35A43.59,43.59,0,0,1,141,205.74c5.36,9,7.25,20.48,5.61,34.28a8.41,8.41,0,0,1-5.82,7,12.41,12.41,0,0,0,1,2c.33.53,1.69,2.14,2.9,3.52,9.66,5.25,15.27,9,16.67,11.3,2.48,4,.37,11.48-2.55,17.54,19.28,21.86,29.31,42.64,31.51,65.22,1.09,11.18.13,43.07,0,46.67a3.85,3.85,0,0,1-3.85,3.75Zm169.58-7.7c.11-4.17.28-11.37.35-18.86-.73.93-1.5,1.9-2.33,2.87-4.61,5.45-11.64,12.28-20.21,16Zm-74.91,0c-12.69-3.71-23.81-9.76-31.9-17.43-14.75-14-18.24-25.31-23.53-42.42-2.39-7.73-5.09-16.49-9.38-27.64-1.85-4.81-.93-10.86,2.57-17,4.36-7.67,14.26-17.41,28.42-21.16q-1-4.21-2-8.6c-33.29,22.17-51.29,46.18-55,73.3-1.56,11.41-.87,42.2-.12,61ZM75.94,271.13c-11.8,3.15-20,11.17-23.59,17.49-2.31,4.07-3.07,7.89-2.08,10.47,4.37,11.37,7.11,20.26,9.54,28.1,5.29,17.11,8.2,26.52,21.48,39.14,8.76,8.32,21.68,14.53,36.38,17.51a94.32,94.32,0,0,0,18.63,1.91,65.79,65.79,0,0,0,18.08-2.31c8.59-2.51,15.93-9.57,20.57-15.05a80.42,80.42,0,0,0,8.18-11.57c-.07-4.15-.21-7.32-.42-9.43-2-20.25-10.89-39.09-28-59a32.76,32.76,0,0,1-6.19,6.62,26.31,26.31,0,0,1-3.06,2.06c13.64,32.68,17,55.6,10.06,68.17a19.19,19.19,0,0,1-14.42,9.85,24.4,24.4,0,0,1-3.69.28c-14.19,0-27.36-12.66-39.15-37.63C90.39,321,83.07,299.22,75.94,271.13Zm30.22,65.23c10.13,20.78,20.65,31.31,31.28,31.31a16.65,16.65,0,0,0,2.51-.19,11.45,11.45,0,0,0,8.85-6,16.62,16.62,0,0,0,1.22-2.85,239.08,239.08,0,0,0-6.4-32c-1.86,2.91-3.67,4.67-5.38,5.24a6.37,6.37,0,0,1-2,.31c-2.55,0-5.15-1.36-7.91-2.81a24.45,24.45,0,0,0-4.08-1.87c-.91.4-2.61,2.63-3.54,3.85-2.25,3-5.05,6.62-9.28,6.62a7.12,7.12,0,0,1-1.57-.18A13.56,13.56,0,0,1,106.16,336.36Zm22.15-19c3.6,2.25,7.52,4.19,9.24,4.22a2.26,2.26,0,0,0,.44-.43,5.3,5.3,0,0,0,.64-1c-3-2-4.71-3.62-4.9-5.58a5,5,0,0,1-1.54-.92,7.68,7.68,0,0,1-3.25,3.48A6,6,0,0,1,128.31,317.41Zm-24.31-.3a36.07,36.07,0,0,0,2.15,3.73c1.68-1,3.19-2,4.42-2.85A49.2,49.2,0,0,0,104,317.11Zm29.75-12.21q.46-.45,1-.85l-1,.25Q133.73,304.6,133.75,304.9ZM84.63,274q3.58,13.69,7.23,25.28a9.77,9.77,0,0,1,4.37-3.44,8.36,8.36,0,0,1,5.16-1.5q.53,0,1.09,0A69.76,69.76,0,0,1,84.63,274Zm2.42-12.43c9.19,22.48,25.71,30.58,28,31.6a22.64,22.64,0,0,0,9.09,1.61c7.33,0,15.23-2.34,19.66-5.83,7.4-5.82,11.52-18.24,11-21.06-.95-.92-4.24-3.13-9.23-6-.66,3.8-2,7.63-4.76,8.82a4.74,4.74,0,0,1-3.65.06c-1.65,2.65-3.79,5.11-6.37,6a15.7,15.7,0,0,1-5.17.8,26.23,26.23,0,0,1-6-.74q-.26.52-.5,1a5.65,5.65,0,0,1-5.52,3.18,11.38,11.38,0,0,1-2-.19C104.93,279.68,93.87,272.64,87.05,261.58Zm38,8.29h.51a8.13,8.13,0,0,0,2.64-.38,5.86,5.86,0,0,0,1.66-1.73,7.31,7.31,0,0,0-.81.13A10.07,10.07,0,0,0,125.09,269.88Zm-23-14.42a32.31,32.31,0,0,0,10.57,10.38,34.87,34.87,0,0,0,3.79,1.87,20,20,0,0,1,11.07-7.32,14.77,14.77,0,0,1,3.1-.33,14.17,14.17,0,0,1,2.9.3c0-.17.08-.33.12-.48.25-1.13.45-2.17.6-3.1l-.36.19a34.64,34.64,0,0,1-15,3.72A29.86,29.86,0,0,1,102.06,255.46Zm-12.34-6.94a36.62,36.62,0,0,0,10.63,17.2,51.53,51.53,0,0,1-10.29-17.08Zm12.08-5.62c5.57,5.48,11.2,8.16,17.1,8.16A20.11,20.11,0,0,0,121,251a40.91,40.91,0,0,1-9.24-5.19,7.45,7.45,0,0,1-.87.05c-3.61,0-6.5-2.46-8.13-5.49a3.88,3.88,0,0,1-.71,2.31ZM120.23,233c7,2.06,12.84,3.06,17.68,3.06l1.38,0c1.23-15.71-2.92-27.38-12.35-34.77ZM98.56,234.7a3.84,3.84,0,0,1,2.71,1.13c0-.06,0-.12,0-.19-.35-4.24,1.83-8.77,7.7-10a11.54,11.54,0,0,1,2.3-.24,10,10,0,0,1,2.58.33l6.31-29.83a5.18,5.18,0,0,1,7.81-3.31,40.6,40.6,0,0,1,7.56,6,25.42,25.42,0,0,0,1.71-9.83,20.71,20.71,0,0,0-3.23-.65c-2.32-.33-5.49-.79-7-4-1.2-2.47-.58-5.26,1.66-7.45a12.89,12.89,0,0,1,3.16-2.21c-5.06-.32-10.6-.5-16.72-.53a22.74,22.74,0,0,1,5.71,3.17,4.72,4.72,0,0,1-1.93,8.36l-1,.21c-2.8.57-6.21,1.26-9.39,2.07a16.76,16.76,0,0,0-4.35,2.43,23.64,23.64,0,0,1-5.46,3.06c-.17,1.24-.23,2-.25,2.52a45.71,45.71,0,0,0,1,7.43,48.9,48.9,0,0,1,1.08,8.9c-.1,3.33-1.22,7.83-2.4,12.59-.88,3.54-1.83,7.36-2.29,10.49a20.21,20.21,0,0,1,2.09-.48l.3-.06Zm10.7-.92a4.79,4.79,0,0,0,1.13.15,3.62,3.62,0,0,0,1.88-.52v-.06a1.82,1.82,0,0,0-.94-.21,4.16,4.16,0,0,0-.81.09A2.45,2.45,0,0,0,109.26,233.78ZM91.93,205.32a123.84,123.84,0,0,1-1.34,17.55c1-4.16,2.1-8.44,2.17-10.95A40.87,40.87,0,0,0,91.93,205.32ZM68.7,195.75c-.87,2.71-.51,8.51,2.18,15.72a46.25,46.25,0,0,0,5.81,11A179.57,179.57,0,0,0,77,198.36c-2.66-1.4-5.82-2.64-7.76-2.64A2.63,2.63,0,0,0,68.7,195.75Zm22-3.64q0,1.12.06,2.22c.05-.6.13-1.27.23-2ZM77.65,177.46c.27.19.66.43.92.6a9.84,9.84,0,0,1,3.28,2.82,14.14,14.14,0,0,1,1.46,4c.27-3.52.72-6.95,1.24-10.09l-7.08.37A12.17,12.17,0,0,0,77.65,177.46ZM111.59,151c6.84.16,14.13.45,22.13.9l7.62-132.18c-5.67-1.32-15.21-2.14-25.55-2.14-1.48,0-3,0-4.42,0Zm-29.17.3.34,0V21.87a5.73,5.73,0,0,0-.8.51l-.49.38a13.2,13.2,0,0,0-1.29,1.06Zm8-.31c3.22-.08,6.58-.13,10-.13h3.41l-.21-132.92a107.6,107.6,0,0,0-13.22,1.59Z"/><path class="cls-1" d="M186.78,347c-2.18-22.41-12.44-43.07-32.26-65,3.65-6.65,5.33-13.76,3.82-16.19-1.61-2.59-14.89-9.8-15.88-10.33-.31-.34-2.95-3.31-3.67-4.46a19.75,19.75,0,0,1-2.55-7.09h.09q1.06,0,2.1,0a4.85,4.85,0,0,0,4.64-4.26c1.65-13.88-.42-25.11-6.11-33.56,2.72-6,5.3-12.89,4.18-19.48l.56.31a7,7,0,0,0,3.59,1.21,3.48,3.48,0,0,0,1.78-.46,4.29,4.29,0,0,0,1.86-4,7.94,7.94,0,0,0-4.42-6.69,8.59,8.59,0,0,0-3.24-.83c.16-1.27.86-7.34-.18-10.46l42.41,3a3.08,3.08,0,0,0,3.29-3.07v-1.84a3.08,3.08,0,0,0-2.71-3.06L141,155.59l8.69-135c.27-1.21-.65-1.92-1.54-2.6l-.09-.07c-4.09-3.14-18.9-4.51-32.22-4.51h-1.35c-2.19,0-4.45.07-6.73.17a.23.23,0,0,0-.44,0c-11.63.52-23.54,2.18-27.86,5.57l-.52.4c-1.4,1.07-2.86,2.18-2.82,4.1l2.3,131.44c-2.79.18-29.09,1.93-36.73,2.94-1,.13-1.49,1.33-1.37,3.22.18,2.72,1.78,6.74,4.65,6.74h0c7,0,26.38-1.27,29.07-1.45-.26,1.78-1.4,10.41.07,13.1a6.81,6.81,0,0,0,2.29,1.88,7.12,7.12,0,0,1,2,1.56c.74,1.15,1.37,4.8,1.59,6.2-1.82-1.14-8.45-5-13.81-3.94a7.39,7.39,0,0,0-4.88,3.24c-4.13,6.16-4.14,17.32,0,28.45s15.39,19.44,16.65,20.35a49.22,49.22,0,0,0,0,5.9c.14,1,.31,1.92.48,2.86-39.84,24.33-61.24,51-65.44,81.67-2.19,16,0,64.91,0,65.41a.25.25,0,0,0,.25.24H186.54a.25.25,0,0,0,.25-.24C186.8,392.86,187.89,358.36,186.78,347Zm-.5,0c.27,2.76.41,6.88.46,11.55a.25.25,0,0,0-.12-.15.25.25,0,0,0-.34.1,83,83,0,0,1-8.6,12.19c-5,5.86-12.86,13.42-22.31,16.18-10.6,3.1-24.61,3.27-38.43.48-15.36-3.11-28.91-9.65-38.15-18.42-14-13.27-17.16-23.58-22.44-40.66-2.41-7.79-5.14-16.63-9.47-27.9-1.4-3.64-.58-8.45,2.31-13.54,4.31-7.59,14.58-17.35,29.36-20,7.34,29.45,14.89,52.25,23,69.35,11.15,23.63,23.21,35.57,35.9,35.57a20.69,20.69,0,0,0,3.14-.24,15.51,15.51,0,0,0,11.81-8c6.53-11.77,2.53-35.32-11.53-68.1a26.05,26.05,0,0,0,5.46-3.21,33.35,33.35,0,0,0,8-9.76C173.94,304.24,184.12,324.78,186.29,347Zm-69.84-43.73c5,6.52,5.78,13.13,2.24,19.64h0c-3.28,4.56-6.08,7-7.79,6.7s-3.63-1.72-5.38-3.7c2.09-1.15,11.86-6.69,11.85-9.24a1,1,0,0,0-.62-.94c-5.89-3.13-17.53-2.94-18-2.93a.25.25,0,0,0-.25.25.24.24,0,0,0,.25.25c.12,0,12-.2,17.78,2.88.32.17.36.37.36.5,0,2-8.26,7-11.68,8.85a39.72,39.72,0,0,1-6.56-11.95A32.37,32.37,0,0,1,97,307c1.3.18,5.47.76,9.62,1.25a89.62,89.62,0,0,0,9,.78c1.45,0,1.52-.21,1.57-.38.1-.32-.29-.53-.45-.61-5.37-2.86-17.61-4.76-19.76-5.07a6.57,6.57,0,0,1,1.38-3.48,3.89,3.89,0,0,1,3-1C105,298.44,110.78,300.57,116.44,303.31Zm-19.53.11c2.17.32,14.29,2.2,19.58,5l0,0c-1.81.31-12.61-1-19.58-2A16.26,16.26,0,0,1,96.92,303.42Zm-.44-.5a.23.23,0,0,0,0,.37,16.73,16.73,0,0,0,0,3.17.25.25,0,0,0-.09.16.23.23,0,0,0,.13.23,32.31,32.31,0,0,0,1.65,6.93c2.58,7.44,7.76,15.46,12.65,16.37a2.19,2.19,0,0,0,.4,0c3.22,0,7.84-6.61,10.37-10.66a1.34,1.34,0,0,1,1.91-.39c1.95,1.36,11.87,8.06,15.67,6.29a4.9,4.9,0,0,0,.59-.33c-.87,1.26-2,2.68-2.79,2.94-1.49.5-4.15-.89-6.72-2.24s-5-2.64-6.67-2.3c-2.34.49-4.26,3-6.11,5.43-2.16,2.83-4.2,5.49-6.68,4.93-7.59-1.73-15.36-15.43-16.69-22.19-.84-4.29-.5-7.59,1-9.81a5.8,5.8,0,0,1,2.42-2.08A7.87,7.87,0,0,0,96.48,302.92Zm44.3,20.55h0a5.28,5.28,0,0,1-1.85,1.5c-3.63,1.68-14-5.43-15.18-6.25a1.84,1.84,0,0,0-2.62.54l-.83,1.3c2.07-5.58,1.09-11.21-2.91-16.78.8.4,1.6.81,2.39,1.22.36.7,3.56,7,4.79,8.27a2.54,2.54,0,0,0,1.8.9,2,2,0,0,0,.91-.23c2.1-1.08,3.59-5.89,2.5-12.11,3.53-1.32,7.23-2.28,9.06-1.13a8.24,8.24,0,0,1,2.73,3.3c-1.14.53-5.92,2.89-7.19,6.11a.74.74,0,0,0,.09.77c.41.52,1.76.68,3.29.68a45,45,0,0,0,5.65-.46,27.34,27.34,0,0,1,0,3.4c-1-.31-4.06-1.19-5.68-.81a.52.52,0,0,0-.46.42c-.15,1,3.65,3.33,5.62,4.48A11.92,11.92,0,0,1,140.79,323.47Zm-15-20c.86,2.38,1.63,5.68.93,6.4L122.14,305c.69-.27,1.56-.65,2.55-1.09Zm-4.19,1.75,4.9,5.15a.25.25,0,0,0,.18.08l.1,0c1.64-.76,0-5.69-.53-7.15,1-.41,2-.85,3-1.26,1,5.87-.36,10.52-2.25,11.49a1.77,1.77,0,0,1-2.13-.57c-1-1.06-3.61-6-4.46-7.68A2.38,2.38,0,0,0,121.62,305.21Zm21.75,5.38h0c-2.93.42-7.82.79-8.48,0a.25.25,0,0,1,0-.28c1.18-3,5.85-5.33,6.94-5.84A19.22,19.22,0,0,1,143.37,310.59Zm-5.56,3.6a.23.23,0,0,1,.09,0c1.54-.36,4.75.59,5.54.84a23.43,23.43,0,0,1-.39,3.06C140.42,316.5,137.8,314.65,137.81,314.19ZM142.16,304h0a8.66,8.66,0,0,0-3-3.69l-2.11-3.46c1.15-.37,2.27-.78,3.34-1.24,12.06,28.1,16.69,49.34,13.63,62.13a230.68,230.68,0,0,0-10-43.86A23.23,23.23,0,0,0,142.16,304Zm-3.33-52.11c1,1.33,2.85,3.42,3.23,3.84-.16,5.48-1.48,10.6-2.89,11.21-.18.08-.46.14-.86-.22a13.51,13.51,0,0,0-2.24-1.6,24.34,24.34,0,0,0,1.53-4.37A49.37,49.37,0,0,0,138.82,251.89Zm-2.16-4.25h-.05c-6.9,2.61-15,.55-23.46-5.94a6.32,6.32,0,0,0,3-2.58,4.48,4.48,0,0,0,2.36,1.77,59.47,59.47,0,0,0,17.18,3A21,21,0,0,0,136.67,247.64Zm-31.21-11.76c-.54-3.21,1.09-5.52,4.36-6.19,2.85-.58,5.13.42,6.27,2.73,0,0,0,0,.06.05l-.64,3c-2.91,2.48-6.19,2.68-10,.63C105.49,236,105.47,236,105.46,235.88Zm10,.34a4.55,4.55,0,0,0,.49,2.43,6,6,0,0,1-4.6,3c-2.54.34-4.83-2.17-5.63-4.89C109.3,238.6,112.58,238.41,115.42,236.21Zm23,7.14a56.46,56.46,0,0,1-19.7-2.94,4,4,0,0,1-2.28-1.83v0a4.07,4.07,0,0,1-.47-2.6c8.84,2.82,16,4.19,22,4.19a34.29,34.29,0,0,0,4.58-.3A4.35,4.35,0,0,1,138.41,243.35Zm4.18-4c-6.85,1-15.31-.28-26.56-3.87l.62-2.92,7.57-35.77a1.06,1.06,0,0,1,.63-.76,1.08,1.08,0,0,1,1,.08C139.32,204.47,145,219,142.59,239.34Zm4.23-52.15c-1.2.7-2.92.43-4.86-.75a17.81,17.81,0,0,0-7.32-2.34c-1.93-.28-3.33-.48-3.92-1.7a1.74,1.74,0,0,1-.16-1c7.73-1.25,13.38-.16,17.78,3.41A3.37,3.37,0,0,1,146.82,187.19Zm1.61-3.54a5.73,5.73,0,0,1,0,.6c-4.44-3.48-10.09-4.55-17.73-3.36a3.72,3.72,0,0,1,.87-1.24c2.59-2.54,9.1-4.11,12.73-2.26A7.43,7.43,0,0,1,148.43,183.66ZM131.2,179.3c-1.11,1.09-1.44,2.26-.94,3.31.71,1.47,2.29,1.69,4.3,2a18.65,18.65,0,0,1,6,1.66c1.25,6.46-1.25,13.34-3.95,19.27a35.54,35.54,0,0,0-10.53-9.85,1.59,1.59,0,0,0-1.46-.11,1.55,1.55,0,0,0-.92,1.12l-7.43,35.12a5.85,5.85,0,0,0-6.57-2.59c-4.21.86-5.22,4.05-4.76,6.76V236s-.07,0-.09.07a.25.25,0,0,0,.1.34l.08,0c.69,2.92,3.07,5.74,5.78,5.74a4,4,0,0,0,.53,0,7.47,7.47,0,0,0,1.24-.29s0,.06,0,.07c6.22,4.83,12.28,7.28,17.84,7.28a17.63,17.63,0,0,0,6.28-1.14l0,0a17.15,17.15,0,0,0,1.51,3.12,45.12,45.12,0,0,1-1.22,9.45,24.09,24.09,0,0,1-1.48,4.26,10.83,10.83,0,0,0-7.39-1c-3.95.85-7.64,3.74-10.53,8.13a38.76,38.76,0,0,1-6.87-3.07c-10-5.71-15.94-17.42-18.1-25.35a11.32,11.32,0,0,1,.91-.79c8,9.6,16.2,14.26,25.14,14.26a31.16,31.16,0,0,0,13.52-3.39.25.25,0,0,0,.12-.33l-.82-1.69a.25.25,0,0,0-.33-.12c-13,6.28-24.63,3-35.57-10a13.15,13.15,0,0,1,3.2-1,.25.25,0,0,0,.2-.29l-.31-1.84a.25.25,0,0,0-.1-.16.24.24,0,0,0-.19,0A14.23,14.23,0,0,0,92.14,241c0-.2-.08-.41-.11-.6-.61-3.87,1-10.28,2.53-16.49,1.14-4.57,2.21-8.89,2.3-11.84a47,47,0,0,0-1-8.16,46.15,46.15,0,0,1-1-8.2,45.59,45.59,0,0,1,.68-5.48h.17c2.09,0,4.21-1.44,6.43-3a18.88,18.88,0,0,1,5.49-3c3.29-.84,6.77-1.54,9.56-2.1l1-.21a1.09,1.09,0,0,0,.86-.83,1.13,1.13,0,0,0-.42-1.16c-5.38-4.17-13.73-5.21-20.15-3.9.67-2.82,1.2-4.93,1.35-5.53,17-.46,30.47-.08,41.29,1.13-.07,2-.28,3.82-.35,4.38C137.22,176,133.19,177.35,131.2,179.3Zm4.22,86.06c-1.54,3.33-3.8,6.79-6,7.55-3.05,1.06-7.19.56-11.23-.72,2.8-4.21,6.36-7,10.15-7.8A10.35,10.35,0,0,1,135.42,265.36ZM87.91,201C86,191,88,178.17,89.4,170.95q5.14-.22,9.9-.35c-.19.77-.72,2.89-1.37,5.64A15.2,15.2,0,0,0,91.7,179a5,5,0,0,0-1.5,6.63c1.31,2.57,2.74,4,4.4,4.46l.41.08a45.88,45.88,0,0,0-.68,5.51,46.45,46.45,0,0,0,1,8.3,46.86,46.86,0,0,1,1,8.06c-.09,2.9-1.16,7.19-2.29,11.74-1.56,6.25-3.17,12.72-2.54,16.69,0,.28.11.59.17.89a14.33,14.33,0,0,0-2.23,2.32.25.25,0,0,0,0,.35L91,245.15a.25.25,0,0,0,.35,0,12.15,12.15,0,0,1,1-1.11c2.24,8,8.25,19.68,18.26,25.41a39.14,39.14,0,0,0,6.84,3.06,31.1,31.1,0,0,0-2,3.74c-.33.72-1.41.95-3.05.65-8.46-1.51-25.7-14.6-27.09-33.21-.35-4.73.51-11.54,1.43-18.76C87.83,216,89,206.84,87.91,201Zm30.17-19.49-1,.21c-2.8.57-6.29,1.27-9.59,2.11a19.2,19.2,0,0,0-5.64,3c-2.18,1.49-4.26,2.91-6.23,2.87.33-1.9.75-4,1.18-6,5-3.42,11.63-4.85,19.94-4.36a14.57,14.57,0,0,1,1.61,1.07.63.63,0,0,1,.24.65A.59.59,0,0,1,118.08,181.51Zm-23,8.15a3.62,3.62,0,0,1-.37-.05,5,5,0,0,1-2.53-1.77,22.59,22.59,0,0,1,4-3.7C95.77,186,95.4,187.91,95.09,189.65Zm1.82-6.6c.49-2.27,1-4.51,1.46-6.45a25.3,25.3,0,0,1,5.06-.49,28.55,28.55,0,0,1,12.26,2.69C108.07,178.51,101.79,179.93,96.9,183.05Zm-.59.38a22.58,22.58,0,0,0-4.44,4,13.92,13.92,0,0,1-1.23-2,4.57,4.57,0,0,1,1.38-6,14.12,14.12,0,0,1,5.8-2.66C97.34,178.75,96.81,181.08,96.31,183.43Zm-1.19,58.25c11.1,13.32,22.93,16.74,36.15,10.44l.6,1.24a30.52,30.52,0,0,1-13.08,3.23c-8.84,0-17-4.67-24.91-14.26a.25.25,0,0,0-.34,0,11.75,11.75,0,0,0-.94.78q-.2-.79-.35-1.52a13.59,13.59,0,0,1,6.1-2.7l.23,1.35a13.36,13.36,0,0,0-3.38,1.1.25.25,0,0,0-.13.17A.25.25,0,0,0,95.12,241.68Zm-2.95,1.76a12.5,12.5,0,0,0-1.06,1.17L90,243.76a13.83,13.83,0,0,1,1.78-1.87C91.91,242.39,92,242.9,92.18,243.43Zm49-72.22c-12.93-1.45-29.57-1.7-51.63-.77.42-2.08.79-3.65,1-4.46,16.49-.45,33.25-.56,50-.34A16.45,16.45,0,0,1,141.13,171.21Zm6.69-152.84c.84.64,1.56,1.19,1.35,2.13l-8.71,135.3s0,0,0,.06l-2.91-.18s0,0,0-.07l8-138.42a8.79,8.79,0,0,1,2.15,1.12ZM145.09,17l-8,138.58s0,0,0,.08c-10.69-.64-20.35-1-29.14-1.17l-.23-140.39C122.31,13.49,138.17,14.57,145.09,17ZM107.5,154.48c-7.46-.11-14.3-.05-20.64.19v-138a109.23,109.23,0,0,1,20.41-2.51ZM76.58,23.65C76.55,22,77.84,21,79.21,20l.53-.41a19,19,0,0,1,6.62-2.8V154.67h0q-3.85.15-7.48.39ZM41.72,158.54c8-1.06,36.65-2.94,36.94-3,17.65-1.18,39.25-.8,68,1.18h0L184,161.2a2.58,2.58,0,0,1,2.27,2.56V165c-41.2-7-88.76-8.17-145.39-3.42,0,0,0,0-.07,0s0-.26,0-.39C40.69,159.68,41.05,158.63,41.72,158.54Zm3.24,9h0c-2.19,0-3.65-2.93-4.05-5.44h.05c56.63-4.75,104.17-3.63,145.35,3.42v.1a2.58,2.58,0,0,1-2.76,2.57l-42.79-3h0c-16.81-.22-33.59-.11-50.1.34l0-.14a.25.25,0,0,0-.48-.13l-.07.28q-7.94.22-15.79.54h0C74.09,166,52.38,167.5,45,167.5Zm16.77,49.36c-4.06-11-4.07-22,0-28a6.9,6.9,0,0,1,4.56-3c5.58-1.08,12.88,3.5,13.81,4.1.14,1.93.26,3.81.36,5.65-1.8-1.06-9.15-5.12-13.23-3.66a3.76,3.76,0,0,0-2.37,2.44C61.92,202.79,69,223.45,79.23,231q-.52,3.08-1.22,5.84C76.12,235.45,65.62,227.39,61.73,216.86Zm17.6,13.58c-10-7.56-16.87-27.68-14-35.92a3.24,3.24,0,0,1,2.06-2.13c4.07-1.46,12,3.16,13.09,3.79C81.2,209.92,80.83,221.23,79.33,230.44Zm-.91,6.85C81.07,227,81.9,213.4,81,196h0c-.11-2-.24-4.08-.4-6.21h0c0-.22-.78-5.43-1.75-6.94a7.17,7.17,0,0,0-2.16-1.71,6.6,6.6,0,0,1-2.11-1.69c-1.41-2.58-.21-11.45,0-12.89q7.67-.31,15.44-.53c-.21.87-.57,2.42-1,4.47-4.66.2-9.53.45-14.68.75a.25.25,0,0,0-.24.26.26.26,0,0,0,.26.24c5.1-.3,9.94-.55,14.55-.75-1.44,7.29-3.35,20.1-1.47,30.12,1.08,5.76-.08,14.89-1.21,23.72-.92,7.24-1.79,14.08-1.44,18.86,1.41,18.87,18.91,32.14,27.5,33.67a7.69,7.69,0,0,0,1.35.13c1.42,0,2-.55,2.25-1.07a30.51,30.51,0,0,1,2-3.77,25.87,25.87,0,0,0,7.69,1.36,12.14,12.14,0,0,0,4-.6c2.3-.8,4.67-4.37,6.26-7.8a13,13,0,0,1,2.12,1.52,1.25,1.25,0,0,0,1.39.3c1.94-.85,3-7,3.18-11.35,2.19,1.19,13.95,7.68,15.37,10,2.26,3.64-3.48,19.12-11.91,25.75-8,6.31-23.79,8.58-32.46,4.67-3-1.35-29.39-14.3-35.13-53.26A52,52,0,0,1,78.42,237.29Zm34.92,59.63a26.69,26.69,0,0,0,10.75,2A43.52,43.52,0,0,0,136.57,297l1.78,2.92c-3-1-8.33,1.15-12.49,3h0l-1.37.6c-1.17.51-2.17,1-2.88,1.21a1.88,1.88,0,0,1-1.52-.1c-4.29-2.27-18.5-9.32-22-5.54a5.91,5.91,0,0,0-3.37,2.51c-1.58,2.34-1.95,5.77-1.08,10.2,1.34,6.87,9.29,20.81,17.06,22.58a3.5,3.5,0,0,0,.78.09c2.44,0,4.46-2.64,6.42-5.21,1.8-2.36,3.66-4.79,5.81-5.24,1.47-.31,3.94,1,6.34,2.25,2.78,1.46,5.4,2.83,7.11,2.27s4-4.61,4.11-4.78h0a12.48,12.48,0,0,0,2.18-4.92.25.25,0,0,0,.12-.46h0a23.41,23.41,0,0,0,.42-3A232.4,232.4,0,0,1,153.7,359a20.93,20.93,0,0,1-1.75,4.29A15,15,0,0,1,140.5,371c-13.6,2.08-26.54-9.7-38.51-35-8.08-17.11-15.64-40-23-69.47h0q-2.1-8.42-4.17-17.57,1.8-1.14,3.65-2.27C85.25,283.25,110.41,295.6,113.34,296.92Zm73,96H13.45c-.16-3.74-2.1-49.67,0-65.08,4-29.35,24-55.11,60.93-78.64q2,8.92,4.06,17.14C63.53,269,53.15,278.92,48.78,286.6c-3,5.22-3.8,10.18-2.34,14,4.32,11.26,7,20.08,9.46,27.87,5.3,17.16,8.5,27.52,22.57,40.88,9.31,8.84,22.94,15.43,38.39,18.55a98.71,98.71,0,0,0,19.43,2,69.56,69.56,0,0,0,19.23-2.47c9.56-2.79,17.54-10.43,22.55-16.34a83.65,83.65,0,0,0,8.66-12.27.25.25,0,0,0,0-.19C186.91,372.26,186.37,390.63,186.29,392.95Z"/><path class="cls-1" d="M134,202.94c-4.76,0-7.6-4.56-7.6-9,0-4.65,3.2-8,7.6-8,4.17,0,7.19,3.57,7.19,8.5a9.88,9.88,0,0,1-1.44,5.27A6.75,6.75,0,0,1,134,202.94Z"/><path class="cls-1" d="M134,199.34a3.13,3.13,0,0,0,2.72-1.57,6.26,6.26,0,0,0,.87-3.33c0-2.36-1.12-4.9-3.59-4.9-3,0-4,2.38-4,4.42C130,196.55,131.55,199.34,134,199.34Zm0-9.3c2.12,0,3.09,2.28,3.09,4.4a5.75,5.75,0,0,1-.8,3.06,2.68,2.68,0,0,1-2.29,1.34c-2.09,0-3.5-2.52-3.5-4.87C130.52,192.07,131.44,190,134,190Z"/><path class="cls-1" d="M130.75,341.18a8.06,8.06,0,0,1-7.6-6,7.08,7.08,0,0,1,4.93-9.06,8.68,8.68,0,0,1,2.4-.35,7,7,0,0,1,5,2,8.58,8.58,0,0,1,2.15,8.07,6.85,6.85,0,0,1-4.77,5A8,8,0,0,1,130.75,341.18Z"/><path class="cls-1" d="M130.75,337.58a4.35,4.35,0,0,0,1.16-.16,3.26,3.26,0,0,0,2.24-2.46,4.94,4.94,0,0,0-1.18-4.6,3.75,3.75,0,0,0-3.9-.79,3.53,3.53,0,0,0-2.46,4.63A4.45,4.45,0,0,0,130.75,337.58ZM129.21,330a4.52,4.52,0,0,1,1.25-.19,3,3,0,0,1,2.16.85,4.42,4.42,0,0,1,1,4.12,2.73,2.73,0,0,1-1.89,2.11,3.84,3.84,0,0,1-4.68-2.88A3,3,0,0,1,129.21,330Z"/><path class="cls-1" d="M135.81,358.28a8.06,8.06,0,0,1-7.6-6,7.08,7.08,0,0,1,4.93-9.06,8.68,8.68,0,0,1,2.39-.35,7.15,7.15,0,0,1,5,2A8.58,8.58,0,0,1,142.7,353a6.85,6.85,0,0,1-4.77,5A8,8,0,0,1,135.81,358.28Z"/><path class="cls-1" d="M131.68,351.29a4.45,4.45,0,0,0,4.13,3.39,4.36,4.36,0,0,0,1.16-.16,3.25,3.25,0,0,0,2.24-2.46,5,5,0,0,0-1.18-4.6,3.76,3.76,0,0,0-3.9-.79A3.53,3.53,0,0,0,131.68,351.29Zm6-3.48a4.42,4.42,0,0,1,1,4.12,2.73,2.73,0,0,1-1.89,2.1,3.83,3.83,0,0,1-4.68-2.88,3,3,0,0,1,2.11-4A3.33,3.33,0,0,1,137.69,347.82Z"/><path class="cls-2" d="M105.29,236.3c-.65-2.91.37-6,4.48-6.85,3.29-.67,5.5.76,6.54,2.86l.12,0,0,.16-.66,3.14C112.82,238.17,109.36,238.53,105.29,236.3Z"/><path class="cls-3" d="M95.29,190c.34-2,.78-4.19,1.24-6.37,5-3.41,11.63-5,20.29-4.49h0a17,17,0,0,1,1.65,1.12.87.87,0,0,1-.34,1.54c-2.82.57-6.88,1.37-10.61,2.32C103.23,185.17,99.11,190.3,95.29,190Z"/><path class="cls-4" d="M96.7,303.13a6.89,6.89,0,0,1,1.47-3.85c2.7-3.08,12.67,1.06,18.45,3.84a24,24,0,0,1,3.09,5.12l-2.78.22a.85.85,0,0,0-.31-.23C111,305.21,97.88,303.3,96.7,303.13Z"/><path class="cls-5" d="M89.19,170.71c.49-2.41.91-4.17,1.1-5q25.06-.69,50.42-.35a16.29,16.29,0,0,1,.66,6.07h-.21c-11.53-1.29-25.66-1.55-41.54-1.12Q94.53,170.48,89.19,170.71Z"/><path class="cls-6" d="M115.74,235.63c10,3.21,19.3,5.06,27.09,3.93a4.63,4.63,0,0,1-4.4,4c-.82,0-1.65.06-2.47,0a59.49,59.49,0,0,1-17.32-3,4.2,4.2,0,0,1-2.43-2A4.34,4.34,0,0,1,115.74,235.63Z"/><path class="cls-6" d="M115.74,235.63a4.34,4.34,0,0,0,.46,3,6.09,6.09,0,0,1-3.44,2.94,6.51,6.51,0,0,1-1.41.34c-2.77.37-5.37-2.51-6.06-5.63C109.36,238.53,112.82,238.17,115.74,235.63Z"/><path class="cls-7" d="M98.71,313.1s12-.24,17.91,2.9c3.35,1.78-11.5,9.88-11.5,9.88a39.3,39.3,0,0,1-6.88-12.63Z"/><path d="M134,199.09c-4.29,0-5.67-9.29,0-9.29C138.47,189.8,138.47,199.09,134,199.09Z"/><path class="cls-4" d="M46.67,300.47c-4.06-10.6,10.65-30.19,32.09-33.9a501.34,501.34,0,0,0,14.4,48.58c12.59,34.81,28.17,59.1,47.38,56.15,6.5-1,11.28-4.9,13.42-12.29,3.39-11.69.15-32.14-13.42-63.71a26.49,26.49,0,0,0,5.62-3.3,33.36,33.36,0,0,0,8.06-10c16.09,17.77,29.76,38.8,32.32,65,.27,2.79.41,6.94.47,11.64h-.5s-12.65,23.11-31.06,28.48c-20.65,6-56.53,1.25-76.82-18S60.82,337.33,46.67,300.47Z"/><path class="cls-4" d="M107.52,13.82c14.74-.64,30.88.47,37.84,3h0l-8,138.77,0,.32c-10.26-.62-20.17-1-29.6-1.18v-.07Z"/><path class="cls-4" d="M86.61,16.42V154.93c-2.72.1-5.38.23-8,.41L76.33,23.66c0-2,1.67-3.06,3.25-4.31A19.89,19.89,0,0,1,86.61,16.42Z"/><path class="cls-8" d="M90.3,165.74c-.2.8-.62,2.56-1.1,5q-7.26.31-14.87.76l-.57,0c.21-2.79.57-5.17.57-5.17Q82.29,166,90.3,165.74Z"/><path class="cls-4" d="M40.6,161.88c-.26-1.85.07-3.45,1.08-3.58,8.11-1.08,37-3,37-3,2.6-.18,5.26-.31,8-.41,6.7-.25,13.77-.31,21.12-.19,9.43.14,19.34.56,29.6,1.18q4.6.28,9.29.6L184,161a2.82,2.82,0,0,1,2.49,2.81v1.53h0c-45.3-7.79-94.41-7.75-145.59-3.45Z"/><path class="cls-9" d="M65.07,194.44c-2.81,8.13,4.07,28.94,14.43,36.45-.37,2.23-.82,4.36-1.34,6.37,0,0-12.33-8.57-16.67-20.32s-3.93-22.36,0-28.22c5.38-8,18.81,1.08,18.81,1.08q.24,3.17.4,6.24S67.36,187.82,65.07,194.44Z"/><path class="cls-5" d="M85,243.65c-.8-10.63,4.61-32.11,2.65-42.6a67.14,67.14,0,0,1-.29-18.49l2.42.11a5.17,5.17,0,0,0,.62,2.85,13.49,13.49,0,0,0,1.44,2.3A4.9,4.9,0,0,0,95.29,190a45,45,0,0,0-.73,5.73c-.15,4.12,2.17,12.23,2,16.35-.21,6.89-5.91,21.57-4.83,28.38.06.33.11.66.19,1a14,14,0,0,0-2.3,2.39l1.49,1.13a12.06,12.06,0,0,1,1.3-1.44c2.21,8.3,8.46,20.08,18.25,25.67a38.68,38.68,0,0,0,7.09,3.15,29.31,29.31,0,0,0-2.16,4C113.51,281,86.8,267.53,85,243.65Z"/><path class="cls-4" d="M141.93,304.1a20.72,20.72,0,0,1,1.69,6.71l-.23,0a50.37,50.37,0,0,1-5.19.46c-2.11,0-4-.16-3.58-1.1,1.39-3.54,7.3-6.08,7.3-6.08Z"/><path class="cls-6" d="M89.67,243.81a14,14,0,0,1,2.3-2.39c.12.66.29,1.36.49,2.08a12.06,12.06,0,0,0-1.3,1.44Z"/><path class="cls-10" d="M134,189.8c-5.67,0-4.29,9.29,0,9.29C138.47,199.09,138.47,189.8,134,189.8Zm-25,.47c-5.92,0-6.12,10.78.49,10.78C114.11,201,115.55,190.27,109,190.27ZM96.61,212c.12-4.12-2.2-12.23-2-16.35a45,45,0,0,1,.73-5.73c3.82.34,7.94-4.79,12.22-5.89,3.73-1,7.8-1.75,10.61-2.32a.87.87,0,0,0,.34-1.54,17,17,0,0,0-1.65-1.12c-5.42-3.27-13-3.87-18.69-2.62.84-3.56,1.5-6.12,1.5-6.12,15.87-.43,30-.17,41.54,1.12h.21a48.33,48.33,0,0,1-.38,4.87v0c-4.6-.24-10.11,2.22-10.65,4.85a2,2,0,0,0,.16,1.31c1.22,2.53,5.34,1,10.31,3.58h0c1.26,6.31-1,13-4.11,19.91h0A35.44,35.44,0,0,0,126,195.88a1.33,1.33,0,0,0-2,.84l-7.53,35.61-.12,0c-1-2.11-3.25-3.54-6.54-2.86-4.11.83-5.13,3.94-4.48,6.85.68,3.12,3.29,6,6.06,5.63a6.51,6.51,0,0,0,1.41-.34l.06.18c7.82,6.06,16.21,9,23.89,6.11H137a17,17,0,0,0,1.57,3.26,43.56,43.56,0,0,1-1.23,9.57,24.44,24.44,0,0,1-1.61,4.53c-6-3.23-13-.48-17.94,7.1a38.68,38.68,0,0,1-7.09-3.15c-9.79-5.6-16-17.37-18.25-25.67a9.58,9.58,0,0,1,1.23-1c7.91,9.57,16.21,14.35,25.1,14.35a30.79,30.79,0,0,0,13.42-3.36l-.81-1.68c-13.2,6.37-25,3-36.08-10.27a12.86,12.86,0,0,1,3.56-1.12l-.31-1.84A13.93,13.93,0,0,0,92,241.43c-.07-.35-.13-.68-.19-1C90.71,233.61,96.41,218.93,96.61,212Z"/><path class="cls-11" d="M96.7,303.13a16,16,0,0,0,0,3.54,31.7,31.7,0,0,0,1.51,6.59,39.3,39.3,0,0,0,6.88,12.63c1.86,2.17,3.85,3.66,5.73,4,2.28.43,5.6-3.4,8.06-6.83,1-1.39,1.86-2.72,2.46-3.68a1.58,1.58,0,0,1,2.26-.46c3.44,2.39,12.1,7.81,15.42,6.27a5.51,5.51,0,0,0,1.93-1.55c-.27.46-2.51,4.15-3.94,4.62-3.1,1-10.22-5.2-13.41-4.53-4.9,1-8,11.48-12.91,10.36-6.7-1.53-13.54-12.23-16.07-19.5a21.16,21.16,0,0,1-.8-2.89c-2.19-11.2,4.33-12.43,4.33-12.43A6.89,6.89,0,0,0,96.7,303.13Z"/><path d="M109,190.27c6.51,0,5.06,10.78.49,10.78C102.92,201,103.12,190.27,109,190.27Z"/><path class="cls-5" d="M138.58,251.12c.79,1.24,3.73,4.52,3.73,4.52-.16,6-1.89,13.27-4.17,11.27a13.27,13.27,0,0,0-2.4-1.68,24.44,24.44,0,0,0,1.61-4.53A43.56,43.56,0,0,0,138.58,251.12Z"/><path class="cls-4" d="M136.91,354.28c-4.67,1.28-7.41-6-2.7-7.37C139.55,345.37,140.65,353.25,136.91,354.28Z"/><path class="cls-5" d="M80.71,196c.72,13.29.43,25.07-1.21,34.85-10.36-7.51-17.24-28.31-14.43-36.45C67.36,187.82,80.71,196,80.71,196Z"/><path class="cls-7" d="M116.92,308.45c.72,1.16-18.57-1.56-20.2-1.79a16,16,0,0,1,0-3.54c1.18.17,14.28,2.09,19.92,5.09A.85.85,0,0,1,116.92,308.45Z"/><path class="cls-11" d="M140.54,295.29c13.57,31.57,16.81,52,13.42,63.71a233.66,233.66,0,0,0-10.22-45.08,28.82,28.82,0,0,0-.11-3.12,20.72,20.72,0,0,0-1.69-6.71,8.45,8.45,0,0,0-2.95-3.62l-2.28-3.74A37.34,37.34,0,0,0,140.54,295.29Z"/><path class="cls-12" d="M96.53,183.58c.53-2.51,1.1-5,1.6-7.12,5.74-1.25,13.27-.65,18.69,2.62h0C108.16,178.57,101.51,180.18,96.53,183.58Z"/><path class="cls-5" d="M112.76,241.59a6.09,6.09,0,0,0,3.44-2.94,4.2,4.2,0,0,0,2.43,2,59.49,59.49,0,0,0,17.32,3,20.25,20.25,0,0,0,1.06,4.22h-.31c-7.67,2.9-16.07-.06-23.89-6.11Z"/><path class="cls-7" d="M125.95,303.12s2.36,6.32.75,7.07l-5-5.26C122.67,304.57,124.19,303.88,125.95,303.12Z"/><path class="cls-3" d="M91.86,187.82a22.1,22.1,0,0,1,4.67-4.24c-.46,2.18-.9,4.38-1.24,6.37A4.9,4.9,0,0,1,91.86,187.82Z"/><path class="cls-12" d="M117.8,272.33c4.9-7.58,12-10.33,17.94-7.1-1.54,3.43-3.91,7.1-6.23,7.92C126.37,274.24,122.06,273.73,117.8,272.33Z"/><path class="cls-7" d="M116.62,303.12c1.44.69,2.62,1.3,3.36,1.69,0,0,3.52,7,4.78,8.28,3,3.09,6.32-3,4.75-11.44h0c3.67-1.39,7.51-2.41,9.47-1.17a8.45,8.45,0,0,1,2.95,3.62h0s-5.92,2.55-7.3,6.08c-.37.95,1.48,1.15,3.58,1.1l0,2.56-.41.07c-1.6.37,4.3,3.9,5.38,4.54A12.51,12.51,0,0,1,141,323.6l0,0A5.51,5.51,0,0,1,139,325.2c-3.32,1.53-12-3.88-15.42-6.27a1.58,1.58,0,0,0-2.26.46c-.6,1-1.46,2.28-2.46,3.68a16.11,16.11,0,0,0,.8-14.83A24,24,0,0,0,116.62,303.12Z"/><path class="cls-4" d="M116.62,316c-5.91-3.14-17.91-2.9-17.91-2.9l-.48.16a31.7,31.7,0,0,1-1.51-6.59c1.63.22,20.92,2.95,20.2,1.79l2.78-.22a16.11,16.11,0,0,1-.8,14.83c-2.46,3.44-5.77,7.26-8.06,6.83-1.88-.36-3.87-1.84-5.73-4C105.11,325.88,120,317.77,116.62,316Z"/><path class="cls-3" d="M80.71,196q-.17-3.07-.4-6.24s-.76-5.36-1.71-6.84c-.74-1.16-3.62-2.23-4.28-3.43-.83-1.52-.8-5-.57-8.09l.57,0q7.61-.45,14.87-.76c-.63,3.11-1.35,7.28-1.82,11.85A67.14,67.14,0,0,0,87.67,201c2,10.48-3.44,32-2.65,42.6,1.79,23.89,28.49,37.33,30.62,32.65a29.31,29.31,0,0,1,2.16-4c4.26,1.39,8.56,1.91,11.71.81,2.32-.81,4.69-4.49,6.23-7.92a13.27,13.27,0,0,1,2.4,1.68c2.27,2,4-5.27,4.17-11.27,0,0,14.21,7.66,15.82,10.26,1.49,2.4-.25,9.48-3.91,16.09a33.36,33.36,0,0,1-8.06,10,26.49,26.49,0,0,1-5.62,3.3,37.34,37.34,0,0,1-3.84,1.44c-8,2.48-17.32,2.64-23.26,0-7.43-3.35-28.81-17.53-34.78-50.43-.18-1-.35-2-.5-3a53.53,53.53,0,0,1,0-6c.51-2,1-4.15,1.34-6.37C81.14,221.12,81.43,209.33,80.71,196Z"/><path class="cls-4" d="M126.7,310.18c1.61-.75-.75-7.07-.75-7.07,1.11-.49,2.33-1,3.57-1.46,1.56,8.48-1.79,14.53-4.75,11.44-1.26-1.32-4.78-8.28-4.78-8.28a2.13,2.13,0,0,0,1.72.11Z"/><path class="cls-4" d="M138.25,313.84a18,18,0,0,1,5.45,1h0a23.59,23.59,0,0,1-.49,3.63c-1.09-.64-7-4.17-5.38-4.54Z"/><path class="cls-4" d="M129.15,329.81c5.34-1.54,6.44,6.34,2.7,7.37C127.17,338.46,124.43,331.16,129.15,329.81Z"/><path class="cls-3" d="M89.8,182.67c.29-3,3.73-5.19,8.33-6.21-.5,2.12-1.07,4.61-1.6,7.12a22.1,22.1,0,0,0-4.67,4.24,13.49,13.49,0,0,1-1.44-2.3A5.17,5.17,0,0,1,89.8,182.67Z"/><path class="cls-12" d="M144.39,177.17a7.49,7.49,0,0,1,4.21,7.55h0c-5.07-4.19-11.4-4.66-18.26-3.53.54-2.63,6-5.09,10.65-4.85A8.53,8.53,0,0,1,144.39,177.17Z"/><path class="cls-13" d="M131.84,337.18c3.74-1,2.64-8.91-2.7-7.37C124.43,331.16,127.17,338.46,131.84,337.18Zm2.36,9.73c-4.71,1.35-2,8.65,2.7,7.37C140.65,353.25,139.55,345.37,134.2,346.91Zm-41-31.77,1.48-.54c2.53,7.26,9.37,18,16.07,19.5,4.89,1.11,8-9.34,12.91-10.36,3.19-.67,10.31,5.55,13.41,4.53,1.43-.48,3.67-4.17,3.94-4.62l0,0a12.51,12.51,0,0,0,2.23-5.15,23.59,23.59,0,0,0,.49-3.63c0-.29,0-.59,0-.89A233.66,233.66,0,0,1,154,359c-2.14,7.39-6.93,11.29-13.42,12.29C121.33,374.24,105.75,350,93.16,315.14Z"/><path class="cls-7" d="M78.76,266.57c-21.44,3.71-36.16,23.31-32.09,33.9,14.15,36.86,11.77,49.48,32,68.65s56.17,24,76.82,18c18.4-5.37,31.06-28.48,31.06-28.48h.5c.18,14.65-.47,34.55-.47,34.55H13.21S11,344,13.21,327.84c4.64-33.88,29.82-59,61.34-79C75.9,254.78,77.3,260.71,78.76,266.57Z"/><path class="cls-14" d="M136.69,206c5.63,8.22,7.82,19.28,6.13,33.56-7.79,1.13-17.09-.72-27.09-3.93l.66-3.14,0-.16L124,196.73a1.33,1.33,0,0,1,2-.84A35.44,35.44,0,0,1,136.69,206Z"/><path class="cls-13" d="M98.17,299.28s-6.52,1.23-4.33,12.43a21.16,21.16,0,0,0,.8,2.89l-1.48.54a501.34,501.34,0,0,1-14.4-48.58c-1.46-5.86-2.86-11.78-4.21-17.74,1.36-.87,2.73-1.71,4.11-2.56,6,32.9,27.35,47.08,34.78,50.43,5.94,2.68,15.3,2.52,23.26,0l2.28,3.74c-2-1.24-5.8-.22-9.47,1.17h0c-1.24.46-2.45,1-3.57,1.46-1.76.76-3.28,1.45-4.25,1.81a2.13,2.13,0,0,1-1.72-.11c-.74-.39-1.92-1-3.36-1.69C110.84,300.34,100.86,296.2,98.17,299.28Z"/><path class="cls-6" d="M92.46,243.51c-.2-.72-.37-1.41-.49-2.08a13.93,13.93,0,0,1,6.59-2.87l.31,1.84a12.86,12.86,0,0,0-3.56,1.12c11.07,13.28,22.88,16.64,36.08,10.27l.81,1.68a30.79,30.79,0,0,1-13.42,3.36c-8.89,0-17.19-4.77-25.1-14.35A9.58,9.58,0,0,0,92.46,243.51Z"/><path class="cls-4" d="M147.89,18.11c.89.68,1.78,1.32,1.54,2.41l-8.71,135.29,5.92.7q-4.69-.32-9.29-.6l0-.32,8-138.77A9.43,9.43,0,0,1,147.89,18.11Z"/><path class="cls-7" d="M86.61,16.42a108.22,108.22,0,0,1,20.91-2.6l.22,140.85v.07c-7.36-.12-14.42-.07-21.12.19V16.42Z"/><path class="cls-7" d="M90.3,165.74q-8,.21-16,.54s-21.89,1.48-29.38,1.47c-2.41,0-4-3.19-4.33-5.87l.31,0c51.18-4.3,100.29-4.33,145.59,3.45h0v.32a2.82,2.82,0,0,1-3,2.82l-42.79-3Q115.36,165.05,90.3,165.74Z"/><path class="cls-3" d="M130.34,181.2c6.86-1.13,13.19-.66,18.26,3.53h0c-.43,2.67-2.81,4.35-6.78,1.93-.35-.21-.68-.39-1-.56h0c-5-2.53-9.1-1-10.31-3.58A2,2,0,0,1,130.34,181.2Z"/><path class="cls-7" d="M143.74,313.93c0,.3,0,.6,0,.89h0a18,18,0,0,0-5.45-1l0-2.56a50.37,50.37,0,0,0,5.19-.46l.23,0A28.82,28.82,0,0,1,143.74,313.93Z"/><path class="cls-5" d="M98.13,176.46c-4.6,1-8,3.21-8.33,6.21l-2.42-.11c.47-4.57,1.19-8.74,1.82-11.85q5.34-.22,10.44-.37S99,172.91,98.13,176.46Z"/></g></svg>