<svg id="Layer_1" data-name="Layer 1" xmlns="http://www.w3.org/2000/svg" viewBox="0 0 651.41 609.62"><defs><style>.cls-1{fill:#fff;}.cls-2{fill:#172d44;}.cls-3{fill:#466084;}.cls-4{fill:#b7a67d;}.cls-5{fill:#f4e8c3;}.cls-6{fill:#cc8f7a;}.cls-7{fill:#f2b78b;}.cls-8{fill:#b2a893;}.cls-9{fill:#efe7d0;}.cls-10{fill:#aa593d;}.cls-11{fill:#d88361;}</style></defs><title>goerge_back_final2</title><path class="cls-1" d="M361.69,353.26a59.72,59.72,0,0,1-45-19.74,5.59,5.59,0,0,1-2.93,1.44l-.39.07h-.54a5.65,5.65,0,0,1-3.55-1.27L307,331.89a5.65,5.65,0,0,1-.78-8c3.55-4.33,9.18-10.11,16.84-10.11a5.68,5.68,0,0,1,5.7,5.65v2.92a5.7,5.7,0,0,1-.59,2.54,45.39,45.39,0,0,0,33.26,14.26,44.55,44.55,0,0,0,13.2-1.85l.83-.28,1,0a5.65,5.65,0,0,1,5.34,3.81l1,2.8a5.65,5.65,0,0,1-3.61,7.2h0a59.71,59.71,0,0,1-16.75,2.43Z"/><path class="cls-1" d="M376.35,342.33c-1.34.46-33.14,10.85-56.34-18.77a7.38,7.38,0,0,1,3.13-.79.37.37,0,0,0,.36-.37v-2.94a.37.37,0,0,0-.41-.37c-4.12,0-8.18,2.6-12.76,8.19a.37.37,0,0,0,.05.52l2.27,1.86a.34.34,0,0,0,.27.08.37.37,0,0,0,.25-.13,32.07,32.07,0,0,1,3.81-4C331.26,344,349,348,361.69,348h.66a54,54,0,0,0,15.18-2.17.36.36,0,0,0,.21-.18.37.37,0,0,0,0-.28l-1-2.78A.36.36,0,0,0,376.35,342.33Zm-14,4.91c-12.6.18-30.64-3.63-45-22.36a.36.36,0,0,0-.25-.14h0a.37.37,0,0,0-.23.08,31.23,31.23,0,0,0-4,4l-1.7-1.4c4.21-5.07,7.93-7.5,11.64-7.64V322a8.44,8.44,0,0,0-3.48,1.06.37.37,0,0,0-.12.55c22.52,29.15,53.27,20.67,57.08,19.48l.71,2.08A55,55,0,0,1,362.35,347.24Z"/><path class="cls-1" d="M328,280.15a11.47,11.47,0,0,1-10.12-5.68,13.47,13.47,0,0,1-.1-13.26A12.27,12.27,0,0,1,328.69,255c6.33,0,11.07,5.34,11.14,12.42a13.58,13.58,0,0,1-2.58,8.31,11.24,11.24,0,0,1-9.08,4.46H328Zm.29-13.84a.84.84,0,0,0-.67.45,2.2,2.2,0,0,0,0,2,.45.45,0,0,0,.4.14.86.86,0,0,0,.27,0,3.33,3.33,0,0,0,.23-1.32A3.51,3.51,0,0,0,328.32,266.31Z"/><path class="cls-1" d="M328,274.87h.09c4.5,0,6.47-3.77,6.43-7.43s-2-7.19-5.74-7.19h-.06a7,7,0,0,0-6.34,3.56,8.21,8.21,0,0,0,0,8A6.22,6.22,0,0,0,328,274.87Zm-5-10.7a6.31,6.31,0,0,1,5.71-3.19h.05c3.24,0,5,3.24,5,6.46s-1.71,6.65-5.7,6.69H328a5.51,5.51,0,0,1-4.95-2.73A7.46,7.46,0,0,1,323,264.16Z"/><path class="cls-1" d="M371.29,279.9a10.48,10.48,0,0,1-7.57-3.47c-3.66-3.72-6.2-10.35-4-15.79,1.59-3.84,5.14-6.07,9.74-6.12,6.49,0,10.92,5.6,12,11.14,1.18,6.05-1.6,11.53-6.93,13.62A9,9,0,0,1,371.29,279.9Zm-.84-11.15s0,0,0,0h0Z"/><path class="cls-1" d="M376.33,266.66c-.65-3.34-3.22-6.87-6.7-6.87h-.06c-3.1,0-4.39,1.57-4.92,2.86-1.29,3.12.47,7.66,2.84,10.07a5.46,5.46,0,0,0,3.79,1.89,3.7,3.7,0,0,0,1.36-.26C376.19,273,376.87,269.47,376.33,266.66Zm-3.94,7c-1.83.72-3.52-.6-4.36-1.46-2.22-2.25-3.83-6.52-2.69-9.28.65-1.57,2.08-2.38,4.25-2.4h0c3,0,5.38,3.18,6,6.27C376.24,270.06,375,272.63,372.38,273.67Z"/><path class="cls-1" d="M377.58,258.09a6.14,6.14,0,0,1-1-.08c-2.75-.45-4.8-2.3-7-4.26a29.14,29.14,0,0,0-3.3-2.7,11.15,11.15,0,0,0-1,2,6,6,0,0,1-5.27,3.76h-.32a7.23,7.23,0,0,1-5.28-2.55l-1.6-.66.37-.89a14.92,14.92,0,0,1-.91-1.55c-2.25-4.43-.57-7.35.25-8.39,4.49-5.67,9.23-8.54,14.12-8.54a12.19,12.19,0,0,1,2,.16c8.18,1.33,12.54,10.21,14.41,15.38a6.14,6.14,0,0,1-.93,6.19A5.85,5.85,0,0,1,377.58,258.09Z"/><path class="cls-1" d="M359.7,251.54h0a.76.76,0,0,0,.69-.5h0c1.33-3.22,2.91-5.05,4.69-5.46,2.68-.6,5.54,2,8.07,4.24,1.65,1.49,3.08,2.77,4.27,3h.15a.6.6,0,0,0,.48-.21,1,1,0,0,0,0-1c-1.19-3.29-4.58-11-10.31-12-3.53-.58-7.26,1.59-11.1,6.44-.57.72-.05,2,.31,2.73C357.54,249.86,358.75,251.54,359.7,251.54Zm-2.44-5c3.66-4.62,7.17-6.7,10.4-6.17,5.5.89,8.84,9,9.73,11.49a1.51,1.51,0,0,1,.06.22c-1-.22-2.35-1.46-3.81-2.77-2.37-2.13-5-4.52-7.73-4.52a4.44,4.44,0,0,0-1,.11c-2.05.46-3.75,2.39-5.2,5.89l.34.14-.36-.09c-.17,0-1-.52-1.73-1.77S357,246.81,357.26,246.51Z"/><path class="cls-1" d="M310.43,258.81a6.28,6.28,0,0,1-3.8-1.29,6.19,6.19,0,0,1-1.86-7.58l.21-.47c1.63-3.64,5.3-11.83,17.56-11.83,5.24,0,11.46,1.47,19,4.5a6.24,6.24,0,0,1,3.85,5.2c.38,3.37-1.77,8.15-4.5,10a6.4,6.4,0,0,1-3.64,1.16,6.13,6.13,0,0,1-2.73-.65c-5.13-2.63-9.38-3.95-12.68-3.95s-5.12,1.45-6.91,3l-.46.39A6.26,6.26,0,0,1,310.43,258.81Z"/><path class="cls-1" d="M310.43,253.53a1,1,0,0,0,.63-.24l.45-.38c3.49-3,9.32-8,25.39.25a.94.94,0,0,0,1-.14,7.5,7.5,0,0,0,2.25-5.09,1,1,0,0,0-.57-.89c-23.5-9.43-27.54-.4-29.72,4.46l-.3.67a.93.93,0,0,0,.28,1.16A1,1,0,0,0,310.43,253.53Zm-.21-1.05.31-.68c1.41-3.14,3.64-8.12,12.09-8.12,4,0,9.36,1.11,16.69,4.05.05,0,.1.13.11.29a7.06,7.06,0,0,1-1.94,4.41s-.19.13-.25.09c-16.51-8.46-22.58-3.26-26.2-.15l-.44.38a.23.23,0,0,1-.3,0A.2.2,0,0,1,310.23,252.48Z"/><path class="cls-1" d="M207,577.06a5.67,5.67,0,0,1-5.63-5.23c-2.81-37.62-6-80.27,3.83-117.6,10.21-38.77,33-68.79,71.43-94.13a28.34,28.34,0,0,1-1.57-5.75,106.91,106.91,0,0,1-1-11c-24.69-3.5-60.22-15.5-56.15-55.78,2.32-22.91,15.38-29.44,30.49-37,11.15-5.58,25-12.52,39.49-28.2,19.6-21.23,40.12-32.46,59.35-32.46a49.11,49.11,0,0,1,5.5.31c18.72,2.09,22.72,16.56,25.38,26.14,1.1,4,2.13,7.7,3.73,9.55,1.75,2,3.92,4.43,6.22,7,7.05,7.81,15.8,17.49,20.19,25.07,2.55,4.4,8.13,10,14,15.92,6.15,6.17,13.08,13.13,17.63,20l.45.32.42,1c4.16,6.82,5.42,12.84,3.84,18.38-2.73,9.6-19.78,18.89-30,23.68q.06.61.12,1.2A6.57,6.57,0,0,1,415,341c.54,9.56-1,17-4.76,22.69-1.29,2-3.69,4.28-8.3,7.94-.14.87-.34,2.08-.6,3.51A125.4,125.4,0,0,1,449.65,414l.43.28.46.92a154.66,154.66,0,0,1,11.57,18.11c18,32.91,28.09,77,31,134.71a5.7,5.7,0,0,1-1.57,4.19,5.61,5.61,0,0,1-4,1.74l-44.31.48a5.61,5.61,0,0,1-3.32,1.07,5.68,5.68,0,0,1-3.21-1L207,577.06Zm77.35-208.5c-36.93,23.94-58.64,52.15-68.22,88.55-8.33,31.63-6.94,66.58-3.88,108.59l99.85-1.09a206.05,206.05,0,0,1-23.69-25.95c-5.64-7.3-54.93-72.63-48.78-117.2,1.27-9.2,9.25-19.46,24.38-31.35a237.7,237.7,0,0,1,23.72-16.17q-.17-1.81-.26-3.59l-.12-.43C286.22,369.47,285.22,369,284.31,368.56Zm5.12,17.59c-4.23,2.66-9.64,6.23-15.1,10.31-20,15-23.13,23.54-23.54,26.53-1.86,13.48,2.74,32.42,13.29,54.79a306.59,306.59,0,0,0,33.24,54,185.58,185.58,0,0,0,31.94,32.67l108.51-1.19c8-11.34,17.32-29.82,19.65-56.2,2.4-27.22-3.18-56.12-16.59-85.93a114.28,114.28,0,0,0-41.92-34.59c-2.09,8.38-4,12.14-5.11,14-.77,4.82-1.64,7.39-2.39,8.86a54,54,0,0,1-2.06,9.73c16.05,29.7,25.41,58.57,27.09,83.62,1.47,21.91-3.14,40.24-12.64,50.27C399,558,393.16,560.72,387,560.72a22.43,22.43,0,0,1-9.78-2.31c-8.26-4-23-17.61-46.43-60-15.37-27.82-29.46-59.55-36-81C290.57,408.42,288.77,397.91,289.42,386.15Zm179.11,93.37a156.33,156.33,0,0,1,.14,28.5c-2.14,24.24-9.76,42.47-17.33,55.06l30.13-.33C479.56,530.58,475.28,503,468.54,479.52Zm-153.4-39.37a543.15,543.15,0,0,0,25.52,52.79c24.67,44.67,38,53.61,41.44,55.29a11.43,11.43,0,0,0,4.95,1.22c3,0,5.87-1.44,8.55-4.27,7.23-7.64,10.81-23.24,9.57-41.75-1.43-21.27-8.9-45.73-21.71-71.23A52.13,52.13,0,0,1,371.54,446c-5.56,4.44-11.3,6.79-16.6,6.79a17.07,17.07,0,0,1-2.33-.16C337.48,450.58,325,446.39,315.13,440.15Zm-8-23.59c8.16,13.35,23.95,21.73,47,24.92a5.61,5.61,0,0,0,.79.05c2.63,0,6.1-1.57,9.54-4.32a43.58,43.58,0,0,0,12.41-17c-9.21,5.4-19.84,9.58-32.21,9.63h-.33C329.62,429.88,316.85,425.16,307.16,416.56Zm-3.34-35.64a60.06,60.06,0,0,0,14.46,17.95A48.18,48.18,0,0,0,335.07,408c-1.86-.82-3.84-1.77-6-2.88C322.37,401.65,311.53,389.9,303.82,380.91Zm24.33,9.38a33.12,33.12,0,0,0,6.17,4.84c8.85,4.61,13.5,5.55,17.75,5.55a66.81,66.81,0,0,0,8.36-.75l.3,0c2.21-.28,6.2-2.42,10.87-5.48a80.2,80.2,0,0,1-16,1.5C350.15,395.91,336.67,395.36,328.15,390.3Zm-11-11.38c2.3,2.56,4.55,5,6.66,7.14a28.81,28.81,0,0,1-1.48-2.75,10.59,10.59,0,0,0-1.25-2.18A15.9,15.9,0,0,0,317.16,378.92Zm12.95-4.63a21.61,21.61,0,0,1,2.4,4.07,10.94,10.94,0,0,0,1.18,2.09c4,2.55,12.67,4.22,22,4.22,9.65,0,18.6-1.78,22.43-4.44.07-.21.16-.55.23-.81a12.84,12.84,0,0,1,2.84-5.67c-7.57,3-17.39,3.62-24.3,3.62a113.12,113.12,0,0,1-26.09-2.89ZM312.54,230.47c-1.69,4.51-3.86,19-2.69,23.66,2.94,11.73-1.26,28-5.71,45.28s-9.44,36.66-4.65,45.93c.74,1.44,3.63,5.35,14.29,10.66a109.16,109.16,0,0,0,19.79,7.51,102.78,102.78,0,0,0,23.32,2.55c8.36,0,15.52-1,20.15-2.84,8.36-3.31,23.59-18.8,26.5-23.6-.13-1.51-.33-3.1-.58-4.76-.5-3.28-1.2-6.83-2.16-10.82l-.49-1.23.09-.4c-1.72-6.88-3.86-13.9-5.93-20.7-3.15-10.35-6.13-20.1-7-27.7a15.74,15.74,0,0,1,1.1-7,12.89,12.89,0,0,0,.6-2.19c-.92-8.44-13.77-26.69-21.15-30a87.51,87.51,0,0,0-35.09-7.65A60.39,60.39,0,0,0,312.54,230.47ZM295.73,360.9c2.23.69,4.65,1.35,7.08,2-5.88-3.53-11-7.7-13.36-12.35-6.78-13.1-1.43-33.86,3.74-53.94,3.28-12.75,6.42-24.92,6.35-33.85-5.71,22.15-10.22,40-12.53,55.45l.11.29-.35,1.38a142,142,0,0,0-1.45,17.07,5.62,5.62,0,0,1,.16,2,5.68,5.68,0,0,1-.18,1,96.65,96.65,0,0,0,.93,12.92,15.77,15.77,0,0,0,1.61,4.79,19.19,19.19,0,0,0,3.64,1.84h.42A5.62,5.62,0,0,1,295.73,360.9ZM262.38,256.07c-3.12,1.68-6.1,3.17-8.91,4.58-15.06,7.54-22.61,11.32-24.31,28-2.42,23.92,12.72,38.45,45,43.25.17-3,.43-6,.8-9.2-8.68-3-25.1-10.75-27.72-27.22C245.25,282.78,251.81,269.35,262.38,256.07Zm150.37,69.59c11.19-5.64,20.11-12,21-15.1a6,6,0,0,0,.21-1.72c-7,7.61-14.08,13.22-21.24,16.74ZM400.3,266.42a22.57,22.57,0,0,1-1.07,4.13,12.47,12.47,0,0,0-.6,2.19c.8,6.53,3.63,15.82,6.63,25.66,1.59,5.21,3.21,10.53,4.68,15.88,6.2-3.51,12.5-9.08,18.81-16.63-3.87-5.18-9.24-10.57-14.46-15.81C408.9,276.43,403.76,271.28,400.3,266.42Zm-111-22.7c-16.43,15.64-33.2,35-30.82,50,1.52,9.55,11.63,15,18.23,17.56,2.71-15.69,7.33-33.58,13-55.53l.79-3a20.49,20.49,0,0,0-.47-3.8A49.84,49.84,0,0,1,289.26,243.72Zm43.65-27.8a98,98,0,0,1,35.27,6.79c-.33-1.11-.64-2.24-1-3.35-2.86-10.34-5.16-16.74-15.74-17.92a37.9,37.9,0,0,0-4.19-.23,43.18,43.18,0,0,0-10.94,1.47,142.71,142.71,0,0,0-17.83,14.52A78,78,0,0,1,332.91,215.92Z"/><path class="cls-1" d="M457.48,435.88A148.1,148.1,0,0,0,446,418v0l0,0a121.14,121.14,0,0,0-50.67-39.7c1-4.76,1.52-8.52,1.58-8.89a.35.35,0,0,0-.23-.37c4-3.12,7.8-6.22,9.11-8.22,3.44-5.24,4.38-12.24,3.86-20.13,0-.07,0-.14.06-.2a1.07,1.07,0,0,0-.12-.79c-.14-1.8-.36-3.65-.64-5.53,3-1.32,28-12.58,30.61-21.93,1.29-4.53-.33-9.47-3.49-14.53,0,0,0,0,0-.05h0c-4.19-6.7-11.07-13.61-17.47-20-6.16-6.18-12-12-14.86-17C399.57,253.5,391,244,384.18,236.45c-2.33-2.58-4.53-5-6.33-7.1-2.37-2.75-3.56-7-4.82-11.59-2.67-9.66-5.71-20.6-20.88-22.3-19.1-2.15-40,8.4-60.38,30.48-15.13,16.39-29.48,23.57-41,29.34-14.85,7.43-25.57,12.8-27.6,32.81-2.92,28.84,16.48,46.31,56.1,50.57a104,104,0,0,0,1,15c.29,2.05,1.59,6.47,3.37,8.24-39.83,25.15-63.15,54.94-73.36,93.73-9.61,36.47-6.45,78.65-3.67,115.86a.37.37,0,0,0,.37.34h0l120.38-1.32h0l112.58-1.23-.33.45a.37.37,0,0,0,.07.51.36.36,0,0,0,.22.08.36.36,0,0,0,.29-.14l.68-.9,46.59-.51a.37.37,0,0,0,.36-.39C485,511.4,475,468.08,457.48,435.88ZM393.14,384.7c-1.56,1.33-22.8,19.3-31.72,20.44l-.32,0c-9.79,1.26-15.18,2-29.22-5.36-8.32-4.33-26.56-26.41-30.34-31.05l2.21.57c8.19,2.12,16.66,4.31,20.75,7.75a11.52,11.52,0,0,1,2.59,3.9c.83,1.7,1.69,3.46,3.33,4.5,5.42,3.44,15.33,5.14,25.23,5.14,10.54,0,21.09-1.92,26.22-5.71a6.36,6.36,0,0,0,2.27-3.93,6.81,6.81,0,0,1,1.71-3.44c1.31-1.28,4.15-3.44,7.16-5.73l3.15-2.41C396,370.45,394.88,377.62,393.14,384.7Zm-9.87,35.79c16.12,29.46,25.51,58,27.16,82.6,1.36,20.24-2.65,36.91-11,45.73-5.72,6-12.69,7.52-19.63,4.18-10.4-5-26.36-26-43.77-57.5C321.61,469.38,308.39,440,301.59,419c8.95,15.24,26.36,24.9,51.75,28.42a11.89,11.89,0,0,0,1.61.11c4,0,8.7-2,13.3-5.63A50.29,50.29,0,0,0,383.27,420.48Zm-15.48,20.86c-5.06,4-10.17,6-14.35,5.37-27.06-3.75-45-14.54-53.09-31.67l0-.15s0,0-.05-.06c-3.7-7.89-5.34-17.12-4.85-27.62,6.56,23.47,24.26,37.39,49,37.39h.3c16.27-.07,29.23-7.88,40.8-16.44C384.16,420.8,377.29,433.75,367.79,441.34Zm17.92-34.28h0l0,0c-11.63,8.67-24.65,16.69-41,16.77h-.3c-25.09,0-42.84-14.6-48.82-39.05,0-.11,0-.21,0-.31a.34.34,0,0,0-.18-.31c-.53-2.26-.95-4.61-1.27-7l.74-.42a.37.37,0,0,0,.14-.5.36.36,0,0,0-.5-.14l-.49.28c-.16-1.32-.31-2.65-.41-4a68.86,68.86,0,0,0,20.85,31.14A52.79,52.79,0,0,0,348.62,416a57.15,57.15,0,0,0,8.32-.62c8.41-1.23,24.57-9.14,30.91-16C387.36,402.5,386.48,406.49,385.7,407.07Zm2.41-9c-5.56,6.9-22.61,15.36-31.28,16.63a52.23,52.23,0,0,1-41.92-11.77C304.15,394,296.25,381,292.55,366.21c2.4.79,5,1.52,7.78,2.25,1.53,1.9,22,27.21,31.21,32s14.94,6.24,20.48,6.24a72.34,72.34,0,0,0,9.17-.81l.32,0c8.5-1.09,27-16.33,31.32-19.95C391.53,391,389.91,395.83,388.12,398.06ZM308.89,226.21a63.82,63.82,0,0,1,24-4.29A93.28,93.28,0,0,1,370.1,230c9.08,4,23.15,23.89,24.27,34.3a11,11,0,0,1-.84,4.34,11.29,11.29,0,0,0-.87,4.72c.87,7.15,3.78,16.69,6.86,26.8,2.21,7.25,4.52,14.82,6.31,22.19,0,0,0,0,0,0h0c1,4,1.78,7.9,2.35,11.67h0c.29,1.94.52,3.83.67,5.68a.31.31,0,0,0,0,.11c0,.24,0,.48.05.72C407.63,345,389.47,364,379,368.13c-12.43,4.92-35.11,3.45-46.71.5a114.87,114.87,0,0,1-20.85-7.9c-6.1-3-13.93-7.74-16.63-13-5.72-11.06-.67-30.69,4.22-49.67,4.27-16.59,8.31-32.26,5.7-42.68-1.63-6.5,1.35-25.55,4-29A1.69,1.69,0,0,1,308.89,226.21ZM438.84,312c-2.49,8.76-26.47,19.79-30,21.38-.55-3.54-1.32-7.2-2.21-10.91,9.73-3.64,19.53-11.69,29.14-23.91C438.6,303.28,440,307.85,438.84,312ZM352.08,196.18c14.67,1.64,17.64,12.33,20.25,21.77,1.28,4.63,2.49,9,5,11.87,1.8,2.09,4,4.53,6.34,7.12,6.84,7.57,15.35,17,19.42,24,2.94,5.07,8.79,10.94,15,17.15s13.15,13.2,17.31,19.79c-9.55,12.2-19.28,20.23-28.91,23.86-1.78-7.25-4-14.68-6.21-21.81-3.07-10.07-6-19.59-6.83-26.67a10.8,10.8,0,0,1,.84-4.4,11.49,11.49,0,0,0,.88-4.65c-1.17-10.81-15.25-30.7-24.7-34.89-21-9.3-44.45-10.64-61.25-4h0a1,1,0,0,0-.58.22,44,44,0,0,0-6.73,3.43c-9,5.65-7.63,13.39-6.64,19,.42,2.4.79,4.48.39,6l-.79,3c-6.44,25-11.43,44.32-13.86,61.15-3.18-.81-25-6.93-27.69-23.67-3.49-22,24.37-48.27,50.76-71.19,3-2.6,5.76-5.19,8.43-7.71,6.06-5.7,12.34-11.6,21.68-17.86v0A46.88,46.88,0,0,1,352.08,196.18Zm-128.18,92c2-19.62,12-24.63,27.2-32.23,11.59-5.8,26-13,41.22-29.5,13.16-14.26,26.51-23.63,39.43-27.88a165.31,165.31,0,0,0-19.84,16.59c-2.67,2.51-5.42,5.1-8.41,7.69-26.54,23-54.56,49.51-51,71.86,2.75,17.29,25.27,23.52,28.31,24.29a145.93,145.93,0,0,0-1.53,18.94C240.18,333.7,221,316.51,223.9,288.16ZM281,353.51a103.22,103.22,0,0,1-1-14.85.32.32,0,0,0,0-.6,145.6,145.6,0,0,1,1.56-19.27h0s0,0,0,0c2.41-16.89,7.42-36.32,13.91-61.48l.79-3c.44-1.7.06-3.85-.37-6.34-1-5.75-2.26-12.9,6.31-18.29a42.71,42.71,0,0,1,5.4-2.82c-2.61,5-5.21,22.39-3.61,28.8,2.56,10.24-1.45,25.82-5.7,42.32-4.92,19.12-10,38.89-4.17,50.2,5.16,10,28.22,18.76,37.95,21.24a108.44,108.44,0,0,0,24.79,2.73c8.25,0,16.46-.91,22.37-3.26,9.77-3.87,26.13-20.5,29.74-26.72.31,7.17-.68,13.5-3.82,18.29-1.64,2.5-7.72,7.13-12.61,10.85-3.16,2.4-5.88,4.48-7.22,5.79a7.5,7.5,0,0,0-1.91,3.77,5.7,5.7,0,0,1-2,3.54c-9.79,7.22-39.6,7.54-50.62.54-1.46-.93-2.24-2.52-3.06-4.2a12.07,12.07,0,0,0-2.78-4.14c-4.21-3.55-12.77-5.76-21-7.9-4-1-8.05-2.08-11.59-3.28,0-.13-.07-.25-.1-.38a.36.36,0,0,0-.7.11,27.44,27.44,0,0,1-7.11-3.45C282.72,360.34,281.3,355.73,281,353.51ZM211,455.76c10.18-38.66,33.46-68.34,73.23-93.41a29.65,29.65,0,0,0,7.52,3.56q.44,1.8,1,3.55c.11,2.5.33,4.93.63,7.29-7.38,4.25-46,27.27-48.49,45.42-4.75,34.46,27.76,87.4,47.73,113.24a190.65,190.65,0,0,0,33.76,34.31l-119,1.3C204,526.28,202.13,489.36,211,455.76Zm116.49,114A189.36,189.36,0,0,1,293.13,535,312.08,312.08,0,0,1,259.3,480c-11-23.29-15.75-43.26-13.75-57.76,1.1-7.95,10-18.34,25.61-30a245.66,245.66,0,0,1,22.26-14.68q.53,3.8,1.38,7.35c-.87,11.74.8,22,4.92,30.6,6.38,21.13,20.34,52.6,35.66,80.35,23.94,43.35,37.9,54.83,44.1,57.81a17.19,17.19,0,0,0,7.49,1.78c4.66,0,9.17-2.08,13-6.12,8.49-9,12.58-25.84,11.21-46.29-1.67-24.86-11.19-53.71-27.55-83.46a49.19,49.19,0,0,0,2.66-12.06c1.3-1.33,2.26-7.59,2.48-9.08,2.72-3.48,5-12.37,6.43-19.42a120.41,120.41,0,0,1,50.22,39.38c14,30.83,19.78,60.81,17.28,89.1-2.57,29.1-13.29,49.07-22.2,61Zm113.93-1.25c8.89-12.05,19.45-32,22-60.92,2.43-27.5-3-56.57-16-86.46a149.62,149.62,0,0,1,9.45,15.13c17.48,32,27.36,75.12,30.22,131.74Z"/><path class="cls-1" d="M351.43,344.33a8.64,8.64,0,0,1-1.26-.09c-7.95-1.12-19.6-9.55-23.26-19.16-2.42-6.35,1.15-15.79,2.55-19.06.15-12.84,2.58-24.55,8.27-40.07a13.16,13.16,0,0,1,7.46-7.41,13.48,13.48,0,0,1,2.37-.73l.35-.17.91,0a12.25,12.25,0,0,1,1.48-.09,9,9,0,0,1,3.81.79c11.92,5.53,21.25,20.84,23.75,39,1.44,10.42.46,20.12-2.82,28.09a9.42,9.42,0,0,1-.71,1.58,32.06,32.06,0,0,1-7,9.85l-.29.73-1.47.73C362.71,340.25,356.19,344.33,351.43,344.33Zm1.51-73.56c-5.31,17.53-6.66,30.21-4,37.76s8.29,13.41,11.91,14.23H361a6.32,6.32,0,0,0,3.44-1.36c2.61-6.09,3.4-14.08,2.23-22.58C365,286.69,359.67,276,352.93,270.77Z"/><path class="cls-1" d="M331.85,323.19c2.93,7.68,12.84,14.94,19.08,15.82a3.46,3.46,0,0,0,.5,0c3.8,0,11.18-5.12,11.5-5.35h0a26.4,26.4,0,0,0,6.69-9.17,4.08,4.08,0,0,0,.44-1c2.93-7,3.88-15.87,2.55-25.54-2.27-16.41-10.41-30.12-20.74-34.92a4.74,4.74,0,0,0-2.58-.22h-.05a8.65,8.65,0,0,0-2,.55,7.89,7.89,0,0,0-4.53,4.35c-6.22,17-7.93,28.06-8,39.4C332.64,311.52,330.37,319.33,331.85,323.19ZM351,338.28c-6-.85-15.74-8.1-18.5-15.35-1.23-3.23.44-9.7,2.22-14,0,1.43.06,2.86.12,4.32.29,6.64,11.11,17.68,17.47,20.58a16.16,16.16,0,0,0,5.86,1,14.08,14.08,0,0,0,1.78-.12C357.31,336.36,353.2,338.58,351,338.28Zm-.8-74.79a3.22,3.22,0,0,1,1.34.25c10.11,4.69,18.09,18.18,20.33,34.35,1.37,9.93.3,19-2.86,26-1.47,2.45-6.26,4.53-9.36,3.83-5.9-1.33-12.66-8.91-15.73-17.63-5-14.1,3-38.38,5.74-46.71C349.86,263.54,350.06,263.5,350.24,263.5ZM343.38,268a7.16,7.16,0,0,1,4.12-3.92,8.35,8.35,0,0,1,1.38-.43c-4.65,14.12-10.13,34.06-5.63,46.86,3.14,8.94,10.14,16.72,16.26,18.1a7,7,0,0,0,1.54.16,12,12,0,0,0,6.83-2.4,24.65,24.65,0,0,1-5.39,6.72l-.43.29c-2.1,1.16-7.23.77-9.41-.22-3-1.36-7.19-4.73-10.67-8.58-3.92-4.33-6.25-8.47-6.37-11.36C335,299.64,336.1,287.88,343.38,268Z"/><g id="_Group_" data-name="&lt;Group&gt;"><path class="cls-2" d="M488,568.3l-46.76.51c23.21-30.95,35-84.63,5-150.67C468.83,448.23,484.34,495.09,488,568.3Z"/><path class="cls-3" d="M446.26,418.14c29.93,66,18.16,119.72-5,150.67L327.9,570.05a189,189,0,0,1-34.51-34.9c-22.28-28.82-52.18-80.18-47.65-113,2.49-18,41.79-41.38,48.51-45.26a72.31,72.31,0,0,0,1.47,8c-.84,11.37.75,21.45,4.79,30.06,12.56,42,56.22,127,79.68,138.33,26.08,12.54,53.54-43,3.59-133.7a48.47,48.47,0,0,0,2.7-12.27c1.34-1,2.48-9.07,2.48-9.07,2-2.43,3.72-7.88,5.06-13.4.55-2.18,1-4.37,1.44-6.4a120.75,120.75,0,0,1,50.78,39.67S446.26,418.13,446.26,418.14Z"/><path class="cls-4" d="M436.34,297.87c3.09,5,4.66,9.78,3.4,14.2-2.76,9.69-30.68,21.81-30.68,21.81-.57-3.78-1.38-7.71-2.34-11.67Q421.61,316.78,436.34,297.87Z"/><path class="cls-5" d="M436.34,297.87q-14.72,18.92-29.62,24.34c-4.34-17.88-11.68-36.79-13.16-48.93-.34-2.87,2-6.17,1.72-9-.87-8.06-9.53-22.08-17.81-29.82l3.58-1.54c7.37,8.26,18.08,19.6,22.87,27.86C409.92,271.09,428.3,285,436.34,297.87Z"/><path class="cls-6" d="M292.58,365.6a29.31,29.31,0,0,1-7.82-3.73c-1.82-1.36-3.27-6.1-3.58-8.34a105,105,0,0,1-1-15.24,144.32,144.32,0,0,1,1.59-19.61c2.51-17.66,7.85-38,14.69-64.56,1.3-5-5-15,3.25-22.69a19.52,19.52,0,0,1,2.85-2.16,42.84,42.84,0,0,1,6.69-3.42c-2.66,2.2-6.09,22.57-4.34,29.61,5.65,22.54-20.57,71.79-9.9,92.44,5,9.58,27.26,18.39,37.72,21,11.36,2.88,34.15,4.54,46.92-.51,10.38-4.11,28.72-23.1,30.16-27.77.51,7.8-.41,14.73-3.79,19.87-1.3,2-5.18,5.18-9.26,8.32-4.31,3.32-8.81,6.61-10.62,8.38-2.37,2.32-1.28,5.37-3.94,7.34-10.27,7.57-40.26,7.4-51,.56-2.91-1.85-3.25-6.16-5.88-8.38-4.7-4-14.88-6.22-24.2-8.68C298.08,367.3,295.18,366.5,292.58,365.6Z"/><path class="cls-7" d="M409.74,339.74c0,.31.07.62.07.92-1.43,4.67-19.78,23.66-30.16,27.77-12.77,5.06-35.56,3.4-46.92.51-10.47-2.66-32.76-11.47-37.72-21-10.68-20.65,15.54-69.9,9.9-92.44-1.75-7,1.68-27.41,4.34-29.61a0,0,0,0,1,0,0c17-7,40.6-5.45,61.53,3.8a25.47,25.47,0,0,1,6.67,4.77c8.28,7.75,16.94,21.76,17.81,29.82.31,2.87-2.06,6.17-1.72,9,1.48,12.14,8.82,31.05,13.16,48.93,1,4,1.77,7.89,2.34,11.67C409.38,335.89,409.61,337.84,409.74,339.74ZM378,252.38c.44.08.41-.31.26-.72-2.39-6.59-9.51-19.64-20.77-5.41-1,1.24,2.49,6.08,3.1,4.6C366.23,237.32,374.18,251.75,378,252.38Zm-.07,93-.94-2.78c-1.39.47-33.67,11-57-19.24a7.86,7.86,0,0,1,3.67-1l0-2.94c-4,0-8,2.58-12.52,8.06l2.27,1.87a31.85,31.85,0,0,1,4.15-4.29c14.53,18.88,32.73,22.64,45.34,22.51A53.2,53.2,0,0,0,378,345.41ZM373.06,274c6.81-2.67,3-13.9-2.94-13.84C360.24,260.24,367.13,276.31,373.06,274Zm-2.75,49.32c8.15-19.66-.58-51.83-18-59.93a4.39,4.39,0,0,0-2.31-.22c-2.4.33-5.41,2-6.39,4.71-6.39,17.48-7.92,28.7-7.92,39.37h0c-2.15,4.46-4.29,12.17-2.91,15.8,2.86,7.47,12.62,14.72,18.8,15.59,3,.42,9.59-3.8,11.31-5l.42-.28a25.58,25.58,0,0,0,6.61-9.07h0A3.55,3.55,0,0,0,370.31,323.29Zm-32.7-70.5c1.21.62,3.65-4.94,2.38-5.46-24.3-9.75-27.42.34-29.55,4.95a.6.6,0,0,0,.93.69C315,249.91,320.64,244.08,337.61,252.79Zm-9,21.66c8.38-.09,7.58-14,.64-13.88C320,260.68,320.16,274.55,328.66,274.46Z"/><path class="cls-8" d="M396.76,368.86l.33.42s-.59,4-1.63,9.16c-.42,2-.89,4.22-1.44,6.4,0,0-22.57,19.4-32,20.61-10.09,1.3-15.46,2.09-29.76-5.36-9.43-4.92-31.16-32-31.16-32,9.32,2.45,19.5,4.72,24.2,8.68,2.62,2.22,3,6.53,5.88,8.38,10.78,6.84,40.77,7,51-.56,2.66-2,1.57-5,3.94-7.34C388,375.48,392.45,372.18,396.76,368.86Z"/><path class="cls-9" d="M394,384.85c-1.35,5.52-3.09,11-5.06,13.4-5.6,6.95-22.69,15.47-31.51,16.77-31.32,4.58-55.55-17.45-63.86-45.64q-.55-1.87-1-3.78c2.61.9,5.51,1.7,8.51,2.49,0,0,21.73,27.1,31.16,32,14.29,7.45,19.67,6.65,29.76,5.36C371.45,404.25,394,384.85,394,384.85Z"/><path class="cls-9" d="M294.24,376.93c-.32-2.42-.54-4.94-.66-7.55,8.31,28.2,32.54,50.23,63.86,45.64,8.82-1.3,25.9-9.83,31.51-16.77,0,0-1.14,8.07-2.48,9.07-11.53,8.6-24.64,16.8-41.26,16.86-23.87.11-43.17-13.25-49.5-39.28A72.31,72.31,0,0,1,294.24,376.93Z"/><path class="cls-9" d="M383.77,419.59c49.95,90.75,22.49,146.24-3.59,133.7C356.72,542,313.06,456.95,300.5,415c8,17,25.72,28.24,53.43,32.08C363.81,448.41,377.82,436.29,383.77,419.59Z"/><path class="cls-8" d="M386.47,407.32a48.47,48.47,0,0,1-2.7,12.27c-6,16.7-20,28.81-29.84,27.44-27.71-3.84-45.42-15-53.43-32.08-4-8.6-5.64-18.68-4.79-30.06,6.33,26,25.64,39.4,49.5,39.28C361.83,424.12,374.94,415.92,386.47,407.32Z"/><path class="cls-5" d="M309.26,225.83a0,0,0,0,0,0,0,42.84,42.84,0,0,0-6.69,3.42,19.52,19.52,0,0,0-2.85,2.16l-3.42-1.33c2.67-2.39,5.35-4.74,8-7,9.8-8.49,16.67-16.55,30.14-25.58a0,0,0,0,1,0,0,47,47,0,0,1,18.23-1.7c22.15,2.47,18,25.14,25.46,33.76.89,1,1.87,2.15,2.93,3.33l-3.58,1.54a25.47,25.47,0,0,0-6.67-4.77C349.87,220.38,326.29,218.82,309.26,225.83Z"/><path class="cls-5" d="M378.29,251.66c.15.41.18.81-.26.72-3.85-.63-11.81-15.06-17.41-1.53-.62,1.47-4.09-3.36-3.1-4.6C368.78,232,375.9,245.06,378.29,251.66Z"/><path class="cls-10" d="M377,342.63l.94,2.78a53.2,53.2,0,0,1-15.07,2.16c-12.61.14-30.81-3.63-45.34-22.51a31.85,31.85,0,0,0-4.15,4.29l-2.27-1.87c4.51-5.48,8.51-8.08,12.52-8.06l0,2.94a7.86,7.86,0,0,0-3.67,1C343.35,353.62,375.64,343.1,377,342.63Z"/><path d="M370.12,260.13c5.9-.06,9.75,11.17,2.94,13.84C367.13,276.31,360.24,260.24,370.12,260.13Z"/><path class="cls-11" d="M352.28,263.36c17.45,8.1,26.19,40.27,18,59.93-.14.32-.27.65-.43,1h0c-1.6,2.59-6.48,4.67-9.73,3.94-5.84-1.32-12.78-8.73-16-17.87-4.67-13.25,1.7-34.78,5.83-47.2h0A4.39,4.39,0,0,1,352.28,263.36Z"/><path class="cls-7" d="M369.88,324.27c.16-.32.29-.65.43-1A3.55,3.55,0,0,1,369.88,324.27Z"/><path class="cls-10" d="M369.87,324.28a25.58,25.58,0,0,1-6.61,9.07l-.42.28c-2.26,1.32-7.61.82-9.79-.17-6-2.75-17-13.61-17.26-20.26-.08-2-.13-4-.12-6,0-10.67,1.54-21.89,7.92-39.37,1-2.67,4-4.37,6.39-4.71h0c-4.12,12.42-10.49,34-5.83,47.2,3.21,9.14,10.15,16.55,16,17.87C363.39,328.95,368.27,326.87,369.87,324.28Z"/><path class="cls-6" d="M353,333.47c2.18,1,7.53,1.49,9.79.17-1.72,1.16-8.26,5.39-11.31,5-6.17-.87-15.94-8.12-18.8-15.59-1.38-3.63.76-11.34,2.91-15.8h0c0,2,0,4,.12,6C336.07,319.85,347,330.71,353,333.47Z"/><path class="cls-5" d="M340,247.34c1.27.51-1.17,6.08-2.38,5.46-17-8.71-22.64-2.88-26.24.18a.6.6,0,0,1-.93-.69C312.57,247.68,315.69,237.59,340,247.34Z"/><path d="M329.3,260.58c6.94-.08,7.74,13.79-.64,13.88S320,260.68,329.3,260.58Z"/><path class="cls-2" d="M327.9,570.05l-120.39,1.32c-6.28-84-9.71-154.81,77.24-209.5a29.31,29.31,0,0,0,7.82,3.73q.46,1.91,1,3.78c.12,2.61.34,5.13.66,7.55-6.71,3.88-46,27.26-48.51,45.26-4.53,32.78,25.38,84.14,47.65,113A189,189,0,0,0,327.9,570.05Z"/><path class="cls-4" d="M334.42,197.49c-13.47,9-20.34,17.09-30.14,25.58-2.65,2.29-5.32,4.64-8,7-23.11,20.66-46.06,44.48-42.88,64.5,2.92,18.42,28.36,24.07,28.36,24.07a144.32,144.32,0,0,0-1.59,19.61c-36.54-3.84-59.25-19.17-56.1-50.19,3.56-35.23,33.83-24.37,68.51-61.95C306,211.61,320.32,201.52,334.42,197.49Z"/><path class="cls-5" d="M296.29,230.1l3.42,1.33c-8.28,7.65-2,17.64-3.25,22.69-6.84,26.51-12.18,46.9-14.69,64.56,0,0-25.44-5.65-28.36-24.07C250.23,274.58,273.18,250.75,296.29,230.1Z"/></g></svg>