<?xml version="1.0" encoding="utf-8"?>
<!-- Generator: Adobe Illustrator 20.0.0, SVG Export Plug-In . SVG Version: 6.00 Build 0)  -->
<svg version="1.1" xmlns="http://www.w3.org/2000/svg" xmlns:xlink="http://www.w3.org/1999/xlink" x="0px" y="0px"
	 viewBox="0 0 689.9 262.1" style="enable-background:new 0 0 689.9 262.1;" xml:space="preserve">
<style type="text/css">
	.st0{fill:#10213A;}
	.st1{fill:#F4E8C3;}
	.st2{fill:#8A9FBC;}
	.st3{fill:#CC8F7A;}
	.st4{fill:#F2B78B;}
	.st5{fill:#663A28;}
	.st6{fill:#9B7726;}
	.st7{fill:#D9E7ED;}
	.st8{fill:#AA593D;}
	.st9{fill:#EA6647;}
	.st10{fill:#AD3821;}
	.st11{fill:#D88361;}
	.st12{fill:#442318;}
	.st13{fill:none;stroke:#000000;stroke-miterlimit:10;}
	.st14{fill:none;}
	.st15{fill:#6A83A0;}
	.st16{fill:#CEBF97;}
	.st17{fill:#FFFFFF;}
	.st18{fill:#2A4277;}
	.st19{fill:#42311C;}
	.st20{fill:#CC8069;}
	.st21{fill:#E8A874;}
	.st22{fill:#E8DEC4;}
	.st23{fill:#F7EDD2;}
	.st24{fill:#E2D3AA;}
	.st25{fill:#AD9F7F;}
	.st26{fill:#C53739;}
	.st27{fill:#E29074;}
	.st28{fill:#301710;}
	.st29{fill:#AA6D5C;}
	.st30{fill:none;stroke:#222222;stroke-miterlimit:10;}
	.st31{fill:none;stroke:#222222;stroke-width:2;stroke-miterlimit:10;}
	.st32{fill:#7999D3;}
	.st33{fill:#824029;}
	.st34{fill:#CE9E7A;}
	.st35{fill:#1D79B7;}
	.st36{fill:#D8C99E;}
	.st37{fill:none;stroke:#E29074;stroke-miterlimit:10;}
	.st38{fill:none;stroke:#000000;stroke-width:0.5;stroke-linecap:round;stroke-linejoin:round;}
	.st39{fill:#EFE7D0;}
	.st40{fill:#B7A67D;}
	.st41{fill:#B2A893;}
	.st42{fill:#172D44;}
	.st43{fill:#466084;}
</style>
<g id="Layer_6">
</g>
<g id="Layer_1">
</g>
<g id="Layer_2">
</g>
<g id="Layer_4">
	<g>
		<g id="XMLID_21_">
			<g>
				<path class="st22" d="M609.4,143.7c-89.5,37.5-168.5,41.8-235.8,9.8l0,0c0,0,0,0,0,0c16-7.8,31.2-23.6,46.2-43.1l-1.7-17.7
					c37.7,5.2,71,4.5,103-2.1c2.7-0.5,9.6,0.9,9.6,0.9s3.4-3.9,5.8-4.6C562,80,586.9,69.4,612.9,55c1.2-0.7,2.8,0,3.1,1.4l9.4,45.2
					l9,27.4l1,3C626.6,136.2,617.9,140.1,609.4,143.7z"/>
				<path class="st23" d="M210.8,132.1c0,0-5.3,6.8-8.7,7.9c-31.5,10.6-62.5,23.8-92.4,39.4c-8.3,4.3-16.5,8.9-24.7,13.6
					c0,0-0.1,0.1-0.2,0.1c-0.1,0-0.3-0.1-0.3-0.2l-13.1-40.5v0l-12.2-37.7c-0.8-2.4,0.2-5.1,2.5-6.3
					c78.6-44.6,163.6-75.5,259.3-83.7c3-0.2,6.3,4,9.3,3.8c2.9-0.2,5.3-4.9,8.2-5c22.9-1.3,46.4-1.2,70.6,0.2
					c1.3,0.1,2.3,1.1,2.4,2.4l6.5,66.8l1.7,17.7c-13.6-1-27.3-1.4-41.1-1.3c-52.6,0.6-106.4,9.3-159,25.3
					C217.2,135.1,210.8,132.1,210.8,132.1z"/>
				<path class="st24" d="M674.1,149.4l-45.6,23l6.8-40.4l-1-3l-9-27.4l11.1-7.1c0,0,0.8,22.2,2.9,29.3
					C642.6,134.6,657.9,142,674.1,149.4z"/>
				<path class="st25" d="M635.3,132l-6.8,40.4l-19.1-28.8C617.9,140.1,626.6,136.2,635.3,132z"/>
				<path class="st25" d="M419.8,110.3c-14.9,19.5-30.2,35.3-46.2,43.1c0,0,0,0,0,0c0,0,0,0,0,0l5.1-44.3
					C392.5,108.9,406.2,109.4,419.8,110.3z"/>
				<path class="st25" d="M109.7,179.4l10.6,23c-8.4-8.5-19.8-12.2-35.5-9.2l0-0.1c0.1,0,0.1,0,0.2-0.1
					C93.2,188.3,101.4,183.7,109.7,179.4z"/>
				<path class="st24" d="M84.9,193.1c15.6-3,27.1,0.7,35.5,9.2l-76,37.3l27-33.2c0,0-3.7-1.4-13.4,1.4c-8.5,2.4-42.1-18-42.1-18
					c21.9-16.8,45.3-17.3,55.7-37.7l13.1,40.5c0.1,0.1,0.2,0.2,0.3,0.2L84.9,193.1z"/>
			</g>
		</g>
		<g>
			<path class="st18" d="M134.3,130.9l2.2-1.2l4.9,9.1l-21.8,11.6l-4.9-9.1l3.3-1.8l-3.3-4l-7.6,4l1.5,4.9l3.3-1.8l4.9,9.1L98,162
				l-4.9-9.1l2.2-1.2l-8.9-39.1l20.2-10.8L134.3,130.9z M105.3,133.1l5.1-2.7l-8.2-9.8l-0.6,0.3L105.3,133.1z"/>
			<path class="st18" d="M197.1,104.9l3.8,9.6l-18.5,7.4l-3.8-9.6l2.5-1l-3.8-9.6c-0.5-1.3-1.2-2.1-2-2.5c-0.8-0.4-1.7-0.4-2.8,0.1
				c-2.3,0.9-3,2.7-2,5.1l3.8,9.6l2.5-1l3.8,9.6l-18.4,7.4l-3.8-9.6l2.5-1l-3.8-9.6c-0.5-1.3-1.2-2.1-2-2.5
				c-0.8-0.4-1.7-0.4-2.8,0.1c-2.3,0.9-3,2.7-2,5.1l3.8,9.6l2.5-1l3.8,9.6l-18.5,7.4l-3.8-9.6l2.6-1l-5.3-13.3l-2.6,1l-3.8-9.6
				l16-6.4l1.8,4.6c1.4-4.7,4.2-7.9,8.4-9.6c2.4-1,4.5-1.2,6.5-0.7c1.9,0.5,3.6,1.7,5.1,3.4c0.6-2.6,1.6-4.8,3-6.6
				c1.4-1.8,3.3-3.2,5.7-4.2c3.2-1.3,6.1-1.3,8.5,0.1s4.4,3.8,5.8,7.4l4.9,12.3L197.1,104.9z"/>
			<path class="st18" d="M205.7,109.8c-4.1-2.1-7-6-8.7-11.7c-1.7-5.8-1.4-10.6,1-14.6c2.3-4,6.4-6.8,12.1-8.5
				c5.7-1.7,10.2-1.4,13.6,0.8c3.4,2.2,5.7,5.5,7,9.9l1.3,4.4L212.3,96l0.1,0.4c0.4,1.5,1.2,2.5,2.3,2.9c1.1,0.4,2.7,0.4,4.7-0.2
				c2.5-0.7,4.7-1.6,6.8-2.6c2.1-1,3.9-2,5.4-3.1l2.8,9.7c-1.2,1.2-3,2.5-5.6,3.9c-2.5,1.4-5.4,2.6-8.6,3.5
				C214.7,112.1,209.8,111.9,205.7,109.8z M217.4,87.2l-0.2-0.7c-0.4-1.4-1-2.3-1.7-2.7c-0.8-0.4-1.7-0.5-2.9-0.1
				c-1.2,0.3-2,0.9-2.4,1.7c-0.4,0.8-0.4,1.9,0,3.2l0.2,0.7L217.4,87.2z"/>
			<path class="st18" d="M258,63.3c0.8,0,1.4,0.1,2,0.2l2.7,11.7c-1.8-0.3-3.7-0.2-5.6,0.2c-2.6,0.6-4.4,1.7-5.5,3.4
				c-1.1,1.7-1.3,3.8-0.7,6.5l1.2,5.3l5.5-1.3l2.3,10.1l-22.4,5.1l-2.3-10.1l2.7-0.6l-3.2-14l-2.7,0.6l-2.3-10.1l16.8-3.9l1,4.5
				c0.8-2,1.8-3.6,3-4.9s2.9-2.1,5-2.6C256.4,63.4,257.2,63.3,258,63.3z"/>
			<path class="st18" d="M269.3,97.5l-1.8-10.2l2.7-0.5l-2.6-14.1l-2.7,0.5L263,63l17-3.1l4.4,24.3l2.7-0.5l1.8,10.2L269.3,97.5z
				 M265.4,59.1l-1.9-10.4l12.6-2.3l1.9,10.4L265.4,59.1z"/>
			<path class="st18" d="M294.5,89.1c-3.8-2.6-6-6.9-6.8-12.9c-0.8-6,0.2-10.7,3.2-14.3c2.9-3.6,7.3-5.7,13.2-6.5
				c2.9-0.4,5.7-0.4,8.4,0.1c2.7,0.4,4.9,1.1,6.5,1.9l1.7,12.4l-10.7,1.5l-0.2-1.1c-0.2-1.4-0.6-2.3-1.3-2.9
				c-0.7-0.6-1.6-0.8-2.9-0.6c-2.4,0.3-3.4,1.8-3.1,4.5l0.7,5.4c0.4,3.2,2.5,4.6,6.2,4.1c3.5-0.5,7.4-1.4,11.9-2.8l1.3,9.8
				c-1.3,0.8-3.2,1.6-5.7,2.5s-5.1,1.5-7.9,1.8C303.1,92.7,298.2,91.8,294.5,89.1z"/>
			<path class="st18" d="M360.5,75.7l0.8,10.3l-16.6,1.3l-0.3-4.3c-0.8,1.4-2,2.7-3.6,3.9c-1.6,1.2-3.5,1.9-5.9,2.1
				c-3.1,0.3-5.7-0.4-7.6-1.9s-3-3.8-3.3-6.9c-0.6-7.9,5.8-12.5,19.2-13.8c-0.2-1.4-0.9-2.3-1.9-2.8c-1-0.4-2.7-0.6-5-0.4
				c-1.9,0.2-3.9,0.5-6,1.1c-2.1,0.6-4.1,1.3-5.8,2.1l-0.9-11.6c2.2-0.7,4.5-1.4,7.1-1.9c2.6-0.5,5.1-0.9,7.6-1.1
				c6.2-0.5,10.8,0.3,13.6,2.3c2.9,2,4.5,5.4,4.9,10.2l0.9,11.6L360.5,75.7z M343.6,72.6c-1.9,0.2-3.3,0.5-4.3,1.1
				c-1,0.6-1.4,1.5-1.3,2.6c0.1,0.7,0.3,1.3,0.8,1.7s1.1,0.6,1.9,0.5c1.1-0.1,1.9-0.6,2.4-1.6c0.5-1,0.7-2.3,0.6-4L343.6,72.6z"/>
			<path class="st18" d="M404.3,74.5l0.3,10.3l-19.9,0.5L384.4,75l2.6-0.1l-0.3-10.3c0-1.4-0.4-2.4-1-3c-0.6-0.6-1.5-0.9-2.7-0.9
				c-2.5,0.1-3.7,1.4-3.7,4.1l0.3,10.3l2.6-0.1l0.3,10.3l-19.9,0.5l-0.3-10.3l2.8-0.1l-0.4-14.4l-2.8,0.1l-0.3-10.3l17.3-0.4
				l0.1,4.9c2.9-3.9,6.7-6,11.2-6.1c3.5-0.1,6.1,0.9,7.9,3.1c1.8,2.1,2.7,5.1,2.8,8.9l0.3,13.3L404.3,74.5z"/>
		</g>
		<g>
			<path class="st26" d="M433.6,155.2c-3.6-0.7-6.4-1.4-8.3-2.3l-0.1-12.5l13.9-0.2c0,1.3,0.3,2.2,0.9,2.8c0.6,0.6,1.7,0.9,3.2,0.8
				c1.3,0,2.2-0.2,2.8-0.6c0.6-0.4,0.8-1,0.8-1.8c0-0.7-0.3-1.2-0.8-1.7c-0.6-0.5-1.5-1-2.9-1.4l-5.4-1.8c-4.7-1.7-8.1-3.8-10.1-6.1
				c-2.1-2.4-3.1-5.6-3.2-9.7c-0.1-5,1.5-8.7,4.8-11.4c3.2-2.6,8.6-4,16.2-4.1c3.7,0,7.1,0.3,10.3,1c3.2,0.7,5.8,1.6,7.8,2.8
				l0.1,11.3l-12.6,0.1c0-2.1-1.3-3.1-3.9-3.1c-1.3,0-2.2,0.2-2.7,0.5c-0.5,0.3-0.8,0.9-0.8,1.7c0,0.7,0.3,1.3,0.9,1.7
				c0.6,0.4,1.6,0.8,3,1.3l5.5,1.8c4.5,1.5,7.7,3.4,9.8,5.8c2.1,2.4,3.1,5.5,3.2,9.4c0.1,5.3-1.7,9.4-5.3,12.2
				c-3.6,2.8-8.8,4.2-15.7,4.3C441,156.2,437.2,155.9,433.6,155.2z"/>
			<path class="st26" d="M474.6,152.2c-2.4-2-3.7-5.6-4-10.7l-0.7-11.4l-2.8,0.2l-0.6-10.3c1.6-0.1,2.8-0.6,3.5-1.4
				c0.7-0.9,1.1-2,1-3.4l-0.2-2.8l13.3-0.8l0.4,7.4l8.5-0.5l0.6,10.3l-8.5,0.5l0.6,10.3c0.1,1.4,0.4,2.4,1.1,3
				c0.6,0.6,1.6,0.9,2.8,0.8c1.6-0.1,3.3-0.4,5.2-0.9l0.6,9.9c-1.1,0.5-2.7,1.1-4.7,1.6c-2,0.5-4,0.8-6,0.9
				C480.3,155.1,476.9,154.2,474.6,152.2z"/>
			<path class="st26" d="M534.8,138l1.4,10.2l-16.5,2.3l-0.6-4.2c-0.7,1.5-1.8,2.8-3.4,4.1c-1.5,1.3-3.4,2.1-5.8,2.4
				c-3.1,0.4-5.7-0.1-7.7-1.5c-2-1.4-3.2-3.6-3.7-6.7c-1.1-7.9,5-12.8,18.4-14.9c-0.3-1.4-1-2.3-2-2.7c-1-0.4-2.7-0.4-5-0.1
				c-1.9,0.3-3.9,0.7-5.9,1.4c-2.1,0.7-4,1.5-5.7,2.4l-1.6-11.5c2.1-0.8,4.5-1.6,7-2.3c2.5-0.7,5-1.2,7.5-1.5
				c6.2-0.9,10.8-0.3,13.8,1.5c3,1.9,4.8,5.2,5.4,9.9l1.6,11.5L534.8,138z M517.7,135.9c-1.9,0.3-3.3,0.7-4.2,1.3
				c-1,0.6-1.3,1.5-1.2,2.7c0.1,0.7,0.4,1.2,0.9,1.6s1.1,0.5,1.9,0.4c1.1-0.1,1.9-0.7,2.3-1.7c0.5-1,0.6-2.3,0.3-4L517.7,135.9z"/>
			<path class="st26" d="M560.7,104.8c0.8,0,1.4,0,2,0.1l3.2,11.6c-1.9-0.2-3.7-0.1-5.6,0.5c-2.5,0.7-4.3,1.9-5.3,3.6
				c-1,1.7-1.1,3.9-0.4,6.5l1.5,5.3l5.5-1.5l2.8,10l-22.1,6.2l-2.8-10l2.7-0.7l-3.9-13.8l-2.7,0.7l-2.8-10l16.6-4.6l1.2,4.4
				c0.7-2,1.6-3.7,2.8-5s2.8-2.3,4.9-2.8C559.1,104.9,559.9,104.8,560.7,104.8z"/>
			<path class="st26" d="M577.8,134.8l-4-8.4l9.2-4.3l0.3,0.6c0.9,1.8,2.4,2.2,4.8,1.1c2.1-1,2.8-2.1,2.1-3.6
				c-0.4-0.8-0.9-1.2-1.7-1.3c-0.8-0.1-2,0.1-3.6,0.5l-3.1,0.8c-6.5,1.7-11-0.3-13.7-6c-1.5-3.3-1.5-6.5,0.2-9.5
				c1.7-3,4.6-5.5,8.9-7.5c4.8-2.2,9.1-3.3,13.2-3.2l3.7,7.9l-8.7,4.1l-0.3-0.6c-0.4-0.8-0.9-1.2-1.6-1.4c-0.7-0.2-1.5,0-2.5,0.5
				c-1.9,0.9-2.6,1.9-2,3.2c0.3,0.6,0.8,1,1.5,1.1c0.7,0.1,1.8,0,3.4-0.4l3.5-0.9c3.7-0.9,6.7-0.9,8.9,0.2c2.3,1.1,4,3,5.3,5.7
				c1.6,3.5,1.6,6.7,0.1,9.6c-1.6,3-4.6,5.5-9,7.6C587.9,132.8,582.9,134.2,577.8,134.8z"/>
		</g>
	</g>
	<rect x="259.4" y="46.1" class="st23" width="23.6" height="13.4"/>
	<polygon class="st18" points="267.6,35.7 272.6,42.9 281.4,42.8 276.1,49.8 278.9,58.1 270.6,55.3 263.5,60.5 263.7,51.7 
		256.5,46.6 264.9,44.1 	"/>
</g>
<g id="Layer_5">
</g>
<g id="Layer_3">
</g>
</svg>
