<svg id="Layer_1" data-name="Layer 1" xmlns="http://www.w3.org/2000/svg" viewBox="0 0 195 295"><defs><style>.cls-1{fill:#fff;}.cls-2{fill:#10213a;}.cls-3{fill:#f4e8c3;}.cls-4{fill:#8a9fbc;}.cls-5{fill:#6a83a0;}.cls-6{fill:#d88361;}.cls-7{fill:#cc8f7a;}.cls-8{fill:#f2b78b;}.cls-9{fill:#aa593d;}.cls-10{fill:#663a28;}.cls-11{fill:#cebf97;}.cls-12{fill:#9b7726;}.cls-13{fill:#d9e7ed;}.cls-14{fill:#ad3821;}.cls-15{fill:#ea6647;}.cls-16{fill:#442318;}</style></defs><title>teddy_front_final-02</title><path class="cls-1" d="M106.45,166c-2.59,0-8.92-1.06-11.83-10.85a10,10,0,0,1,2.91-9.77,11.33,11.33,0,0,1,7.86-3.4,9.52,9.52,0,0,1,2.78.41c3.05.93,7,3.79,8.72,12.16,1,4.82-2.57,9.81-7.87,11.13A10.68,10.68,0,0,1,106.45,166Zm-1.06-18.2a5.49,5.49,0,0,0-3.76,1.71,4.27,4.27,0,0,0-1.43,4c1.28,4.31,3.5,6.68,6.26,6.68a4.81,4.81,0,0,0,1.15-.14c2.29-.57,3.92-2.55,3.56-4.34-.87-4.33-2.54-7.08-4.71-7.74A3.72,3.72,0,0,0,105.38,147.82Z"/><path class="cls-1" d="M107.37,145a8.07,8.07,0,0,0-7.93,2.31,7.26,7.26,0,0,0-2.22,7.07c2,6.6,5.77,8.9,9.22,8.9a8,8,0,0,0,1.91-.24c3.91-1,6.54-4.54,5.86-8C112.8,148.06,109.71,145.73,107.37,145Zm.9,17.68c-3.69.91-8.42-.82-10.68-8.41a6.88,6.88,0,0,1,2.12-6.69,7.7,7.7,0,0,1,7.55-2.22c2.24.68,5.21,2.94,6.58,9.81C114.49,158.41,112,161.78,108.27,162.7Z"/><path class="cls-1" d="M83.26,166.41a7,7,0,0,1-3-.66c-7-3.23-8.09-10-6.1-15.26,1.46-3.89,5.2-8.08,9.95-8.08a7.78,7.78,0,0,1,2.2.32,9.85,9.85,0,0,1,7.29,7.83,15.28,15.28,0,0,1-5.28,14A8.27,8.27,0,0,1,83.26,166.41Zm.87-18.18c-1.58,0-3.6,1.93-4.49,4.31-.63,1.66-1.57,5.76,3.1,7.93a1.24,1.24,0,0,0,.53.13,2.64,2.64,0,0,0,1.48-.66,9.63,9.63,0,0,0,3.15-8.29,4.07,4.07,0,0,0-3.21-3.34A2,2,0,0,0,84.13,148.23Z"/><path class="cls-1" d="M81.43,163.28a4.31,4.31,0,0,0,1.82.41,5.56,5.56,0,0,0,3.4-1.31,12.55,12.55,0,0,0,4.28-11.31,7.13,7.13,0,0,0-5.38-5.73c-3.68-1.08-7.38,2.26-8.83,6.11S75.68,160.62,81.43,163.28Zm-4.35-11.7c1.21-3.22,4-6.07,7-6.07a4.68,4.68,0,0,1,1.33.19,6.77,6.77,0,0,1,5.11,5.44,12.33,12.33,0,0,1-4.14,10.95,4.57,4.57,0,0,1-4.83.85C76.08,160.39,75.65,155.4,77.09,151.59Z"/><path class="cls-1" d="M113.53,145.17a3.51,3.51,0,0,1-.49,0c-1.77-.26-2.65-1.63-3.35-2.74-1-1.63-2.11-3.31-5.5-3.31a13.64,13.64,0,0,0-2.52.26,3.19,3.19,0,0,1-.62.06,3,3,0,0,1-2.48-1.27c-1.18-1.65-.21-3.38.16-4,1.45-2.56,4.44-4,8.24-4a16.28,16.28,0,0,1,1.71.09c3.88.4,8.86,2.32,10.16,6.39.48,1.51.75,4.5-2.79,7.59A3.79,3.79,0,0,1,113.53,145.17Z"/><path class="cls-1" d="M108.4,132.9c-3.46-.36-6.18.58-7.27,2.51l0,0c-.29.51-.48.89-.32,1.11a.34.34,0,0,0,.37.11c7.23-1.37,9.48,2.15,10.83,4.26.53.83.91,1.43,1.44,1.51h.11a1.12,1.12,0,0,0,.72-.33c2.25-2,2.32-3.65,2-4.72C115.41,134.79,111.59,133.23,108.4,132.9Zm5.62,8.94a.7.7,0,0,1-.53.23c-.36-.05-.72-.62-1.17-1.33-1.18-1.85-3-4.75-8.1-4.75a16.93,16.93,0,0,0-3.09.31,3.85,3.85,0,0,1,.32-.66l0,0c1-1.8,3.6-2.67,6.9-2.33s6.78,1.89,7.52,4.24C116.32,138.9,115.67,140.39,114,141.84Z"/><path class="cls-1" d="M99.45,284.6l-.17,0a2.94,2.94,0,0,1-.56-.14H94.78a2.88,2.88,0,0,1-.94.16h-.12l-.21,0h-.07a2.87,2.87,0,0,1-.53-.12l-28.5.06a2.92,2.92,0,0,1-1.4,0l-37.66.08a2.91,2.91,0,0,1-2.91-3c1-22.67,5.32-43.12,12.64-59.13,7.2-15.76,17.26-26.85,29.09-32.06l.36-.16.79-.33c-.51-2.86-.8-7.85-.14-17.38-4.14-9.14-4.8-15.4-2-18.6A5.65,5.65,0,0,1,67.29,152c.56-4.37,1.1-8.07,1.46-10.46-3.94-5.67-2.51-12.41,4-18.23s16.2-9.54,24.5-9.54c4.49,0,8.19,1.15,10.81,3.33,11.67.46,20.1,4.15,23.8,10.42,2.14,3.62,3.72,9.75-.69,18.55a37,37,0,0,0,.12,4.67l.54,0a5.3,5.3,0,0,1,3.73,1.39c2.9,2.73,2.5,8.12-1.52,19.81,1,8.71.67,14.19-1,18.23q-.17.44-.38.87c13.24,3.89,22.45,12,28.79,25.4,6.67,14,10.43,34.63,11.85,64.8a2.91,2.91,0,0,1-2.91,3l-69.77.16a2.89,2.89,0,0,1-1,.17Zm-39-85.5c-17.92,12.32-29.91,41.84-32,79.67l30.47-.07a68.9,68.9,0,0,1-7.45-31.1C51.3,234.65,54.18,219.11,60.45,199.11Zm5.61,1.56c-12.9,41.08-10.29,59.79-.66,78l26-.06c2.69-16.89,8.75-32.5,16-47.21a88.44,88.44,0,0,1-6.65,7.28c-8.27,8.09-16.53,12.92-22.1,12.92a9,9,0,0,1-1.16-.07h0l-.19,0c-3.6-.56-8.46-3.17-11-12.38a51.23,51.23,0,0,1-1.62-10.41l0-.14v-.29c-.08-1.48-.13-3-.13-4.61a3,3,0,0,1,0-.42,96,96,0,0,1,2.5-21.35A10.76,10.76,0,0,1,66.06,200.67Zm57,21.91c-9.34,18.16-18.2,38.17-20.21,56l64.49-.14c-2.59-48.57-11.51-71.47-31.29-80-2.62,4.75-5.47,9.94-8.22,15.09,1.81,7.9,3.34,16.27,4,20.27h11.83a2.91,2.91,0,0,1,2.91,2.91V244l.1.21-.1.59v.55l-.09.15-2.35,18.87a2.91,2.91,0,0,1-2.89,2.55H141l-.33-.07-24.18-5.35a2.91,2.91,0,0,1-2.21-3.46l3.38-15.88v-5.46a2.91,2.91,0,0,1,2.91-2.91h4.65C124.73,231.09,124,227,123.07,222.58Zm15.73,37.9,1.65-13.29-17.59-1.6-2.31,10.85ZM76.53,245.22c4.28-5.89,10.53-10.62,18.62-14.07a44.2,44.2,0,0,0-.28-11.7h-.46l-4.79,7.69a4.12,4.12,0,0,1-3.51,2,4.21,4.21,0,0,1-1.54-.29A4.11,4.11,0,0,1,82,224.16l.5-2.58c-6.18,8.8-8.18,16.57-6.1,23.58Zm64.28-3.84V239.6H129.3l-.36.06h-.26a2.88,2.88,0,0,1-.6-.06h-4.62v.2ZM70.45,229.16q.13,1.64.33,3.15a37.26,37.26,0,0,1,2.48-6.55Q71.8,227.42,70.45,229.16Zm30.05-11.31a44.89,44.89,0,0,1,.66,5.64q2.81-4.13,5.36-8.54-1.27.18-2.6.27a22.59,22.59,0,0,1-1.81,1.54A16.68,16.68,0,0,1,100.5,217.85ZM71.85,206.46c-.52,2.67-.93,5.61-1.21,8.61a47.84,47.84,0,0,1,5.88-5.3c0-.15-.07-.3-.1-.46A35.61,35.61,0,0,1,71.85,206.46Zm38,1.77.41-.14.27-.52-.24.06Zm-2.52-8.32a3.27,3.27,0,0,1-.33.36,24.75,24.75,0,0,1-3.18,2.54,32.09,32.09,0,0,0,12.82-3.87q-.41-1.25-.75-2.65A39.43,39.43,0,0,1,107.34,199.91Zm-33.9.33a24.23,24.23,0,0,0,2.88,2.26q.09-.52.21-1-1.43-.87-2.87-1.85Q73.56,199.9,73.44,200.24Zm10-1.63q.94.47,1.89.88a34.48,34.48,0,0,1-2.43-3.2,3.49,3.49,0,0,1-.2-.34c-3.52-1.33-9.31-4.05-9.65-10.06A19.21,19.21,0,0,1,70.64,184c.13,5,.76,6.41.94,6.7a62.32,62.32,0,0,0,9.49,6.63l.53.18.19.22.92.49.34.06ZM88,192c3.6,2.92,7,4.39,10.2,4.39a11,11,0,0,0,4.75-1.12l.2-.22.52-.13.3-.15h.29a33,33,0,0,0,10.5-4.57q-.2-1.49-.36-3.1a11.44,11.44,0,0,1-3.35,1,7.45,7.45,0,0,1-1,.07c-2.54,0-5.46-1.19-8.29-2.34-2.1-.85-4.7-1.91-6.1-1.91h-.22c-.94.13-2.89,1.45-4.46,2.51-2.37,1.6-4.81,3.25-7.27,3.64.65.27,1.35.54,2.11.81l.72.27a3.39,3.39,0,0,1,.45.15h0l.33.17.5.25Zm33.74.22q.28,1.52.63,2.85.77-.67,1.45-1.37a2.84,2.84,0,0,1,.44-.47,20.56,20.56,0,0,0,1.42-1.71,2.89,2.89,0,0,1,.35-.5,15,15,0,0,0,1.63-3,14,14,0,0,0,.8-3.18A42.45,42.45,0,0,1,121.72,192.18Zm-1.1-9.63q.07,1.25.17,2.45a41.66,41.66,0,0,0,5.11-6.84l-.15.1a39.45,39.45,0,0,0-4.27,3.51Zm-42.68-.48c1.5.82,3.16,1.59,4.66,2.28,1.07,0,3.48-1.65,5.07-2.72a35.54,35.54,0,0,1,4.17-2.55,14.64,14.64,0,0,1-8-6.1,32.12,32.12,0,0,0-5.68,2.18,8.06,8.06,0,0,0-.18.92A25.25,25.25,0,0,0,77.95,182.06Zm21-3.46a47.2,47.2,0,0,1,5,1.83c2.2.9,4.7,1.91,6.09,1.91h.22a8.92,8.92,0,0,0,3.71-1.8c-.12-3-.15-6.19-.09-9.53l-.47-.14a18.12,18.12,0,0,0-4.45-.4c-1.18,0-2.32.05-3.22.11C104.29,174.51,101.93,177.29,98.91,178.6ZM120.4,175l.67-.54-.67-.46Q120.4,174.5,120.4,175Zm.14-7.55c6.62,3.2,7,5.74,7.18,6.61a4.15,4.15,0,0,1,.05.74c.19-.37.38-.75.57-1.14-.35-3.51-.89-7.19-1.41-10.76-1-6.76-1.92-13.14-1.55-17.83a5.67,5.67,0,0,1,.13-.8c-8.16-8-15.73-14.53-17.67-15.25h-.2c-2.59,0-9.42,1.64-15.47,4.21a3.5,3.5,0,0,1,.24,1,3.19,3.19,0,0,1-2.15,3.36,12.85,12.85,0,0,0-5.17,3.29,8.71,8.71,0,0,1,1.59.31,11.21,11.21,0,0,1,7.49,6.39,13.15,13.15,0,0,1,11.17-7,10.62,10.62,0,0,1,3.1.46c2.87.87,6.56,3.32,8.78,9.9h.11a4.84,4.84,0,0,1,2.16.49,4.92,4.92,0,0,1,2.63,4,4.7,4.7,0,0,1-1.11,4C120.89,160.88,120.68,163.78,120.54,167.45Zm-48.18-9c-.39,3.33-.76,6.83-1.06,10.29-.12,1.41-.23,2.73-.31,4a22.81,22.81,0,0,1,2-1.33c-.41-2.64-.77-6.85.29-10.39A12.54,12.54,0,0,1,72.36,158.44Zm17.12,7c2.85,3.35,4.54,3.65,5,3.65h.19c.49-.06,2.07-.57,4-4.56A17.49,17.49,0,0,1,94.24,158,17.22,17.22,0,0,1,89.49,165.41Zm-11.1,1.09c0,.71,0,1.43.11,2.14.85-.34,1.71-.65,2.53-.91a8,8,0,0,1-1.11-.42A16.68,16.68,0,0,1,78.39,166.5ZM114.06,165v-.13l-.14.11ZM84.23,146.61c-2.1,0-4.64,2.38-5.78,5.42-.79,2.09-2,7.26,3.93,10a2,2,0,0,0,.84.2,2,2,0,0,0,.34,0,2.82,2.82,0,0,1,1.17-.47,5.7,5.7,0,0,0,.56-.39,11.94,11.94,0,0,0,3.9-10.28A5.34,5.34,0,0,0,85,146.72,2.86,2.86,0,0,0,84.23,146.61Zm21.11-.27a6.86,6.86,0,0,0-4.71,2.12,5.43,5.43,0,0,0-1.78,5.11c1.55,5.23,4.3,8.12,7.74,8.12a6.06,6.06,0,0,0,1.45-.18c2.9-.72,5-3.28,4.5-5.6-1-5.22-3.11-8.54-5.8-9.36A4.8,4.8,0,0,0,105.34,146.34Zm-30.65-5.11c-.25,1.62-.63,4.18-1.06,7.3.19-.38.39-.75.61-1.12v-.08a21.61,21.61,0,0,1,1-4.84,9.17,9.17,0,0,1-.53-1.41ZM97.24,119.6a25.67,25.67,0,0,0-5.07.55,34.92,34.92,0,0,0-15.55,7.51c-2.57,2.3-4,4.46-4.21,6.52,3.53-3.59,12.9-11.55,28.54-14.16A15.73,15.73,0,0,0,97.24,119.6Zm20.58,4.87A58.13,58.13,0,0,1,128,134a9.32,9.32,0,0,0-1.21-3.5C125.25,127.82,122.12,125.77,117.82,124.47Z"/><path class="cls-1" d="M128.53,192.77a18,18,0,0,0,2-3.62c1.71-4.29,1.49-10.65.71-17.53,3.59-10.32,4.34-15.72,2.43-17.51-1-.89-2.53-.87-4.8,0a48.59,48.59,0,0,1-.4-8.8c3.29-6.31,3.65-12,1-16.43-3.32-5.62-11.32-8.85-22.55-9.11-6.48-6.65-23.48-2.46-32.39,5.55-5.75,5.16-6.82,10.8-2.94,15.48-.42,2.75-1.2,8-2,14.26-2-.63-3.46-.42-4.39.62-2,2.29-1.06,8.23,2.68,16.29-.73,10.05-.51,16.6.63,19.56-.41.14-.82.3-1.23.45a.17.17,0,0,0-.14.05q-.87.33-1.72.7a.17.17,0,0,0-.09,0c-11.28,4.93-20.85,15.47-27.84,30.76-7.17,15.69-11.46,35.79-12.39,58.12a.19.19,0,0,0,.19.2h0l38.21-.09a.19.19,0,0,0,.15.09l.09,0s0,0,.05-.06l29.82-.07a.18.18,0,0,0,.15.15h0a.19.19,0,0,0,.18-.15h5.47a.18.18,0,0,0,.16.17h0a.19.19,0,0,0,.18-.17l70.56-.16a.19.19,0,0,0,.19-.2C167.87,223.14,156.46,199.08,128.53,192.77Zm-7.82,49.89,22.8,2.07-2.37,19-23.8-5.27Zm22.82,1.7-22.78-2.07v-5.41h7.8a.18.18,0,0,0,.13.06h0l.36-.06h14.45ZM129,236.5h-.21c-.28-1.65-2.14-12.49-4.41-22.36l.27-.5c2.33,10,4.25,21.26,4.52,22.84Zm-4.75-22.93c-.38-1.63-.77-3.23-1.16-4.75l.27-.46c.39,1.51.78,3.09,1.16,4.71ZM63.78,281.42c-11.15-20.34-14.12-40.51,1.88-88.31.49-.21,1-.42,1.47-.61-.33,3.78.62,6.69,2.83,8.65a90.31,90.31,0,0,0-2.79,22.28.17.17,0,0,0,0,.1c0,1.59,0,3.17.13,4.73a.16.16,0,0,0,0,0,49.14,49.14,0,0,0,1.54,10.09c1.75,6.28,4.72,9.79,8.85,10.43h0a6.12,6.12,0,0,0,.91.07c9.31,0,31.19-18.27,40.09-42.36a25.23,25.23,0,0,0,2.59-2.78c.48,1.5,1,3.19,1.43,5-13,22.68-25.34,46.28-29,72.58Zm15.94-81.26a17.05,17.05,0,0,0-.89,6.92A29.34,29.34,0,0,1,70.35,201c.77-2.68,1.62-4.6,2.44-5.37A61.74,61.74,0,0,0,79.71,200.16Zm1.91,1a19.15,19.15,0,0,0,.58,7.44c-1.06-.44-2-.89-3-1.34a16.5,16.5,0,0,1,.82-6.92C80.58,200.64,81.11,200.91,81.63,201.18Zm5.54,2.39a9.74,9.74,0,0,0,.91,4.7,38.83,38.83,0,0,0-5.45.46,19.14,19.14,0,0,1-.64-7.37A48.48,48.48,0,0,0,87.17,203.57ZM100.85,206a36.89,36.89,0,0,0,7.28-.73,57.39,57.39,0,0,1-5.47,6.82,26.3,26.3,0,0,0-14.15-3.87,9.18,9.18,0,0,1-1-4.56A40.32,40.32,0,0,0,100.85,206Zm4.06-8.2a.12.12,0,0,1,0,.17c-3.43,3.19-6.59,4.57-9.65,4.22-3.38-.39-6.59-2.9-9.81-7.68a.25.25,0,0,1,0-.34.29.29,0,0,1,.17-.07l.22.08c6.59,5.43,12.93,6.64,18.86,3.59l.1,0A.14.14,0,0,1,104.91,197.84Zm-.15-.43-.09,0-.06,0h0c-5.79,3-12,1.8-18.49-3.55l0,0h0a.64.64,0,0,0-.28-.11l-.87-.32c-3.2-1.15-9.16-3.3-8.76-8.69a.17.17,0,0,0,0,0,.84.84,0,0,0,0-.15c1.69,1,3.55,1.81,5.31,2.62a3,3,0,0,0,1.24.26c2,0,4.44-1.65,6.82-3.26,2.09-1.41,4.06-2.74,5.63-3,1.95-.26,4.87.92,7.7,2.07s5.86,2.38,7.91,2.1a13,13,0,0,0,6.09-3.13,89.22,89.22,0,0,0,.93,9.14A35.73,35.73,0,0,1,104.76,197.4ZM84.23,143.89a5.55,5.55,0,0,1,1.58.23,8,8,0,0,1,6.05,6.44A14.57,14.57,0,0,1,87,163.49a7.77,7.77,0,0,1-1.63,1,.18.18,0,0,0-.24,0,.18.18,0,0,0-.07.16,4.75,4.75,0,0,1-3.79-.11c-6.52-3-7-8.92-5.33-13.43C77.33,147.26,80.67,143.89,84.23,143.89Zm11.38,8.45a4.79,4.79,0,0,0-3.21-.26c0-.29,0-.57-.07-.85a4.31,4.31,0,0,1,3.37.18A7.42,7.42,0,0,0,95.61,152.34Zm-3.2.14a4.43,4.43,0,0,1,3.22.28,6.64,6.64,0,0,0,.25,1.7c1.44,4.85,3.74,7.69,6.24,9.14-2.07,5.11-4.45,7.86-7.08,8.17s-5.94-2-9.49-7a8,8,0,0,0,1.64-1A15,15,0,0,0,92.41,152.47ZM118,158.11c-.09.94-.46,5.24-.63,10.9l-.36-.15c.17-5.61.53-9.83.61-10.78h0Zm-.27,11.45c3.23,1.41,6.66,3.47,6.91,5a1.08,1.08,0,0,1-.61,1.1,41.6,41.6,0,0,0-4.63,3.8c-.53.48-1.07,1-1.61,1.43C117.64,176.93,117.65,173,117.75,169.56Zm-.29,11.64-.34.29q-.17-3.4-.17-7.2c0-1.76,0-3.45.07-5l.36.15C117.28,173,117.26,177.07,117.46,181.2ZM85.59,169.86a21.47,21.47,0,0,1-1.85-4.56l0,0a5.77,5.77,0,0,0,1.48-.36c3.46,4.85,6.51,7.23,9.31,7.23a5,5,0,0,0,.57,0c2.81-.33,5.22-3.07,7.38-8.37a9,9,0,0,0,1.62.66.18.18,0,0,0-.17.16c-.71,6.86-4,11.36-8.52,11.76-3.24.29-7.15-1.68-9.79-6.47Zm18.7-5.25a.18.18,0,0,0-.07-.16,8.84,8.84,0,0,0,2.36.32,9.22,9.22,0,0,0,2.22-.27,9,9,0,0,0,6.79-6.71,6.47,6.47,0,0,0,1.68.29c-.1,1.07-.45,5.19-.62,10.62a23.79,23.79,0,0,0-2.46-.84c-3.36-.89-9.16-.37-10.41-.25A22.57,22.57,0,0,0,104.29,164.62Zm13.4-6.92-.2,0a.16.16,0,0,0-.13,0,6.21,6.21,0,0,1-1.71-.29,6.52,6.52,0,0,0-.06-2.13c-.05-.27-.12-.52-.17-.78a3.47,3.47,0,0,1,2.71-.38,2,2,0,0,1,.93,1.66,1.64,1.64,0,0,1-.43,1.57A1.74,1.74,0,0,1,117.69,157.7Zm-2.48-2.33c.75,3.76-2.17,7.7-6.51,8.78s-9.83-.95-12.46-9.81a8,8,0,0,1,2.48-7.81,9.54,9.54,0,0,1,6.62-2.91,7.52,7.52,0,0,1,2.19.32C110.15,144.74,113.61,147.37,115.21,155.37Zm-34.15,9.47a5,5,0,0,0,2.14.48h.19a.18.18,0,0,0,0,.1,22.21,22.21,0,0,0,1.68,4.27c-1.5-.08-5.33,1.19-8.72,2.93-.27-1.28-1.43-7.49.14-11.45A11.2,11.2,0,0,0,81.07,164.84Zm-6,18.69a10.7,10.7,0,0,1-4.46-4.66c-.32-.8.09-1.76,1.23-2.85a18.07,18.07,0,0,1,3.64-2.55,7.68,7.68,0,0,0-.57,2.13A24.77,24.77,0,0,0,75.08,183.53Zm.21-7.87c.22-1.45.57-2.37,1-2.61l0,0c3.72-1.93,8-3.26,9-2.95,2.55,4.59,6.26,6.65,9.49,6.65l.65,0c4.51-.39,7.1-4.33,8.25-8.7.87-.09,7-.67,10.42.22a23.85,23.85,0,0,1,2.54.86c-.11,3.83-.13,8.26.1,12.72a13,13,0,0,1-6.12,3.21c-1.95.27-4.88-.92-7.71-2.07S97,180.57,95,180.85c-1.66.22-3.67,1.58-5.79,3-2.82,1.9-5.73,3.87-7.69,3a60,60,0,0,1-6-3C75.1,182.76,74.86,178.56,75.29,175.66ZM117.13,182l.34-.29a91.08,91.08,0,0,0,.9,9.24l-.33.24A91.32,91.32,0,0,1,117.13,182Zm1.3,9.38a38.32,38.32,0,0,0,2.2,8.38l-.32.22a38.05,38.05,0,0,1-2.2-8.36Zm3.28,11.26-.27.37q-.43-1.29-.85-2.33c0-.16.09-.32.13-.48l.06,0C121.09,200.83,121.4,201.67,121.71,202.6Zm-.61-2.71c.74-.51,1.47-1,2.16-1.59s1.5-1.28,2.19-1.95a43,43,0,0,1-3.47,5.87C121.69,201.36,121.4,200.57,121.11,199.89Zm.75,3.15c.47,1.43.94,3.05,1.4,4.8l-.27.46c-.47-1.78-.94-3.44-1.41-4.9Zm-.7.28a25.56,25.56,0,0,1-2.15,2.4q.79-2.22,1.42-4.49C120.67,201.86,120.91,202.57,121.16,203.32Zm-1-2.79,0,.12q-.76,2.82-1.82,5.67a21.25,21.25,0,0,1-5.62,3.69q1.87-3.63,3.6-7.41A34.85,34.85,0,0,0,120.15,200.53Zm-46,46.34c-3.39-9.78.25-20.63,11.13-33.15q.72.45,1.42.83l-2,10.13a1.41,1.41,0,0,0,.89,1.62,1.52,1.52,0,0,0,.55.1,1.38,1.38,0,0,0,1.2-.68l5.63-9a12.3,12.3,0,0,0,1.27.07A12,12,0,0,0,97,216.4a46.43,46.43,0,0,1,.67,16.44l-.22.29c-9,3.6-15.68,8.76-19.86,15.31A7.83,7.83,0,0,1,74.11,246.88Zm5.45-37.73a13.34,13.34,0,0,1-.27-1.43c1,.46,2,.91,3,1.36q.41,1.54,1,3.23a78.71,78.71,0,0,0-15.7,15.45c-.07-1.39-.11-2.8-.11-4.22A58.14,58.14,0,0,1,78.47,212.2,2.91,2.91,0,0,0,79.56,209.15Zm8.7-.51c1.77,3.19,5.65,5.18,11.6,5.94A9.78,9.78,0,0,1,97.12,216c-4.1,1.05-8.36-.13-13.41-3.74q-.59-1.66-1-3.16A38.24,38.24,0,0,1,88.26,208.64Zm12.21,6h0a21.81,21.81,0,0,0,2.3-2,27.54,27.54,0,0,0,9.18-1.79,142.07,142.07,0,0,1-13.8,21.49,46.14,46.14,0,0,0-.75-16A10.84,10.84,0,0,0,100.46,214.61Zm-.17-.34c-5.9-.7-9.76-2.58-11.57-5.62a25.89,25.89,0,0,1,13.67,3.77A21,21,0,0,1,100.29,214.26Zm-7.75,2.35L87,225.52a1.06,1.06,0,0,1-1.95-.77l2-10A16.85,16.85,0,0,0,92.54,216.61Zm-9-4c.45.32.9.63,1.34.91-10.73,12.37-14.45,23.14-11.35,32.89-1.87-1.7-3.34-4.41-4.37-8.12a49,49,0,0,1-1.53-10A78.26,78.26,0,0,1,83.56,212.61Zm14.06,20.87c-.19,1.53-.41,3-.63,4.46-7.39,6.87-14.7,11-19,10.55C82.18,242.07,88.77,237,97.62,233.47Zm.44-.49a142.33,142.33,0,0,0,14.42-22.42,21.49,21.49,0,0,0,5.61-3.47,84.81,84.81,0,0,1-18.26,28.09c-.79.81-1.59,1.58-2.39,2.34C97.66,236.05,97.88,234.54,98.06,233Zm14.15-22.73a26.56,26.56,0,0,1-9.05,1.91,61.17,61.17,0,0,0,5.52-7c.38-.08.78-.16,1.14-.25a35.88,35.88,0,0,0,6-2.09Q114.1,206.63,112.21,210.25Zm-33.33-2.72a13.79,13.79,0,0,0,.31,1.71,2.53,2.53,0,0,1-1,2.65,57.7,57.7,0,0,0-10.72,11,89.53,89.53,0,0,1,2.7-21.5A30,30,0,0,0,78.88,207.53Zm44,1.77c.39,1.54.78,3.15,1.16,4.79-12.41,23.36-23.08,46.63-24.52,67.26H94.09C97.75,255.26,109.94,231.82,122.86,209.29Zm.8-1.39q2.35-4.09,4.71-8.14l3.35-5.77q1.41.41,2.75.89c-3.24,5.87-6.5,11.78-9.65,17.69C124.45,211,124.06,209.39,123.67,207.9Zm7.69-14-3.3,5.69q-2.26,3.89-4.53,7.81c-.46-1.72-.93-3.31-1.39-4.71a45.6,45.6,0,0,0,4.18-7.19,25.14,25.14,0,0,0,2-2.38Q129.86,193.45,131.35,193.88ZM130.18,189a18.15,18.15,0,0,1-2.06,3.72.18.18,0,0,0-.09.12h0a23,23,0,0,1-2,2.37.18.18,0,0,0-.1.08l0,0a30.27,30.27,0,0,1-5,4.16,38.54,38.54,0,0,1-2.18-8.43c5-3.91,9.08-9.3,12.41-16.21C131.67,180.44,131.6,185.47,130.18,189Zm3.23-34.63c1.72,1.61,1,6.83-2.27,16.37-.33-2.73-.74-5.53-1.14-8.3s-.79-5.41-1.08-7.91C131.09,153.64,132.56,153.59,133.41,154.39Zm-3.79,8.12c.57,3.92,1.15,7.89,1.5,11.64-3.31,7.05-7.43,12.52-12.41,16.49a92.13,92.13,0,0,1-.87-9.27c.62-.53,1.23-1.08,1.84-1.63a41.22,41.22,0,0,1,4.59-3.76,1.44,1.44,0,0,0,.77-1.48c-.29-1.79-4-3.93-7.27-5.33.19-6.4.64-11.09.65-11.21s0,0,0,0a1.7,1.7,0,0,0,.46-.25,2,2,0,0,0,.57-1.91,2.31,2.31,0,0,0-1.14-1.95,3.66,3.66,0,0,0-3,.34c-1.73-7.28-5.1-9.77-7.68-10.56a9.35,9.35,0,0,0-9.19,2.68A9.51,9.51,0,0,0,95.78,151a4.73,4.73,0,0,0-3.5-.18c0-.12,0-.24-.05-.36a8.38,8.38,0,0,0-6.32-6.73c-3.22-.95-6.44,1-8.58,3.91a18,18,0,0,1,1.16-5,1,1,0,0,0,.7.41h0c.58,0,1.1-.68,1.88-1.71A16.84,16.84,0,0,1,89.38,135a.47.47,0,0,0,.32-.52.85.85,0,0,0-.67-.73,17.23,17.23,0,0,0-4,.1c7.41-4.68,19.92-7.88,23.23-7.5s19.07,15.92,20.33,17.16l-.07.2a7.76,7.76,0,0,0-.43,1.61C127.75,149.67,128.66,155.9,129.62,162.5ZM87.66,134a10.45,10.45,0,0,1,1.31.07.48.48,0,0,1,.35.39c0,.1,0,.11-.06.12a17.17,17.17,0,0,0-8.46,6.52c-.66.87-1.19,1.56-1.58,1.56h0c-.17,0-.35-.16-.55-.45.49-1.15,2.64-5.87,5.61-7.92A21.23,21.23,0,0,1,87.66,134Zm-9.25,7.82c-1-1.75-1.18-3.25-.4-4.48,1-1.52,3.18-2.41,5.42-2.89C80.88,136.61,79,140.47,78.41,141.85ZM74.8,125.64a37.8,37.8,0,0,1,16.83-8.15c6.69-1.36,12.19-.39,15.09,2.64a.19.19,0,0,0,.13.06c11.13.24,19.06,3.41,22.31,8.93,2.27,3.84,2.23,8.66-.08,14a3.64,3.64,0,0,0,.24-2.07c-2.42-6.89-17-19-22.74-19h-.3c-20.46,1.68-31.15,13-33.09,15.24a6.82,6.82,0,0,0-1.49,3C69.55,137.61,67.4,132.28,74.8,125.64ZM65.54,156c.83-.94,2.2-1.1,4.06-.5-.5,4.1-1,8.58-1.38,13-.08.94-.16,1.86-.22,2.75C64.61,163.73,63.68,158.05,65.54,156Zm3.06,12.53c1-11.34,2.71-23.14,3.4-27.69a6.46,6.46,0,0,1,1.49-3.24c1.92-2.23,12.52-13.44,32.83-15.11,5.27-.44,20.29,12,22.65,18.74a3.51,3.51,0,0,1-.25,1.87c-2-2-17-16.74-20.42-17.13-1.87-.22-6.1.57-10.77,2a53.79,53.79,0,0,0-13.39,6c-2.58.44-5.29,1.4-6.44,3.22-.9,1.41-.71,3.13.53,5.11a18.13,18.13,0,0,0-1.28,5.35c0,.24-.05.47-.08.7a13.76,13.76,0,0,0-1.32,2.61,11.14,11.14,0,0,0,.7,9.85s0,0,0,0c-1.79,4.22-.44,10.88-.21,12a20.11,20.11,0,0,0-4.4,3c-1.26,1.21-1.7,2.3-1.32,3.26.83,2.07,2.73,3.7,5,5.09a.85.85,0,0,0,.14.2,1,1,0,0,1,.31.45c-.4,5.67,5.72,7.87,9,9.05l.45.16a.62.62,0,0,0-.07.8c3.29,4.88,6.59,7.44,10.08,7.84a8.28,8.28,0,0,0,.94.05c2.86,0,5.89-1.47,9-4.38a.49.49,0,0,0,.09-.62,36,36,0,0,0,12.51-5.83,38,38,0,0,0,2.23,8.3,36.68,36.68,0,0,1-10.25,4.43,38.13,38.13,0,0,1-22.24-1.28.19.19,0,0,0-.13-.06h0a48.36,48.36,0,0,1-5.43-2.33l-.05,0h0q-.9-.45-1.82-1l0,0h0a64.5,64.5,0,0,1-10.25-7.14C68.35,191.59,67,186.44,68.59,168.5ZM69.49,193c1,.85,2,1.63,3,2.38-.81.82-1.64,2.71-2.41,5.33-2.06-1.91-2.92-4.72-2.57-8.38.4-.15.8-.31,1.21-.44A3.2,3.2,0,0,0,69.49,193Zm-4.3.28c-15.88,47.55-12.93,67.78-1.84,88.11l-37.8.08C27.47,236.71,42.53,203.51,65.19,193.31Zm34.7,88c1.43-20.44,12-43.51,24.27-66.69,2.2,9.64,4,20.06,4.3,21.86h-7.89a.19.19,0,0,0-.19.19v5.75l-3.44,16.18a.19.19,0,0,0,.14.22l24.18,5.35h0a.19.19,0,0,0,.19-.17l2.42-19.45h0v-7.87a.19.19,0,0,0-.19-.19H129.6c-.2-1.16-2.21-13-4.64-23.37,3.23-6.05,6.57-12.11,9.88-18.12,23.07,8.47,32.86,33,35.38,86.17Z"/><g id="_Group_" data-name="&lt;Group&gt;"><path class="cls-2" d="M170.42,281.37l-70.74.16c1.38-20.61,11.81-43.46,24.55-67.41,2.35,10.27,4.29,21.64,4.44,22.58h-8.12v5.77l-3.45,16.2L141.29,264l2.43-19.44v-7.88H129.06l.37-.06c0-.19-2.12-12.63-4.66-23.52,3.21-6,6.58-12.16,10-18.32C159,203.65,168,229.94,170.42,281.37Z"/><path class="cls-3" d="M143.72,236.69v7.88l-23.16-2.11v-5.77h8.12a.41.41,0,0,0,0,.06l.38-.06Z"/><polygon class="cls-4" points="143.72 244.57 141.29 264.01 117.11 258.66 120.56 242.46 143.72 244.57"/><path class="cls-5" d="M131.64,193.77c1.07.3,2.1.64,3.11,1-3.4,6.16-6.77,12.28-10,18.32-.42-1.81-.86-3.58-1.3-5.25C126.17,203.16,128.92,198.47,131.64,193.77Z"/><path class="cls-6" d="M128.71,154.42c7.27-3.05,7.28,3,2.35,17.15h0C130.38,165.79,129.33,159.72,128.71,154.42Z"/><path class="cls-7" d="M131.31,174.21c.54,5.84.52,11.18-1,14.88a17.66,17.66,0,0,1-2.14,3.8,24.4,24.4,0,0,1-2.07,2.51,30.63,30.63,0,0,1-5.26,4.44,37.78,37.78,0,0,1-2.31-8.85c4.94-3.87,9.23-9.34,12.72-16.77Z"/><path class="cls-8" d="M131.31,174.21h0c-3.49,7.44-7.79,12.9-12.72,16.77a91.92,91.92,0,0,1-.92-9.7,71.74,71.74,0,0,1,6.5-5.46c2.56-1.69-2.37-4.74-6.58-6.54.17-6.48.63-11.23.64-11.35l-.5,0c.91-.1,1.72-.59,1.52-2.12-.44-3.45-4-1.35-4-1.35-4-17.18-17.85-11-19.29-3.18h-.12a4.47,4.47,0,0,0-3.56-.17l-.1,0a8.23,8.23,0,0,0-6.27-7.15c-3.29-1-6.68,1.16-8.81,4.44a19.75,19.75,0,0,1,1.39-6.1c1.78,2.78,2.52-4.63,10.88-7.48.41-.14.11-.82-.32-.88a18,18,0,0,0-4.79.23c7.22-4.88,20.45-8.43,24.07-8s20.52,17.29,20.52,17.29a10.32,10.32,0,0,0-.52,1.87,49.34,49.34,0,0,0,.42,9.12c.62,5.31,1.67,11.38,2.34,17.15C131.14,172.46,131.24,173.34,131.31,174.21ZM114.13,142c8-7-9.55-12.3-12.84-6.47-.23.4-.62,1.07-.17,1C112.42,134.35,111.81,144,114.13,142Z"/><path class="cls-4" d="M128.21,192.89c1.17.26,2.31.55,3.42.88-2.72,4.7-5.47,9.4-8.17,14.1-.51-1.93-1-3.7-1.55-5.25a45,45,0,0,0,4.23-7.22A24.4,24.4,0,0,0,128.21,192.89Z"/><path class="cls-9" d="M129.43,236.63l-.37.06h-.39c-.16-.94-2.09-12.31-4.44-22.58.17-.33.35-.67.54-1C127.31,224,129.4,236.45,129.43,236.63Z"/><path class="cls-10" d="M128.8,143.43a4.19,4.19,0,0,0,.34-2.28c-2.45-7-17.51-19.3-22.84-18.86-18.53,1.52-29.34,11-33,15.17a6.61,6.61,0,0,0-1.53,3.33C60,126.71,96.65,109.33,106.86,120c21.16.46,28.83,11.14,21.42,25.3A10.32,10.32,0,0,1,128.8,143.43Z"/><path class="cls-7" d="M68.13,172c.4-5.54,1-11.42,1.68-16.65.79-6.48,1.6-12,2-14.53a6.61,6.61,0,0,1,1.53-3.33c3.61-4.21,14.42-13.65,33-15.17,5.34-.44,20.39,11.87,22.84,18.86a4.19,4.19,0,0,1-.34,2.28s-17-16.88-20.52-17.29-16.86,3.12-24.07,8h0c-4.35.74-9.08,3-5.76,8.13a19.75,19.75,0,0,0-1.39,6.1h0c-2.34,3.61-3.14,8.62-.57,12.46l-.11.07c-1.91,4.5-.17,12-.17,12-3.52,1.83-6.52,4.16-5.75,6.05s2.68,3.64,5,5a.68.68,0,0,0,.13.2,1.2,1.2,0,0,1,.36.57c-.45,6.08,6.77,8.08,9.77,9.21a.46.46,0,0,0-.42.71c5.42,8,11.7,11,19.74,3.48a.32.32,0,0,0-.21-.55,35.82,35.82,0,0,0,13.08-6.08,37.86,37.86,0,0,0,2.32,8.69l0,.06a33.54,33.54,0,0,1-4,2.21,35.32,35.32,0,0,1-7.64,2.56,38.67,38.67,0,0,1-21.21-1.62,48,48,0,0,1-5.52-2.36c-.63-.31-1.26-.64-1.89-1h0a61.47,61.47,0,0,1-7.19-4.66q-1.56-1.18-3.14-2.51a3.18,3.18,0,0,1-.81-1.2C67.43,188.48,67.5,180.64,68.13,172Z"/><path d="M129.06,236.69l-.38.06a.41.41,0,0,1,0-.06Z"/><path class="cls-9" d="M124.77,213.11c-.19.33-.37.67-.54,1-.43-1.84-.86-3.64-1.3-5.33l.54-.92C123.91,209.53,124.34,211.3,124.77,213.11Z"/><path class="cls-10" d="M117.58,169.29c4.2,1.8,9.14,4.85,6.58,6.54a71.74,71.74,0,0,0-6.5,5.46C117.46,177.09,117.47,172.93,117.58,169.29Z"/><path class="cls-9" d="M123.47,207.87l-.54.92c-.52-2-1-3.83-1.56-5.43l.55-.73C122.44,204.16,123,205.94,123.47,207.87Z"/><path class="cls-5" d="M122.93,208.79c.44,1.69.87,3.49,1.3,5.33-12.74,24-23.17,46.8-24.55,67.41l-5.81,0C97.53,255.13,109.73,231.78,122.93,208.79Z"/><path class="cls-4" d="M126.14,195.4a45,45,0,0,1-4.23,7.22c-.34-1-.68-1.94-1-2.72l0-.06A30.63,30.63,0,0,0,126.14,195.4Z"/><path class="cls-4" d="M97.17,238a85,85,0,0,0,21.4-31.64,25.39,25.39,0,0,0,2.8-3c.52,1.6,1,3.45,1.56,5.43-13.21,23-25.41,46.34-29.06,72.75l-30.2.07C51.78,260,50,239.14,65.51,193c.6-.27,1.21-.51,1.82-.74-.42,4,.58,6.92,2.8,8.85a88.65,88.65,0,0,0-2.8,22.42c0,1.61,0,3.21.14,4.78.49,8.16,2.37,15.49,6.48,18.72a8,8,0,0,0,3.76,1.66C81.88,249.3,89.45,245.22,97.17,238Z"/><path class="cls-9" d="M121.92,202.62l-.55.73c-.33-1-.65-1.91-1-2.71l.16-.6.33-.21,0,.06C121.24,200.68,121.58,201.59,121.92,202.62Z"/><path class="cls-9" d="M120.88,199.84l-.33.21-.33.21,0-.06a37.86,37.86,0,0,1-2.32-8.69c.23-.17.46-.34.69-.52A37.78,37.78,0,0,0,120.88,199.84Z"/><path class="cls-4" d="M120.4,200.65c.32.79.64,1.7,1,2.71a25.39,25.39,0,0,1-2.8,3Q119.61,203.57,120.4,200.65Z"/><path class="cls-9" d="M120.56,200l-.16.6-.17-.39Z"/><path class="cls-11" d="M120.23,200.26l.17.39q-.78,2.93-1.83,5.74a21.37,21.37,0,0,1-6.21,4q2-3.88,3.85-7.92A33.54,33.54,0,0,0,120.23,200.26Z"/><path class="cls-12" d="M119.24,155.77c.2,1.53-.61,2-1.52,2.12l-.26,0v0a6.14,6.14,0,0,1-1.94-.32l-.08,0a6.52,6.52,0,0,0-.05-2.23c-.06-.32-.13-.62-.2-.92C115.2,154.42,118.8,152.32,119.24,155.77Z"/><path class="cls-11" d="M112.36,210.4a21.37,21.37,0,0,0,6.21-4A85,85,0,0,1,97.17,238c.26-1.69.51-3.39.7-5.1A141,141,0,0,0,112.36,210.4Z"/><path class="cls-9" d="M117.72,157.89l.5,0c0,.12-.47,4.88-.64,11.35-.26-.11-.51-.22-.76-.31.18-6.13.6-10.66.64-11.08A1.46,1.46,0,0,0,117.72,157.89Z"/><path class="cls-9" d="M118.58,191c-.23.18-.45.36-.69.52a91.8,91.8,0,0,1-1-9.61l.73-.6A91.92,91.92,0,0,0,118.58,191Z"/><path d="M117.47,157.87l.26,0a1.46,1.46,0,0,1-.26,0Z"/><path class="cls-9" d="M117.66,181.29l-.73.6c-.23-4.53-.21-9-.11-12.91.25.09.5.2.76.31C117.47,172.93,117.46,177.09,117.66,181.29Z"/><path class="cls-8" d="M115.52,157.58a6.14,6.14,0,0,0,1.94.32c0,.42-.46,5-.64,11.08a23.16,23.16,0,0,0-2.69-.93c-3.71-1-10.59-.22-10.59-.22h0a23,23,0,0,0,.56-3.24l.1-.33c5.14,1.48,10.56-2.15,11.26-6.7Z"/><path class="cls-8" d="M116.93,181.89a91.8,91.8,0,0,0,1,9.61,35.82,35.82,0,0,1-13.08,6.08.3.3,0,0,0-.15,0c-6.05,3.13-12.29,1.72-18.7-3.58a.41.41,0,0,0-.26-.1h0c-3-1.13-10.22-3.12-9.77-9.21a1.2,1.2,0,0,0-.36-.57.68.68,0,0,1-.13-.2,59.62,59.62,0,0,0,6,3c3.54,1.63,9.72-5.44,13.58-6s11.6,4.72,15.61,4.17C112.84,184.92,114.91,183.56,116.93,181.89Z"/><path class="cls-10" d="M116.82,169c-.11,3.87-.12,8.38.11,12.91-2,1.67-4.09,3-6.29,3.33-4,.54-11.6-4.72-15.61-4.17s-10,7.59-13.58,6a59.62,59.62,0,0,1-6-3c-.79-1.63-.9-10.18.77-11.09,3.81-2,8.25-3.37,9.21-3,5.1,9.24,15.35,9.08,18.13-2.09h0s6.88-.76,10.59.22A23.16,23.16,0,0,1,116.82,169Z"/><path class="cls-12" d="M115.4,155.34a6.52,6.52,0,0,1,.05,2.23c-.7,4.54-6.12,8.18-11.26,6.7a8.43,8.43,0,0,1-1.83-.76c-2.54-1.41-4.86-4.26-6.3-9.11a6.59,6.59,0,0,1-.27-1.78,7.13,7.13,0,0,1,.12-1.38c1.44-7.78,15.33-14,19.29,3.18C115.27,154.72,115.33,155,115.4,155.34Zm-18-1c4.36,14.68,18.07,8.06,16.62.8C110.46,137.33,95.12,146.62,97.41,154.35Z"/><path class="cls-10" d="M101.29,135.51c3.29-5.83,20.85-.51,12.84,6.47-2.32,2-1.72-7.63-13-5.49C100.67,136.58,101.06,135.91,101.29,135.51Z"/><path class="cls-13" d="M114,155.15c1.45,7.26-12.26,13.88-16.62-.8C95.12,146.62,110.46,137.33,114,155.15Z"/><path class="cls-11" d="M116.2,202.48q-1.83,4-3.85,7.92a26.74,26.74,0,0,1-9.65,2,60.46,60.46,0,0,0,5.85-7.34A35.32,35.32,0,0,0,116.2,202.48Z"/><path class="cls-3" d="M112.36,210.4a141,141,0,0,1-14.48,22.53,46,46,0,0,0-.7-16.75,10.5,10.5,0,0,0,3.18-1.71,22.56,22.56,0,0,0,2.36-2.09A26.74,26.74,0,0,0,112.36,210.4Z"/><path class="cls-9" d="M104.81,197.59a.32.32,0,0,1,.21.55c-8,7.5-14.32,4.55-19.74-3.48a.46.46,0,0,1,.42-.71h0l.26.1c6.41,5.3,12.65,6.7,18.7,3.58Z"/><path class="cls-9" d="M85.41,169.93a21.16,21.16,0,0,1-1.85-4.57l0-.24a5.37,5.37,0,0,0,1.72-.42c6.56,9.27,12.4,10.51,17.1-1.19a8.43,8.43,0,0,0,1.83.76l-.1.33a23,23,0,0,1-.56,3.24C100.76,179,90.51,179.17,85.41,169.93Z"/><path class="cls-14" d="M108.56,205a60.46,60.46,0,0,1-5.85,7.34h0a26.16,26.16,0,0,0-14.33-3.93,9.46,9.46,0,0,1-1-5A38.67,38.67,0,0,0,108.56,205Z"/><path class="cls-15" d="M102.7,212.38h0a22.56,22.56,0,0,1-2.36,2.09h0c-6.24-.73-10.23-2.72-12-6A26.16,26.16,0,0,1,102.7,212.38Z"/><path class="cls-14" d="M92.85,216.48a16.72,16.72,0,0,1-6-2c-.56-.3-1.12-.63-1.67-1s-1.09-.72-1.63-1.1c-.42-1.16-.79-2.31-1.07-3.43a39.26,39.26,0,0,1,5.88-.5c1.75,3.3,5.74,5.29,12,6h0a10.5,10.5,0,0,1-3.18,1.71A11.85,11.85,0,0,1,92.85,216.48Z"/><path class="cls-15" d="M97.17,216.18a46,46,0,0,1,.7,16.75l-.28.36c-9.36,3.73-15.83,8.93-19.89,15.37A8,8,0,0,1,73.94,247c-3.7-10.61,1.1-21.86,11.25-33.51.55.36,1.11.68,1.67,1l-2,10.26a1.25,1.25,0,0,0,2.29.9l5.7-9.14A11.85,11.85,0,0,0,97.17,216.18Z"/><path class="cls-14" d="M97.59,233.29l.28-.36c-.2,1.72-.45,3.41-.7,5.1-7.73,7.19-15.29,11.27-19.46,10.62C81.77,242.22,88.24,237,97.59,233.29Z"/><path class="cls-6" d="M96.06,154.4c1.44,4.85,3.76,7.7,6.3,9.11-4.69,11.71-10.54,10.47-17.1,1.19,3.84-1.57,7.05-7.25,7-12.36h0a4.53,4.53,0,0,1,3.56.27A6.59,6.59,0,0,0,96.06,154.4Z"/><path class="cls-12" d="M95.79,151.24h.12a7.13,7.13,0,0,0-.12,1.38,4.53,4.53,0,0,0-3.56-.27h0a8.78,8.78,0,0,0-.09-1.26l.1,0A4.47,4.47,0,0,1,95.79,151.24Z"/><path class="cls-14" d="M92.85,216.48l-5.7,9.14a1.25,1.25,0,0,1-2.29-.9l2-10.26A16.72,16.72,0,0,0,92.85,216.48Z"/><path class="cls-12" d="M85.27,164.71a5.37,5.37,0,0,1-1.72.42,4.74,4.74,0,0,1-2.4-.45,11,11,0,0,1-4.67-3.83C73.91,157,74.71,152,77,148.38h0c2.12-3.28,5.52-5.4,8.81-4.44a8.23,8.23,0,0,1,6.27,7.15,8.78,8.78,0,0,1,.09,1.26C92.32,157.46,89.11,163.13,85.27,164.71Zm-3.76-1.59c7,3.22,15-14.36,4-17.59C78.44,143.45,70.82,158.17,81.51,163.12Z"/><path class="cls-10" d="M89,133.91c.42.06.73.74.32.88-8.36,2.85-9.09,10.26-10.88,7.48.88-2.11,3-6.29,5.76-8.13h0A18,18,0,0,1,89,133.91Z"/><path class="cls-14" d="M87.35,203.42a9.46,9.46,0,0,0,1,5,39.26,39.26,0,0,0-5.88.5,19.09,19.09,0,0,1-.65-7.88A48,48,0,0,0,87.35,203.42Z"/><path class="cls-13" d="M85.51,145.53c11,3.23,3,20.81-4,17.59C70.82,158.17,78.44,143.45,85.51,145.53Z"/><path class="cls-8" d="M85.41,169.93c-1-.41-5.4,1-9.21,3,0,0-1.75-7.48.17-12l.11-.07a11,11,0,0,0,4.67,3.83,4.74,4.74,0,0,0,2.4.45l0,.24A21.16,21.16,0,0,0,85.41,169.93Z"/><path class="cls-14" d="M83.56,212.38c.54.39,1.09.76,1.63,1.1C75,225.13,70.24,236.38,73.94,247c-4.11-3.24-6-10.57-6.48-18.72h0A78,78,0,0,1,83.56,212.38Z"/><path class="cls-11" d="M82.48,208.95c.29,1.12.65,2.27,1.07,3.43a78,78,0,0,0-16.09,15.89h0c-.1-1.57-.14-3.17-.14-4.78a59.68,59.68,0,0,1,11-11.44,2.72,2.72,0,0,0,1-2.85,14.51,14.51,0,0,1-.33-1.78Q80.72,208.23,82.48,208.95Z"/><path class="cls-11" d="M81.83,201.06a19.09,19.09,0,0,0,.65,7.88q-1.76-.71-3.44-1.53a16.62,16.62,0,0,1,.9-7.34C80.57,200.42,81.21,200.75,81.83,201.06Z"/><path class="cls-16" d="M84.2,134.14c-2.72,1.84-4.88,6-5.76,8.13C75.12,137.12,79.85,134.88,84.2,134.14Z"/><path class="cls-11" d="M79.94,200.07h0a16.62,16.62,0,0,0-.9,7.34,30.1,30.1,0,0,1-8.91-6.35c.82-2.87,1.73-4.91,2.62-5.66A61.47,61.47,0,0,0,79.94,200.07Z"/><path class="cls-3" d="M79.38,209.2a2.72,2.72,0,0,1-1,2.85,59.68,59.68,0,0,0-11,11.44,88.65,88.65,0,0,1,2.8-22.42A30.1,30.1,0,0,0,79,207.41,14.51,14.51,0,0,0,79.38,209.2Z"/><path class="cls-16" d="M75.43,184c-2.3-1.4-4.17-3-5-5s2.23-4.23,5.75-6.05C74.53,173.8,74.65,182.35,75.43,184Z"/><path class="cls-5" d="M69.61,192.89q1.58,1.33,3.14,2.51c-.89.75-1.81,2.79-2.62,5.66-2.22-1.94-3.23-4.83-2.8-8.85.48-.19,1-.36,1.47-.52A3.18,3.18,0,0,0,69.61,192.89Z"/><path class="cls-6" d="M69.68,155.3l.13,0c-.64,5.23-1.28,11.11-1.68,16.65C62.63,160.16,63.29,153.2,69.68,155.3Z"/><path class="cls-2" d="M63.66,281.61l-38.32.09C27.1,239.94,40.82,203.65,65.51,193,50,239.14,51.78,260,63.66,281.61Z"/></g></svg>