<svg id="Layer_1" data-name="Layer 1" xmlns="http://www.w3.org/2000/svg" viewBox="0 0 470.16 440"><defs><style>.cls-1{fill:#10213a;}.cls-2{fill:#f4e8c3;}.cls-3{fill:#8a9fbc;}.cls-4{fill:#6a83a0;}.cls-5{fill:#d88361;}.cls-6{fill:#cc8f7a;}.cls-7{fill:#f2b78b;}.cls-8{fill:#aa593d;}.cls-9{fill:#663a28;}.cls-10{fill:#cebf97;}.cls-11{fill:#9b7726;}.cls-12{fill:#d9e7ed;}.cls-13{fill:#ad3821;}.cls-14{fill:#ea6647;}.cls-15{fill:#442318;}</style></defs><title>teddy_back_final</title><g id="_Group_" data-name="&lt;Group&gt;"><path class="cls-1" d="M348.71,432l-112.19.25c2.19-32.68,18.73-68.92,38.94-106.91,3.73,16.29,6.8,34.32,7,35.81H269.63v9.15l-5.47,25.69,38.35,8.49,3.85-30.83V361.11H283.12l.59-.1c0-.3-3.37-20-7.4-37.31,5.1-9.59,10.44-19.29,15.84-29.06C330.61,308.7,344.87,350.4,348.71,432Z"/><path class="cls-2" d="M306.36,361.11V373.6l-36.73-3.34v-9.15H282.5a.65.65,0,0,0,0,.1l.6-.1Z"/><polygon class="cls-3" points="306.36 373.6 302.51 404.44 264.16 395.95 269.63 370.26 306.36 373.6"/><path class="cls-4" d="M287.2,293c1.69.48,3.33,1,4.94,1.62-5.39,9.77-10.74,19.47-15.84,29.06-.67-2.88-1.37-5.68-2.06-8.32C278.54,307.93,282.89,300.48,287.2,293Z"/><path class="cls-5" d="M282.55,230.61c11.53-4.84,11.54,4.74,3.73,27.2h0C285.2,248.66,283.54,239,282.55,230.61Z"/><path class="cls-6" d="M286.69,262c.85,9.26.83,17.73-1.52,23.59a28,28,0,0,1-3.39,6,38.69,38.69,0,0,1-3.28,4,48.57,48.57,0,0,1-8.34,7,59.92,59.92,0,0,1-3.66-14c7.83-6.14,14.64-14.81,20.18-26.6Z"/><path class="cls-7" d="M286.69,262h0c-5.54,11.8-12.35,20.46-20.18,26.6A145.78,145.78,0,0,1,265,273.23c3.45-3,6.85-6.37,10.31-8.66,4.06-2.69-3.76-7.52-10.43-10.37.28-10.27,1-17.81,1-18l-.79-.07c1.44-.16,2.72-.94,2.41-3.37-.7-5.48-6.41-2.15-6.41-2.15-6.28-27.25-28.32-17.38-30.59-5h-.19c-1.53-.77-4.17-1.07-5.65-.26l-.16,0c-.66-5-3.61-9.48-10-11.34-5.22-1.53-10.6,1.83-14,7a31.32,31.32,0,0,1,2.21-9.67c2.83,4.41,4-7.34,17.25-11.86.65-.23.17-1.31-.5-1.4a28.58,28.58,0,0,0-7.6.36c11.45-7.74,32.43-13.37,38.18-12.7,5.6.66,32.55,27.43,32.55,27.43a16.36,16.36,0,0,0-.83,3,78.26,78.26,0,0,0,.67,14.46c1,8.42,2.65,18,3.7,27.2C286.41,259.23,286.57,260.63,286.69,262Zm-27.25-51.12c12.7-11.07-15.15-19.51-20.37-10.26-.36.64-1,1.69-.26,1.56C256.72,198.78,255.76,214.12,259.44,210.89Z"/><path class="cls-3" d="M281.77,291.64c1.86.41,3.67.88,5.43,1.39-4.32,7.46-8.67,14.9-13,22.36-.82-3.06-1.63-5.87-2.46-8.32a71.3,71.3,0,0,0,6.7-11.45A38.69,38.69,0,0,0,281.77,291.64Z"/><path class="cls-8" d="M283.7,361l-.59.1h-.61c-.25-1.49-3.32-19.52-7-35.81.26-.53.55-1.07.85-1.59C280.33,341,283.66,360.71,283.7,361Z"/><path class="cls-9" d="M282.71,213.18c.44-1.35.85-2.75.54-3.62C279.36,198.48,255.48,179,247,179.65c-29.4,2.41-46.54,17.38-52.27,24.06a10.48,10.48,0,0,0-2.43,5.29c-18.79-22.33,39.39-49.9,55.59-33,33.57.73,45.72,17.67,34,40.13A16.36,16.36,0,0,1,282.71,213.18Z"/><path class="cls-6" d="M186.48,258.45c.64-8.79,1.64-18.11,2.66-26.41,1.26-10.27,2.54-19,3.18-23a10.48,10.48,0,0,1,2.43-5.29c5.73-6.68,22.87-21.65,52.27-24.06,8.46-.7,32.34,18.83,36.23,29.91.31.88-.1,2.27-.54,3.62,0,0-27-26.77-32.55-27.43-5.75-.67-26.73,5-38.18,12.7h0c-6.89,1.17-14.4,4.72-9.14,12.9a31.32,31.32,0,0,0-2.21,9.67h0c-3.72,5.72-5,13.67-.91,19.77l-.17.11c-3,7.13-.26,19-.26,19-5.59,2.9-10.33,6.61-9.12,9.6,1.28,3.22,4.26,5.77,7.9,8a1.08,1.08,0,0,0,.2.31,1.91,1.91,0,0,1,.58.9c-.72,9.65,10.74,12.82,15.49,14.6a.73.73,0,0,0-.66,1.13c8.6,12.74,18.56,17.42,31.31,5.53a.5.5,0,0,0-.34-.88,56.81,56.81,0,0,0,20.75-9.65,60,60,0,0,0,3.68,13.79l0,.1a53.19,53.19,0,0,1-6.39,3.51,56,56,0,0,1-12.12,4.06A61.33,61.33,0,0,1,217,308.34a76.11,76.11,0,0,1-8.75-3.74c-1-.49-2-1-3-1.57h0a97.5,97.5,0,0,1-11.4-7.4q-2.48-1.87-5-4a5,5,0,0,1-1.28-1.91C185.37,284.63,185.47,272.2,186.48,258.45Z"/><path d="M283.12,361.11l-.6.1a.65.65,0,0,1,0-.1Z"/><path class="cls-8" d="M276.31,323.7c-.3.53-.59,1.07-.85,1.59-.68-2.91-1.37-5.77-2.06-8.45l.85-1.46C274.94,318,275.64,320.83,276.31,323.7Z"/><path class="cls-9" d="M264.91,254.21c6.67,2.85,14.49,7.68,10.43,10.37-3.46,2.29-6.86,5.68-10.31,8.66C264.71,266.58,264.74,260,264.91,254.21Z"/><path class="cls-8" d="M274.24,315.38l-.85,1.46c-.83-3.15-1.65-6.08-2.48-8.62.3-.38.59-.77.88-1.16C272.61,309.51,273.43,312.33,274.24,315.38Z"/><path class="cls-4" d="M273.39,316.85c.7,2.69,1.38,5.54,2.06,8.45-20.21,38-36.74,74.23-38.94,106.91l-9.22,0C233.1,390.35,252.45,353.32,273.39,316.85Z"/><path class="cls-3" d="M278.49,295.62a71.3,71.3,0,0,1-6.7,11.45c-.54-1.63-1.08-3.08-1.61-4.32l0-.1A48.57,48.57,0,0,0,278.49,295.62Z"/><path class="cls-3" d="M232.54,363.23C245.62,351.07,259,333.31,266.48,313a40.27,40.27,0,0,0,4.44-4.82c.83,2.54,1.65,5.47,2.48,8.62-20.94,36.47-40.29,73.5-46.1,115.39l-47.91.11C160.55,398,157.76,365,182.32,291.73c.95-.43,1.92-.82,2.89-1.17-.67,6.38.92,11,4.45,14-2.51,8.74-4.44,22.31-4.45,35.56,0,2.55.06,5.1.22,7.59.78,12.94,3.75,24.56,10.27,29.7a12.61,12.61,0,0,0,6,2.64C208.28,381.11,220.28,374.63,232.54,363.23Z"/><path class="cls-8" d="M271.79,307.06c-.29.4-.58.78-.88,1.16-.52-1.59-1-3-1.53-4.29l.25-.95c.17-.11.35-.22.52-.34l0,.1C270.71,304,271.25,305.43,271.79,307.06Z"/><path class="cls-8" d="M270.14,302.65c-.17.12-.35.23-.52.34s-.34.23-.52.34l0-.1a60,60,0,0,1-3.68-13.79c.37-.26.73-.54,1.09-.83A59.92,59.92,0,0,0,270.14,302.65Z"/><path class="cls-3" d="M269.38,303.94c.5,1.26,1,2.7,1.53,4.29a40.27,40.27,0,0,1-4.44,4.82Q268.13,308.57,269.38,303.94Z"/><path class="cls-8" d="M269.63,303l-.25.95-.26-.61C269.29,303.22,269.46,303.11,269.63,303Z"/><path class="cls-10" d="M269.11,303.32l.26.61q-1.24,4.64-2.9,9.11a33.89,33.89,0,0,1-9.85,6.35q3.22-6.15,6.1-12.56A53.19,53.19,0,0,0,269.11,303.32Z"/><path class="cls-11" d="M267.54,232.76c.31,2.43-1,3.21-2.41,3.37l-.41,0v0a9.73,9.73,0,0,1-3.08-.5l-.12,0a10.34,10.34,0,0,0-.08-3.54c-.1-.5-.2-1-.31-1.46C261.13,230.61,266.85,227.28,267.54,232.76Z"/><path class="cls-10" d="M256.62,319.4a33.89,33.89,0,0,0,9.85-6.35c-7.48,20.26-20.86,38-33.94,50.18.41-2.69.8-5.37,1.11-8.09A223.69,223.69,0,0,0,256.62,319.4Z"/><path class="cls-8" d="M265.13,236.13l.79.07c0,.19-.74,7.73-1,18-.41-.18-.8-.35-1.2-.49.29-9.72.95-16.9,1-17.58A2.32,2.32,0,0,0,265.13,236.13Z"/><path class="cls-8" d="M266.49,288.61c-.36.29-.72.56-1.09.83a145.59,145.59,0,0,1-1.52-15.25l1.15-1A145.78,145.78,0,0,0,266.49,288.61Z"/><path d="M264.73,236.09l.41,0a2.32,2.32,0,0,1-.41,0Z"/><path class="cls-8" d="M265,273.23l-1.15,1c-.36-7.18-.34-14.34-.17-20.48.4.14.79.31,1.2.49C264.74,260,264.71,266.58,265,273.23Z"/><path class="cls-7" d="M261.64,235.64a9.73,9.73,0,0,0,3.08.5c-.07.67-.73,7.85-1,17.58a36.73,36.73,0,0,0-4.27-1.47c-5.89-1.56-16.8-.35-16.8-.35h0a36.48,36.48,0,0,0,.89-5.13l.16-.53c8.15,2.35,16.75-3.42,17.85-10.62Z"/><path class="cls-7" d="M263.87,274.19a145.59,145.59,0,0,0,1.52,15.25,56.81,56.81,0,0,1-20.75,9.65.47.47,0,0,0-.24.06c-9.6,5-19.49,2.73-29.66-5.67a.65.65,0,0,0-.41-.16,0,0,0,0,1,0,0c-4.75-1.79-16.21-5-15.49-14.6a1.91,1.91,0,0,0-.58-.9,1.08,1.08,0,0,1-.2-.31,94.55,94.55,0,0,0,9.54,4.81c5.61,2.58,15.42-8.63,21.54-9.46,6.35-.86,18.4,7.48,24.76,6.62C257.39,279,260.67,276.84,263.87,274.19Z"/><path class="cls-9" d="M263.71,253.72c-.17,6.14-.19,13.3.17,20.48-3.2,2.65-6.49,4.8-10,5.27-6.35.86-18.4-7.48-24.76-6.62-6.13.83-15.93,12-21.54,9.46a94.55,94.55,0,0,1-9.54-4.81c-1.25-2.58-1.43-16.15,1.22-17.59,6-3.15,13.08-5.35,14.6-4.7,8.09,14.65,24.35,14.4,28.75-3.32h0s10.91-1.21,16.8.35A36.73,36.73,0,0,1,263.71,253.72Z"/><path class="cls-11" d="M261.44,232.08a10.34,10.34,0,0,1,.08,3.54c-1.1,7.21-9.7,13-17.85,10.62a13.37,13.37,0,0,1-2.9-1.2c-4-2.23-7.71-6.75-10-14.45a10.45,10.45,0,0,1-.43-2.83,11.31,11.31,0,0,1,.19-2.19c2.28-12.34,24.31-22.2,30.59,5C261.24,231.09,261.34,231.57,261.44,232.08Zm-28.53-1.57c6.92,23.28,28.66,12.78,26.36,1.27C253.61,203.51,229.28,218.24,232.91,230.51Z"/><path class="cls-9" d="M239.07,200.63c5.22-9.24,33.06-.8,20.37,10.26-3.68,3.22-2.72-12.11-20.63-8.7C238.09,202.32,238.71,201.27,239.07,200.63Z"/><path class="cls-12" d="M259.27,231.78c2.3,11.51-19.45,22-26.36-1.27C229.28,218.24,253.61,203.51,259.27,231.78Z"/><path class="cls-10" d="M262.72,306.84q-2.9,6.42-6.1,12.56a42.41,42.41,0,0,1-15.3,3.14,95.89,95.89,0,0,0,9.28-11.64A56,56,0,0,0,262.72,306.84Z"/><path class="cls-2" d="M256.62,319.4a223.69,223.69,0,0,1-23,35.74c1-8.21,1.23-16.76-1.11-26.57a16.65,16.65,0,0,0,5-2.71,35.79,35.79,0,0,0,3.74-3.32A42.41,42.41,0,0,0,256.62,319.4Z"/><path class="cls-8" d="M244.64,299.09a.5.5,0,0,1,.34.88c-12.76,11.89-22.72,7.22-31.31-5.53a.73.73,0,0,1,.66-1.13,0,0,0,0,0,0,0l.41.16c10.17,8.4,20.06,10.63,29.66,5.67Z"/><path class="cls-8" d="M213.88,255.21a33.56,33.56,0,0,1-2.94-7.24l0-.38a8.52,8.52,0,0,0,2.73-.66c10.41,14.71,19.67,16.68,27.12-1.89a13.37,13.37,0,0,0,2.9,1.2l-.16.53a36.48,36.48,0,0,1-.89,5.13C238.23,269.61,222,269.86,213.88,255.21Z"/><path class="cls-13" d="M250.6,310.9a95.89,95.89,0,0,1-9.28,11.64h0a41.49,41.49,0,0,0-22.73-6.23,15,15,0,0,1-1.61-8A61.33,61.33,0,0,0,250.6,310.9Z"/><path class="cls-14" d="M241.3,322.54h0a35.79,35.79,0,0,1-3.74,3.32h0c-9.89-1.15-16.23-4.32-19-9.54A41.49,41.49,0,0,1,241.3,322.54Z"/><path class="cls-13" d="M225.68,329.05a26.52,26.52,0,0,1-9.49-3.2c-.89-.48-1.77-1-2.65-1.56s-1.73-1.14-2.59-1.75c-.67-1.85-1.25-3.67-1.7-5.44a62.26,62.26,0,0,1,9.33-.79c2.77,5.23,9.11,8.39,19,9.54h0a16.65,16.65,0,0,1-5,2.71A18.8,18.8,0,0,1,225.68,329.05Z"/><path class="cls-14" d="M232.54,328.57c2.35,9.81,2.09,18.35,1.11,26.57l-.44.56c-14.84,5.92-25.1,14.17-31.54,24.37a12.61,12.61,0,0,1-6-2.64c-5.87-16.83,1.74-34.67,17.84-53.15.88.56,1.76,1.08,2.65,1.56L213,342.12a2,2,0,0,0,3.63,1.43l9-14.49A18.8,18.8,0,0,0,232.54,328.57Z"/><path class="cls-13" d="M233.21,355.7l.44-.56c-.31,2.72-.71,5.41-1.11,8.09-12.25,11.4-24.25,17.87-30.87,16.84C208.1,369.87,218.37,361.62,233.21,355.7Z"/><path class="cls-5" d="M230.77,230.59c2.29,7.7,6,12.22,10,14.45-7.44,18.57-16.71,16.6-27.12,1.89,6.09-2.49,11.19-11.5,11-19.6h0c1.57-.79,4-.34,5.65.43A10.45,10.45,0,0,0,230.77,230.59Z"/><path class="cls-11" d="M230.34,225.57h.19a11.31,11.31,0,0,0-.19,2.19c-1.63-.77-4.08-1.22-5.65-.43h0a13.93,13.93,0,0,0-.14-2l.16,0C226.17,224.5,228.81,224.8,230.34,225.57Z"/><path class="cls-13" d="M225.68,329.05l-9,14.49a2,2,0,0,1-3.63-1.43l3.18-16.27A26.52,26.52,0,0,0,225.68,329.05Z"/><path class="cls-11" d="M213.65,246.93a8.52,8.52,0,0,1-2.73.66,7.51,7.51,0,0,1-3.8-.71,17.47,17.47,0,0,1-7.41-6.08c-4.06-6.1-2.81-14.05.91-19.77h0c3.37-5.2,8.75-8.57,14-7,6.34,1.86,9.29,6.29,10,11.34a13.93,13.93,0,0,1,.14,2C224.84,235.43,219.74,244.44,213.65,246.93Zm-6-2.52c11,5.11,23.74-22.78,6.34-27.9C202.83,213.22,190.74,236.56,207.7,244.41Z"/><path class="cls-9" d="M219.58,198.09c.67.1,1.15,1.17.5,1.4-13.26,4.52-14.42,16.27-17.25,11.86,1.4-3.34,4.82-10,9.14-12.9h0A28.58,28.58,0,0,1,219.58,198.09Z"/><path class="cls-13" d="M217,308.34a15,15,0,0,0,1.61,8,62.26,62.26,0,0,0-9.33.79,30.27,30.27,0,0,1-1-12.5A76.11,76.11,0,0,0,217,308.34Z"/><path class="cls-12" d="M214,216.52c17.4,5.12,4.7,33-6.34,27.9C190.74,236.56,202.83,213.22,214,216.52Z"/><path class="cls-7" d="M213.88,255.21c-1.52-.65-8.56,1.55-14.6,4.7,0,0-2.77-11.87.26-19l.17-.11a17.47,17.47,0,0,0,7.41,6.08,7.51,7.51,0,0,0,3.8.71l0,.38A33.56,33.56,0,0,0,213.88,255.21Z"/><path class="cls-13" d="M210.95,322.54c.86.61,1.73,1.2,2.59,1.75-16.1,18.47-23.71,36.31-17.84,53.15-6.52-5.13-9.49-16.76-10.27-29.7h0A123.75,123.75,0,0,1,210.95,322.54Z"/><path class="cls-10" d="M209.24,317.1c.46,1.77,1,3.6,1.7,5.44a123.75,123.75,0,0,0-25.51,25.2h0c-.16-2.49-.22-5-.22-7.59,5.32-6.89,11-13.25,17.48-18.14a4.31,4.31,0,0,0,1.63-4.52,23,23,0,0,1-.53-2.83Q206.45,316,209.24,317.1Z"/><path class="cls-10" d="M208.21,304.6a30.27,30.27,0,0,0,1,12.5q-2.79-1.13-5.45-2.43A26.36,26.36,0,0,1,205.21,303C206.21,303.58,207.22,304.1,208.21,304.6Z"/><path class="cls-15" d="M212,198.45c-4.32,2.93-7.73,9.55-9.14,12.9C197.57,203.17,205.07,199.62,212,198.45Z"/><path class="cls-10" d="M205.21,303h0a26.36,26.36,0,0,0-1.43,11.64,47.73,47.73,0,0,1-14.13-10.07c1.29-4.56,2.75-7.79,4.16-9A97.5,97.5,0,0,0,205.21,303Z"/><path class="cls-2" d="M204.32,317.49a4.31,4.31,0,0,1-1.63,4.52c-6.51,4.89-12.16,11.25-17.48,18.14,0-13.25,1.94-26.82,4.45-35.56a47.73,47.73,0,0,0,14.13,10.07A23,23,0,0,0,204.32,317.49Z"/><path class="cls-15" d="M198.06,277.5c-3.64-2.22-6.62-4.76-7.9-8-1.21-3,3.54-6.7,9.12-9.6C196.63,261.35,196.81,274.92,198.06,277.5Z"/><path class="cls-4" d="M188.83,291.64q2.5,2.1,5,4c-1.41,1.19-2.87,4.42-4.16,9-3.52-3.07-5.12-7.66-4.45-14,.77-.3,1.55-.56,2.34-.83A5,5,0,0,0,188.83,291.64Z"/><path class="cls-5" d="M188.93,232l.2,0c-1,8.3-2,17.62-2.66,26.41C177.76,239.73,178.8,228.68,188.93,232Z"/><path class="cls-1" d="M179.39,432.34l-60.77.14c2.78-66.24,24.54-123.79,63.69-140.76C157.76,365,160.55,398,179.39,432.34Z"/></g></svg>