<svg xmlns="http://www.w3.org/2000/svg" viewBox="0 0 238.54 265.27"><defs><style>.cls-1{fill:#fff;}.cls-2{fill:#10213a;}.cls-3{fill:#f4e8c3;}.cls-4{fill:#8a9fbc;}.cls-5{fill:#6a83a0;}.cls-6{fill:#d88361;}.cls-7{fill:#cc8f7a;}.cls-8{fill:#f2b78b;}.cls-9{fill:#aa593d;}.cls-10{fill:#663a28;}.cls-11{fill:#cebf97;}.cls-12{fill:#9b7726;}.cls-13{fill:#d9e7ed;}.cls-14{fill:#ad3821;}.cls-15{fill:#ea6647;}.cls-16{fill:#442318;}</style></defs><title>teddy</title><g id="Layer_1" data-name="Layer 1"><path class="cls-1" d="M129.85,90.19c-3.42,0-11.8-1.4-15.65-14.36-1.29-4.34.19-9.29,3.85-12.93a15,15,0,0,1,10.4-4.49,12.6,12.6,0,0,1,3.68.54c4,1.23,9.32,5,11.54,16.09,1.28,6.38-3.39,13-10.41,14.72A14.13,14.13,0,0,1,129.85,90.19Zm-1.41-24.08a7.26,7.26,0,0,0-5,2.26c-1.62,1.61-2.36,3.68-1.89,5.27,1.69,5.7,4.64,8.84,8.29,8.84a6.36,6.36,0,0,0,1.53-.19c3-.75,5.18-3.38,4.71-5.74-1.15-5.73-3.36-9.36-6.23-10.24A4.92,4.92,0,0,0,128.44,66.11Z"/><path class="cls-1" d="M131.07,62.4a10.68,10.68,0,0,0-10.49,3.06c-2.72,2.7-3.84,6.28-2.93,9.35,2.59,8.73,7.63,11.78,12.2,11.78a10.53,10.53,0,0,0,2.53-.31c5.18-1.28,8.65-6,7.75-10.52C138.26,66.43,134.17,63.34,131.07,62.4Zm1.19,23.39c-4.88,1.21-11.15-1.08-14.13-11.13-.86-2.89.22-6.28,2.81-8.85a10.18,10.18,0,0,1,10-2.94c3,.91,6.89,3.89,8.71,13C140.49,80.11,137.18,84.57,132.26,85.79Z"/><path class="cls-1" d="M99.17,90.7a9.29,9.29,0,0,1-3.93-.87C86,85.56,84.54,76.62,87.17,69.65,89.1,64.5,94,59,100.33,59a10.29,10.29,0,0,1,2.91.42,13,13,0,0,1,9.64,10.36,20.21,20.21,0,0,1-7,18.48A10.94,10.94,0,0,1,99.17,90.7Zm1.15-24c-2.09,0-4.76,2.56-5.95,5.7-.83,2.2-2.08,7.62,4.1,10.49a1.64,1.64,0,0,0,.71.17,3.49,3.49,0,0,0,2-.87,12.74,12.74,0,0,0,4.16-11,5.39,5.39,0,0,0-4.25-4.41A2.59,2.59,0,0,0,100.32,66.65Z"/><path class="cls-1" d="M96.75,86.57a5.71,5.71,0,0,0,2.41.54,7.36,7.36,0,0,0,4.5-1.73,16.61,16.61,0,0,0,5.67-15,9.44,9.44,0,0,0-7.12-7.58c-4.87-1.43-9.76,3-11.68,8.09S89.14,83,96.75,86.57ZM91,71.09c1.6-4.26,5.34-8,9.31-8a6.2,6.2,0,0,1,1.76.25,9,9,0,0,1,6.77,7.19c.93,4.9-1.53,11.39-5.48,14.48A6,6,0,0,1,97,86.11C89.67,82.73,89.1,76.14,91,71.09Z"/><path class="cls-1" d="M139.22,62.61a4.64,4.64,0,0,1-.64,0c-2.35-.34-3.51-2.16-4.44-3.62-1.37-2.15-2.79-4.38-7.28-4.38a18,18,0,0,0-3.34.34,4.22,4.22,0,0,1-.82.08,4,4,0,0,1-3.28-1.68c-1.56-2.18-.27-4.47.21-5.33,1.91-3.39,5.88-5.3,10.9-5.3a21.54,21.54,0,0,1,2.26.12c5.13.53,11.73,3.06,13.44,8.45.63,2,1,6-3.69,10A5,5,0,0,1,139.22,62.61Z"/><path class="cls-1" d="M132.43,46.37c-4.58-.48-8.18.77-9.62,3.33l0,0c-.38.67-.63,1.17-.42,1.47a.45.45,0,0,0,.5.15c9.57-1.81,12.54,2.85,14.32,5.64.7,1.1,1.2,1.89,1.9,2h.14a1.48,1.48,0,0,0,1-.43c3-2.6,3.07-4.83,2.62-6.24C141.71,48.86,136.65,46.81,132.43,46.37Zm7.43,11.82a.92.92,0,0,1-.7.31c-.47-.07-.95-.82-1.55-1.76-1.56-2.45-4-6.28-10.72-6.28a22.4,22.4,0,0,0-4.09.41,5.1,5.1,0,0,1,.42-.87l0,0c1.34-2.38,4.76-3.53,9.13-3.08,4.2.44,9,2.5,10,5.61C142.91,54.31,142.05,56.28,139.86,58.2Z"/><path class="cls-1" d="M120.59,247.07l-.23,0a3.89,3.89,0,0,1-.75-.18h-5.2a3.82,3.82,0,0,1-1.24.21H113l-.28,0h-.09a3.8,3.8,0,0,1-.7-.17L74.25,247a3.86,3.86,0,0,1-1.86,0l-49.82.11a3.85,3.85,0,0,1-3.86-4c1.26-30,7-57,16.72-78.23C45,144,58.27,129.31,73.92,122.4a3.72,3.72,0,0,1,.47-.21l1-.44c-.68-3.79-1.06-10.39-.19-23-5.48-12.1-6.35-20.37-2.58-24.61A7.48,7.48,0,0,1,78,71.67C78.79,65.89,79.5,61,80,57.83c-5.22-7.51-3.32-16.41,5.27-24.12,8.41-7.55,21.44-12.62,32.41-12.62,5.94,0,10.84,1.52,14.29,4.41,15.44.61,26.59,5.48,31.48,13.78,2.83,4.78,4.92,12.89-.91,24.54a48.93,48.93,0,0,0,.16,6.17l.71,0a7,7,0,0,1,4.93,1.84c3.84,3.61,3.31,10.74-2,26.2,1.27,11.52.89,18.77-1.26,24.12q-.23.58-.5,1.15c17.52,5.14,29.7,15.92,38.09,33.6,8.82,18.58,13.8,45.82,15.68,85.73a3.85,3.85,0,0,1-3.84,4l-92.3.21a3.83,3.83,0,0,1-1.29.22ZM69,134c-23.7,16.3-39.57,55.36-42.39,105.4l40.32-.09a91.15,91.15,0,0,1-9.85-41.15C56.89,181,60.7,160.43,69,134ZM76.42,136c-17.07,54.34-13.61,79.09-.87,103.22l34.35-.08c3.56-22.35,11.58-43,21.19-62.46a117,117,0,0,1-8.8,9.63C111.34,197,100.41,203.44,93,203.44a11.87,11.87,0,0,1-1.53-.1h-.06l-.25,0c-4.76-.74-11.19-4.2-14.58-16.38a67.78,67.78,0,0,1-2.14-13.77l0-.18v-.38c-.11-2-.17-4-.17-6.1a4,4,0,0,1,0-.55,127,127,0,0,1,3.3-28.24A14.23,14.23,0,0,1,76.42,136Zm75.43,29c-12.35,24-24.08,50.49-26.73,74.13l85.32-.19C207,174.68,195.21,144.39,169,133.06c-3.46,6.28-7.23,13.14-10.88,20,2.4,10.46,4.42,21.53,5.36,26.81h15.65a3.85,3.85,0,0,1,3.85,3.85v9.67l.13.28-.13.78v.73l-.12.2-3.11,25a3.85,3.85,0,0,1-3.82,3.37h-.39l-.44-.09-32-7.08a3.85,3.85,0,0,1-2.93-4.58l4.47-21v-7.23a3.85,3.85,0,0,1,3.85-3.85h6.15C154,176.27,153,170.87,151.85,165Zm20.81,50.14,2.19-17.58-23.27-2.12-3.05,14.35ZM90.26,195c5.67-7.8,13.93-14,24.63-18.62a58.48,58.48,0,0,0-.37-15.47l-.6,0-6.34,10.18a5.45,5.45,0,0,1-4.64,2.6,5.56,5.56,0,0,1-2-.38,5.44,5.44,0,0,1-3.39-6.18l.67-3.42C90,175.33,87.35,185.6,90.11,194.88Zm85-5.08v-2.35H160.08l-.48.08h-.34a3.81,3.81,0,0,1-.79-.08h-6.11v.27ZM82.22,173.72q.17,2.17.43,4.16a49.29,49.29,0,0,1,3.29-8.67Q84,171.42,82.22,173.72Zm39.76-15a59.38,59.38,0,0,1,.88,7.47q3.71-5.46,7.1-11.29-1.68.24-3.43.35a29.89,29.89,0,0,1-2.4,2A22.06,22.06,0,0,1,122,158.76Zm-37.9-15.07c-.69,3.53-1.23,7.42-1.59,11.39a63.3,63.3,0,0,1,7.78-7c0-.2-.09-.4-.14-.6A47.11,47.11,0,0,1,84.08,143.69ZM134.36,146l.54-.19.35-.69-.32.08ZM131,135a4.33,4.33,0,0,1-.44.47,32.74,32.74,0,0,1-4.21,3.36,42.45,42.45,0,0,0,17-5.12q-.54-1.65-1-3.51A52.16,52.16,0,0,1,131,135Zm-44.84.43a32.05,32.05,0,0,0,3.82,3q.12-.69.28-1.38-1.89-1.15-3.79-2.44Q86.34,135,86.18,135.46Zm13.18-2.16q1.25.62,2.5,1.17a45.62,45.62,0,0,1-3.21-4.24,4.61,4.61,0,0,1-.27-.46c-4.65-1.77-12.31-5.36-12.77-13.31A25.41,25.41,0,0,1,82.47,114c.17,6.64,1,8.48,1.24,8.87a82.44,82.44,0,0,0,12.55,8.77l.71.24.25.29,1.22.65.45.08Zm6.07-8.8c4.76,3.87,9.28,5.81,13.5,5.81a14.53,14.53,0,0,0,6.29-1.48l.27-.3.69-.17.39-.2h.38a43.62,43.62,0,0,0,13.89-6q-.27-2-.48-4.1a15.13,15.13,0,0,1-4.44,1.37,9.85,9.85,0,0,1-1.34.09c-3.35,0-7.22-1.57-11-3.1-2.77-1.13-6.22-2.53-8.07-2.53l-.29,0c-1.24.17-3.83,1.92-5.91,3.32-3.13,2.12-6.36,4.3-9.62,4.82.86.36,1.79.72,2.79,1.08l1,.35a4.48,4.48,0,0,1,.6.2h0a4.54,4.54,0,0,1,.44.22l.66.33Zm44.63.29q.38,2,.83,3.77,1-.89,1.92-1.81a3.76,3.76,0,0,1,.59-.62,27.19,27.19,0,0,0,1.88-2.27,3.83,3.83,0,0,1,.46-.66,19.9,19.9,0,0,0,2.16-3.93,18.49,18.49,0,0,0,1.06-4.2A56.16,56.16,0,0,1,150.06,124.79ZM148.61,112q.1,1.66.23,3.24a55.12,55.12,0,0,0,6.76-9.05l-.19.13a52.19,52.19,0,0,0-5.65,4.65Zm-56.46-.64c2,1.09,4.18,2.1,6.17,3,1.42,0,4.6-2.18,6.71-3.6a47,47,0,0,1,5.51-3.38A19.36,19.36,0,0,1,100,99.37a42.49,42.49,0,0,0-7.52,2.89,10.66,10.66,0,0,0-.24,1.22A33.4,33.4,0,0,0,92.14,111.41Zm27.73-4.58a62.44,62.44,0,0,1,6.63,2.42c2.92,1.19,6.22,2.53,8.06,2.53l.29,0a11.8,11.8,0,0,0,4.9-2.38c-.16-4-.2-8.18-.11-12.61l-.62-.18a24,24,0,0,0-5.89-.53c-1.56,0-3.07.07-4.26.15C127,101.42,123.87,105.09,119.88,106.83Zm28.43-4.77.89-.71q-.39-.28-.89-.6Q148.31,101.41,148.31,102.06Zm.18-10c8.76,4.24,9.31,7.59,9.5,8.75a5.49,5.49,0,0,1,.07,1c.25-.5.5-1,.75-1.51-.47-4.64-1.18-9.51-1.87-14.23-1.31-8.95-2.54-17.38-2-23.59a7.5,7.5,0,0,1,.17-1.06c-10.8-10.57-20.81-19.23-23.37-20.18h-.27C128,41.22,119,43.38,111,46.78a4.64,4.64,0,0,1,.32,1.28,4.22,4.22,0,0,1-2.84,4.45,17,17,0,0,0-6.84,4.35,11.52,11.52,0,0,1,2.11.41,14.83,14.83,0,0,1,9.91,8.45,17.4,17.4,0,0,1,14.78-9.28,14,14,0,0,1,4.1.61c3.79,1.16,8.68,4.4,11.62,13.09h.15a6.4,6.4,0,0,1,2.86.65,6.51,6.51,0,0,1,3.49,5.35,6.22,6.22,0,0,1-1.47,5.23C149,83.39,148.68,87.23,148.49,92.07ZM84.76,80.15c-.51,4.4-1,9-1.4,13.62-.16,1.86-.3,3.61-.41,5.25a30.18,30.18,0,0,1,2.6-1.75c-.54-3.49-1-9.07.39-13.74A16.59,16.59,0,0,1,84.76,80.15Zm22.65,9.23c3.77,4.43,6,4.83,6.68,4.83h.25c.64-.08,2.74-.75,5.32-6a23.14,23.14,0,0,1-6-8.65A22.78,22.78,0,0,1,107.41,89.38ZM92.72,90.82c0,.94.06,1.89.14,2.83,1.12-.45,2.26-.86,3.35-1.21a10.58,10.58,0,0,1-1.46-.55A22.07,22.07,0,0,1,92.72,90.82Zm47.2-1.92v-.18l-.19.14ZM100.45,64.5c-2.78,0-6.14,3.15-7.65,7.17-1,2.77-2.62,9.61,5.19,13.23a2.6,2.6,0,0,0,1.11.26,2.63,2.63,0,0,0,.45,0,3.73,3.73,0,0,1,1.54-.62,7.54,7.54,0,0,0,.74-.51c3.59-2.8,6-9.16,5.16-13.6-.56-2.93-2.35-4.81-5.49-5.73A3.79,3.79,0,0,0,100.45,64.5Zm27.93-.36A9.08,9.08,0,0,0,122.16,67c-2,2-3,4.69-2.36,6.76,2.05,6.92,5.69,10.74,10.24,10.74a8,8,0,0,0,1.92-.24c3.84-1,6.56-4.34,5.95-7.41-1.38-6.9-4.11-11.3-7.68-12.39A6.36,6.36,0,0,0,128.38,64.15ZM87.83,57.38C87.5,59.53,87,62.9,86.43,67c.25-.5.51-1,.8-1.48v-.11a28.59,28.59,0,0,1,1.32-6.4,12.13,12.13,0,0,1-.71-1.87Zm29.84-28.6a34,34,0,0,0-6.71.72c-7.57,1.53-15.45,5.34-20.57,9.93-3.4,3-5.25,5.91-5.57,8.62,4.68-4.75,17.07-15.28,37.75-18.74A20.81,20.81,0,0,0,117.67,28.78Zm27.23,6.44a76.9,76.9,0,0,1,13.51,12.6,12.33,12.33,0,0,0-1.6-4.63C154.72,39.65,150.59,36.94,144.9,35.22Z"/><path class="cls-1" d="M159.07,125.58a23.85,23.85,0,0,0,2.65-4.79c2.27-5.67,2-14.09.93-23.19,4.75-13.65,5.74-20.8,3.21-23.17-1.26-1.18-3.34-1.16-6.35.05A64.29,64.29,0,0,1,159,62.84c4.35-8.35,4.83-15.86,1.36-21.73C156,33.67,145.36,29.4,130.5,29c-8.57-8.79-31.06-3.25-42.85,7.34-7.61,6.83-9,14.29-3.89,20.48-.55,3.63-1.58,10.64-2.6,18.87-2.62-.83-4.58-.56-5.81.83-2.7,3-1.4,10.89,3.55,21.56-1,13.3-.68,22,.84,25.88-.55.18-1.09.39-1.63.6a.23.23,0,0,0-.18.07q-1.15.43-2.28.93a.22.22,0,0,0-.11.05C60.62,132.14,48,146.09,38.71,166.32c-9.49,20.76-15.16,47.35-16.4,76.89a.25.25,0,0,0,.25.26h0l50.55-.11a.25.25,0,0,0,.2.11.24.24,0,0,0,.12,0s0-.05.07-.08l39.46-.09a.24.24,0,0,0,.19.2h0a.25.25,0,0,0,.24-.2l7.23,0a.24.24,0,0,0,.22.22h0a.25.25,0,0,0,.24-.22l93.35-.21a.25.25,0,0,0,.25-.26C211.11,165.75,196,133.92,159.07,125.58Zm-10.35,66,30.16,2.74-3.14,25.2-31.48-7Zm30.19,2.24-30.14-2.74v-7.15h10.32a.24.24,0,0,0,.17.08h0l.48-.08H178.9Zm-19.16-10.39h-.28c-.37-2.19-2.83-16.53-5.83-29.59l.35-.66c3.08,13.29,5.63,28.12,6,30.21Zm-6.28-30.33c-.5-2.16-1-4.27-1.54-6.28l.35-.61c.52,2,1,4.09,1.54,6.23ZM73.4,242.85C58.65,215.95,54.71,189.26,75.88,126c.64-.28,1.29-.55,1.94-.8-.44,5,.82,8.86,3.75,11.44a119.47,119.47,0,0,0-3.69,29.48.23.23,0,0,0,0,.14c0,2.11.05,4.2.17,6.25a.21.21,0,0,0,0,.06,65,65,0,0,0,2,13.35c2.31,8.3,6.25,12.95,11.71,13.8h0a8.1,8.1,0,0,0,1.21.09c12.32,0,41.26-24.17,53-56a33.38,33.38,0,0,0,3.43-3.67c.63,2,1.26,4.22,1.89,6.62-17.22,30-33.53,61.22-38.4,96Zm21.09-107.5a22.56,22.56,0,0,0-1.18,9.15,38.82,38.82,0,0,1-11.21-8c1-3.54,2.14-6.08,3.22-7.11A81.68,81.68,0,0,0,94.48,135.35ZM97,136.69a25.34,25.34,0,0,0,.77,9.85c-1.4-.58-2.71-1.17-3.95-1.78a21.83,21.83,0,0,1,1.09-9.16C95.63,136,96.32,136.35,97,136.69Zm7.33,3.16a12.88,12.88,0,0,0,1.21,6.21,51.37,51.37,0,0,0-7.21.61,25.33,25.33,0,0,1-.85-9.75A64.14,64.14,0,0,0,104.34,139.86Zm18.11,3.27a48.8,48.8,0,0,0,9.63-1,75.92,75.92,0,0,1-7.24,9,34.79,34.79,0,0,0-18.72-5.12,12.15,12.15,0,0,1-1.28-6A53.35,53.35,0,0,0,122.45,143.13Zm5.37-10.85a.16.16,0,0,1,0,.22c-4.53,4.22-8.72,6-12.77,5.59-4.47-.51-8.71-3.83-13-10.16a.33.33,0,0,1,.05-.45.38.38,0,0,1,.22-.1l.29.11c8.71,7.19,17.1,8.78,24.95,4.74l.13,0A.18.18,0,0,1,127.82,132.28Zm-.2-.57-.12,0-.08,0h0l0,0c-7.67,4-15.9,2.38-24.46-4.7l-.06,0h0a.85.85,0,0,0-.37-.14l-1.15-.42c-4.24-1.52-12.12-4.36-11.59-11.5a.23.23,0,0,0,0-.06,1.11,1.11,0,0,0-.06-.2c2.24,1.27,4.69,2.4,7,3.47a3.9,3.9,0,0,0,1.64.34c2.63,0,5.87-2.19,9-4.31,2.76-1.86,5.37-3.62,7.45-3.91,2.58-.34,6.45,1.22,10.19,2.74s7.75,3.15,10.46,2.78,5.48-2.06,8.06-4.13a118,118,0,0,0,1.23,12.1A47.27,47.27,0,0,1,127.62,131.71ZM100.45,60.9a7.34,7.34,0,0,1,2.08.3c5.59,1.65,7.44,5.54,8,8.51,1.1,5.79-1.81,13.47-6.48,17.11a10.28,10.28,0,0,1-2.16,1.31.24.24,0,0,0-.32,0,.23.23,0,0,0-.09.21,6.28,6.28,0,0,1-5-.14c-8.62-4-9.3-11.79-7-17.76C91.33,65.37,95.75,60.9,100.45,60.9Zm15.06,11.18a6.33,6.33,0,0,0-4.25-.35c0-.38,0-.76-.09-1.13a5.7,5.7,0,0,1,4.46.23A9.82,9.82,0,0,0,115.51,72.08Zm-4.24.18a5.86,5.86,0,0,1,4.26.37,8.78,8.78,0,0,0,.33,2.25c1.9,6.41,4.94,10.18,8.26,12.09-2.74,6.76-5.89,10.4-9.37,10.81-3.63.43-7.86-2.69-12.55-9.23a10.55,10.55,0,0,0,2.16-1.32C108.57,83.95,111.32,77.78,111.28,72.27Zm33.88,7.46c-.11,1.24-.61,6.93-.83,14.42l-.48-.2c.22-7.43.7-13,.81-14.26h0Zm-.35,15.15c4.27,1.86,8.81,4.59,9.14,6.62a1.43,1.43,0,0,1-.8,1.46,55,55,0,0,0-6.13,5c-.7.63-1.41,1.27-2.13,1.89C144.66,104.62,144.68,99.43,144.8,94.87Zm-.39,15.4-.46.39q-.22-4.5-.22-9.53c0-2.33,0-4.57.1-6.67l.48.2C144.18,99.39,144.16,104.81,144.41,110.27Zm-42.16-15a28.41,28.41,0,0,1-2.45-6l0,0a7.64,7.64,0,0,0,2-.47c4.57,6.42,8.62,9.57,12.32,9.57a6.66,6.66,0,0,0,.75,0c3.72-.43,6.91-4.06,9.76-11.07a11.91,11.91,0,0,0,2.14.87.23.23,0,0,0-.23.21c-.94,9.07-5.26,15-11.28,15.55-4.29.39-9.46-2.23-13-8.56ZM127,88.33a.24.24,0,0,0-.1-.21,11.7,11.7,0,0,0,3.13.43,12.2,12.2,0,0,0,2.93-.36c4.73-1.17,8.22-4.82,9-8.88a8.56,8.56,0,0,0,2.22.38c-.13,1.41-.59,6.87-.82,14a31.47,31.47,0,0,0-3.25-1.11c-4.45-1.18-12.12-.5-13.78-.33A29.86,29.86,0,0,0,127,88.33Zm17.73-9.16-.27,0a.21.21,0,0,0-.17,0,8.21,8.21,0,0,1-2.27-.38,8.63,8.63,0,0,0-.09-2.82c-.07-.36-.15-.69-.23-1,.52-.27,2.33-1.12,3.59-.51a2.6,2.6,0,0,1,1.24,2.19,2.17,2.17,0,0,1-.57,2.08A2.31,2.31,0,0,1,144.72,79.17Zm-3.28-3.08c1,5-2.87,10.19-8.61,11.61s-13-1.26-16.48-13c-1-3.38.25-7.34,3.27-10.34a12.62,12.62,0,0,1,8.76-3.85,9.94,9.94,0,0,1,2.9.43C134.75,62,139.32,65.51,141.44,76.1ZM96.27,88.62a6.68,6.68,0,0,0,2.83.63h.25a.24.24,0,0,0,0,.14A29.38,29.38,0,0,0,101.55,95c-2-.1-7,1.58-11.54,3.87-.35-1.69-1.9-9.91.18-15.15A14.82,14.82,0,0,0,96.27,88.62Zm-7.92,24.73c-2.7-1.72-4.91-3.71-5.9-6.16-.42-1.06.12-2.32,1.62-3.77a23.91,23.91,0,0,1,4.81-3.37,10.16,10.16,0,0,0-.75,2.81A32.77,32.77,0,0,0,88.35,113.35Zm.28-10.42c.29-1.92.76-3.14,1.32-3.45l0,0c4.92-2.55,10.57-4.31,11.87-3.9,3.37,6.08,8.28,8.8,12.56,8.8.29,0,.57,0,.86,0,6-.52,9.39-5.73,10.92-11.52,1.15-.12,9.3-.89,13.78.29a31.56,31.56,0,0,1,3.36,1.14c-.15,5.06-.17,10.93.13,16.83-2.6,2.13-5.28,3.87-8.09,4.25-2.58.36-6.46-1.22-10.2-2.74s-7.74-3.15-10.44-2.78c-2.2.3-4.85,2.09-7.66,4-3.73,2.52-7.58,5.13-10.17,3.93a79.38,79.38,0,0,1-7.88-4C88.37,112.34,88.06,106.78,88.63,102.94ZM144,111.28l.45-.38a120.5,120.5,0,0,0,1.18,12.22l-.44.32A120.82,120.82,0,0,1,144,111.28Zm1.73,12.4a50.69,50.69,0,0,0,2.91,11.09l-.43.29A50.34,50.34,0,0,1,145.28,124ZM150,138.58l-.36.48q-.56-1.71-1.12-3.09c.06-.21.12-.42.18-.63l.08-.06C149.23,136.24,149.63,137.35,150,138.58Zm-.8-3.58c1-.67,1.95-1.36,2.86-2.1s2-1.69,2.89-2.58a56.84,56.84,0,0,1-4.6,7.77C150,136.94,149.63,135.9,149.25,135Zm1,4.17c.62,1.89,1.24,4,1.85,6.35l-.35.61c-.62-2.35-1.25-4.54-1.87-6.48Zm-.93.37a33.81,33.81,0,0,1-2.84,3.18q1-2.93,1.87-5.94C148.66,137.61,149,138.53,149.31,139.53ZM148,135.85l.06.16q-1,3.73-2.4,7.49a28.12,28.12,0,0,1-7.44,4.89q2.48-4.8,4.76-9.81A46.11,46.11,0,0,0,148,135.85Zm-60.9,61.31c-4.49-12.94.33-27.29,14.72-43.86q.95.59,1.87,1.1L101,167.79a1.86,1.86,0,0,0,1.17,2.14,2,2,0,0,0,.73.14,1.83,1.83,0,0,0,1.59-.9l7.45-12a16.28,16.28,0,0,0,1.68.09,15.83,15.83,0,0,0,3.73-.45,61.43,61.43,0,0,1,.89,21.74L118,179c-11.91,4.77-20.75,11.58-26.27,20.26A10.36,10.36,0,0,1,87.07,197.16Zm7.21-49.91a17.65,17.65,0,0,1-.36-1.89c1.26.61,2.58,1.21,4,1.79q.54,2,1.34,4.27a104.14,104.14,0,0,0-20.78,20.44c-.1-1.84-.14-3.7-.14-5.58,5.29-6.83,9.76-11.46,14.48-15A3.85,3.85,0,0,0,94.28,147.24Zm11.51-.67c2.34,4.22,7.47,6.85,15.34,7.86a12.93,12.93,0,0,1-3.61,1.86c-5.43,1.39-11.06-.17-17.73-4.94q-.79-2.19-1.32-4.18A50.59,50.59,0,0,1,105.78,146.57Zm16.15,7.9h0a28.85,28.85,0,0,0,3-2.7,36.43,36.43,0,0,0,12.14-2.37,188,188,0,0,1-18.26,28.43,61,61,0,0,0-1-21.11A14.34,14.34,0,0,0,121.93,154.47Zm-.23-.46c-7.8-.92-12.91-3.41-15.3-7.43a34.26,34.26,0,0,1,18.08,5A27.72,27.72,0,0,1,121.7,154Zm-10.26,3.11-7.33,11.78a1.41,1.41,0,0,1-2.57-1l2.59-13.25A22.29,22.29,0,0,0,111.44,157.12Zm-11.87-5.3c.6.43,1.19.83,1.78,1.21-14.2,16.36-19.11,30.61-15,43.52-2.48-2.25-4.41-5.83-5.78-10.74a64.84,64.84,0,0,1-2-13.2A103.53,103.53,0,0,1,99.58,151.82Zm18.6,27.61c-.25,2-.54,4-.83,5.9-9.78,9.08-19.44,14.51-25.07,14C97.75,190.79,106.46,184.11,118.18,179.43Zm.58-.65a188.3,188.3,0,0,0,19.07-29.67,28.43,28.43,0,0,0,7.42-4.59,112.2,112.2,0,0,1-24.16,37.17c-1,1.07-2.1,2.1-3.16,3.09C118.23,182.83,118.52,180.84,118.76,178.77Zm18.72-30.07a35.14,35.14,0,0,1-12,2.53,80.92,80.92,0,0,0,7.31-9.23c.51-.11,1-.21,1.51-.33a47.47,47.47,0,0,0,7.93-2.77Q140,143.91,137.48,148.7Zm-44.1-3.6a18.24,18.24,0,0,0,.41,2.27,3.35,3.35,0,0,1-1.26,3.51c-4.64,3.48-9,8-14.18,14.59A118.45,118.45,0,0,1,81.93,137,39.73,39.73,0,0,0,93.38,145.1Zm58.19,2.34c.52,2,1,4.16,1.54,6.33-16.42,30.9-30.54,61.68-32.43,89l-7.17,0C118.34,208.25,134.47,177.24,151.57,147.43Zm1.06-1.85q3.11-5.41,6.24-10.77l4.43-7.64q1.86.54,3.64,1.18c-4.28,7.77-8.59,15.59-12.77,23.41C153.66,149.64,153.15,147.56,152.63,145.59ZM162.8,127l-4.37,7.53q-3,5.15-6,10.33c-.61-2.27-1.23-4.38-1.84-6.23a60.32,60.32,0,0,0,5.52-9.51,33.26,33.26,0,0,0,2.61-3.14Q160.82,126.48,162.8,127Zm-1.55-6.44a24,24,0,0,1-2.73,4.92.24.24,0,0,0-.12.16h0a30.38,30.38,0,0,1-2.6,3.13.24.24,0,0,0-.13.11l0,0a40,40,0,0,1-6.61,5.5,51,51,0,0,1-2.89-11.15c6.58-5.18,12-12.3,16.42-21.45C163.21,109.26,163.13,115.92,161.25,120.61Zm4.27-45.81c2.27,2.13,1.31,9-3,21.66-.44-3.61-1-7.31-1.51-11s-1-7.16-1.44-10.47C162.44,73.81,164.4,73.74,165.52,74.79Zm-5,10.74c.76,5.19,1.52,10.44,2,15.4-4.38,9.33-9.82,16.56-16.42,21.82a121.88,121.88,0,0,1-1.15-12.26c.82-.7,1.63-1.43,2.43-2.15a54.53,54.53,0,0,1,6.07-5,1.91,1.91,0,0,0,1-2c-.39-2.36-5.34-5.2-9.62-7.06.25-8.47.84-14.68.86-14.83s0,0,0-.06a2.25,2.25,0,0,0,.61-.34,2.62,2.62,0,0,0,.75-2.53A3.06,3.06,0,0,0,145.51,74c-1.39-.69-3.23.1-3.92.45-2.29-9.63-6.74-12.93-10.16-14-4.06-1.24-8.71.13-12.16,3.55a12.58,12.58,0,0,0-3.53,6.3,6.26,6.26,0,0,0-4.63-.24c0-.16,0-.32-.07-.47-.59-3.11-2.52-7.18-8.36-8.9-4.26-1.25-8.52,1.31-11.36,5.17a23.77,23.77,0,0,1,1.54-6.62,1.3,1.3,0,0,0,.93.55h0c.76,0,1.45-.9,2.48-2.26a22.28,22.28,0,0,1,11-8.46.62.62,0,0,0,.42-.68,1.13,1.13,0,0,0-.89-1,22.8,22.8,0,0,0-5.28.13c9.81-6.19,26.35-10.43,30.73-9.92s25.23,21.06,26.89,22.7l-.09.26a10.27,10.27,0,0,0-.57,2.13C158,68.55,159.23,76.8,160.51,85.53ZM105,47.86a13.83,13.83,0,0,1,1.73.09.64.64,0,0,1,.46.52c0,.13,0,.15-.08.16a22.72,22.72,0,0,0-11.19,8.63c-.88,1.15-1.57,2.06-2.09,2.06h0c-.22,0-.47-.21-.73-.59.65-1.52,3.49-7.77,7.42-10.48A28.08,28.08,0,0,1,105,47.86ZM92.76,58.21c-1.37-2.31-1.55-4.3-.53-5.92,1.28-2,4.2-3.19,7.17-3.82C96,51.28,93.57,56.38,92.76,58.21ZM88,36.76c5.57-5,14.1-9.13,22.26-10.78,8.85-1.79,16.13-.52,20,3.5a.25.25,0,0,0,.17.08c14.73.32,25.21,4.52,29.52,11.81,3,5.08,2.95,11.46-.1,18.57a4.82,4.82,0,0,0,.31-2.74c-3.2-9.12-22.5-25.14-30.08-25.14l-.4,0c-27.07,2.22-41.21,17.18-43.77,20.16a9,9,0,0,0-2,4C81,52.6,78.19,45.55,88,36.76ZM75.73,76.89c1.1-1.24,2.91-1.46,5.37-.66-.67,5.42-1.32,11.35-1.83,17.19-.11,1.25-.21,2.46-.3,3.64C74.5,87.15,73.27,79.64,75.73,76.89Zm4,16.57c1.3-15,3.58-30.61,4.5-36.63a8.54,8.54,0,0,1,2-4.28c2.54-3,16.56-17.79,43.43-20,7-.58,26.84,15.88,30,24.79a4.64,4.64,0,0,1-.33,2.47c-2.7-2.67-22.54-22.14-27-22.67-2.47-.29-8.07.76-14.25,2.67a71.17,71.17,0,0,0-17.72,7.92c-3.41.58-7,1.86-8.52,4.26-1.18,1.87-.94,4.15.71,6.76a24,24,0,0,0-1.7,7.08c0,.32-.07.62-.11.92A18.2,18.2,0,0,0,89,70.23c-1.47,3.91-1.69,8.9.92,13,0,0-.05,0-.06.06-2.37,5.58-.59,14.39-.27,15.82a26.61,26.61,0,0,0-5.82,3.93c-1.66,1.6-2.25,3-1.74,4.31,1.1,2.73,3.61,4.89,6.64,6.74a1.13,1.13,0,0,0,.18.27,1.36,1.36,0,0,1,.41.59c-.53,7.5,7.57,10.41,11.92,12l.59.21a.83.83,0,0,0-.09,1.05c4.35,6.45,8.71,9.85,13.34,10.38a11,11,0,0,0,1.24.07c3.79,0,7.79-1.94,11.92-5.79a.65.65,0,0,0,.12-.81,47.69,47.69,0,0,0,16.55-7.71,50.26,50.26,0,0,0,3,11,48.53,48.53,0,0,1-13.57,5.86,50.44,50.44,0,0,1-29.42-1.69.25.25,0,0,0-.17-.08h0a64,64,0,0,1-7.18-3.09s0,0-.07,0h0q-1.19-.6-2.4-1.27s0,0,0,0h0a85.33,85.33,0,0,1-13.56-9.44C79.45,124,77.71,117.2,79.77,93.46ZM81,125.93c1.33,1.12,2.65,2.15,4,3.14-1.07,1.08-2.17,3.58-3.18,7-2.72-2.53-3.87-6.25-3.39-11.08.53-.2,1.06-.41,1.6-.58A4.23,4.23,0,0,0,81,125.93Zm-5.69.37c-21,62.91-17.11,89.68-2.43,116.56l-50,.11C25.36,183.71,45.28,139.78,75.26,126.29Zm45.91,116.45c1.89-27,15.83-57.56,32.1-88.23,2.9,12.75,5.28,26.54,5.68,28.92H148.52a.25.25,0,0,0-.25.25v7.61l-4.55,21.4a.25.25,0,0,0,.19.3l32,7.08H176a.25.25,0,0,0,.25-.22l3.2-25.73v0h0V183.68a.25.25,0,0,0-.25-.25H160.48c-.26-1.53-2.92-17.14-6.14-30.92,4.27-8,8.69-16,13.07-24,30.52,11.21,43.47,43.63,46.8,114Z"/><path class="cls-2" d="M214.48,242.79,120.9,243c1.83-27.26,15.62-57.49,32.48-89.18,3.11,13.59,5.67,28.63,5.88,29.87H148.52v7.63L144,212.75l32,7.08,3.21-25.72V183.69H159.77l.49-.08c0-.25-2.81-16.71-6.17-31.12,4.25-8,8.71-16.09,13.21-24.24C199.39,140,211.28,174.76,214.48,242.79Z"/><path class="cls-3" d="M179.16,183.69v10.42l-30.64-2.79v-7.63h10.74a.54.54,0,0,0,0,.08l.5-.08Z"/><polygon class="cls-4" points="179.16 194.11 175.95 219.83 143.96 212.75 148.52 191.32 179.16 194.11"/><path class="cls-5" d="M163.18,126.9c1.41.4,2.78.85,4.12,1.35-4.5,8.15-9,16.24-13.21,24.24-.56-2.4-1.14-4.74-1.72-6.94C155.95,139.33,159.58,133.12,163.18,126.9Z"/><path class="cls-6" d="M159.3,74.84c9.62-4,9.63,3.95,3.11,22.69h0C161.51,89.89,160.12,81.86,159.3,74.84Z"/><path class="cls-7" d="M162.75,101c.71,7.72.69,14.79-1.27,19.68a23.37,23.37,0,0,1-2.83,5,32.27,32.27,0,0,1-2.74,3.32,40.52,40.52,0,0,1-7,5.87,50,50,0,0,1-3.05-11.71c6.53-5.12,12.21-12.35,16.83-22.19Z"/><path class="cls-8" d="M162.75,101h0c-4.62,9.84-10.3,17.07-16.83,22.19a121.6,121.6,0,0,1-1.22-12.83c2.88-2.48,5.71-5.31,8.6-7.22,3.39-2.24-3.14-6.27-8.7-8.65.23-8.57.83-14.86.85-15l-.66-.06c1.2-.13,2.27-.78,2-2.81-.58-4.57-5.35-1.79-5.35-1.79-5.24-22.73-23.62-14.5-25.52-4.21h-.16a5.92,5.92,0,0,0-4.71-.22l-.13,0a10.89,10.89,0,0,0-8.3-9.46C98.26,59.69,93.77,62.5,91,66.84a26.12,26.12,0,0,1,1.84-8.07c2.36,3.68,3.33-6.12,14.39-9.89.54-.19.14-1.09-.42-1.17a23.84,23.84,0,0,0-6.34.3c9.55-6.46,27.05-11.15,31.85-10.59S159.43,60.3,159.43,60.3a13.65,13.65,0,0,0-.69,2.48,65.28,65.28,0,0,0,.56,12.06c.82,7,2.21,15,3.09,22.69C162.52,98.71,162.65,99.88,162.75,101ZM140,58.39c10.59-9.23-12.64-16.27-17-8.56-.3.53-.82,1.41-.22,1.3C137.75,48.29,136.95,61.08,140,58.39Z"/><path class="cls-4" d="M158.65,125.74c1.55.34,3.06.73,4.53,1.16-3.6,6.22-7.23,12.43-10.81,18.65-.68-2.55-1.36-4.9-2.05-6.94a59.48,59.48,0,0,0,5.59-9.55A32.27,32.27,0,0,0,158.65,125.74Z"/><path class="cls-9" d="M160.26,183.61l-.49.08h-.51c-.21-1.24-2.77-16.28-5.88-29.87.22-.44.46-.89.71-1.33C157.45,166.9,160.22,183.36,160.26,183.61Z"/><path class="cls-10" d="M159.43,60.3a5.54,5.54,0,0,0,.45-3c-3.24-9.24-23.16-25.53-30.22-25-24.52,2-38.82,14.5-43.6,20.07a8.74,8.74,0,0,0-2,4.41c-15.67-18.63,32.86-41.62,46.37-27.5,28,.61,38.14,14.74,28.34,33.47A13.65,13.65,0,0,1,159.43,60.3Z"/><path class="cls-7" d="M79.16,98.06c.53-7.33,1.37-15.11,2.22-22C82.43,67.46,83.5,60.22,84,56.81a8.74,8.74,0,0,1,2-4.41c4.78-5.57,19.08-18.06,43.6-20.07,7.06-.58,27,15.71,30.22,25a5.54,5.54,0,0,1-.45,3S136.95,38,132.28,37.42,110,41.55,100.43,48h0c-5.75,1-12,3.94-7.62,10.76A26.12,26.12,0,0,0,91,66.84h0c-3.1,4.77-4.15,11.4-.76,16.49l-.14.09c-2.53,6-.22,15.85-.22,15.85-4.66,2.42-8.62,5.51-7.61,8,1.07,2.69,3.55,4.81,6.59,6.66a.9.9,0,0,0,.17.26,1.59,1.59,0,0,1,.48.75c-.6,8,9,10.69,12.92,12.18a.61.61,0,0,0-.55.94c7.17,10.63,15.48,14.53,26.12,4.61a.42.42,0,0,0-.28-.73,47.39,47.39,0,0,0,17.31-8,50.08,50.08,0,0,0,3.07,11.5l0,.08a44.37,44.37,0,0,1-5.33,2.93,46.73,46.73,0,0,1-10.11,3.39,51.16,51.16,0,0,1-28.06-2.14,63.48,63.48,0,0,1-7.3-3.12c-.83-.41-1.67-.85-2.5-1.31h0a81.33,81.33,0,0,1-9.51-6.17q-2.07-1.56-4.16-3.32A4.21,4.21,0,0,1,80,124.15C78.24,119.9,78.32,109.53,79.16,98.06Z"/><path d="M159.77,183.69l-.5.08a.54.54,0,0,1,0-.08Z"/><path class="cls-9" d="M154.09,152.49c-.25.44-.49.89-.71,1.33-.57-2.43-1.14-4.81-1.72-7l.71-1.22C152.95,147.75,153.53,150.09,154.09,152.49Z"/><path class="cls-10" d="M144.58,94.52c5.56,2.38,12.09,6.41,8.7,8.65-2.89,1.91-5.72,4.74-8.6,7.22C144.42,104.84,144.44,99.33,144.58,94.52Z"/><path class="cls-9" d="M152.37,145.55l-.71,1.22c-.69-2.63-1.38-5.07-2.07-7.19.25-.32.49-.64.73-1C151,140.65,151.69,143,152.37,145.55Z"/><path class="cls-5" d="M151.66,146.77c.58,2.24,1.15,4.62,1.72,7-16.86,31.69-30.65,61.92-32.48,89.18l-7.69,0C118,208.08,134.19,177.19,151.66,146.77Z"/><path class="cls-4" d="M155.91,129.06a59.48,59.48,0,0,1-5.59,9.55c-.45-1.36-.9-2.57-1.34-3.6l0-.08A40.52,40.52,0,0,0,155.91,129.06Z"/><path class="cls-4" d="M117.58,185.46c10.91-10.14,22.07-25,28.31-41.86a33.59,33.59,0,0,0,3.7-4c.69,2.12,1.38,4.56,2.07,7.19C134.19,177.19,118,208.08,113.21,243l-40,.09c-15.72-28.61-18-56.18,2.44-117.29.79-.36,1.6-.68,2.41-1-.56,5.32.77,9.15,3.71,11.71-2.09,7.29-3.7,18.61-3.71,29.66,0,2.13.05,4.25.18,6.33.65,10.79,3.13,20.49,8.57,24.77a10.52,10.52,0,0,0,5,2.2C97.35,200.37,107.36,195,117.58,185.46Z"/><path class="cls-9" d="M150.32,138.61c-.24.33-.48.65-.73,1-.43-1.33-.86-2.53-1.28-3.58l.21-.79.43-.28,0,.08C149.42,136,149.87,137.25,150.32,138.61Z"/><path class="cls-9" d="M148.95,134.93l-.43.28-.43.28,0-.08a50.08,50.08,0,0,1-3.07-11.5c.31-.22.61-.45.91-.69A50,50,0,0,0,148.95,134.93Z"/><path class="cls-4" d="M148.31,136c.42,1.05.85,2.25,1.28,3.58a33.59,33.59,0,0,1-3.7,4Q147.27,139.86,148.31,136Z"/><path class="cls-9" d="M148.52,135.21l-.21.79-.22-.51Z"/><path class="cls-11" d="M148.09,135.49l.22.51q-1,3.87-2.42,7.6a28.27,28.27,0,0,1-8.22,5.3q2.68-5.13,5.09-10.48A44.37,44.37,0,0,0,148.09,135.49Z"/><path class="cls-12" d="M146.78,76.63c.26,2-.81,2.68-2,2.81l-.34,0v0a8.12,8.12,0,0,1-2.57-.42l-.1,0a8.63,8.63,0,0,0-.07-3c-.08-.42-.17-.82-.26-1.22C141.43,74.84,146.2,72.06,146.78,76.63Z"/><path class="cls-11" d="M137.67,148.9a28.27,28.27,0,0,0,8.22-5.3c-6.24,16.9-17.4,31.72-28.31,41.86.34-2.24.67-4.48.93-6.75A186.58,186.58,0,0,0,137.67,148.9Z"/><path class="cls-9" d="M144.77,79.44l.66.06c0,.16-.62,6.45-.85,15-.34-.15-.67-.29-1-.41.24-8.11.79-14.1.85-14.66A1.93,1.93,0,0,0,144.77,79.44Z"/><path class="cls-9" d="M145.9,123.22c-.3.24-.6.47-.91.69a121.45,121.45,0,0,1-1.27-12.72l1-.8A121.6,121.6,0,0,0,145.9,123.22Z"/><path d="M144.43,79.41l.34,0a1.93,1.93,0,0,1-.34,0Z"/><path class="cls-9" d="M144.68,110.39l-1,.8c-.3-6-.28-12-.14-17.08.33.12.66.26,1,.41C144.44,99.33,144.42,104.84,144.68,110.39Z"/><path class="cls-8" d="M141.86,79a8.12,8.12,0,0,0,2.57.42c-.06.56-.61,6.55-.85,14.66A30.64,30.64,0,0,0,140,92.88c-4.91-1.3-14-.29-14-.29h0a30.43,30.43,0,0,0,.74-4.28l.13-.44c6.8,2,14-2.85,14.89-8.86Z"/><path class="cls-8" d="M143.72,111.19A121.45,121.45,0,0,0,145,123.91a47.39,47.39,0,0,1-17.31,8,.39.39,0,0,0-.2.05c-8,4.14-16.26,2.28-24.74-4.73a.54.54,0,0,0-.34-.13,0,0,0,0,1,0,0c-4-1.49-13.52-4.13-12.92-12.18a1.59,1.59,0,0,0-.48-.75.9.9,0,0,1-.17-.26,78.87,78.87,0,0,0,8,4c4.68,2.15,12.86-7.2,18-7.89,5.3-.72,15.35,6.24,20.65,5.52C138.31,115.19,141,113.4,143.72,111.19Z"/><path class="cls-10" d="M143.58,94.11c-.14,5.12-.16,11.09.14,17.08-2.67,2.21-5.41,4-8.32,4.4-5.3.72-15.35-6.24-20.65-5.52-5.11.69-13.29,10-18,7.89a78.87,78.87,0,0,1-8-4c-1-2.15-1.19-13.47,1-14.67,5-2.63,10.91-4.46,12.18-3.92,6.75,12.22,20.31,12,24-2.77h0s9.1-1,14,.29A30.64,30.64,0,0,1,143.58,94.11Z"/><path class="cls-12" d="M141.69,76.06a8.63,8.63,0,0,1,.07,3c-.92,6-8.09,10.82-14.89,8.86a11.16,11.16,0,0,1-2.42-1c-3.36-1.86-6.43-5.63-8.34-12.05a8.72,8.72,0,0,1-.36-2.36,9.43,9.43,0,0,1,.16-1.83c1.9-10.29,20.28-18.52,25.52,4.21C141.52,75.24,141.61,75.64,141.69,76.06Zm-23.8-1.31c5.77,19.42,23.91,10.66,22,1.06C135.16,52.23,114.86,64.52,117.89,74.75Z"/><path class="cls-10" d="M123,49.83c4.35-7.71,27.58-.67,17,8.56-3.07,2.69-2.27-10.1-17.21-7.26C122.21,51.24,122.73,50.36,123,49.83Z"/><path class="cls-13" d="M139.88,75.81c1.92,9.6-16.22,18.36-22-1.06C114.86,64.52,135.16,52.23,139.88,75.81Z"/><path class="cls-11" d="M142.76,138.42q-2.41,5.35-5.09,10.48a35.38,35.38,0,0,1-12.76,2.62,80,80,0,0,0,7.74-9.71A46.73,46.73,0,0,0,142.76,138.42Z"/><path class="cls-3" d="M137.67,148.9a186.58,186.58,0,0,1-19.16,29.81,60.83,60.83,0,0,0-.93-22.16,13.89,13.89,0,0,0,4.21-2.26,29.85,29.85,0,0,0,3.12-2.77A35.38,35.38,0,0,0,137.67,148.9Z"/><path class="cls-9" d="M127.68,132a.42.42,0,0,1,.28.73c-10.64,9.92-19,6-26.12-4.61a.61.61,0,0,1,.55-.94,0,0,0,0,0,0,0l.34.13c8.48,7,16.73,8.87,24.74,4.73Z"/><path class="cls-9" d="M102,95.36a28,28,0,0,1-2.45-6l0-.32a7.11,7.11,0,0,0,2.28-.55c8.68,12.27,16.41,13.91,22.62-1.58a11.16,11.16,0,0,0,2.42,1l-.13.44a30.43,30.43,0,0,1-.74,4.28C122.33,107.37,108.77,107.58,102,95.36Z"/><path class="cls-14" d="M132.65,141.81a80,80,0,0,1-7.74,9.71h0a34.61,34.61,0,0,0-19-5.2,12.52,12.52,0,0,1-1.34-6.65A51.16,51.16,0,0,0,132.65,141.81Z"/><path class="cls-15" d="M124.89,151.52h0a29.85,29.85,0,0,1-3.12,2.77h0c-8.25-1-13.54-3.6-15.85-8A34.61,34.61,0,0,1,124.89,151.52Z"/><path class="cls-14" d="M111.86,156.95a22.12,22.12,0,0,1-7.92-2.67c-.74-.4-1.48-.83-2.21-1.3s-1.44-1-2.16-1.46c-.56-1.54-1-3.06-1.42-4.54a51.93,51.93,0,0,1,7.78-.66c2.31,4.36,7.6,7,15.85,8h0a13.89,13.89,0,0,1-4.21,2.26A15.68,15.68,0,0,1,111.86,156.95Z"/><path class="cls-15" d="M117.58,156.55a60.83,60.83,0,0,1,.93,22.16l-.37.47C105.76,184.12,97.2,191,91.83,199.51a10.52,10.52,0,0,1-5-2.2c-4.9-14,1.45-28.92,14.88-44.33.73.47,1.47.9,2.21,1.3l-2.65,13.57a1.66,1.66,0,0,0,3,1.19l7.54-12.09A15.68,15.68,0,0,0,117.58,156.55Z"/><path class="cls-14" d="M118.14,179.18l.37-.47c-.26,2.27-.59,4.51-.93,6.75-10.22,9.51-20.23,14.91-25.75,14.05C97.2,191,105.76,184.12,118.14,179.18Z"/><path class="cls-6" d="M116.11,74.82c1.91,6.42,5,10.19,8.34,12.05-6.21,15.49-13.94,13.85-22.62,1.58,5.08-2.08,9.33-9.59,9.2-16.35h0c1.31-.66,3.35-.28,4.71.36A8.72,8.72,0,0,0,116.11,74.82Z"/><path class="cls-12" d="M115.75,70.63h.16a9.43,9.43,0,0,0-.16,1.83c-1.36-.64-3.4-1-4.71-.36h0a11.62,11.62,0,0,0-.12-1.67l.13,0A5.92,5.92,0,0,1,115.75,70.63Z"/><path class="cls-14" d="M111.86,156.95,104.32,169a1.66,1.66,0,0,1-3-1.19l2.65-13.57A22.12,22.12,0,0,0,111.86,156.95Z"/><path class="cls-12" d="M101.83,88.45a7.11,7.11,0,0,1-2.28.55,6.27,6.27,0,0,1-3.17-.59,14.57,14.57,0,0,1-6.18-5.07c-3.39-5.09-2.34-11.72.76-16.49h0c2.81-4.34,7.3-7.15,11.65-5.87a10.89,10.89,0,0,1,8.3,9.46A11.62,11.62,0,0,1,111,72.1C111.16,78.86,106.91,86.37,101.83,88.45Zm-5-2.1c9.21,4.26,19.8-19,5.29-23.27C92.8,60.33,82.72,79.8,96.86,86.35Z"/><path class="cls-10" d="M106.77,47.71c.56.08,1,1,.42,1.17-11.06,3.77-12,13.57-14.39,9.89C94,56,96.82,50.45,100.42,48h0A23.84,23.84,0,0,1,106.77,47.71Z"/><path class="cls-14" d="M104.59,139.67a12.52,12.52,0,0,0,1.34,6.65,51.93,51.93,0,0,0-7.78.66,25.25,25.25,0,0,1-.86-10.43A63.48,63.48,0,0,0,104.59,139.67Z"/><path class="cls-13" d="M102.15,63.08c14.51,4.27,3.92,27.53-5.29,23.27C82.72,79.8,92.8,60.33,102.15,63.08Z"/><path class="cls-8" d="M102,95.36c-1.27-.54-7.14,1.29-12.18,3.92,0,0-2.31-9.9.22-15.85l.14-.09a14.57,14.57,0,0,0,6.18,5.07,6.27,6.27,0,0,0,3.17.59l0,.32A28,28,0,0,0,102,95.36Z"/><path class="cls-14" d="M99.57,151.52c.72.51,1.44,1,2.16,1.46-13.43,15.41-19.78,30.29-14.88,44.33-5.44-4.28-7.92-14-8.57-24.77h0A103.22,103.22,0,0,1,99.57,151.52Z"/><path class="cls-11" d="M98.15,147c.38,1.48.86,3,1.42,4.54a103.22,103.22,0,0,0-21.28,21h0c-.13-2.08-.18-4.2-.18-6.33,4.44-5.75,9.15-11.05,14.58-15.13A3.6,3.6,0,0,0,94,147.31a19.2,19.2,0,0,1-.44-2.36Q95.82,146,98.15,147Z"/><path class="cls-11" d="M97.29,136.55A25.25,25.25,0,0,0,98.15,147q-2.33-.95-4.55-2a22,22,0,0,1,1.19-9.71C95.62,135.7,96.46,136.14,97.29,136.55Z"/><path class="cls-16" d="M100.42,48c-3.6,2.44-6.45,8-7.62,10.76C88.41,51.95,94.67,49,100.42,48Z"/><path class="cls-11" d="M94.79,135.23h0a22,22,0,0,0-1.19,9.71,39.81,39.81,0,0,1-11.79-8.4c1.08-3.8,2.29-6.5,3.47-7.49A81.33,81.33,0,0,0,94.79,135.23Z"/><path class="cls-3" d="M94,147.31a3.6,3.6,0,0,1-1.36,3.77c-5.43,4.08-10.14,9.38-14.58,15.13,0-11.05,1.62-22.37,3.71-29.66a39.81,39.81,0,0,0,11.79,8.4A19.2,19.2,0,0,0,94,147.31Z"/><path class="cls-16" d="M88.82,113.95c-3-1.85-5.52-4-6.59-6.66-1-2.5,3-5.59,7.61-8C87.63,100.48,87.78,111.8,88.82,113.95Z"/><path class="cls-5" d="M81.12,125.74q2.09,1.75,4.16,3.32c-1.18,1-2.39,3.69-3.47,7.49-2.94-2.56-4.27-6.39-3.71-11.71.64-.25,1.29-.47,2-.69A4.21,4.21,0,0,0,81.12,125.74Z"/><path class="cls-6" d="M81.21,76l.17,0c-.85,6.92-1.69,14.7-2.22,22C71.89,82.44,72.76,73.23,81.21,76Z"/><path class="cls-2" d="M73.25,243.11l-50.69.12C24.88,188,43,140,75.69,125.82,55.21,186.93,57.53,214.5,73.25,243.11Z"/></g></svg>