<svg id="Layer_1" data-name="Layer 1" xmlns="http://www.w3.org/2000/svg" viewBox="0 0 651.41 609.62"><defs><style>.cls-1{fill:#fff;}.cls-2{fill:#10213a;}.cls-3{fill:#f4e8c3;}.cls-4{fill:#8a9fbc;}.cls-5{fill:#6a83a0;}.cls-6{fill:#d88361;}.cls-7{fill:#cc8f7a;}.cls-8{fill:#f2b78b;}.cls-9{fill:#aa593d;}.cls-10{fill:#663a28;}.cls-11{fill:#cebf97;}.cls-12{fill:#9b7726;}.cls-13{fill:#d9e7ed;}.cls-14{fill:#ad3821;}.cls-15{fill:#ea6647;}.cls-16{fill:#442318;}</style></defs><title>teddy_back_final2</title><path class="cls-1" d="M362.55,333.34c-5.24,0-18.07-2.14-24-22-2-6.64.29-14.23,5.89-19.79a23,23,0,0,1,15.91-6.88,19.28,19.28,0,0,1,5.63.83c6.18,1.88,14.27,7.69,17.66,24.64,2,9.77-5.2,19.88-15.94,22.54A21.63,21.63,0,0,1,362.55,333.34Zm-2.16-36.86a11.12,11.12,0,0,0-7.61,3.46c-2.48,2.46-3.62,5.63-2.89,8.07,2.59,8.73,7.1,13.54,12.69,13.54a9.74,9.74,0,0,0,2.34-.29c4.63-1.15,7.93-5.17,7.21-8.78-1.76-8.77-5.14-14.33-9.54-15.67A7.54,7.54,0,0,0,360.4,296.48Z"/><path class="cls-1" d="M364.42,290.79c-5.35-1.63-11.5.16-16.06,4.69-4.16,4.13-5.88,9.61-4.49,14.31,4,13.36,11.68,18,18.67,18a16.13,16.13,0,0,0,3.87-.48c7.92-2,13.24-9.19,11.86-16.11C375.42,297,369.17,292.24,364.42,290.79Zm1.82,35.81c-7.47,1.85-17.06-1.65-21.63-17-1.31-4.42.33-9.62,4.3-13.55,4.36-4.32,10.21-6,15.29-4.5,4.55,1.39,10.55,6,13.33,19.86C378.84,317.91,373.77,324.74,366.24,326.61Z"/><path class="cls-1" d="M315.58,334.13a14.22,14.22,0,0,1-6-1.33c-14.11-6.54-16.38-20.23-12.36-30.9,3-7.88,10.54-16.37,20.15-16.37a15.76,15.76,0,0,1,4.45.64c8,2.36,13.26,8,14.76,15.86,1.88,9.9-2.72,22.06-10.7,28.29A16.75,16.75,0,0,1,315.58,334.13Zm1.76-36.82c-3.21,0-7.29,3.92-9.1,8.73-1.27,3.37-3.19,11.67,6.28,16.06a2.5,2.5,0,0,0,1.08.26,5.35,5.35,0,0,0,3-1.33c4.44-3.46,7.41-11.31,6.37-16.79-.67-3.5-2.73-5.65-6.5-6.76A4,4,0,0,0,317.34,297.31Z"/><path class="cls-1" d="M311.89,327.79a8.73,8.73,0,0,0,3.69.82,11.26,11.26,0,0,0,6.89-2.64c6.37-5,10.18-15,8.68-22.92-.77-4.06-3.29-9.36-10.89-11.6s-14.94,4.57-17.88,12.38S300.24,322.4,311.89,327.79Zm-8.8-23.69c2.46-6.52,8.18-12.3,14.26-12.3a9.49,9.49,0,0,1,2.69.39c7.23,2.13,9.63,7.16,10.36,11,1.43,7.5-2.34,17.44-8.39,22.17-2.3,1.79-5.86,3.55-9.79,1.73C301,321.93,300.18,311.83,303.08,304.1Z"/><path class="cls-1" d="M376.91,291.11a7.1,7.1,0,0,1-1-.07c-3.59-.52-5.37-3.3-6.79-5.54-2.1-3.3-4.28-6.71-11.14-6.71a27.62,27.62,0,0,0-5.11.53,6.46,6.46,0,0,1-1.25.12,6.17,6.17,0,0,1-5-2.57c-2.4-3.34-.42-6.84.33-8.16,2.93-5.19,9-8.12,16.69-8.12a33,33,0,0,1,3.46.19c7.85.81,18,4.69,20.57,12.94,1,3.06,1.52,9.12-5.65,15.37A7.67,7.67,0,0,1,376.91,291.11Z"/><path class="cls-1" d="M366.5,266.26c-7-.74-12.52,1.18-14.73,5.09l0,.07c-.58,1-1,1.8-.64,2.25a.68.68,0,0,0,.76.23c14.64-2.78,19.2,4.36,21.92,8.63,1.07,1.68,1.84,2.89,2.91,3h.22a2.26,2.26,0,0,0,1.47-.66c4.56-4,4.7-7.39,4-9.55C380.71,270.07,373,266.93,366.5,266.26Zm11.37,18.1a1.41,1.41,0,0,1-1.08.47c-.72-.1-1.45-1.25-2.38-2.7-2.38-3.74-6.13-9.61-16.41-9.61a34.29,34.29,0,0,0-6.26.62,7.8,7.8,0,0,1,.65-1.34l0-.07c2.06-3.64,7.28-5.41,14-4.71,6.43.67,13.73,3.83,15.24,8.6C382.54,278.4,381.23,281.43,377.87,284.36Z"/><path class="cls-1" d="M348.37,573.51l-.35-.05a6,6,0,0,1-1.14-.28l-8,0a5.84,5.84,0,0,1-1.89.32h-.23l-.43,0-.14,0a5.81,5.81,0,0,1-1.07-.25l-57.73.13a5.92,5.92,0,0,1-2.84,0l-76.27.17a5.89,5.89,0,0,1-5.9-6.15C194.34,521.44,203.19,480,218,447.6c14.59-31.92,35-54.37,58.92-64.94a5.69,5.69,0,0,1,.72-.31l1.6-.67c-1-5.79-1.62-15.91-.29-35.19-8.39-18.52-9.73-31.19-4-37.68a11.45,11.45,0,0,1,8.24-3.82c1.14-8.85,2.23-16.35,3-21.19-8-11.49-5.08-25.13,8.07-36.93,12.88-11.56,32.82-19.32,49.62-19.32,9.09,0,16.6,2.32,21.88,6.75,23.63.94,40.7,8.4,48.2,21.1,4.33,7.32,7.53,19.74-1.4,37.56a74.9,74.9,0,0,0,.24,9.45q.55,0,1.09,0a10.74,10.74,0,0,1,7.55,2.82c5.88,5.52,5.07,16.44-3.07,40.11,1.94,17.64,1.36,28.73-1.93,36.93q-.35.88-.76,1.77c26.82,7.87,45.46,24.37,58.31,51.44,13.5,28.44,21.13,70.14,24,131.24a5.89,5.89,0,0,1-5.89,6.17l-141.31.32a5.86,5.86,0,0,1-2,.34Zm-79-173.16c-36.28,25-60.58,84.75-64.9,161.36l61.72-.14c-10.28-21-14.85-40.32-15.08-63C250.86,472.33,256.69,440.87,269.39,400.34Zm11.36,3.17c-26.13,83.2-20.84,121.09-1.34,158l52.58-.12c5.46-34.21,17.73-65.83,32.43-95.63A179.13,179.13,0,0,1,351,480.54c-16.75,16.39-33.48,26.17-44.76,26.17a18.17,18.17,0,0,1-2.34-.15h-.09l-.39-.06c-7.28-1.14-17.13-6.43-22.32-25.08a103.77,103.77,0,0,1-3.28-21.08l-.07-.28,0-.58c-.17-3-.26-6.14-.26-9.34a6.13,6.13,0,0,1,0-.84A194.46,194.46,0,0,1,282.53,406,21.79,21.79,0,0,1,280.75,403.51Zm115.48,44.37c-18.91,36.78-36.87,77.3-40.92,113.48l130.61-.29c-5.25-98.38-23.3-144.76-63.38-162.1-5.3,9.62-11.07,20.12-16.66,30.55,3.67,16,6.77,33,8.2,41h24a5.9,5.9,0,0,1,5.89,5.89v14.8l.19.43-.19,1.19V494l-.19.3L439,532.53a5.89,5.89,0,0,1-5.85,5.17h-.6l-.67-.14-49-10.84a5.89,5.89,0,0,1-4.48-7l6.84-32.17V476.46a5.9,5.9,0,0,1,5.89-5.89h9.42C399.58,465.12,398.06,456.86,396.23,447.89Zm31.86,76.76,3.35-26.91-35.62-3.24-4.67,22ZM302,493.74c8.67-11.94,21.33-21.51,37.71-28.5a89.53,89.53,0,0,0-.56-23.69l-.92,0-9.7,15.58a8.34,8.34,0,0,1-7.11,4,8.52,8.52,0,0,1-3.12-.59,8.33,8.33,0,0,1-5.2-9.46l1-5.23c-12.53,17.83-16.58,33.55-12.35,47.75ZM432.14,486v-3.6H408.84l-.73.12h-.52a5.83,5.83,0,0,1-1.21-.13H397v.41Zm-142.5-24.74q.26,3.32.66,6.37a75.46,75.46,0,0,1,5-13.27Q292.38,457.69,289.64,461.22Zm60.87-22.9a90.91,90.91,0,0,1,1.34,11.43q5.68-8.36,10.87-17.29-2.57.37-5.26.54a45.76,45.76,0,0,1-3.67,3.12A33.77,33.77,0,0,1,350.51,438.32Zm-58-23.07c-1,5.41-1.88,11.37-2.44,17.44A96.9,96.9,0,0,1,301.95,422c-.07-.3-.14-.61-.21-.92A72.12,72.12,0,0,1,292.48,415.25Zm77,3.58.83-.29.54-1.06-.48.12ZM364.36,402a6.62,6.62,0,0,1-.67.72,50.13,50.13,0,0,1-6.45,5.14,65,65,0,0,0,26-7.83q-.82-2.53-1.53-5.37A79.85,79.85,0,0,1,364.36,402Zm-68.65.66a49.07,49.07,0,0,0,5.84,4.58q.18-1.05.42-2.12-2.9-1.76-5.81-3.74Q295.94,402,295.7,402.64Zm20.17-3.31q1.91.94,3.82,1.79a69.84,69.84,0,0,1-4.91-6.49,7.06,7.06,0,0,1-.41-.7c-7.12-2.7-18.85-8.21-19.55-20.38a38.9,38.9,0,0,1-4.8-3.72c.26,10.16,1.54,13,1.9,13.58a126.21,126.21,0,0,0,19.21,13.42l1.08.36.38.45,1.87,1,.69.12Zm9.29-13.47c7.29,5.92,14.21,8.89,20.66,8.89a22.25,22.25,0,0,0,9.63-2.26l.41-.45,1.05-.26.6-.3h.58a66.77,66.77,0,0,0,21.27-9.26q-.41-3-.73-6.27a23.16,23.16,0,0,1-6.79,2.1,15.08,15.08,0,0,1-2,.14c-5.14,0-11.06-2.41-16.79-4.74-4.24-1.73-9.52-3.87-12.36-3.87a3.49,3.49,0,0,0-.44,0c-1.9.26-5.86,2.93-9,5.08-4.8,3.24-9.74,6.58-14.72,7.37,1.31.56,2.74,1.1,4.27,1.65l1.46.54a6.86,6.86,0,0,1,.92.31l0,0a7,7,0,0,1,.68.34l1,.5Zm68.33.44q.57,3.08,1.27,5.77,1.56-1.36,2.95-2.78a5.76,5.76,0,0,1,.9-.94,41.63,41.63,0,0,0,2.88-3.47,5.86,5.86,0,0,1,.71-1,30.46,30.46,0,0,0,3.3-6,28.31,28.31,0,0,0,1.62-6.43A86,86,0,0,1,393.49,386.31Zm-2.22-19.5q.15,2.54.35,5A84.38,84.38,0,0,0,402,357.91l-.29.2a79.9,79.9,0,0,0-8.64,7.11Zm-86.44-1c3,1.67,6.4,3.22,9.45,4.61,2.17,0,7-3.33,10.28-5.52a72,72,0,0,1,8.44-5.17c-6.18-1.7-11.88-6-16.2-12.36a65,65,0,0,0-11.51,4.42,16.32,16.32,0,0,0-.37,1.86A51.13,51.13,0,0,0,304.83,365.83Zm42.46-7a95.6,95.6,0,0,1,10.16,3.7c4.46,1.81,9.53,3.87,12.34,3.87a3.08,3.08,0,0,0,.45,0c2.53-.35,5.24-2,7.51-3.64-.24-6.06-.3-12.53-.17-19.31l-1-.27a36.71,36.71,0,0,0-9-.81c-2.39,0-4.7.11-6.52.23C358.19,350.53,353.39,356.15,347.29,358.82Zm43.53-7.3q.68-.55,1.36-1.09-.59-.43-1.36-.93Q390.81,350.52,390.82,351.52Zm.28-15.29c13.41,6.49,14.25,11.62,14.54,13.4a8.4,8.4,0,0,1,.11,1.49c.39-.76.77-1.53,1.15-2.31-.72-7.11-1.81-14.56-2.86-21.79-2-13.7-3.89-26.61-3.14-36.11a11.48,11.48,0,0,1,.26-1.63c-16.53-16.17-31.86-29.43-35.78-30.9H365c-5.26,0-19.09,3.31-31.33,8.52a7.1,7.1,0,0,1,.48,2,6.47,6.47,0,0,1-4.35,6.81,26,26,0,0,0-10.47,6.66,17.63,17.63,0,0,1,3.22.63c7.26,2.14,12.51,6.65,15.17,12.94a26.64,26.64,0,0,1,22.62-14.2,21.5,21.5,0,0,1,6.27.93c5.81,1.77,13.29,6.73,17.79,20h.23a9.8,9.8,0,0,1,4.38,1c1.71.84,4.68,3,5.34,8.19a9.53,9.53,0,0,1-2.24,8C391.81,322.93,391.38,328.8,391.1,336.22ZM293.52,318c-.79,6.74-1.54,13.84-2.14,20.85-.25,2.85-.46,5.52-.63,8a46.2,46.2,0,0,1,4-2.69c-.83-5.34-1.56-13.88.59-21A25.39,25.39,0,0,1,293.52,318ZM328.2,332.1c5.77,6.79,9.2,7.39,10.23,7.39l.38,0c1-.12,4.2-1.15,8.15-9.23A35.43,35.43,0,0,1,337.83,317,34.88,34.88,0,0,1,328.2,332.1Zm-22.48,2.2c0,1.43.09,2.89.22,4.33,1.71-.69,3.46-1.32,5.13-1.85a16.2,16.2,0,0,1-2.24-.84A33.78,33.78,0,0,1,305.72,334.3ZM378,331.37v-.27l-.29.22ZM317.55,294c-4.25,0-9.4,4.82-11.72,11-1.6,4.24-4,14.71,8,20.25a4,4,0,0,0,1.7.4,4,4,0,0,0,.7-.06,5.71,5.71,0,0,1,2.37-.94,11.55,11.55,0,0,0,1.14-.78c5.5-4.29,9.19-14,7.9-20.83-.86-4.49-3.6-7.36-8.4-8.78A5.8,5.8,0,0,0,317.55,294Zm42.76-.55a13.9,13.9,0,0,0-9.53,4.3c-3.14,3.11-4.55,7.17-3.61,10.35,3.15,10.6,8.72,16.44,15.68,16.44a12.26,12.26,0,0,0,2.94-.36c5.88-1.46,10-6.65,9.11-11.34-2.11-10.56-6.29-17.3-11.76-19A9.73,9.73,0,0,0,360.31,293.47Zm-62.08-10.36c-.5,3.29-1.27,8.46-2.14,14.79.38-.76.79-1.52,1.23-2.26l0-.17a43.77,43.77,0,0,1,2-9.79,18.57,18.57,0,0,1-1.08-2.86C298.26,282.92,298.24,283,298.22,283.11Zm45.68-43.78a52,52,0,0,0-10.27,1.11c-11.59,2.35-23.66,8.18-31.49,15.21-5.2,4.67-8,9-8.52,13.2,7.16-7.27,26.14-23.39,57.8-28.69A31.86,31.86,0,0,0,343.9,239.33Zm41.69,9.86a117.73,117.73,0,0,1,20.68,19.28,18.87,18.87,0,0,0-2.45-7.09C400.63,256,394.31,251.81,385.59,249.19Z"/><path class="cls-1" d="M407.29,387.52a36.51,36.51,0,0,0,4.05-7.33c3.47-8.68,3-21.57,1.43-35.51,7.27-20.9,8.79-31.84,4.92-35.47-1.93-1.81-5.12-1.77-9.73.08a98.42,98.42,0,0,1-.8-17.83c6.67-12.78,7.39-24.29,2.08-33.27-6.72-11.37-22.94-17.92-45.68-18.45-13.12-13.46-47.55-5-65.6,11.23-11.65,10.46-13.81,21.87-6,31.35-.85,5.56-2.42,16.28-4,28.88-4-1.28-7-.86-8.89,1.26-4.13,4.64-2.14,16.67,5.44,33-1.47,20.36-1,33.63,1.28,39.61-.84.28-1.66.6-2.49.91a.35.35,0,0,0-.28.1q-1.76.66-3.49,1.42a.34.34,0,0,0-.17.08c-22.84,10-42.23,31.33-56.39,62.3-14.52,31.79-23.2,72.49-25.1,117.71a.38.38,0,0,0,.38.4h0l77.38-.17a.38.38,0,0,0,.31.17.37.37,0,0,0,.18,0c.05,0,.07-.08.1-.13l60.4-.14a.36.36,0,0,0,.29.31H337a.38.38,0,0,0,.37-.31l11.07,0a.37.37,0,0,0,.33.34h0a.38.38,0,0,0,.37-.34l142.92-.32a.38.38,0,0,0,.38-.4C487,449,463.84,400.29,407.29,387.52Zm-15.85,101,46.17,4.2-4.8,38.58-48.19-10.67ZM437.65,492l-46.14-4.2V476.85h15.8a.37.37,0,0,0,.27.13h.06l.73-.12h29.27Zm-29.34-15.91h-.42c-.57-3.35-4.34-25.3-8.93-45.3l.54-1c4.71,20.35,8.61,43.06,9.16,46.25Zm-9.62-46.43c-.77-3.31-1.56-6.54-2.35-9.62l.54-.93c.8,3,1.59,6.26,2.36,9.54ZM276.13,567.06c-22.58-41.19-28.61-82,3.8-178.86,1-.43,2-.84,3-1.23-.67,7.65,1.26,13.56,5.74,17.52-3.14,11.19-5.6,28.35-5.66,45.13a.34.34,0,0,0,0,.21c0,3.22.08,6.43.26,9.57a.31.31,0,0,0,0,.1,99.53,99.53,0,0,0,3.11,20.44c3.54,12.71,9.57,19.82,17.93,21.13h.06a12.39,12.39,0,0,0,1.85.14c18.85,0,63.16-37,81.19-85.8a51.11,51.11,0,0,0,5.24-5.62c1,3,1.94,6.47,2.89,10.14-26.37,45.94-51.33,93.73-58.78,147Zm32.28-164.58a34.54,34.54,0,0,0-1.81,14,59.43,59.43,0,0,1-17.17-12.29c1.56-5.42,3.28-9.31,4.94-10.88A125,125,0,0,0,308.41,402.48Zm3.88,2.06a38.79,38.79,0,0,0,1.18,15.07c-2.14-.89-4.15-1.8-6-2.72a33.42,33.42,0,0,1,1.67-14C310.16,403.46,311.23,404,312.29,404.54Zm11.22,4.84a19.73,19.73,0,0,0,1.85,9.51,78.64,78.64,0,0,0-11,.94,38.77,38.77,0,0,1-1.3-14.92A98.19,98.19,0,0,0,323.5,409.38Zm27.72,5A74.71,74.71,0,0,0,366,412.91a116.23,116.23,0,0,1-11.08,13.82,53.26,53.26,0,0,0-28.66-7.84,18.6,18.6,0,0,1-2-9.24A81.67,81.67,0,0,0,351.22,414.38Zm8.22-16.61a.24.24,0,0,1,0,.34c-6.94,6.47-13.34,9.26-19.55,8.56-6.84-.78-13.34-5.87-19.87-15.55a.51.51,0,0,1,.08-.7.58.58,0,0,1,.34-.15l.45.17c13.34,11,26.19,13.45,38.19,7.26l.2-.05A.27.27,0,0,1,359.44,397.77Zm-.31-.87a1.06,1.06,0,0,0-.19.05l-.12,0h0l-.07,0c-11.73,6.07-24.34,3.65-37.45-7.19l-.09-.05h0a1.29,1.29,0,0,0-.56-.21l-1.76-.65c-6.48-2.33-18.55-6.67-17.74-17.61a.35.35,0,0,0,0-.1,1.7,1.7,0,0,0-.09-.3c3.43,2,7.18,3.68,10.75,5.31a6,6,0,0,0,2.52.52c4,0,9-3.35,13.81-6.6,4.23-2.85,8.22-5.55,11.4-6,3.95-.52,9.87,1.87,15.59,4.2s11.86,4.82,16,4.25c4.32-.59,8.4-3.16,12.33-6.33a180.7,180.7,0,0,0,1.89,18.52A72.37,72.37,0,0,1,359.13,396.9ZM317.55,288.5a11.24,11.24,0,0,1,3.19.46c8.56,2.52,11.39,8.48,12.26,13,1.69,8.86-2.76,20.62-9.92,26.2a15.74,15.74,0,0,1-3.31,2,.37.37,0,0,0-.49-.06.36.36,0,0,0-.14.32,9.62,9.62,0,0,1-7.67-.21c-13.2-6.11-14.23-18.06-10.79-27.19C303.58,295.34,310.35,288.5,317.55,288.5Zm23.06,17.12a9.7,9.7,0,0,0-6.5-.53c0-.58-.07-1.16-.13-1.73,1.78-.93,5-.57,6.82.36A15,15,0,0,0,340.61,305.62Zm-6.49.28c1.83-.8,4.59-.3,6.52.56a13.45,13.45,0,0,0,.51,3.44c2.91,9.82,7.57,15.58,12.65,18.5-4.2,10.35-9,15.92-14.35,16.54-5.56.66-12-4.11-19.21-14.13a16.15,16.15,0,0,0,3.31-2C330,323.78,334.18,314.34,334.12,305.9ZM386,317.31c-.17,1.9-.93,10.6-1.27,22.08l-.73-.31c.34-11.37,1.07-19.91,1.24-21.84h.05Zm-.54,23.19c6.54,2.85,13.49,7,14,10.13a2.19,2.19,0,0,1-1.23,2.24,84.26,84.26,0,0,0-9.38,7.69c-1.08,1-2.16,1.95-3.25,2.9C385.23,355.43,385.25,347.49,385.44,340.5Zm-.59,23.58-.7.59q-.34-6.89-.34-14.59c0-3.57.06-7,.15-10.21l.73.31C384.49,347.43,384.46,355.72,384.85,364.08Zm-64.54-23a43.49,43.49,0,0,1-3.74-9.23s0,0,0,0a11.69,11.69,0,0,0,3-.72c7,9.83,13.19,14.64,18.87,14.64a10.19,10.19,0,0,0,1.15-.07c5.69-.66,10.58-6.22,14.94-16.94a18.23,18.23,0,0,0,3.28,1.33.36.36,0,0,0-.35.32c-1.43,13.89-8,23-17.26,23.81-6.56.59-14.48-3.41-19.84-13.1Zm37.87-10.62a.36.36,0,0,0-.15-.31,17.91,17.91,0,0,0,4.79.66,18.67,18.67,0,0,0,4.49-.55c7.24-1.8,12.59-7.38,13.75-13.59a13.1,13.1,0,0,0,3.4.58c-.2,2.16-.91,10.51-1.25,21.51a48.18,48.18,0,0,0-5-1.7c-6.81-1.8-18.55-.76-21.09-.5A45.71,45.71,0,0,0,358.18,330.49Zm27.14-14-.41,0a.33.33,0,0,0-.26.07,12.57,12.57,0,0,1-3.47-.58,13.21,13.21,0,0,0-.13-4.31c-.11-.55-.24-1.06-.35-1.58.79-.41,3.57-1.72,5.49-.77,1,.51,1.67,1.64,1.89,3.35a3.32,3.32,0,0,1-.87,3.19A3.53,3.53,0,0,1,385.32,316.48Zm-5-4.71c1.52,7.62-4.39,15.59-13.18,17.77s-19.91-1.92-25.24-19.86c-1.53-5.17.39-11.23,5-15.83a19.32,19.32,0,0,1,13.41-5.9,15.22,15.22,0,0,1,4.44.65C370.05,290.22,377.06,295.55,380.3,311.77Zm-69.16,19.18a10.22,10.22,0,0,0,4.33,1l.38,0a.36.36,0,0,0,0,.21,45,45,0,0,0,3.4,8.64c-3-.16-10.79,2.41-17.66,5.93-.54-2.59-2.9-15.17.28-23.2A22.69,22.69,0,0,0,311.15,330.94ZM299,368.8c-4.14-2.63-7.52-5.68-9-9.44-.65-1.62.19-3.56,2.48-5.76a36.6,36.6,0,0,1,7.37-5.16,15.55,15.55,0,0,0-1.15,4.3C297.91,358,298.14,365.46,299,368.8Zm.43-15.95c.44-2.93,1.16-4.81,2-5.28l0,0c7.52-3.9,16.17-6.6,18.17-6,5.17,9.3,12.68,13.47,19.23,13.47.44,0,.88,0,1.31-.06,9.14-.79,14.37-8.77,16.71-17.63,1.76-.18,14.24-1.37,21.1.45a48.31,48.31,0,0,1,5.15,1.74c-.23,7.75-.26,16.73.2,25.76-4,3.26-8.09,5.92-12.39,6.51-3.94.55-9.89-1.87-15.62-4.2s-11.86-4.82-16-4.25c-3.37.45-7.43,3.2-11.73,6.1-5.71,3.86-11.61,7.85-15.58,6A121.53,121.53,0,0,1,300,369.42C299.06,367.24,298.58,358.73,299.46,352.86Zm84.74,12.77.7-.58a184.48,184.48,0,0,0,1.81,18.71l-.67.49A185,185,0,0,1,384.2,365.63Zm2.64,19a77.61,77.61,0,0,0,4.45,17l-.65.44a77.07,77.07,0,0,1-4.46-16.93Zm6.63,22.8-.55.74q-.86-2.62-1.72-4.73c.09-.33.19-.65.27-1l.13-.09C392.22,403.84,392.84,405.54,393.47,407.42Zm-1.23-5.48c1.5-1,3-2.08,4.38-3.22,1.57-1.27,3-2.59,4.43-3.95a87,87,0,0,1-7,11.9C393.43,404.92,392.83,403.32,392.25,401.94Zm1.52,6.38c.94,2.9,1.9,6.19,2.84,9.72l-.54.93c-.95-3.6-1.91-7-2.86-9.93Zm-1.42.57a51.76,51.76,0,0,1-4.36,4.86q1.59-4.49,2.87-9.1C391.36,405.93,391.85,407.35,392.35,408.88Zm-2.05-5.64.1.24q-1.54,5.71-3.68,11.47a43,43,0,0,1-11.39,7.48q3.79-7.35,7.29-15A70.59,70.59,0,0,0,390.3,403.24ZM297.06,497.1c-6.87-19.81.5-41.78,22.54-67.15q1.45.91,2.87,1.68l-4,20.51a2.85,2.85,0,0,0,1.79,3.27,3.08,3.08,0,0,0,1.12.21,2.8,2.8,0,0,0,2.43-1.38l11.4-18.31a24.92,24.92,0,0,0,2.57.14,24.23,24.23,0,0,0,5.71-.69c2.89,12.34,2.51,23.32,1.36,33.29l-.45.58c-18.24,7.3-31.76,17.73-40.21,31A15.87,15.87,0,0,1,297.06,497.1Zm11-76.41a27,27,0,0,1-.55-2.89c1.93.93,4,1.85,6.15,2.74q.83,3.12,2,6.54a159.43,159.43,0,0,0-31.81,31.29c-.15-2.81-.22-5.67-.21-8.54,8.1-10.45,14.94-17.54,22.17-23A5.89,5.89,0,0,0,308.1,420.68Zm17.61-1c3.58,6.46,11.44,10.49,23.48,12a19.8,19.8,0,0,1-5.53,2.85c-8.31,2.13-16.94-.27-27.15-7.57q-1.2-3.35-2-6.4A77.45,77.45,0,0,1,325.71,419.65Zm24.72,12.09,0,0a44.17,44.17,0,0,0,4.65-4.13A55.78,55.78,0,0,0,373.69,424a287.74,287.74,0,0,1-28,43.52c1.05-9.71,1.29-20.37-1.51-32.32A22,22,0,0,0,350.43,431.74Zm-.35-.7c-11.94-1.41-19.77-5.23-23.43-11.38a52.44,52.44,0,0,1,27.68,7.63A42.44,42.44,0,0,1,350.08,431Zm-15.71,4.76-11.23,18a2.15,2.15,0,0,1-3.94-1.55l4-20.29A34.12,34.12,0,0,0,334.38,435.8Zm-18.17-8.11c.92.65,1.83,1.28,2.72,1.85-21.73,25.05-29.26,46.86-23,66.62-3.79-3.45-6.76-8.93-8.84-16.44a99.26,99.26,0,0,1-3.1-20.21A158.5,158.5,0,0,1,316.21,427.69ZM344.68,470c-.38,3.11-.83,6.12-1.27,9-15,13.91-29.77,22.22-38.38,21.36C313.41,487.36,326.74,477.13,344.68,470Zm.89-1a288.28,288.28,0,0,0,29.2-45.42,43.53,43.53,0,0,0,11.36-7c-7.75,20.14-20.76,40.27-37,56.9-1.61,1.64-3.22,3.21-4.83,4.73C344.76,475.17,345.2,472.11,345.58,469Zm28.66-46a53.8,53.8,0,0,1-18.34,3.87,123.88,123.88,0,0,0,11.19-14.13c.78-.17,1.57-.32,2.32-.51a72.67,72.67,0,0,0,12.14-4.23Q378,415.58,374.23,422.91Zm-67.51-5.51a27.93,27.93,0,0,0,.63,3.47,5.12,5.12,0,0,1-1.93,5.37c-7.1,5.33-13.83,12.27-21.7,22.34.12-16.24,2.47-32.7,5.48-43.55A60.83,60.83,0,0,0,306.72,417.4ZM395.8,421c.8,3.11,1.59,6.37,2.35,9.7C373,478,351.41,525.11,348.5,566.89l-11,0C344.94,514.08,369.63,466.61,395.8,421Zm1.63-2.83q4.76-8.28,9.55-16.48,3.4-5.84,6.78-11.69,2.85.83,5.58,1.8c-6.56,11.89-13.16,23.87-19.55,35.84C399,424.35,398.23,421.16,397.43,418.15ZM413,389.76q-3.33,5.76-6.69,11.52-4.58,7.88-9.17,15.82c-.94-3.48-1.88-6.71-2.82-9.54A92.35,92.35,0,0,0,402.79,393a50.92,50.92,0,0,0,4-4.81Q410,388.89,413,389.76Zm-2.37-9.86a36.75,36.75,0,0,1-4.18,7.53.37.37,0,0,0-.18.24v0a46.51,46.51,0,0,1-4,4.8.37.37,0,0,0-.19.17l0,.07a61.3,61.3,0,0,1-10.12,8.42,78.05,78.05,0,0,1-4.42-17.07c10.07-7.93,18.39-18.83,25.14-32.83C413.63,362.54,413.5,372.73,410.63,379.91Zm6.53-70.14c3.48,3.26,2,13.83-4.6,33.15-.67-5.53-1.49-11.2-2.31-16.82s-1.6-11-2.2-16C412.45,308.27,415.44,308.16,417.16,309.77Zm-7.67,16.45c1.16,7.94,2.33,16,3,23.57-6.71,14.28-15,25.36-25.14,33.41a186.6,186.6,0,0,1-1.76-18.77c1.25-1.08,2.49-2.19,3.72-3.3a83.48,83.48,0,0,1,9.29-7.62,2.92,2.92,0,0,0,1.56-3c-.59-3.62-8.17-8-14.73-10.8.38-13,1.29-22.47,1.32-22.7,0,0,0-.06,0-.09a3.45,3.45,0,0,0,.94-.52c1-.8,1.38-2.11,1.15-3.88-.25-2-1-3.31-2.31-3.95-2.13-1.05-4.95.16-6,.69C377,294.52,370.2,289.47,365,287.88c-6.21-1.89-13.34.19-18.62,5.44A19.25,19.25,0,0,0,341,303c-2-.92-5.08-1.28-7.09-.37,0-.24-.06-.49-.11-.72-.91-4.76-3.86-11-12.8-13.63-6.52-1.92-13,2-17.39,7.91A36.39,36.39,0,0,1,305.93,286a2,2,0,0,0,1.42.84h.06c1.16,0,2.22-1.38,3.8-3.46,2.79-3.65,7.45-9.77,16.78-12.95a1,1,0,0,0,.64-1,1.73,1.73,0,0,0-1.37-1.48,34.9,34.9,0,0,0-8.09.2c15-9.48,40.34-16,47-15.19s38.63,32.24,41.17,34.76l-.13.4a15.72,15.72,0,0,0-.87,3.26C405.69,300.22,407.53,312.84,409.49,326.21Zm-85-57.68a21.17,21.17,0,0,1,2.65.14,1,1,0,0,1,.7.79c0,.2-.07.23-.13.25-9.55,3.26-14.3,9.49-17.14,13.21-1.34,1.76-2.41,3.15-3.2,3.15h0c-.34,0-.71-.32-1.12-.91,1-2.32,5.34-11.9,11.36-16A43,43,0,0,1,324.51,268.53Zm-18.74,15.84c-2.09-3.54-2.38-6.59-.81-9.07,2-3.08,6.43-4.89,11-5.85C310.76,273.77,307,281.58,305.77,284.37Zm-7.31-32.84c8.52-7.65,21.58-14,34.08-16.51,13.55-2.75,24.69-.8,30.57,5.35a.39.39,0,0,0,.27.12c22.55.49,38.6,6.92,45.19,18.08,4.6,7.78,4.52,17.55-.16,28.43.5-1.59.85-3.12.48-4.19-4.9-14-34.44-38.49-46.05-38.49l-.61,0c-41.44,3.4-63.09,26.3-67,30.86a13.82,13.82,0,0,0-3,6.14C287.82,275.79,283.47,265,298.46,251.54ZM279.69,313c1.68-1.9,4.45-2.23,8.23-1-1,8.3-2,17.37-2.8,26.31-.17,1.91-.32,3.77-.45,5.57C277.82,328.69,275.94,317.19,279.69,313Zm6.19,25.37c2-23,5.48-46.87,6.89-56.07a13.08,13.08,0,0,1,3-6.55c3.89-4.52,25.35-27.23,66.49-30.6,10.68-.89,41.09,24.31,45.88,38,.31.88,0,2.33-.51,3.79-4.14-4.09-34.5-33.9-41.35-34.7-3.79-.45-12.36,1.16-21.82,4.09-10.74,3.32-20.62,7.74-27.13,12.13-5.22.89-10.72,2.84-13,6.52-1.81,2.86-1.44,6.35,1.08,10.35a36.72,36.72,0,0,0-2.6,10.84c-.05.49-.11,1-.17,1.41a27.87,27.87,0,0,0-2.68,5.28c-2.25,6-2.59,13.62,1.41,19.94,0,0-.08.05-.1.09-3.62,8.55-.9,22-.42,24.21a40.73,40.73,0,0,0-8.91,6c-2.54,2.44-3.44,4.66-2.66,6.6,1.68,4.18,5.53,7.49,10.16,10.31a1.73,1.73,0,0,0,.28.41,2.08,2.08,0,0,1,.62.91c-.81,11.47,11.59,15.93,18.25,18.33l.91.33a1.27,1.27,0,0,0-.14,1.61c6.66,9.88,13.34,15.08,20.42,15.88a16.77,16.77,0,0,0,1.9.11c5.8,0,11.93-3,18.25-8.87a1,1,0,0,0,.19-1.25,73,73,0,0,0,25.34-11.8A76.94,76.94,0,0,0,390,402.44a74.29,74.29,0,0,1-20.77,9c-11.45,2.87-27,3.8-45-2.59a.38.38,0,0,0-.27-.13l-.05,0a98,98,0,0,1-11-4.72s-.06-.06-.1-.06h0q-1.83-.92-3.68-1.95s0,0-.07-.06h0a130.63,130.63,0,0,1-20.77-14.46C285.4,385.12,282.74,374.69,285.89,338.35Zm1.81,49.7c2,1.72,4.05,3.29,6.06,4.81-1.64,1.66-3.33,5.49-4.87,10.79-4.16-3.87-5.92-9.57-5.2-17,.81-.3,1.62-.62,2.45-.89A6.48,6.48,0,0,0,287.7,388.05Zm-8.71.56c-32.15,96.31-26.19,137.29-3.73,178.45l-76.56.17C202.59,476.51,233.09,409.26,279,388.61Zm70.28,178.28c2.9-41.4,24.24-88.13,49.15-135.08,4.45,19.52,8.08,40.64,8.7,44.27h-16a.38.38,0,0,0-.38.38v11.65l-7,32.77a.38.38,0,0,0,.29.45l49,10.84h.08a.38.38,0,0,0,.38-.33l4.9-39.39v-16a.38.38,0,0,0-.38-.38H409.45c-.4-2.34-4.48-26.24-9.4-47.33,6.54-12.26,13.3-24.52,20-36.7,46.73,17.16,66.55,66.79,71.65,174.52Z"/><g id="_Group_" data-name="&lt;Group&gt;"><path class="cls-2" d="M492.11,567l-143.26.32c2.8-41.73,23.91-88,49.72-136.53,4.76,20.81,8.68,43.83,9,45.73H391.13v11.68l-7,32.81,49,10.84L438,492.43v-16H408.36l.75-.12c-.06-.38-4.3-25.58-9.45-47.64,6.51-12.25,13.33-24.63,20.22-37.11C469,409.54,487.21,462.8,492.11,567Z"/><path class="cls-3" d="M438,476.48v16l-46.91-4.27V476.48h16.44a.82.82,0,0,0,0,.12l.77-.12Z"/><polygon class="cls-4" points="438.04 492.43 433.13 531.8 384.15 520.96 391.13 488.16 438.04 492.43"/><path class="cls-5" d="M413.58,389.53c2.16.61,4.26,1.3,6.31,2.07-6.89,12.48-13.72,24.86-20.22,37.11-.86-3.67-1.75-7.26-2.63-10.62C402.51,408.56,408.06,399.06,413.58,389.53Z"/><path class="cls-6" d="M407.64,309.83c14.73-6.18,14.74,6,4.76,34.74h0C411,332.87,408.89,320.58,407.64,309.83Z"/><path class="cls-7" d="M412.92,349.93C414,361.75,414,372.57,411,380.06a35.77,35.77,0,0,1-4.33,7.7,49.41,49.41,0,0,1-4.19,5.08,62,62,0,0,1-10.66,9,76.51,76.51,0,0,1-4.67-17.93c10-7.84,18.69-18.91,25.77-34Z"/><path class="cls-8" d="M412.92,349.93h0c-7.07,15.06-15.77,26.13-25.77,34a186.17,186.17,0,0,1-1.87-19.64c4.41-3.8,8.74-8.13,13.17-11.05,5.19-3.43-4.81-9.6-13.32-13.24.35-13.12,1.27-22.75,1.3-23l-1-.09c1.84-.2,3.48-1.19,3.08-4.3-.89-7-8.19-2.74-8.19-2.74-8-34.8-36.16-22.2-39.07-6.45H341c-2-1-5.33-1.36-7.21-.34l-.2,0c-.84-6.45-4.61-12.11-12.71-14.48-6.66-2-13.53,2.34-17.84,9,.41-3.14.55-7,2.82-12.35,3.61,5.63,5.1-9.37,22-15.14.83-.29.21-1.67-.64-1.79a36.49,36.49,0,0,0-9.71.46c14.62-9.89,41.41-17.07,48.76-16.21,7.15.84,41.56,35,41.56,35a20.9,20.9,0,0,0-1.06,3.8,99.93,99.93,0,0,0,.86,18.46c1.26,10.75,3.38,23,4.73,34.74C412.57,346.38,412.76,348.17,412.92,349.93Zm-34.8-65.28c16.21-14.13-19.35-24.91-26-13.1-.46.81-1.26,2.16-.34,2C374.64,269.19,373.42,288.77,378.12,284.65Z"/><path class="cls-4" d="M406.64,387.76c2.37.52,4.68,1.12,6.94,1.78-5.51,9.52-11.07,19-16.55,28.55-1-3.9-2.08-7.5-3.14-10.62a91.05,91.05,0,0,0,8.56-14.62A49.41,49.41,0,0,0,406.64,387.76Z"/><path class="cls-9" d="M409.11,476.35l-.75.12h-.78c-.32-1.9-4.24-24.92-9-45.73.34-.67.7-1.36,1.09-2C404.8,450.77,409,476,409.11,476.35Z"/><path class="cls-10" d="M407.83,287.57c.57-1.73,1.09-3.51.69-4.62-5-14.15-35.46-39.08-46.26-38.2-37.54,3.08-59.43,22.2-66.75,30.73a13.38,13.38,0,0,0-3.11,6.75c-24-28.52,50.31-63.72,71-42.1,42.87.93,58.39,22.57,43.39,51.24A20.9,20.9,0,0,1,407.83,287.57Z"/><path class="cls-7" d="M284.95,345.38c.81-11.22,2.1-23.13,3.4-33.73,1.61-13.12,3.25-24.2,4.06-29.42a13.38,13.38,0,0,1,3.11-6.75c7.32-8.53,29.21-27.65,66.75-30.73,10.81-.89,41.3,24.05,46.26,38.2.4,1.12-.12,2.89-.69,4.62,0,0-34.42-34.19-41.56-35-7.35-.86-34.14,6.32-48.76,16.21h0c-8.8,1.5-18.39,6-11.67,16.47-2.27,5.34-2.4,9.22-2.82,12.35v0c-4.75,7.3-6.35,17.45-1.16,25.25l-.21.14c-3.87,9.11-.34,24.27-.34,24.27-7.13,3.7-13.2,8.44-11.65,12.26,1.64,4.12,5.43,7.36,10.09,10.2a1.38,1.38,0,0,0,.26.4,2.44,2.44,0,0,1,.73,1.15c-.92,12.32,13.72,16.37,19.78,18.65a.93.93,0,0,0-.84,1.44c11,16.27,23.7,22.24,40,7.06a.64.64,0,0,0-.43-1.12A72.54,72.54,0,0,0,385.73,385a76.67,76.67,0,0,0,4.7,17.61l0,.12a67.93,67.93,0,0,1-8.16,4.49,71.54,71.54,0,0,1-15.48,5.19c-12.63,2.69-27.22,2.31-43-3.28a97.19,97.19,0,0,1-11.18-4.78c-1.27-.63-2.56-1.3-3.83-2v0a124.51,124.51,0,0,1-14.56-9.45q-3.17-2.39-6.37-5.08a6.44,6.44,0,0,1-1.64-2.43C283.54,378.82,283.66,362.94,284.95,345.38Z"/><path d="M408.36,476.48l-.77.12a.82.82,0,0,1,0-.12Z"/><path class="cls-9" d="M399.66,428.71c-.38.67-.75,1.36-1.09,2-.87-3.72-1.75-7.36-2.63-10.79l1.09-1.87C397.91,421.45,398.8,425,399.66,428.71Z"/><path class="cls-10" d="M385.1,340c8.51,3.64,18.51,9.81,13.32,13.24-4.42,2.92-8.76,7.26-13.17,11.05C384.86,355.76,384.89,347.33,385.1,340Z"/><path class="cls-9" d="M397,418.09,395.94,420c-1.06-4-2.11-7.76-3.17-11,.38-.49.75-1,1.12-1.49C394.94,410.58,396,414.18,397,418.09Z"/><path class="cls-5" d="M395.94,420c.89,3.43,1.76,7.07,2.63,10.79-25.81,48.52-46.92,94.8-49.72,136.53l-11.77,0C344.48,513.81,369.19,466.52,395.94,420Z"/><path class="cls-4" d="M402.45,392.84a91.05,91.05,0,0,1-8.56,14.62c-.69-2.08-1.38-3.93-2.05-5.51l0-.12A62,62,0,0,0,402.45,392.84Z"/><path class="cls-4" d="M343.77,479.19c16.7-15.52,33.79-38.21,43.34-64.08a51.42,51.42,0,0,0,5.66-6.15c1.06,3.25,2.11,7,3.17,11-26.75,46.57-51.45,93.86-58.86,147.35l-61.18.14c-24.07-43.8-27.62-86,3.74-179.56,1.21-.55,2.45-1,3.69-1.5-.86,8.14,1.18,14,5.68,17.93-3.2,11.16-5.66,28.49-5.68,45.41,0,3.26.08,6.51.28,9.69,1,16.52,4.79,31.37,13.12,37.92a16.11,16.11,0,0,0,7.62,3.37C312.79,502,328.12,493.74,343.77,479.19Z"/><path class="cls-9" d="M393.89,407.46c-.37.51-.73,1-1.12,1.49-.66-2-1.32-3.87-2-5.48l.32-1.21c.21-.14.44-.28.66-.43l0,.12C392.51,403.53,393.2,405.38,393.89,407.46Z"/><path class="cls-9" d="M391.79,401.83c-.21.15-.44.29-.66.43s-.43.29-.66.43l0-.12a76.67,76.67,0,0,1-4.7-17.61c.47-.34.93-.69,1.39-1.06A76.51,76.51,0,0,0,391.79,401.83Z"/><path class="cls-4" d="M390.81,403.47c.64,1.61,1.3,3.44,2,5.48a51.42,51.42,0,0,1-5.66,6.15Q389.22,409.38,390.81,403.47Z"/><path class="cls-9" d="M391.13,402.26l-.32,1.21c-.11-.26-.23-.54-.34-.78C390.7,402.55,390.92,402.41,391.13,402.26Z"/><path class="cls-11" d="M390.47,402.68c.11.24.23.52.34.78q-1.58,5.92-3.7,11.64a43.28,43.28,0,0,1-12.58,8.11q4.11-7.85,7.79-16A67.93,67.93,0,0,0,390.47,402.68Z"/><path class="cls-12" d="M388.47,312.57c.4,3.11-1.24,4.1-3.08,4.3l-.52,0v.06a12.43,12.43,0,0,1-3.93-.64l-.15,0a13.2,13.2,0,0,0-.11-4.52c-.12-.64-.26-1.26-.4-1.87C380.28,309.83,387.58,305.58,388.47,312.57Z"/><path class="cls-11" d="M374.52,423.21a43.28,43.28,0,0,0,12.58-8.11c-9.55,25.87-26.64,48.56-43.34,64.08.52-3.43,1-6.86,1.42-10.33A285.65,285.65,0,0,0,374.52,423.21Z"/><path class="cls-9" d="M385.39,316.88l1,.09c0,.24-.95,9.87-1.3,23-.52-.23-1-.44-1.53-.63.37-12.42,1.21-21.59,1.3-22.44A3,3,0,0,0,385.39,316.88Z"/><path class="cls-9" d="M387.12,383.9c-.46.37-.92.72-1.39,1.06a185.92,185.92,0,0,1-1.94-19.47c.49-.4,1-.81,1.47-1.22A186.17,186.17,0,0,0,387.12,383.9Z"/><path d="M384.87,316.83l.52,0a3,3,0,0,1-.52,0Z"/><path class="cls-9" d="M385.25,364.26c-.49.41-1,.83-1.47,1.22-.46-9.17-.43-18.31-.21-26.15.51.18,1,.4,1.53.63C384.89,347.33,384.86,355.76,385.25,364.26Z"/><path class="cls-8" d="M380.94,316.25a12.43,12.43,0,0,0,3.93.64c-.09.86-.93,10-1.3,22.44a46.91,46.91,0,0,0-5.45-1.88c-7.52-2-21.45-.44-21.45-.44h0a46.58,46.58,0,0,0,1.13-6.55l.2-.67c10.41,3,21.39-4.36,22.8-13.56Z"/><path class="cls-8" d="M383.78,365.48A185.92,185.92,0,0,0,385.73,385a72.54,72.54,0,0,1-26.5,12.32.6.6,0,0,0-.31.08c-12.26,6.34-24.89,3.49-37.88-7.24a.83.83,0,0,0-.52-.2,0,0,0,0,1,0,0c-6.06-2.28-20.7-6.32-19.78-18.65a2.44,2.44,0,0,0-.73-1.15,1.38,1.38,0,0,1-.26-.4,120.74,120.74,0,0,0,12.19,6.14c7.16,3.29,19.69-11,27.51-12.08,8.11-1.1,23.5,9.55,31.61,8.45C375.5,371.61,379.7,368.87,383.78,365.48Z"/><path class="cls-10" d="M383.57,339.33c-.21,7.84-.24,17,.21,26.15-4.09,3.38-8.28,6.12-12.74,6.74-8.11,1.1-23.5-9.55-31.61-8.45-7.82,1.06-20.35,15.37-27.51,12.08a120.74,120.74,0,0,1-12.19-6.14c-1.59-3.29-1.82-20.62,1.56-22.46,7.72-4,16.7-6.83,18.65-6C330.28,360,351,359.63,356.66,337h0s13.93-1.55,21.45.44A46.91,46.91,0,0,1,383.57,339.33Z"/><path class="cls-12" d="M380.68,311.7a13.2,13.2,0,0,1,.11,4.52c-1.41,9.2-12.39,16.56-22.8,13.56a17.08,17.08,0,0,1-3.7-1.53c-5.14-2.85-9.84-8.62-12.77-18.45a13.34,13.34,0,0,1-.55-3.61,14.44,14.44,0,0,1,.24-2.8c2.91-15.75,31-28.35,39.07,6.45C380.42,310.45,380.55,311.06,380.68,311.7Zm-36.44-2c8.83,29.73,36.6,16.32,33.67,1.62C370.68,275.22,339.6,294,344.24,309.7Z"/><path class="cls-10" d="M352.11,271.55c6.66-11.8,42.22-1,26,13.1-4.7,4.12-3.48-15.46-26.35-11.11C350.85,273.7,351.65,272.36,352.11,271.55Z"/><path class="cls-13" d="M377.9,311.32c2.94,14.7-24.83,28.11-33.67-1.62C339.6,294,370.68,275.22,377.9,311.32Z"/><path class="cls-11" d="M382.31,407.17q-3.7,8.2-7.79,16a54.16,54.16,0,0,1-19.53,4,122.45,122.45,0,0,0,11.85-14.87A71.54,71.54,0,0,0,382.31,407.17Z"/><path class="cls-3" d="M374.52,423.21a285.65,285.65,0,0,1-29.33,45.64c1.24-10.49,1.58-21.4-1.42-33.93a21.26,21.26,0,0,0,6.45-3.46,45.7,45.7,0,0,0,4.78-4.24A54.16,54.16,0,0,0,374.52,423.21Z"/><path class="cls-9" d="M359.23,397.28a.64.64,0,0,1,.43,1.12c-16.29,15.19-29,9.22-40-7.06a.93.93,0,0,1,.84-1.44,0,0,0,0,0,0,0l.52.2c13,10.73,25.61,13.58,37.88,7.24Z"/><path class="cls-9" d="M319.94,341.25a42.86,42.86,0,0,1-3.75-9.25l0-.49a10.88,10.88,0,0,0,3.49-.84c13.29,18.78,25.12,21.3,34.63-2.42a17.08,17.08,0,0,0,3.7,1.53l-.2.67a46.58,46.58,0,0,1-1.13,6.55C351,359.63,330.28,360,319.94,341.25Z"/><path class="cls-14" d="M366.84,412.36A122.45,122.45,0,0,1,355,427.23h0a53,53,0,0,0-29-8,19.17,19.17,0,0,1-2.05-10.18C339.62,414.67,354.21,415.05,366.84,412.36Z"/><path class="cls-15" d="M355,427.23h0a45.7,45.7,0,0,1-4.78,4.24l0,0c-12.63-1.47-20.73-5.51-24.27-12.19A53,53,0,0,1,355,427.23Z"/><path class="cls-14" d="M335,435.54a33.86,33.86,0,0,1-12.12-4.09c-1.13-.61-2.27-1.27-3.38-2s-2.2-1.45-3.31-2.24c-.86-2.36-1.59-4.68-2.17-7a79.51,79.51,0,0,1,11.91-1c3.54,6.67,11.64,10.72,24.27,12.19l0,0a21.26,21.26,0,0,1-6.45,3.46A24,24,0,0,1,335,435.54Z"/><path class="cls-15" d="M343.77,434.93c3,12.52,2.66,23.44,1.42,33.93-.18.24-.38.47-.57.72-19,7.56-32.06,18.1-40.28,31.12a16.11,16.11,0,0,1-7.62-3.37c-7.5-21.49,2.22-44.27,22.78-67.87,1.12.72,2.25,1.38,3.38,2l-4.06,20.77a2.53,2.53,0,0,0,4.64,1.82L335,435.54A24,24,0,0,0,343.77,434.93Z"/><path class="cls-14" d="M344.62,469.57c.18-.24.38-.47.57-.72-.4,3.48-.9,6.9-1.42,10.33-15.65,14.56-31,22.83-39.42,21.51C312.56,487.67,325.67,477.13,344.62,469.57Z"/><path class="cls-6" d="M341.51,309.8c2.92,9.83,7.62,15.6,12.77,18.45-9.51,23.71-21.34,21.2-34.63,2.42,7.78-3.18,14.28-14.68,14.08-25h0c2-1,5.13-.43,7.21.55A13.34,13.34,0,0,0,341.51,309.8Z"/><path class="cls-12" d="M341,303.39h.24a14.44,14.44,0,0,0-.24,2.8c-2.08-1-5.21-1.56-7.21-.55h0a17.79,17.79,0,0,0-.18-2.56l.2,0C335.64,302,339,302.41,341,303.39Z"/><path class="cls-14" d="M335,435.54,323.47,454a2.53,2.53,0,0,1-4.64-1.82l4.06-20.77A33.86,33.86,0,0,0,335,435.54Z"/><path class="cls-12" d="M319.65,330.67a10.88,10.88,0,0,1-3.49.84,9.59,9.59,0,0,1-4.85-.9,22.31,22.31,0,0,1-9.46-7.76c-5.19-7.79-3.58-17.94,1.16-25.25v0c4.3-6.64,11.18-10.95,17.84-9,8.1,2.37,11.86,8,12.71,14.48a17.79,17.79,0,0,1,.18,2.56C333.94,316,327.43,327.49,319.65,330.67ZM312,327.45c14.1,6.52,30.31-29.09,8.1-35.62C305.83,287.62,290.4,317.43,312,327.45Z"/><path class="cls-10" d="M327.22,268.3c.86.12,1.47,1.5.64,1.79-16.93,5.77-18.42,20.77-22,15.14,1.79-4.27,6.15-12.74,11.67-16.47h0A36.49,36.49,0,0,1,327.22,268.3Z"/><path class="cls-14" d="M323.88,409.08a19.17,19.17,0,0,0,2.05,10.18,79.51,79.51,0,0,0-11.91,1c-1.52-5.73-2.11-11.11-1.32-16A97.19,97.19,0,0,0,323.88,409.08Z"/><path class="cls-13" d="M320.14,291.83c22.21,6.54,6,42.15-8.1,35.62C290.4,317.43,305.83,287.62,320.14,291.83Z"/><path class="cls-8" d="M319.94,341.25c-1.94-.83-10.93,2-18.65,6,0,0-3.54-15.16.34-24.27l.21-.14a22.31,22.31,0,0,0,9.46,7.76,9.59,9.59,0,0,0,4.85.9l0,.49A42.86,42.86,0,0,0,319.94,341.25Z"/><path class="cls-14" d="M316.19,427.23c1.1.78,2.2,1.53,3.31,2.24-20.56,23.59-30.28,46.37-22.78,67.87-8.33-6.55-12.12-21.4-13.12-37.92h0A158,158,0,0,1,316.19,427.23Z"/><path class="cls-11" d="M314,420.28c.58,2.27,1.32,4.59,2.17,7a158,158,0,0,0-32.58,32.18h0c-.2-3.18-.28-6.43-.28-9.69,6.8-8.8,14-16.92,22.32-23.16a5.51,5.51,0,0,0,2.08-5.77,29.4,29.4,0,0,1-.67-3.61Q310.45,418.82,314,420.28Z"/><path class="cls-11" d="M312.7,404.31c-.8,4.85-.2,10.24,1.32,16q-3.56-1.45-7-3.11a33.66,33.66,0,0,1,1.82-14.87C310.15,403,311.43,403.68,312.7,404.31Z"/><path class="cls-16" d="M317.49,268.76c-5.51,3.74-9.87,12.2-11.67,16.47C299.11,274.79,308.69,270.26,317.49,268.76Z"/><path class="cls-11" d="M308.88,402.29v0a33.66,33.66,0,0,0-1.82,14.87,61,61,0,0,1-18-12.86c1.65-5.82,3.51-10,5.31-11.47A124.51,124.51,0,0,0,308.88,402.29Z"/><path class="cls-3" d="M307.73,420.78a5.51,5.51,0,0,1-2.08,5.77c-8.31,6.25-15.52,14.36-22.32,23.16,0-16.92,2.48-34.25,5.68-45.41a61,61,0,0,0,18,12.86A29.4,29.4,0,0,0,307.73,420.78Z"/><path class="cls-16" d="M299.74,369.71c-4.65-2.83-8.45-6.08-10.09-10.2-1.55-3.83,4.52-8.56,11.65-12.26C297.91,349.09,298.14,366.42,299.74,369.71Z"/><path class="cls-5" d="M287.95,387.76q3.19,2.69,6.37,5.08c-1.81,1.52-3.66,5.65-5.31,11.47-4.5-3.92-6.54-9.78-5.68-17.93,1-.38,2-.72,3-1.06A6.44,6.44,0,0,0,287.95,387.76Z"/><path class="cls-6" d="M288.09,311.62l.26,0c-1.3,10.59-2.59,22.5-3.4,33.73C273.82,321.47,275.15,307.37,288.09,311.62Z"/><path class="cls-2" d="M275.9,567.44l-77.6.18c3.55-84.58,31.34-158.08,81.34-179.75C248.28,481.44,251.83,523.64,275.9,567.44Z"/></g></svg>