<svg id="Layer_1" data-name="Layer 1" xmlns="http://www.w3.org/2000/svg" viewBox="0 0 470.16 440"><defs><style>.cls-1{fill:#fff;}.cls-2{fill:#10213a;}.cls-3{fill:#f4e8c3;}.cls-4{fill:#8a9fbc;}.cls-5{fill:#6a83a0;}.cls-6{fill:#d88361;}.cls-7{fill:#cc8f7a;}.cls-8{fill:#f2b78b;}.cls-9{fill:#aa593d;}.cls-10{fill:#663a28;}.cls-11{fill:#cebf97;}.cls-12{fill:#9b7726;}.cls-13{fill:#d9e7ed;}.cls-14{fill:#ad3821;}.cls-15{fill:#ea6647;}.cls-16{fill:#442318;}</style></defs><title>teddy_back_final-05</title><path class="cls-1" d="M237.24,245.52c-4,0-13.75-1.63-18.23-16.72-1.5-5.05.22-10.82,4.48-15.06a17.46,17.46,0,0,1,12.11-5.23,14.67,14.67,0,0,1,4.28.63c4.7,1.43,10.85,5.85,13.44,18.74,1.49,7.43-4,15.12-12.13,17.15A16.45,16.45,0,0,1,237.24,245.52Zm-1.64-28a8.46,8.46,0,0,0-5.79,2.63c-1.89,1.87-2.75,4.28-2.2,6.14,2,6.64,5.4,10.3,9.65,10.3a7.41,7.41,0,0,0,1.78-.22c3.52-.87,6-3.93,5.49-6.68-1.34-6.67-3.91-10.91-7.26-11.93A5.73,5.73,0,0,0,235.6,217.48Z"/><path class="cls-1" d="M238.66,213.16c-4.07-1.24-8.75.13-12.22,3.56-3.17,3.14-4.47,7.31-3.41,10.89,3,10.17,8.89,13.72,14.21,13.72a12.27,12.27,0,0,0,2.95-.36c6-1.49,10.08-7,9-12.25C247,217.85,242.27,214.26,238.66,213.16ZM240,240.4c-5.68,1.4-13-1.26-16.46-13-1-3.37.25-7.32,3.27-10.31,3.31-3.29,7.77-4.6,11.63-3.42,3.46,1.05,8,4.53,10.14,15.11C249.63,233.79,245.78,239,240,240.4Z"/><path class="cls-1" d="M201.51,246.12a10.82,10.82,0,0,1-4.57-1c-10.74-5-12.46-15.39-9.4-23.51,2.26-6,8-12.45,15.33-12.45a12,12,0,0,1,3.38.49c6.1,1.8,10.09,6.08,11.23,12.07,1.43,7.53-2.07,16.79-8.14,21.52A12.74,12.74,0,0,1,201.51,246.12Zm1.34-28c-2.44,0-5.55,3-6.92,6.64-1,2.56-2.43,8.88,4.78,12.22a1.91,1.91,0,0,0,.82.2,4.07,4.07,0,0,0,2.29-1c3.37-2.63,5.64-8.6,4.85-12.78-.51-2.66-2.08-4.3-4.95-5.14A3,3,0,0,0,202.85,218.11Z"/><path class="cls-1" d="M198.7,241.3a6.65,6.65,0,0,0,2.81.63,8.57,8.57,0,0,0,5.24-2c4.84-3.78,7.74-11.44,6.6-17.43-.59-3.09-2.5-7.12-8.29-8.83s-11.37,3.48-13.61,9.42S189.83,237.2,198.7,241.3Zm-6.7-18c1.87-5,6.22-9.36,10.85-9.36a7.22,7.22,0,0,1,2,.3c5.5,1.62,7.32,5.45,7.88,8.38,1.09,5.7-1.78,13.27-6.39,16.87-1.75,1.36-4.46,2.7-7.45,1.32C190.45,236.84,189.79,229.16,192,223.28Z"/><path class="cls-1" d="M248.16,213.4a5.4,5.4,0,0,1-.75-.05c-2.73-.39-4.08-2.51-5.17-4.22-1.6-2.51-3.25-5.1-8.48-5.1a21,21,0,0,0-3.89.4,4.92,4.92,0,0,1-1,.09,4.7,4.7,0,0,1-3.82-2c-1.82-2.54-.32-5.2.25-6.21,2.23-3.95,6.84-6.18,12.7-6.18a25.09,25.09,0,0,1,2.63.14c6,.62,13.66,3.57,15.65,9.84.74,2.33,1.16,6.94-4.3,11.7A5.83,5.83,0,0,1,248.16,213.4Z"/><path class="cls-1" d="M240.24,194.49c-5.34-.56-9.52.9-11.21,3.88l0,.05c-.44.78-.74,1.37-.49,1.71a.52.52,0,0,0,.58.18c11.14-2.11,14.61,3.32,16.68,6.57.81,1.28,1.4,2.2,2.22,2.32h.17a1.72,1.72,0,0,0,1.12-.51c3.47-3,3.58-5.62,3.05-7.27C251.05,197.39,245.17,195,240.24,194.49Zm8.65,13.77a1.07,1.07,0,0,1-.82.36c-.55-.08-1.1-1-1.81-2.06-1.81-2.85-4.66-7.31-12.48-7.31a26.09,26.09,0,0,0-4.76.48,5.94,5.94,0,0,1,.49-1l0-.05c1.57-2.77,5.54-4.11,10.64-3.58,4.89.51,10.45,2.92,11.59,6.54C252.45,203.73,251.46,206,248.9,208.26Z"/><path class="cls-1" d="M226.45,428.25l-.26,0a4.53,4.53,0,0,1-.87-.21h-6.06a4.44,4.44,0,0,1-1.44.24h-.18l-.33,0h-.11a4.42,4.42,0,0,1-.81-.19l-43.92.1a4.5,4.5,0,0,1-2.16,0l-58,.13a4.48,4.48,0,0,1-4.49-4.68c1.47-34.94,8.2-66.44,19.47-91.12,11.1-24.29,26.6-41.37,44.83-49.41a4.33,4.33,0,0,1,.55-.24l1.21-.51c-.79-4.41-1.23-12.1-.22-26.77-6.38-14.09-7.4-23.73-3-28.67a8.71,8.71,0,0,1,6.27-2.9c.87-6.73,1.69-12.44,2.25-16.12-6.08-8.74-3.86-19.12,6.14-28.1,9.8-8.79,25-14.7,37.75-14.7,6.91,0,12.63,1.77,16.65,5.13,18,.72,31,6.39,36.67,16,3.29,5.57,5.73,15-1.06,28.58a57,57,0,0,0,.18,7.19q.42,0,.83,0a8.17,8.17,0,0,1,5.74,2.15c4.48,4.2,3.85,12.51-2.34,30.52,1.48,13.42,1,21.86-1.47,28.1q-.27.67-.58,1.34c20.4,6,34.59,18.54,44.37,39.13,10.27,21.64,16.08,53.37,18.26,99.85a4.48,4.48,0,0,1-4.48,4.69L228.3,428a4.46,4.46,0,0,1-1.51.26ZM166.37,296.5c-27.61,19-46.09,64.48-49.38,122.77l47-.11a106.16,106.16,0,0,1-11.47-47.93C152.27,351.27,156.7,327.33,166.37,296.5Zm8.64,2.41c-19.88,63.3-15.86,92.13-1,120.23l40-.09c4.15-26,13.49-50.09,24.68-72.75a136.28,136.28,0,0,1-10.25,11.22C215.68,370,203,377.43,194.37,377.43a13.82,13.82,0,0,1-1.78-.11h-.07l-.29,0c-5.54-.87-13-4.89-17-19.08a79,79,0,0,1-2.49-16l-.05-.21v-.44c-.13-2.29-.2-4.67-.2-7.11a4.66,4.66,0,0,1,0-.64,148,148,0,0,1,3.85-32.9A16.58,16.58,0,0,1,175,298.91Zm87.86,33.76c-14.39,28-28,58.81-31.14,86.34l99.37-.22c-4-74.85-17.73-110.14-48.22-123.33-4,7.32-8.42,15.31-12.67,23.24,2.79,12.18,5.15,25.08,6.24,31.23h18.22a4.49,4.49,0,0,1,4.48,4.48v11.26l.15.33-.15.91v.85L299,368l-3.62,29.08a4.48,4.48,0,0,1-4.45,3.93h-.46l-.51-.11-37.26-8.25a4.48,4.48,0,0,1-3.41-5.33l5.2-24.48v-8.42a4.49,4.49,0,0,1,4.48-4.48h7.17C265.41,345.78,264.25,339.5,262.86,332.67Zm24.24,58.4,2.55-20.48-27.1-2.46L259,384.85Zm-96-23.52c6.6-9.08,16.23-16.36,28.69-21.68a68.11,68.11,0,0,0-.43-18l-.7,0-7.38,11.85a6.34,6.34,0,0,1-5.41,3,6.48,6.48,0,0,1-2.38-.45,6.34,6.34,0,0,1-4-7.2l.78-4c-9.53,13.56-12.61,25.53-9.39,36.33Zm99.05-5.92V358.9H272.45l-.55.09h-.39a4.44,4.44,0,0,1-.92-.1h-7.11v.31ZM181.77,342.82q.19,2.53.5,4.85a57.41,57.41,0,0,1,3.83-10.09Q183.85,340.14,181.77,342.82Zm46.31-17.42a69.17,69.17,0,0,1,1,8.7q4.33-6.36,8.27-13.16-2,.28-4,.41a34.81,34.81,0,0,1-2.79,2.37A25.7,25.7,0,0,1,228.08,325.39Zm-44.15-17.55c-.8,4.12-1.43,8.65-1.86,13.27a73.72,73.72,0,0,1,9.06-8.16c-.06-.23-.11-.46-.16-.7A54.87,54.87,0,0,1,183.93,307.84Zm58.56,2.72.63-.22.41-.81-.37.09Zm-3.88-12.81a5,5,0,0,1-.51.55,38.14,38.14,0,0,1-4.9,3.91,49.45,49.45,0,0,0,19.76-6q-.62-1.92-1.16-4.09A60.75,60.75,0,0,1,238.61,297.75Zm-52.23.5a37.33,37.33,0,0,0,4.45,3.49q.14-.8.32-1.61-2.21-1.34-4.42-2.84Q186.56,297.73,186.38,298.25Zm15.35-2.52q1.45.72,2.91,1.36a53.13,53.13,0,0,1-3.74-4.94,5.37,5.37,0,0,1-.31-.53c-5.42-2.06-14.34-6.25-14.87-15.51a29.6,29.6,0,0,1-3.65-2.83c.2,7.73,1.17,9.87,1.45,10.33a96,96,0,0,0,14.62,10.21l.82.27.29.34,1.42.75.53.09Zm7.07-10.25c5.54,4.5,10.81,6.77,15.72,6.77a16.93,16.93,0,0,0,7.33-1.72l.31-.34.8-.2.46-.23h.44a50.8,50.8,0,0,0,16.18-7q-.31-2.29-.56-4.77a17.62,17.62,0,0,1-5.17,1.6,11.47,11.47,0,0,1-1.56.1c-3.91,0-8.41-1.83-12.77-3.61-3.23-1.31-7.24-2.94-9.4-2.94l-.34,0c-1.44.19-4.46,2.23-6.88,3.87-3.65,2.47-7.41,5-11.2,5.61,1,.42,2.08.84,3.25,1.26l1.11.41a5.22,5.22,0,0,1,.7.24h0a5.28,5.28,0,0,1,.51.26l.77.38Zm52,.34q.44,2.34,1,4.39,1.18-1,2.24-2.11a4.38,4.38,0,0,1,.68-.72,31.68,31.68,0,0,0,2.19-2.64,4.46,4.46,0,0,1,.54-.76,23.17,23.17,0,0,0,2.51-4.58,21.54,21.54,0,0,0,1.23-4.89A65.41,65.41,0,0,1,260.78,285.82ZM259.09,271q.11,1.93.27,3.78a64.2,64.2,0,0,0,7.87-10.54l-.22.15a60.79,60.79,0,0,0-6.58,5.41Zm-65.77-.74c2.31,1.27,4.87,2.45,7.19,3.51,1.65,0,5.36-2.54,7.82-4.2a54.76,54.76,0,0,1,6.42-3.94c-4.7-1.3-9-4.59-12.32-9.4a49.49,49.49,0,0,0-8.76,3.36,12.42,12.42,0,0,0-.28,1.42A38.9,38.9,0,0,0,193.33,270.24Zm32.3-5.33a72.73,72.73,0,0,1,7.73,2.82c3.4,1.38,7.25,2.95,9.39,2.95l.34,0a13.74,13.74,0,0,0,5.71-2.77c-.19-4.61-.23-9.53-.13-14.69l-.73-.21a27.93,27.93,0,0,0-6.86-.62c-1.82,0-3.58.08-5,.17C233.93,258.6,230.27,262.88,225.63,264.91Zm33.12-5.56,1-.83q-.45-.33-1-.7Q258.74,258.59,258.75,259.35Zm.21-11.63c10.2,4.94,10.84,8.84,11.06,10.19a6.39,6.39,0,0,1,.08,1.13c.3-.58.59-1.16.87-1.76-.54-5.41-1.37-11.08-2.18-16.58-1.52-10.42-3-20.25-2.39-27.48a8.73,8.73,0,0,1,.2-1.24c-12.57-12.31-24.24-22.39-27.22-23.51h-.31c-4,0-14.52,2.52-23.84,6.48a5.4,5.4,0,0,1,.37,1.49,4.92,4.92,0,0,1-3.31,5.18,19.8,19.8,0,0,0-8,5.06,13.41,13.41,0,0,1,2.45.48A17.27,17.27,0,0,1,218.32,217a20.27,20.27,0,0,1,17.21-10.8,16.36,16.36,0,0,1,4.77.71c4.42,1.35,10.11,5.12,13.53,15.25H254a7.45,7.45,0,0,1,3.33.75,7.59,7.59,0,0,1,4.06,6.23,7.25,7.25,0,0,1-1.71,6.09C259.5,237.6,259.18,242.07,259,247.72Zm-74.24-13.88c-.6,5.13-1.17,10.53-1.63,15.86-.19,2.17-.35,4.2-.48,6.11a35.15,35.15,0,0,1,3-2c-.63-4.06-1.19-10.56.45-16A19.32,19.32,0,0,1,184.72,233.84Zm26.38,10.75c4.39,5.16,7,5.63,7.78,5.63l.29,0c.75-.09,3.19-.88,6.2-7a27,27,0,0,1-6.94-10.07A26.54,26.54,0,0,1,211.11,244.58ZM194,246.26c0,1.09.07,2.2.17,3.3,1.3-.52,2.63-1,3.9-1.41a12.33,12.33,0,0,1-1.71-.64A25.7,25.7,0,0,1,194,246.26ZM249,244v-.21l-.22.17Zm-46-28.42c-3.24,0-7.15,3.67-8.91,8.35-1.21,3.23-3.06,11.19,6,15.41a3,3,0,0,0,1.3.3,3.07,3.07,0,0,0,.53,0,4.35,4.35,0,0,1,1.8-.72,8.79,8.79,0,0,0,.87-.6c4.19-3.27,7-10.67,6-15.84-.65-3.42-2.74-5.6-6.39-6.68A4.41,4.41,0,0,0,203,215.61Zm32.53-.42a10.57,10.57,0,0,0-7.25,3.27c-2.39,2.37-3.46,5.46-2.75,7.87,2.39,8.07,6.63,12.51,11.93,12.51a9.33,9.33,0,0,0,2.24-.28c4.47-1.11,7.64-5.06,6.93-8.63-1.61-8-4.79-13.16-8.94-14.43A7.4,7.4,0,0,0,235.53,215.19Zm-47.23-7.88c-.38,2.5-1,6.44-1.63,11.25.29-.58.6-1.15.93-1.72v-.13a33.3,33.3,0,0,1,1.54-7.45,14.13,14.13,0,0,1-.82-2.17C188.32,207.16,188.31,207.24,188.3,207.31ZM223.05,174a39.55,39.55,0,0,0-7.81.84c-8.82,1.79-18,6.22-24,11.57-4,3.55-6.11,6.88-6.48,10,5.45-5.53,19.88-17.8,44-21.83A24.24,24.24,0,0,0,223.05,174Zm31.72,7.5a89.57,89.57,0,0,1,15.74,14.67,14.36,14.36,0,0,0-1.86-5.39C266.21,186.66,261.4,183.5,254.77,181.5Z"/><path class="cls-1" d="M271.28,286.74a27.77,27.77,0,0,0,3.08-5.57c2.64-6.6,2.3-16.41,1.09-27,5.53-15.9,6.68-24.22,3.74-27-1.47-1.38-3.9-1.35-7.4.06a74.88,74.88,0,0,1-.61-13.56c5.07-9.73,5.62-18.48,1.58-25.31-5.11-8.65-17.45-13.64-34.75-14-10-10.24-36.18-3.78-49.91,8.54-8.87,8-10.51,16.64-4.53,23.85-.65,4.23-1.84,12.39-3,22-3.06-1-5.33-.65-6.77,1-3.14,3.53-1.63,12.68,4.14,25.11-1.12,15.49-.79,25.59,1,30.14-.64.21-1.26.46-1.9.69a.26.26,0,0,0-.21.08q-1.34.51-2.66,1.08a.26.26,0,0,0-.13.06c-17.37,7.59-32.13,23.83-42.9,47.4C120,358.38,113.43,389.35,112,423.75a.29.29,0,0,0,.29.3h0l58.87-.13a.29.29,0,0,0,.24.13.28.28,0,0,0,.14,0s.05-.06.08-.1l46-.1a.28.28,0,0,0,.22.23h0a.29.29,0,0,0,.28-.24l8.42,0a.28.28,0,0,0,.25.26h0a.29.29,0,0,0,.28-.26l108.73-.24a.29.29,0,0,0,.29-.3C331.89,333.54,314.31,296.47,271.28,286.74Zm-12.06,76.87,35.13,3.2-3.65,29.35L254,388Zm35.16,2.61L259.28,363v-8.33h12a.28.28,0,0,0,.2.1h0l.55-.09h22.27Zm-22.32-12.11h-.32c-.43-2.55-3.3-19.25-6.79-34.46l.41-.77c3.58,15.49,6.55,32.76,7,35.19Zm-7.32-35.33c-.58-2.51-1.18-5-1.79-7.32l.41-.71c.61,2.32,1.21,4.76,1.79,7.26ZM171.49,423.34c-17.18-31.34-21.77-62.42,2.89-136.08.75-.33,1.5-.64,2.26-.93-.51,5.82,1,10.32,4.37,13.33-2.39,8.51-4.26,21.57-4.3,34.33a.26.26,0,0,0,0,.16c0,2.45.06,4.89.2,7.28a.24.24,0,0,0,0,.08,75.72,75.72,0,0,0,2.37,15.55c2.69,9.67,7.28,15.08,13.64,16.07h0a9.43,9.43,0,0,0,1.41.1c14.34,0,48.05-28.15,61.77-65.28a38.88,38.88,0,0,0,4-4.28c.73,2.31,1.47,4.92,2.2,7.72-20.06,34.95-39.05,71.31-44.72,111.84ZM196,298.13a26.28,26.28,0,0,0-1.37,10.66,45.22,45.22,0,0,1-13.06-9.35c1.19-4.12,2.49-7.08,3.76-8.28A95.13,95.13,0,0,0,196,298.13Zm2.95,1.56a29.51,29.51,0,0,0,.9,11.47c-1.63-.68-3.15-1.37-4.6-2.07a25.43,25.43,0,0,1,1.27-10.67C197.39,298.87,198.19,299.28,199,299.69Zm8.53,3.69a15,15,0,0,0,1.41,7.24,59.83,59.83,0,0,0-8.4.72,29.5,29.5,0,0,1-1-11.35A74.7,74.7,0,0,0,207.53,303.38Zm21.09,3.8a56.84,56.84,0,0,0,11.22-1.12,88.43,88.43,0,0,1-8.43,10.52,40.52,40.52,0,0,0-21.81-6,14.15,14.15,0,0,1-1.49-7A62.13,62.13,0,0,0,228.62,307.18Zm6.25-12.64a.18.18,0,0,1,0,.26c-5.28,4.92-10.15,7-14.87,6.51-5.2-.59-10.15-4.47-15.12-11.83a.39.39,0,0,1,.06-.53.44.44,0,0,1,.26-.11l.34.13c10.15,8.37,19.92,10.23,29.06,5.53l.15,0A.21.21,0,0,1,234.87,294.55Zm-.23-.67-.14,0-.09,0h0l-.06,0c-8.93,4.61-18.52,2.78-28.49-5.47l-.07,0h0a1,1,0,0,0-.43-.16l-1.34-.49c-4.93-1.77-14.11-5.08-13.5-13.4a.27.27,0,0,0,0-.07,1.29,1.29,0,0,0-.07-.23c2.61,1.48,5.46,2.8,8.18,4a4.55,4.55,0,0,0,1.92.4c3.07,0,6.84-2.55,10.5-5,3.21-2.17,6.25-4.22,8.67-4.55,3-.4,7.51,1.43,11.86,3.2s9,3.67,12.18,3.23,6.39-2.4,9.38-4.82a137.48,137.48,0,0,0,1.44,14.09A55.06,55.06,0,0,1,234.64,293.88ZM203,211.41a8.55,8.55,0,0,1,2.43.35c6.51,1.92,8.67,6.45,9.33,9.92,1.28,6.74-2.1,15.68-7.55,19.93a12,12,0,0,1-2.52,1.53.28.28,0,0,0-.37,0,.27.27,0,0,0-.11.24,7.32,7.32,0,0,1-5.84-.16c-10-4.65-10.83-13.74-8.21-20.69C192.37,216.61,197.53,211.41,203,211.41Zm17.54,13a7.38,7.38,0,0,0-4.95-.4c0-.44-.05-.88-.1-1.32a6.64,6.64,0,0,1,5.19.27A11.44,11.44,0,0,0,220.55,224.44Zm-4.93.21a6.82,6.82,0,0,1,5,.43,10.23,10.23,0,0,0,.39,2.62c2.22,7.47,5.76,11.86,9.62,14.08-3.19,7.88-6.86,12.11-10.92,12.59-4.23.5-9.16-3.13-14.62-10.75a12.29,12.29,0,0,0,2.52-1.53C212.46,238.25,215.66,231.07,215.61,224.65Zm39.46,8.68c-.13,1.44-.71,8.07-1,16.8l-.56-.23c.26-8.65.81-15.15.95-16.61h0ZM254.66,251c5,2.17,10.26,5.35,10.65,7.71a1.66,1.66,0,0,1-.93,1.7,64.11,64.11,0,0,0-7.14,5.85c-.82.74-1.64,1.48-2.48,2.2C254.49,262.34,254.51,256.29,254.66,251Zm-.45,17.94-.53.45q-.26-5.24-.26-11.1c0-2.72,0-5.32.11-7.77l.56.23C253.93,256.24,253.91,262.55,254.21,268.91ZM205.1,251.44a33.09,33.09,0,0,1-2.85-7l0,0a8.9,8.9,0,0,0,2.27-.55c5.33,7.48,10,11.14,14.35,11.14a7.75,7.75,0,0,0,.88-.05c4.33-.51,8-4.73,11.37-12.89a13.87,13.87,0,0,0,2.5,1,.27.27,0,0,0-.26.24c-1.09,10.57-6.12,17.51-13.14,18.12-5,.45-11-2.59-15.09-10Zm28.81-8.08a.27.27,0,0,0-.11-.24,13.62,13.62,0,0,0,3.64.5,14.2,14.2,0,0,0,3.41-.42c5.51-1.37,9.58-5.62,10.46-10.34a10,10,0,0,0,2.58.44c-.15,1.64-.69,8-1,16.36a36.65,36.65,0,0,0-3.78-1.29c-5.18-1.37-14.11-.58-16-.38A34.77,34.77,0,0,0,233.91,243.36Zm20.65-10.66-.31,0a.25.25,0,0,0-.19.05,9.57,9.57,0,0,1-2.64-.44,10.05,10.05,0,0,0-.1-3.28c-.08-.42-.18-.8-.27-1.2.6-.31,2.72-1.31,4.18-.59a3,3,0,0,1,1.44,2.55,2.53,2.53,0,0,1-.66,2.42A2.69,2.69,0,0,1,254.56,232.7Zm-3.82-3.58c1.16,5.8-3.34,11.86-10,13.52s-15.15-1.46-19.2-15.11c-1.17-3.93.29-8.55,3.81-12a14.7,14.7,0,0,1,10.2-4.49,11.58,11.58,0,0,1,3.38.5C242.95,212.72,248.28,216.78,250.75,229.11ZM198.13,243.7a7.78,7.78,0,0,0,3.29.73h.29a.28.28,0,0,0,0,.16,34.22,34.22,0,0,0,2.59,6.58c-2.31-.12-8.21,1.83-13.44,4.51-.41-2-2.21-11.54.21-17.65A17.26,17.26,0,0,0,198.13,243.7Zm-9.22,28.81c-3.15-2-5.72-4.32-6.87-7.18-.49-1.23.14-2.71,1.89-4.39a27.84,27.84,0,0,1,5.6-3.93,11.83,11.83,0,0,0-.87,3.27A38.17,38.17,0,0,0,188.91,272.51Zm.33-12.13c.33-2.23.88-3.66,1.54-4l0,0c5.73-3,12.31-5,13.82-4.54,3.93,7.08,9.65,10.25,14.63,10.25.34,0,.67,0,1,0,7-.6,10.93-6.67,12.71-13.41,1.34-.14,10.83-1,16.05.34a36.76,36.76,0,0,1,3.92,1.33c-.17,5.9-.2,12.73.15,19.6-3,2.48-6.16,4.5-9.42,5-3,.42-7.52-1.42-11.89-3.2s-9-3.67-12.16-3.23c-2.56.35-5.65,2.43-8.92,4.64-4.34,2.93-8.83,6-11.85,4.58a92.46,92.46,0,0,1-9.18-4.63C188.93,271.32,188.57,264.84,189.24,260.37Zm64.47,9.72.53-.44a140.35,140.35,0,0,0,1.38,14.23l-.51.37A140.72,140.72,0,0,1,253.71,270.09Zm2,14.45a59,59,0,0,0,3.39,12.92l-.5.33a58.63,58.63,0,0,1-3.39-12.88Zm5,17.34-.42.56q-.66-2-1.31-3.59c.07-.25.14-.49.21-.74l.1-.07C259.81,299.16,260.29,300.45,260.77,301.88Zm-.93-4.17c1.14-.78,2.27-1.58,3.33-2.45s2.32-2,3.37-3a66.21,66.21,0,0,1-5.35,9.05C260.73,300,260.28,298.76,259.84,297.71Zm1.16,4.85c.72,2.2,1.44,4.71,2.16,7.4l-.41.71c-.72-2.74-1.45-5.29-2.18-7.55Zm-1.08.43a39.38,39.38,0,0,1-3.31,3.7q1.21-3.41,2.18-6.92C259.16,300.75,259.53,301.83,259.91,303Zm-1.56-4.29.07.18q-1.17,4.34-2.8,8.73a32.75,32.75,0,0,1-8.66,5.69q2.89-5.59,5.54-11.42A53.71,53.71,0,0,0,258.35,298.71Zm-70.94,71.41c-5.23-15.07.38-31.79,17.15-51.09q1.1.69,2.18,1.28l-3,15.61a2.17,2.17,0,0,0,1.36,2.49,2.34,2.34,0,0,0,.85.16,2.13,2.13,0,0,0,1.85-1.05l8.67-13.93a19,19,0,0,0,2,.1,18.44,18.44,0,0,0,4.34-.53,71.55,71.55,0,0,1,1,25.33l-.34.44c-13.88,5.55-24.17,13.49-30.6,23.59A12.07,12.07,0,0,1,187.41,370.11Zm8.4-58.14a20.55,20.55,0,0,1-.42-2.2c1.47.71,3,1.4,4.68,2.09q.63,2.37,1.56,5a121.29,121.29,0,0,0-24.2,23.8c-.11-2.14-.16-4.31-.16-6.5,6.16-8,11.36-13.35,16.87-17.48A4.48,4.48,0,0,0,195.81,312Zm13.4-.78c2.72,4.91,8.71,8,17.87,9.16a15.06,15.06,0,0,1-4.21,2.17c-6.32,1.62-12.89-.2-20.66-5.76q-.92-2.55-1.54-4.87A58.93,58.93,0,0,1,209.21,311.19Zm18.81,9.2h0a33.61,33.61,0,0,0,3.54-3.14,42.44,42.44,0,0,0,14.14-2.76,218.91,218.91,0,0,1-21.27,33.11A71.09,71.09,0,0,0,223.3,323,16.71,16.71,0,0,0,228,320.39Zm-.27-.53c-9.09-1.07-15-4-17.82-8.66A39.9,39.9,0,0,1,231,317,32.29,32.29,0,0,1,227.76,319.86Zm-11.95,3.62-8.54,13.72a1.64,1.64,0,0,1-3-1.18l3-15.44A26,26,0,0,0,215.81,323.48ZM202,317.31c.7.5,1.39,1,2.07,1.41-16.53,19.06-22.26,35.66-17.48,50.69-2.88-2.62-5.14-6.8-6.73-12.5a75.52,75.52,0,0,1-2.36-15.37A120.59,120.59,0,0,1,202,317.31Zm21.67,32.15c-.29,2.36-.63,4.65-1,6.87-11.39,10.58-22.65,16.9-29.2,16.25C199.85,362.7,210,354.92,223.65,349.46Zm.68-.76a219.32,219.32,0,0,0,22.21-34.55,33.12,33.12,0,0,0,8.65-5.34A130.68,130.68,0,0,1,227,352.09c-1.22,1.25-2.45,2.44-3.68,3.6C223.7,353.43,224,351.11,224.33,348.7Zm21.8-35a40.93,40.93,0,0,1-13.95,2.95,94.25,94.25,0,0,0,8.51-10.75c.59-.13,1.2-.25,1.76-.39a55.29,55.29,0,0,0,9.24-3.22Q249,308.09,246.13,313.67Zm-51.36-4.2a21.25,21.25,0,0,0,.48,2.64,3.9,3.9,0,0,1-1.47,4.09c-5.4,4.06-10.52,9.33-16.51,17,.09-12.36,1.88-24.88,4.17-33.13A46.28,46.28,0,0,0,194.77,309.48Zm67.77,2.72c.61,2.37,1.21,4.85,1.79,7.38-19.13,36-35.57,71.85-37.78,103.64l-8.35,0C223.84,383,242.63,346.92,262.54,312.2Zm1.24-2.15q3.62-6.3,7.26-12.54l5.16-8.89q2.17.63,4.24,1.37c-5,9-10,18.16-14.88,27.26C265,314.77,264.38,312.34,263.78,310Zm11.85-21.6-5.09,8.77q-3.48,6-7,12c-.71-2.65-1.43-5.11-2.14-7.26a70.26,70.26,0,0,0,6.43-11.08,38.74,38.74,0,0,0,3-3.66Q273.31,287.79,275.62,288.45Zm-1.81-7.5a28,28,0,0,1-3.18,5.73.28.28,0,0,0-.14.18h0a35.38,35.38,0,0,1-3,3.65.28.28,0,0,0-.15.13l0,.05a46.64,46.64,0,0,1-7.7,6.41,59.38,59.38,0,0,1-3.36-13c7.66-6,14-14.33,19.13-25C276.1,267.74,276,275.49,273.82,281Zm5-53.36c2.65,2.48,1.53,10.52-3.5,25.22-.51-4.21-1.13-8.52-1.76-12.8s-1.22-8.34-1.67-12.19C275.21,226.45,277.48,226.37,278.79,227.59ZM273,240.1c.88,6,1.77,12.16,2.31,17.94-5.1,10.87-11.44,19.29-19.13,25.42a142,142,0,0,1-1.34-14.28c1-.82,1.89-1.67,2.83-2.51a63.51,63.51,0,0,1,7.07-5.8,2.22,2.22,0,0,0,1.19-2.28c-.45-2.75-6.22-6.06-11.21-8.22.29-9.86,1-17.09,1-17.27,0,0,0,0,0-.07a2.62,2.62,0,0,0,.71-.39,3.05,3.05,0,0,0,.88-2.95,3.56,3.56,0,0,0-1.76-3c-1.62-.8-3.76.12-4.57.52-2.67-11.21-7.85-15.06-11.84-16.27-4.72-1.44-10.15.15-14.16,4.14a14.65,14.65,0,0,0-4.11,7.33,7.29,7.29,0,0,0-5.4-.28c0-.18,0-.37-.08-.55-.69-3.63-2.94-8.37-9.74-10.37-5-1.46-9.93,1.52-13.23,6a27.69,27.69,0,0,1,1.79-7.71,1.51,1.51,0,0,0,1.08.64h0c.89,0,1.69-1.05,2.89-2.63,2.12-2.78,5.67-7.43,12.76-9.85a.72.72,0,0,0,.49-.8,1.31,1.31,0,0,0-1-1.12,26.55,26.55,0,0,0-6.15.15c11.42-7.21,30.69-12.15,35.79-11.56s29.39,24.53,31.32,26.44l-.1.3a12,12,0,0,0-.66,2.48C270.06,220.32,271.47,229.93,273,240.1ZM208.3,196.22a16.11,16.11,0,0,1,2,.11.74.74,0,0,1,.54.6c0,.15-.05.17-.1.19-7.26,2.48-10.88,7.22-13,10-1,1.34-1.83,2.4-2.43,2.4h0c-.26,0-.54-.24-.85-.69.75-1.77,4.07-9.05,8.64-12.2A32.71,32.71,0,0,1,208.3,196.22ZM194,208.27c-1.59-2.69-1.81-5-.61-6.9,1.49-2.35,4.89-3.72,8.35-4.45C197.84,200.21,195,206.15,194,208.27Zm-5.56-25c6.48-5.82,16.42-10.63,25.93-12.56,10.31-2.09,18.78-.61,23.26,4.07a.29.29,0,0,0,.2.09c17.16.38,29.37,5.26,34.38,13.76,3.5,5.92,3.44,13.35-.12,21.63a5.61,5.61,0,0,0,.36-3.19c-3.73-10.62-26.21-29.28-35-29.28l-.46,0c-31.53,2.58-48,20-51,23.48a10.52,10.52,0,0,0-2.3,4.67C180.38,201.74,177.08,193.53,188.48,183.29ZM174.2,230c1.28-1.44,3.39-1.7,6.26-.76-.77,6.32-1.54,13.22-2.13,20-.13,1.46-.24,2.87-.34,4.24C172.78,242,171.35,233.24,174.2,230Zm4.71,19.3c1.52-17.48,4.17-35.66,5.24-42.66a10,10,0,0,1,2.3-5c3-3.44,19.29-20.72,50.59-23.28,8.12-.68,31.26,18.5,34.9,28.88a5.41,5.41,0,0,1-.39,2.88c-3.15-3.11-26.25-25.79-31.46-26.4-2.88-.34-9.4.88-16.6,3.11-8.17,2.53-15.69,5.89-20.64,9.23-4,.68-8.15,2.16-9.93,5-1.38,2.18-1.1,4.83.82,7.88a27.94,27.94,0,0,0-2,8.25c0,.37-.08.73-.13,1.07a21.2,21.2,0,0,0-2,4c-1.71,4.56-2,10.37,1.07,15.17,0,0-.06,0-.07.07-2.76,6.5-.68,16.76-.32,18.42a31,31,0,0,0-6.78,4.58c-1.94,1.86-2.62,3.55-2,5,1.28,3.18,4.21,5.7,7.73,7.85a1.32,1.32,0,0,0,.21.31,1.58,1.58,0,0,1,.47.69c-.62,8.73,8.82,12.12,13.88,13.95l.69.25a1,1,0,0,0-.11,1.23c5.07,7.52,10.15,11.47,15.53,12.09a12.76,12.76,0,0,0,1.45.08c4.41,0,9.08-2.26,13.89-6.75a.76.76,0,0,0,.14-.95,55.55,55.55,0,0,0,19.28-9,58.54,58.54,0,0,0,3.44,12.8,56.52,56.52,0,0,1-15.8,6.82A58.75,58.75,0,0,1,208,303a.29.29,0,0,0-.2-.1l0,0a74.52,74.52,0,0,1-8.36-3.59s0,0-.08,0h0q-1.39-.7-2.8-1.48s0,0-.05,0h0a99.39,99.39,0,0,1-15.8-11C178.54,284.92,176.52,277,178.91,249.34Zm1.38,37.81c1.55,1.31,3.08,2.51,4.61,3.66-1.25,1.26-2.53,4.18-3.71,8.21-3.17-2.95-4.5-7.28-4-12.91.62-.23,1.24-.47,1.86-.68A4.93,4.93,0,0,0,180.29,287.15Zm-6.63.43C149.2,360.85,153.74,392,170.83,423.34l-58.25.13C115.54,354.45,138.74,303.29,173.66,287.58Zm53.47,135.64c2.2-31.5,18.44-67,37.39-102.77,3.38,14.85,6.15,30.92,6.62,33.68H259a.29.29,0,0,0-.29.29v8.86l-5.3,24.93a.29.29,0,0,0,.22.34l37.26,8.25h.06a.29.29,0,0,0,.29-.25l3.73-30V354.42a.29.29,0,0,0-.29-.29H272.92c-.3-1.78-3.41-20-7.15-36,5-9.32,10.12-18.65,15.23-27.92C316.55,303.25,331.63,341,335.51,423Z"/><g id="_Group_" data-name="&lt;Group&gt;"><path class="cls-2" d="M335.81,423.26l-109,.24c2.13-31.75,18.19-67,37.83-103.87,3.62,15.83,6.6,33.35,6.85,34.79H259v8.89l-5.31,25,37.26,8.25,3.74-30V354.42H272.09l.57-.09c0-.29-3.27-19.46-7.19-36.25,5-9.32,10.14-18.74,15.39-28.23C318.24,303.5,332.09,344,335.81,423.26Z"/><path class="cls-3" d="M294.67,354.42v12.14L259,363.31v-8.89H271.5a.63.63,0,0,0,0,.09l.58-.09Z"/><polygon class="cls-4" points="294.67 366.56 290.94 396.52 253.68 388.27 258.99 363.31 294.67 366.56"/><path class="cls-5" d="M276.06,288.28c1.64.47,3.24,1,4.8,1.57-5.24,9.49-10.44,18.92-15.39,28.23-.65-2.8-1.33-5.52-2-8.08C267.64,302.76,271.87,295.52,276.06,288.28Z"/><path class="cls-6" d="M271.54,227.64c11.2-4.71,11.22,4.6,3.62,26.43h0C274.12,245.17,272.5,235.82,271.54,227.64Z"/><path class="cls-7" d="M275.56,258.15c.83,9,.8,17.23-1.48,22.92a27.22,27.22,0,0,1-3.3,5.86,37.59,37.59,0,0,1-3.19,3.87,47.19,47.19,0,0,1-8.11,6.84A58.21,58.21,0,0,1,255.93,284c7.61-6,14.22-14.38,19.6-25.85Z"/><path class="cls-8" d="M275.56,258.15h0c-5.38,11.46-12,19.88-19.6,25.85A141.64,141.64,0,0,1,254.51,269c3.35-2.89,6.65-6.18,10-8.41,3.95-2.61-3.66-7.3-10.13-10.08.27-10,1-17.31,1-17.49l-.77-.07c1.4-.15,2.64-.91,2.34-3.27-.68-5.32-6.23-2.08-6.23-2.08-6.1-26.47-27.51-16.89-29.72-4.9h-.19c-1.49-.75-4.05-1-5.49-.26l-.15,0c-.64-4.9-3.51-9.21-9.67-11-5.07-1.49-10.3,1.78-13.57,6.84a30.43,30.43,0,0,1,2.14-9.4c2.75,4.29,3.88-7.13,16.76-11.52.63-.22.16-1.27-.49-1.36a27.76,27.76,0,0,0-7.38.35c11.12-7.52,31.51-13,37.1-12.33,5.44.64,31.62,26.65,31.62,26.65a15.9,15.9,0,0,0-.8,2.89,76,76,0,0,0,.65,14c1,8.18,2.57,17.53,3.6,26.43C275.29,255.44,275.44,256.81,275.56,258.15Zm-26.47-49.66c12.33-10.75-14.72-19-19.79-10-.35.62-1,1.64-.26,1.51C246.44,196.72,245.51,211.61,249.09,208.48Z"/><path class="cls-4" d="M270.78,286.93c1.81.4,3.56.85,5.28,1.35-4.19,7.24-8.42,14.48-12.59,21.72-.79-3-1.58-5.71-2.39-8.08a69.28,69.28,0,0,0,6.51-11.12A37.59,37.59,0,0,0,270.78,286.93Z"/><path class="cls-9" d="M272.66,354.33l-.57.09h-.59c-.24-1.44-3.23-19-6.85-34.79.26-.51.54-1,.83-1.55C269.39,334.87,272.61,354,272.66,354.33Z"/><path class="cls-10" d="M271.69,210.71c.43-1.32.83-2.67.52-3.52-3.77-10.76-27-29.74-35.2-29.06-28.56,2.34-45.22,16.89-50.78,23.38a10.18,10.18,0,0,0-2.36,5.14c-18.25-21.7,38.27-48.48,54-32,32.61.71,44.42,17.17,33,39A15.9,15.9,0,0,1,271.69,210.71Z"/><path class="cls-7" d="M178.2,254.69c.62-8.54,1.6-17.6,2.59-25.66,1.22-10,2.47-18.41,3.09-22.39a10.18,10.18,0,0,1,2.36-5.14c5.57-6.49,22.22-21,50.78-23.38,8.22-.68,31.42,18.3,35.2,29.06.3.85-.09,2.2-.52,3.52,0,0-26.18-26-31.62-26.65-5.59-.65-26,4.81-37.1,12.33h0c-6.7,1.14-14,4.59-8.88,12.53a30.43,30.43,0,0,0-2.14,9.4h0c-3.61,5.56-4.83,13.28-.89,19.21l-.16.1c-2.95,6.93-.26,18.46-.26,18.46-5.43,2.82-10,6.42-8.86,9.33,1.25,3.13,4.13,5.6,7.68,7.76a1,1,0,0,0,.2.3,1.85,1.85,0,0,1,.56.87c-.7,9.38,10.44,12.45,15,14.19a.71.71,0,0,0-.64,1.09C213,302,222.65,306.58,235,295a.49.49,0,0,0-.33-.85,55.19,55.19,0,0,0,20.16-9.38,58.33,58.33,0,0,0,3.58,13.39l0,.09a51.68,51.68,0,0,1-6.21,3.41,54.43,54.43,0,0,1-11.78,3.95,59.58,59.58,0,0,1-32.68-2.49,73.94,73.94,0,0,1-8.5-3.63c-1-.48-1.95-1-2.91-1.53h0a94.73,94.73,0,0,1-11.08-7.19q-2.41-1.82-4.85-3.87a4.9,4.9,0,0,1-1.25-1.85C177.13,280.13,177.22,268,178.2,254.69Z"/><path d="M272.09,354.42l-.58.09a.63.63,0,0,1,0-.09Z"/><path class="cls-9" d="M265.47,318.08c-.29.51-.57,1-.83,1.55-.66-2.83-1.33-5.6-2-8.21l.83-1.42C264.15,312.56,264.82,315.29,265.47,318.08Z"/><path class="cls-10" d="M254.4,250.56c6.48,2.77,14.08,7.47,10.13,10.08-3.37,2.22-6.66,5.52-10,8.41C254.21,262.58,254.23,256.17,254.4,250.56Z"/><path class="cls-9" d="M263.47,310l-.83,1.42c-.8-3.06-1.61-5.91-2.41-8.37.29-.37.57-.75.85-1.13C261.89,304.29,262.68,307,263.47,310Z"/><path class="cls-5" d="M262.64,311.42c.68,2.61,1.34,5.38,2,8.21-19.64,36.91-35.7,72.12-37.83,103.87l-9,0C223.5,382.83,242.3,346.85,262.64,311.42Z"/><path class="cls-4" d="M267.59,290.79a69.28,69.28,0,0,1-6.51,11.12c-.52-1.58-1-3-1.56-4.19l0-.09A47.19,47.19,0,0,0,267.59,290.79Z"/><path class="cls-4" d="M222.95,356.49c12.71-11.81,25.71-29.07,33-48.76a39.12,39.12,0,0,0,4.31-4.68c.8,2.47,1.61,5.31,2.41,8.37-20.35,35.43-39.15,71.41-44.78,112.11l-46.54.1C153,390.31,150.3,358.2,174.16,287c.92-.42,1.86-.79,2.81-1.14-.65,6.2.9,10.66,4.32,13.64C178.85,308,177,321.19,177,334.06c0,2.48.06,5,.21,7.37.76,12.57,3.65,23.87,10,28.85a12.25,12.25,0,0,0,5.8,2.56C199.39,373.85,211,367.56,222.95,356.49Z"/><path class="cls-9" d="M261.08,301.92c-.28.38-.56.76-.85,1.13-.5-1.55-1-2.95-1.49-4.17L259,298c.16-.1.34-.21.5-.33l0,.09C260,298.92,260.56,300.33,261.08,301.92Z"/><path class="cls-9" d="M259.49,297.63c-.16.12-.34.22-.5.33s-.33.22-.5.33l0-.09a58.33,58.33,0,0,1-3.58-13.39c.36-.26.71-.52,1.06-.8A58.21,58.21,0,0,0,259.49,297.63Z"/><path class="cls-4" d="M258.74,298.88c.49,1.22,1,2.62,1.49,4.17a39.12,39.12,0,0,1-4.31,4.68Q257.53,303.38,258.74,298.88Z"/><path class="cls-9" d="M259,298l-.24.92-.26-.59C258.66,298.18,258.82,298.07,259,298Z"/><path class="cls-11" d="M258.49,298.28l.26.59q-1.21,4.51-2.82,8.85a32.93,32.93,0,0,1-9.57,6.17q3.13-6,5.93-12.21A51.68,51.68,0,0,0,258.49,298.28Z"/><path class="cls-12" d="M257,229.73c.3,2.36-.94,3.12-2.34,3.27l-.4,0v0a9.46,9.46,0,0,1-3-.49l-.12,0a10,10,0,0,0-.08-3.44c-.09-.49-.2-1-.3-1.42C250.73,227.64,256.28,224.4,257,229.73Z"/><path class="cls-11" d="M246.35,313.9a32.93,32.93,0,0,0,9.57-6.17c-7.27,19.68-20.27,36.95-33,48.76.4-2.61.78-5.22,1.08-7.86A217.32,217.32,0,0,0,246.35,313.9Z"/><path class="cls-9" d="M254.62,233l.77.07c0,.19-.72,7.51-1,17.49-.4-.17-.78-.34-1.16-.48.28-9.45.92-16.42,1-17.08A2.25,2.25,0,0,0,254.62,233Z"/><path class="cls-9" d="M255.93,284c-.35.28-.7.55-1.06.8A141.45,141.45,0,0,1,253.4,270l1.12-.93A141.64,141.64,0,0,0,255.93,284Z"/><path d="M254.22,233l.4,0a2.25,2.25,0,0,1-.4,0Z"/><path class="cls-9" d="M254.51,269l-1.12.93c-.35-7-.33-13.93-.16-19.89.38.14.77.3,1.16.48C254.23,256.17,254.21,262.58,254.51,269Z"/><path class="cls-8" d="M251.23,232.52a9.46,9.46,0,0,0,3,.49c-.07.65-.71,7.63-1,17.08a35.69,35.69,0,0,0-4.15-1.43c-5.72-1.51-16.32-.34-16.32-.34h0a35.44,35.44,0,0,0,.86-5l.15-.51c7.92,2.28,16.27-3.32,17.34-10.32Z"/><path class="cls-8" d="M253.4,270a141.45,141.45,0,0,0,1.48,14.82,55.19,55.19,0,0,1-20.16,9.38.46.46,0,0,0-.23.06c-9.33,4.82-18.94,2.66-28.82-5.51a.63.63,0,0,0-.4-.15,0,0,0,0,1,0,0c-4.61-1.74-15.75-4.81-15-14.19a1.85,1.85,0,0,0-.56-.87,1,1,0,0,1-.2-.3,91.86,91.86,0,0,0,9.27,4.67c5.45,2.5,15-8.39,20.93-9.19,6.17-.84,17.88,7.27,24.05,6.43C247.09,274.64,250.29,272.55,253.4,270Z"/><path class="cls-10" d="M253.23,250.09c-.16,6-.19,12.92.16,19.89-3.11,2.57-6.3,4.66-9.69,5.12-6.17.84-17.88-7.27-24.05-6.43-6,.8-15.48,11.69-20.93,9.19a91.86,91.86,0,0,1-9.27-4.67c-1.21-2.5-1.39-15.69,1.19-17.09,5.87-3.06,12.71-5.19,14.19-4.57,7.86,14.23,23.66,14,27.93-3.23h0s10.6-1.18,16.32.34A35.69,35.69,0,0,1,253.23,250.09Z"/><path class="cls-12" d="M251,229.06a10,10,0,0,1,.08,3.44c-1.07,7-9.42,12.6-17.34,10.32a13,13,0,0,1-2.82-1.16c-3.91-2.17-7.49-6.56-9.71-14a10.15,10.15,0,0,1-.42-2.75,11,11,0,0,1,.19-2.13c2.21-12,23.62-21.57,29.72,4.9C250.83,228.11,250.94,228.57,251,229.06Zm-27.72-1.53c6.72,22.62,27.85,12.42,25.61,1.23C243.42,201.31,219.78,215.62,223.31,227.54Z"/><path class="cls-10" d="M229.3,198.51c5.07-9,32.12-.78,19.79,10-3.58,3.13-2.64-11.76-20-8.46C228.34,200.15,228.95,199.13,229.3,198.51Z"/><path class="cls-13" d="M248.92,228.77c2.24,11.18-18.89,21.38-25.61-1.23C219.78,215.62,243.42,201.31,248.92,228.77Z"/><path class="cls-11" d="M252.28,301.7q-2.81,6.24-5.93,12.21A41.21,41.21,0,0,1,231.49,317a93.17,93.17,0,0,0,9-11.31A54.43,54.43,0,0,0,252.28,301.7Z"/><path class="cls-3" d="M246.35,313.9A217.32,217.32,0,0,1,224,348.62c.94-8,1.2-16.28-1.08-25.81a16.18,16.18,0,0,0,4.9-2.63,34.77,34.77,0,0,0,3.63-3.23A41.21,41.21,0,0,0,246.35,313.9Z"/><path class="cls-9" d="M234.71,294.17a.49.49,0,0,1,.33.85c-12.39,11.55-22.07,7-30.42-5.37a.71.71,0,0,1,.64-1.09,0,0,0,0,0,0,0l.4.15c9.88,8.16,19.49,10.33,28.82,5.51Z"/><path class="cls-9" d="M204.83,251.54a32.61,32.61,0,0,1-2.85-7l0-.37a8.28,8.28,0,0,0,2.66-.64c10.11,14.29,19.11,16.2,26.35-1.84a13,13,0,0,0,2.82,1.16l-.15.51a35.44,35.44,0,0,1-.86,5C228.48,265.53,212.69,265.78,204.83,251.54Z"/><path class="cls-14" d="M240.5,305.65a93.17,93.17,0,0,1-9,11.31h0a40.31,40.31,0,0,0-22.08-6.06,14.58,14.58,0,0,1-1.56-7.75A59.58,59.58,0,0,0,240.5,305.65Z"/><path class="cls-15" d="M231.46,317h0a34.77,34.77,0,0,1-3.63,3.23h0c-9.61-1.12-15.77-4.19-18.46-9.27A40.31,40.31,0,0,1,231.46,317Z"/><path class="cls-14" d="M216.29,323.28a25.76,25.76,0,0,1-9.22-3.11c-.86-.47-1.72-1-2.57-1.51s-1.68-1.11-2.52-1.7c-.65-1.79-1.21-3.56-1.65-5.29a60.49,60.49,0,0,1,9.06-.77c2.69,5.08,8.85,8.15,18.46,9.27h0a16.18,16.18,0,0,1-4.9,2.63A18.26,18.26,0,0,1,216.29,323.28Z"/><path class="cls-15" d="M222.95,322.81c2.28,9.53,2,17.83,1.08,25.81l-.43.55c-14.42,5.75-24.39,13.77-30.64,23.68a12.25,12.25,0,0,1-5.8-2.56c-5.71-16.35,1.69-33.68,17.33-51.63.85.55,1.71,1,2.57,1.51L204,336a1.93,1.93,0,0,0,3.53,1.39l8.78-14.08A18.26,18.26,0,0,0,222.95,322.81Z"/><path class="cls-14" d="M223.6,349.17l.43-.55c-.3,2.64-.69,5.25-1.08,7.86-11.9,11.08-23.56,17.37-30,16.36C199.21,362.94,209.18,354.93,223.6,349.17Z"/><path class="cls-6" d="M221.24,227.62c2.22,7.48,5.8,11.87,9.71,14-7.23,18-16.24,16.13-26.35,1.84,5.92-2.42,10.87-11.17,10.72-19h0c1.53-.77,3.9-.33,5.49.42A10.15,10.15,0,0,0,221.24,227.62Z"/><path class="cls-12" d="M220.82,222.74H221a11,11,0,0,0-.19,2.13c-1.58-.75-4-1.19-5.49-.42h0a13.54,13.54,0,0,0-.14-1.95l.15,0C216.76,221.7,219.33,222,220.82,222.74Z"/><path class="cls-14" d="M216.29,323.28l-8.78,14.08A1.93,1.93,0,0,1,204,336l3.09-15.81A25.76,25.76,0,0,0,216.29,323.28Z"/><path class="cls-12" d="M204.6,243.49a8.28,8.28,0,0,1-2.66.64,7.3,7.3,0,0,1-3.69-.69,17,17,0,0,1-7.2-5.91c-3.95-5.93-2.73-13.65.89-19.21h0c3.27-5.06,8.5-8.33,13.57-6.84,6.16,1.81,9,6.11,9.67,11a13.54,13.54,0,0,1,.14,1.95C215.47,232.32,210.52,241.07,204.6,243.49ZM198.81,241c10.73,5,23.06-22.13,6.16-27.1C194.09,210.74,182.35,233.42,198.81,241Z"/><path class="cls-10" d="M210.36,196c.65.09,1.12,1.14.49,1.36-12.88,4.39-14,15.81-16.76,11.52,1.36-3.25,4.68-9.69,8.88-12.53h0A27.76,27.76,0,0,1,210.36,196Z"/><path class="cls-14" d="M207.82,303.15a14.58,14.58,0,0,0,1.56,7.75,60.49,60.49,0,0,0-9.06.77,29.41,29.41,0,0,1-1-12.15A73.94,73.94,0,0,0,207.82,303.15Z"/><path class="cls-13" d="M205,213.94c16.9,5,4.57,32.07-6.16,27.1C182.35,233.42,194.09,210.74,205,213.94Z"/><path class="cls-8" d="M204.83,251.54c-1.48-.63-8.32,1.5-14.19,4.57,0,0-2.69-11.53.26-18.46l.16-.1a17,17,0,0,0,7.2,5.91,7.3,7.3,0,0,0,3.69.69l0,.37A32.61,32.61,0,0,0,204.83,251.54Z"/><path class="cls-14" d="M202,317c.84.59,1.68,1.16,2.52,1.7-15.64,17.95-23,35.28-17.33,51.63-6.34-5-9.22-16.28-10-28.85h0A120.23,120.23,0,0,1,202,317Z"/><path class="cls-11" d="M200.32,311.67c.44,1.72,1,3.49,1.65,5.29a120.23,120.23,0,0,0-24.79,24.48h0c-.15-2.42-.21-4.89-.21-7.37,5.17-6.7,10.66-12.87,17-17.62a4.19,4.19,0,0,0,1.58-4.39,22.37,22.37,0,0,1-.51-2.75Q197.6,310.56,200.32,311.67Z"/><path class="cls-11" d="M199.32,299.52a29.41,29.41,0,0,0,1,12.15q-2.71-1.1-5.3-2.36A25.61,25.61,0,0,1,196.4,298C197.37,298.53,198.35,299,199.32,299.52Z"/><path class="cls-16" d="M203,196.39c-4.19,2.84-7.51,9.28-8.88,12.53C189,201,196.26,197.53,203,196.39Z"/><path class="cls-11" d="M196.4,298h0A25.61,25.61,0,0,0,195,309.3a46.37,46.37,0,0,1-13.73-9.78c1.26-4.43,2.67-7.57,4-8.72A94.73,94.73,0,0,0,196.4,298Z"/><path class="cls-3" d="M195.53,312.05a4.19,4.19,0,0,1-1.58,4.39c-6.32,4.75-11.81,10.93-17,17.62,0-12.87,1.89-26.06,4.32-34.55A46.37,46.37,0,0,0,195,309.3,22.37,22.37,0,0,0,195.53,312.05Z"/><path class="cls-16" d="M189.45,273.2c-3.54-2.15-6.43-4.62-7.68-7.76-1.18-2.91,3.44-6.51,8.86-9.33C188.06,257.51,188.24,270.69,189.45,273.2Z"/><path class="cls-5" d="M180.48,286.93q2.43,2,4.85,3.87c-1.37,1.15-2.78,4.3-4,8.72-3.42-3-5-7.44-4.32-13.64.75-.29,1.5-.55,2.27-.8A4.9,4.9,0,0,0,180.48,286.93Z"/><path class="cls-6" d="M180.59,229l.2,0c-1,8.06-2,17.12-2.59,25.66C169.73,236.49,170.74,225.77,180.59,229Z"/><path class="cls-2" d="M171.32,423.63l-59,.14C115,359.42,136.12,303.5,174.16,287,150.3,358.2,153,390.31,171.32,423.63Z"/></g></svg>