<svg xmlns="http://www.w3.org/2000/svg" viewBox="0 0 689.93 262.06"><defs><style>.cls-1{fill:#e2d3aa;}.cls-2{fill:#e8dec4;}.cls-3{fill:#ad9f7f;}.cls-4{fill:#f7edd2;}.cls-5,.cls-6{font-size:63px;font-family:AlfaSlabOne-Regular, Alfa Slab One;}.cls-5{fill:#2a4277;}.cls-6{fill:#c53739;}</style></defs><title>title</title><g id="Layer_4" data-name="Layer 4"><path class="cls-1" d="M674.86,155.29l-45.6,23,6.82-40.42-1-3-9-27.45,11.13-7.08s.78,22.22,2.85,29.28C643.32,140.47,658.68,147.81,674.86,155.29Z"/><path class="cls-2" d="M635.11,134.89l1,3q-13.11,6.27-25.93,11.63c-89.53,37.45-168.45,41.75-235.8,9.81l0,0h0c16-7.8,31.22-23.62,46.16-43.09l-1.71-17.67h0C494.13,109,551.7,95.63,616.13,59.46l10,48Z"/><path class="cls-3" d="M636.08,137.88l-6.82,40.42-19.11-28.79Q623,144.16,636.08,137.88Z"/><path class="cls-4" d="M418.84,98.52l1.71,17.67q-20.36-1.48-41.06-1.26c-52.57.56-106.41,9.3-159,25.3-2.5.76-8.92-2.28-8.92-2.28s-5.31,6.79-8.67,7.92a643.28,643.28,0,0,0-92.35,39.38Q98,191.76,85.81,198.81a.34.34,0,0,1-.17.05.34.34,0,0,1-.32-.23L72.25,158.1h0l-13.52-41.9C162.14,56.78,276.64,20.88,412.18,29.48Z"/><path class="cls-3" d="M420.55,116.19c-14.94,19.47-30.2,35.29-46.16,43.09h0l0,0,5.13-44.34Q400.18,114.71,420.55,116.19Z"/><path class="cls-3" d="M110.5,185.25l10.64,23c-8.38-8.54-19.83-12.22-35.48-9.24l0-.12a.34.34,0,0,0,.17-.05Q98,191.76,110.5,185.25Z"/><path class="cls-1" d="M85.66,199c15.65-3,27.1.7,35.48,9.24l-76,37.31,27-33.16s-3.66-1.36-13.36,1.38c-8.51,2.41-42.15-18-42.15-18C38.46,179,61.9,178.51,72.25,158.1l13.07,40.53a.34.34,0,0,0,.32.23Z"/><text class="cls-5" transform="matrix(0.88, -0.47, 0.47, 0.88, 98.04, 168.25)">A</text><text class="cls-5" transform="translate(141.57 144.44) rotate(-21.81)">m</text><text class="cls-5" transform="translate(201.8 121.02) rotate(-16.41)">e</text><text class="cls-5" transform="matrix(0.97, -0.22, 0.22, 0.97, 237.06, 110.69)">r</text><text class="cls-5" transform="translate(268.95 103.51) rotate(-10.3)">i</text><text class="cls-5" transform="translate(289.87 99.55) rotate(-7.72)">c</text><text class="cls-5" transform="translate(324.36 94.83) rotate(-4.59)">a</text><text class="cls-5" transform="translate(362.37 91.7) rotate(-1.4)">n</text><text class="cls-6" transform="translate(425.11 161.34) rotate(-0.63)">S</text><text class="cls-6" transform="translate(468.9 160.75) rotate(-3.3)">t</text><text class="cls-6" transform="matrix(0.99, -0.14, 0.14, 0.99, 499.54, 159.21)">a</text><text class="cls-6" transform="translate(541.74 153.14) rotate(-15.59)">r</text><text class="cls-6" transform="translate(578.25 142.59) rotate(-25.08)">s</text></g></svg>