<svg id="Layer_1" data-name="Layer 1" xmlns="http://www.w3.org/2000/svg" viewBox="0 0 470.16 619.23"><defs><style>.cls-1{fill:#fff;}.cls-2{fill:#e29074;}.cls-3{fill:#442318;}.cls-4{fill:#2a4277;}.cls-5{fill:#cc8f7a;}.cls-6{fill:#aa593d;}.cls-7{fill:#10213a;}.cls-8{fill:#301710;}.cls-9{fill:#aa6d5c;}.cls-10{fill:#f2b78b;}.cls-11{fill:#cebf97;}.cls-12{fill:#663a28;}.cls-13{fill:#f4e8c3;}.cls-14{fill:#d88361;}</style></defs><title>abe</title><path class="cls-1" d="M76.29,610.89l-.43-9.55c-.14-3.11-3.38-76.39.08-101.75,6.62-48.33,38.8-90.18,98.37-127.92l.81-.51c-.07-1.2-.09-2.58-.08-3.94-6.7-5.54-19.16-17.34-24.73-32.39-7.44-20.11-7-40.11,1.08-52.2a21.25,21.25,0,0,1,17.26-9.46,44,44,0,0,1-.39-8.56c-10.86.66-26.39,1.52-33.77,1.52h-.12c-8.31,0-15.11-7.25-16.52-17.63-.69-4.89.19-9.15,2.56-12.26a11.5,11.5,0,0,1,7.71-4.49c9.06-1.2,33.84-3,47.63-3.94L172.39,35.92c-.14-7.77,5.4-12,8.06-14.06l.72-.55c3.32-2.61,8-4.67,14.46-6.31,10.75-2.78,24.43-3.86,34-4.28,4.3-.19,8.71-.28,13.13-.28,7.88,0,34.67.39,48.6,5.47L298,18.3v1.07l.09.07c4.72,3.62,6.77,7.88,6.08,12.67L291.44,229l56.85,6.74A14.32,14.32,0,0,1,360.92,250v2.82a14.34,14.34,0,0,1-14.32,14.32c-.33,0-.66,0-1,0L294,263.46c6.46,4.71,10,12.58,8.76,20.2a15.22,15.22,0,0,1-11.73,12.81,73.17,73.17,0,0,1-5.1,17.36c7.85,14.15,10.56,32,8,53.28a17,17,0,0,1-7.3,12c.69.86,1.77,2.14,2.9,3.44,22.63,12.32,25.34,16.7,26.37,18.37,4.89,7.87.87,20.4-2.56,28.25,28.95,33.38,44.07,65.32,47.45,100.08.41,4.25.66,10.35.76,18.66.27,22.36-.71,53-.72,53.28l-.31,9.68Z"/><path class="cls-2" d="M226.68,360.24c-1-4.45.57-9.2,6.86-10.48,5-1,8.42,1.16,10,4.38l.19,0-.06.24-1,4.8C238.19,363.1,232.9,363.65,226.68,360.24Z"/><path class="cls-3" d="M211.39,289.37c.52-3,1.19-6.41,1.89-9.75,7.61-5.21,17.79-7.67,31-6.87h0a26,26,0,0,1,2.52,1.72,1.32,1.32,0,0,1-.52,2.36c-4.31.87-10.52,2.09-16.23,3.55C223.53,282,217.23,289.89,211.39,289.37Z"/><path class="cls-4" d="M213.54,462.44a10.54,10.54,0,0,1,2.25-5.88c4.12-4.71,19.38,1.62,28.21,5.87a36.77,36.77,0,0,1,4.72,7.83l-4.25.33a1.29,1.29,0,0,0-.47-.36C235.38,465.63,215.34,462.7,213.54,462.44Z"/><path class="cls-5" d="M202.06,259.93c.74-3.69,1.39-6.38,1.69-7.6q38.33-1.05,77.11-.53c.94,2.25,1.12,5.94,1,9.29h-.31c-17.63-2-39.25-2.38-63.52-1.72Q210.22,259.59,202.06,259.93Z"/><path class="cls-6" d="M242.65,359.22c15.29,4.91,29.52,7.74,41.42,6a7.08,7.08,0,0,1-6.73,6.17c-1.26.06-2.52.09-3.78.07a91,91,0,0,1-26.49-4.58,6.42,6.42,0,0,1-3.72-3.06A6.63,6.63,0,0,1,242.65,359.22Z"/><path class="cls-6" d="M242.65,359.22a6.63,6.63,0,0,0,.7,4.61,9.32,9.32,0,0,1-5.25,4.49,10,10,0,0,1-2.16.52c-4.24.57-8.22-3.84-9.26-8.6C232.9,363.65,238.19,363.1,242.65,359.22Z"/><path class="cls-7" d="M216.62,477.69s18.35-.37,27.38,4.44c5.12,2.72-17.59,15.12-17.59,15.12a60.1,60.1,0,0,1-10.52-19.31Z"/><path d="M270.61,303.34c-6.56,0-8.67-14.21,0-14.21C277.42,289.13,277.42,303.34,270.61,303.34Z"/><path class="cls-4" d="M137,458.38c-6.21-16.2,16.29-46.18,49.08-51.84,6.56,26.35,13.87,51.76,22,74.29,19.25,53.23,43.08,90.38,72.46,85.87,9.93-1.53,17.25-7.49,20.53-18.79,5.18-17.88.23-49.15-20.53-97.43a40.52,40.52,0,0,0,8.59-5.05c4.84-3.81,9.09-9.42,12.32-15.29,24.61,27.18,45.52,59.33,49.43,99.42.42,4.27.63,10.62.72,17.81h-.76s-19.35,35.34-47.49,43.56c-31.58,9.22-86.46,1.92-117.47-27.54S158.67,514.74,137,458.38Z"/><path class="cls-4" d="M230.08,20c22.54-1,47.22.72,57.87,4.59h0L275.72,236.83l0,.49c-15.69-.94-30.85-1.59-45.26-1.8v-.1Z"/><path class="cls-4" d="M198.11,24V235.8c-4.17.16-8.23.36-12.21.63L182.39,35c-.06-3.08,2.55-4.68,5-6.58C189.62,26.68,193.36,25.2,198.11,24Z"/><path class="cls-8" d="M203.75,252.33c-.3,1.22-.94,3.91-1.69,7.6q-11.1.47-22.74,1.16l-.87,0c.31-4.27.87-7.9.87-7.9Q191.51,252.66,203.75,252.33Z"/><path class="cls-4" d="M127.76,246.43c-.4-2.83.1-5.28,1.65-5.48,12.41-1.65,56.51-4.52,56.51-4.52,4-.27,8-.47,12.21-.63,10.25-.39,21.06-.47,32.31-.29,14.41.21,29.57.86,45.26,1.8q7,.43,14.21.92L347.11,245a4.32,4.32,0,0,1,3.81,4.29v2.33h0c-69.28-11.91-144.38-11.85-222.65-5.28Z"/><path class="cls-9" d="M165.17,296.23c-4.29,12.44,6.23,44.26,22.07,55.74-.57,3.41-1.26,6.67-2,9.75,0,0-18.85-13.11-25.49-31.08-6.57-17.75-6-34.2,0-43.16,8.23-12.27,28.77,1.65,28.77,1.65q.37,4.85.62,9.55S168.68,286.11,165.17,296.23Z"/><path class="cls-5" d="M195.67,371.48c-1.22-16.26,7.06-49.11,4.05-65.14-1.66-8.86-1.39-19.08-.44-28.28l3.71.17a7.9,7.9,0,0,0,.94,4.37,20.63,20.63,0,0,0,2.2,3.52c1.7,2.16,3.45,3.11,5.25,3.26a68.8,68.8,0,0,0-1.12,8.76c-.23,6.3,3.32,18.71,3.13,25-.31,10.53-9,33-7.39,43.4.09.5.17,1,.29,1.55a21.36,21.36,0,0,0-3.52,3.65l2.28,1.73a18.44,18.44,0,0,1,2-2.2C210.43,384,220,402,235,410.52a59.15,59.15,0,0,0,10.85,4.82,44.82,44.82,0,0,0-3.31,6.05C239.25,428.56,198.41,408,195.67,371.48Z"/><path class="cls-4" d="M282.72,463.93a31.69,31.69,0,0,1,2.59,10.26l-.36,0a77,77,0,0,1-7.93.7c-3.22.07-6.05-.24-5.48-1.69,2.12-5.41,11.16-9.3,11.16-9.3Z"/><path class="cls-6" d="M202.79,371.73a21.36,21.36,0,0,1,3.52-3.65c.19,1,.44,2.08.74,3.18a18.44,18.44,0,0,0-2,2.2Z"/><path class="cls-10" d="M270.61,289.13c-8.67,0-6.56,14.21,0,14.21C277.42,303.34,277.42,289.13,270.61,289.13Zm-38.19.72c-9.06,0-9.36,16.49.74,16.49C240.16,306.33,242.37,289.84,232.42,289.84Zm-19,33.29c.19-6.3-3.36-18.71-3.13-25a68.8,68.8,0,0,1,1.12-8.76c5.84.52,12.14-7.33,18.69-9,5.71-1.46,11.92-2.68,16.23-3.55a1.32,1.32,0,0,0,.52-2.36,26,26,0,0,0-2.52-1.72c-8.29-5-19.81-5.93-28.58-4,1.29-5.44,2.29-9.36,2.29-9.36,24.28-.66,45.89-.26,63.52,1.72h.31a73.91,73.91,0,0,1-.59,7.44v0c-7-.37-15.46,3.39-16.29,7.41a3.07,3.07,0,0,0,.24,2c1.86,3.86,8.16,1.6,15.77,5.47h0c1.93,9.65-1.49,20-6.28,30.45h0a54.2,54.2,0,0,0-16.39-15.47,2,2,0,0,0-3.06,1.29l-11.52,54.46-.19,0c-1.59-3.22-5-5.41-10-4.38-6.28,1.27-7.84,6-6.86,10.48,1,4.77,5,9.18,9.26,8.6a10,10,0,0,0,2.16-.52l.09.27c12,9.26,24.79,13.78,36.53,9.35h.47a26,26,0,0,0,2.4,5,66.62,66.62,0,0,1-1.88,14.64,37.38,37.38,0,0,1-2.46,6.93c-9.12-4.94-19.94-.73-27.44,10.86A59.15,59.15,0,0,1,235,410.52C220,402,210.43,384,207.05,371.26a14.65,14.65,0,0,1,1.88-1.56c12.1,14.64,24.79,21.94,38.39,21.94a47.09,47.09,0,0,0,20.53-5.14l-1.25-2.58c-20.18,9.75-38.25,4.61-55.18-15.7a19.67,19.67,0,0,1,5.44-1.72l-.47-2.82a21.31,21.31,0,0,0-10.08,4.39c-.11-.53-.2-1-.29-1.55C204.38,356.13,213.09,333.67,213.41,323.14Z"/><path class="cls-11" d="M213.54,462.44a24.52,24.52,0,0,0,0,5.41,48.47,48.47,0,0,0,2.3,10.08,60.1,60.1,0,0,0,10.52,19.31c2.85,3.32,5.88,5.6,8.76,6.14,3.49.66,8.56-5.2,12.32-10.45,1.53-2.13,2.85-4.17,3.76-5.63a2.41,2.41,0,0,1,3.45-.7c5.25,3.65,18.51,11.94,23.59,9.59a8.43,8.43,0,0,0,2.95-2.38c-.42.7-3.84,6.34-6,7.07-4.74,1.56-15.63-8-20.51-6.93-7.5,1.56-12.27,17.55-19.74,15.85-10.25-2.33-20.71-18.71-24.58-29.82a32.37,32.37,0,0,1-1.23-4.42c-3.35-17.13,6.63-19,6.63-19A10.54,10.54,0,0,0,213.54,462.44Z"/><path d="M232.42,289.84c9.95,0,7.74,16.49.74,16.49C223.06,306.33,223.36,289.84,232.42,289.84Z"/><path class="cls-5" d="M277.59,382.91c1.2,1.89,5.7,6.91,5.7,6.91-.24,9.18-2.89,20.3-6.37,17.23a20.3,20.3,0,0,0-3.66-2.58,37.38,37.38,0,0,0,2.46-6.93A66.62,66.62,0,0,0,277.59,382.91Z"/><path class="cls-4" d="M275,540.67c-7.14,2-11.34-9.2-4.14-11.26C279.07,527,280.76,539.09,275,540.67Z"/><path class="cls-5" d="M189.09,298.68c1.1,20.33.66,38.35-1.85,53.29-15.85-11.48-26.37-43.3-22.07-55.74C168.68,286.11,189.09,298.68,189.09,298.68Z"/><path class="cls-7" d="M244.47,470.59c1.1,1.77-28.4-2.39-30.89-2.73a24.52,24.52,0,0,1,0-5.41c1.8.26,21.84,3.19,30.46,7.79A1.29,1.29,0,0,1,244.47,470.59Z"/><path class="cls-11" d="M280.58,450.46c20.76,48.28,25.71,79.56,20.53,97.43A357.34,357.34,0,0,0,285.48,479a44.08,44.08,0,0,0-.17-4.77,31.69,31.69,0,0,0-2.59-10.26,12.93,12.93,0,0,0-4.51-5.54l-3.49-5.73A57.1,57.1,0,0,0,280.58,450.46Z"/><path class="cls-12" d="M213.28,279.62c.82-3.84,1.69-7.64,2.45-10.89,8.77-1.92,20.3-1,28.58,4h0C231.07,272,220.9,274.41,213.28,279.62Z"/><path class="cls-5" d="M238.1,368.33a9.32,9.32,0,0,0,5.25-4.49,6.42,6.42,0,0,0,3.72,3.06,91,91,0,0,0,26.49,4.58,31,31,0,0,0,1.62,6.46h-.47c-11.74,4.44-24.58-.09-36.53-9.35Z"/><path class="cls-7" d="M258.27,462.43s3.61,9.66,1.15,10.81l-7.64-8C253.26,464.65,255.58,463.59,258.27,462.43Z"/><path class="cls-3" d="M206.14,286.11a33.8,33.8,0,0,1,7.14-6.48c-.7,3.34-1.37,6.7-1.89,9.75C209.59,289.21,207.84,288.27,206.14,286.11Z"/><path class="cls-12" d="M245.82,415.35c7.5-11.59,18.32-15.8,27.44-10.86-2.36,5.24-6,10.86-9.53,12.11C258.91,418.27,252.33,417.48,245.82,415.35Z"/><path class="cls-7" d="M244,462.43c2.2,1.06,4,2,5.14,2.59,0,0,5.38,10.65,7.31,12.67,4.54,4.72,9.66-4.52,7.27-17.49h0c5.61-2.13,11.48-3.68,14.49-1.79a12.93,12.93,0,0,1,4.51,5.54h0s-9,3.89-11.16,9.3c-.57,1.45,2.26,1.76,5.48,1.69l.07,3.91c-.23,0-.44.06-.63.1-2.45.57,6.57,6,8.23,6.94a19.13,19.13,0,0,1-3.41,7.87l0,.07a8.43,8.43,0,0,1-2.95,2.38c-5.08,2.35-18.34-5.94-23.59-9.59a2.41,2.41,0,0,0-3.45.7c-.92,1.46-2.23,3.49-3.76,5.63q6.16-11.34,1.23-22.67A36.77,36.77,0,0,0,244,462.43Z"/><path class="cls-4" d="M244,482.12c-9-4.81-27.38-4.44-27.38-4.44l-.73.24a48.47,48.47,0,0,1-2.3-10.08c2.49.34,32,4.51,30.89,2.73l4.25-.33q4.94,11.34-1.23,22.67c-3.76,5.25-8.83,11.11-12.32,10.45-2.88-.54-5.91-2.82-8.76-6.14C226.41,497.24,249.12,484.84,244,482.12Z"/><path class="cls-3" d="M189.09,298.68q-.26-4.7-.62-9.55s-1.16-8.2-2.62-10.46c-1.13-1.77-5.54-3.41-6.54-5.24-1.27-2.32-1.22-7.72-.87-12.37l.87,0q11.64-.69,22.74-1.16c-1,4.75-2.06,11.14-2.78,18.12-.94,9.2-1.22,19.42.44,28.28,3,16-5.27,48.88-4.05,65.14,2.73,36.53,43.57,57.08,46.83,49.93a44.82,44.82,0,0,1,3.31-6.05c6.51,2.13,13.1,2.92,17.91,1.25,3.55-1.25,7.17-6.87,9.53-12.11a20.3,20.3,0,0,1,3.66,2.58c3.48,3.06,6.13-8.06,6.37-17.23,0,0,21.73,11.71,24.19,15.69,2.28,3.66-.39,14.5-6,24.61-3.23,5.87-7.49,11.48-12.32,15.29a40.52,40.52,0,0,1-8.59,5.05,57.1,57.1,0,0,1-5.87,2.2c-12.17,3.79-26.48,4-35.57-.06-11.37-5.12-44.06-26.81-53.19-77.12-.27-1.52-.53-3-.76-4.62a81.86,81.86,0,0,1,0-9.15c.79-3.08,1.47-6.34,2-9.75C189.75,337,190.19,319,189.09,298.68Z"/><path class="cls-4" d="M259.41,473.23c2.46-1.15-1.15-10.81-1.15-10.81,1.7-.74,3.56-1.53,5.45-2.23,2.39,13-2.73,22.22-7.27,17.49-1.93-2-7.31-12.67-7.31-12.67a3.25,3.25,0,0,0,2.63.17Z"/><path class="cls-4" d="M277.09,478.83c3-.29,8.33,1.49,8.33,1.49h0a36.08,36.08,0,0,1-.74,5.55c-1.66-1-10.68-6.37-8.23-6.94C276.65,478.89,276.86,478.86,277.09,478.83Z"/><path class="cls-4" d="M263.16,503.25c8.16-2.36,9.85,9.69,4.12,11.26C260.14,516.48,255.95,505.31,263.16,503.25Z"/><path class="cls-3" d="M203,278.22c.44-4.58,5.71-7.94,12.74-9.49-.76,3.25-1.63,7.06-2.45,10.89a33.8,33.8,0,0,0-7.14,6.48,20.63,20.63,0,0,1-2.2-3.52A7.9,7.9,0,0,1,203,278.22Z"/><path class="cls-12" d="M286.48,269.82a11.46,11.46,0,0,1,6.44,11.55h0c-7.76-6.41-17.43-7.13-27.93-5.4.83-4,9.25-7.79,16.29-7.41A13,13,0,0,1,286.48,269.82Z"/><path class="cls-13" d="M267.29,514.51c5.73-1.57,4-13.63-4.12-11.26C255.95,505.31,260.14,516.48,267.29,514.51Zm3.61,14.89c-7.2,2.06-3,13.23,4.14,11.26C280.76,539.09,279.07,527,270.89,529.4Zm-62.77-48.58,2.26-.83c3.86,11.11,14.33,27.48,24.58,29.82,7.47,1.7,12.24-14.29,19.74-15.85,4.88-1,15.77,8.49,20.51,6.93,2.19-.73,5.61-6.37,6-7.07l0-.07a19.13,19.13,0,0,0,3.41-7.87,36.08,36.08,0,0,0,.74-5.55c0-.44,0-.9,0-1.36a357.34,357.34,0,0,1,15.63,68.94c-3.28,11.31-10.59,17.26-20.53,18.79C251.21,571.2,227.38,534.05,208.13,480.82Z"/><path class="cls-7" d="M186.11,406.53c-32.79,5.67-55.29,35.64-49.08,51.84,21.64,56.37,18,75.68,48.88,105s85.9,36.76,117.47,27.54c28.14-8.22,47.49-43.56,47.49-43.56h.76c.27,22.4-.72,52.83-.72,52.83H85.86s-3.38-75.19,0-100c7.1-51.82,45.6-90.28,93.81-120.82C181.73,388.51,183.88,397.57,186.11,406.53Z"/><path class="cls-14" d="M274.7,313.91c8.6,12.57,12,29.49,9.38,51.33-11.91,1.73-26.14-1.1-41.42-6l1-4.8.06-.24,11.52-54.46a2,2,0,0,1,3.06-1.29A54.2,54.2,0,0,1,274.7,313.91Z"/><path class="cls-13" d="M215.79,456.56s-10,1.88-6.63,19a32.37,32.37,0,0,0,1.23,4.42l-2.26.83c-8.14-22.53-15.46-47.94-22-74.29-2.23-9-4.38-18-6.44-27.12,2.08-1.33,4.18-2.62,6.28-3.92,9.13,50.31,41.83,72,53.19,77.12,9.09,4.09,23.4,3.85,35.57.06l3.49,5.73c-3-1.89-8.87-.34-14.49,1.79h0c-1.89.7-3.75,1.49-5.45,2.23-2.69,1.16-5,2.22-6.5,2.76a3.25,3.25,0,0,1-2.63-.17c-1.13-.6-2.93-1.53-5.14-2.59C235.17,458.18,219.91,451.85,215.79,456.56Z"/><path class="cls-6" d="M207.05,371.26c-.3-1.1-.56-2.16-.74-3.18a21.31,21.31,0,0,1,10.08-4.39l.47,2.82a19.67,19.67,0,0,0-5.44,1.72c16.93,20.31,35,25.45,55.18,15.7l1.25,2.58a47.09,47.09,0,0,1-20.53,5.14c-13.6,0-26.29-7.3-38.39-21.94A14.65,14.65,0,0,0,207.05,371.26Z"/><path class="cls-4" d="M291.82,26.56c1.36,1,2.72,2,2.36,3.69L280.86,237.16l9,1.07q-7.17-.49-14.21-.92l0-.49L288,24.61A14.42,14.42,0,0,1,291.82,26.56Z"/><path class="cls-7" d="M203.75,252.33q-12.24.32-24.43.83s-33.48,2.26-44.93,2.25c-3.69,0-6.07-4.88-6.63-9l.47-.07c78.27-6.57,153.37-6.63,222.65,5.28h0v.49a4.32,4.32,0,0,1-4.62,4.31l-65.44-4.64Q242.08,251.28,203.75,252.33Z"/><path class="cls-7" d="M198.11,24c8.36-2.16,19.87-3.45,32-4l.34,215.41v.1c-11.25-.19-22.06-.1-32.31.29V24Z"/><path class="cls-3" d="M265,276c10.49-1.73,20.17-1,27.93,5.4h0c-.66,4.08-4.29,6.66-10.36,2.95-.53-.31-1-.6-1.56-.86h0c-7.61-3.86-13.91-1.6-15.77-5.47A3.07,3.07,0,0,1,265,276Z"/><path class="cls-7" d="M285.48,479c0,.46,0,.92,0,1.36h0s-5.31-1.77-8.33-1.49l-.07-3.91a77,77,0,0,0,7.93-.7l.36,0A44.08,44.08,0,0,1,285.48,479Z"/><path class="cls-5" d="M215.73,268.73c-7,1.55-12.3,4.91-12.74,9.49l-3.71-.17c.72-7,1.82-13.37,2.78-18.12q8.16-.34,16-.56S217,263.29,215.73,268.73Z"/></svg>