<svg id="Layer_1" data-name="Layer 1" xmlns="http://www.w3.org/2000/svg" viewBox="0 0 470.16 440"><defs><style>.cls-1{fill:#fff;}.cls-2{fill:#172d44;}.cls-3{fill:#466084;}.cls-4{fill:#b7a67d;}.cls-5{fill:#f4e8c3;}.cls-6{fill:#cc8f7a;}.cls-7{fill:#f2b78b;}.cls-8{fill:#b2a893;}.cls-9{fill:#efe7d0;}.cls-10{fill:#aa593d;}.cls-11{fill:#d88361;}</style></defs><title>george</title><path class="cls-1" d="M89.31,420.79C86.34,381,83,336,93.45,296.2c10.74-40.77,34.32-72.51,73.94-99.28a31.91,31.91,0,0,1-.81-3.78c-.4-2.85-.69-5.7-.88-8.58-55.69-8.95-61-42.54-59-62.41,2.65-26.24,18-33.9,34.19-42,12-6,25.55-12.79,40.21-28.67,15-16.19,30.31-27,45.71-32L228,18.21h3a60.74,60.74,0,0,1,15.44-2.06,55.26,55.26,0,0,1,6.13.34c22.36,2.5,27.19,19.94,30.08,30.35.89,3.21,2,7.19,3.07,8.45.88,1,1.87,2.15,2.93,3.34l3.63,4c7.85,8.7,16.75,18.55,21.54,26.83,2.41,4.16,8.34,10.11,14.08,15.87,7.28,7.31,14.81,14.87,19.74,22.78,5.11,8.19,6.69,15.9,4.69,22.91s-8.9,13.7-21.76,21.15c-3.32,1.92-6.57,3.62-9.26,5,0,.21,0,.44,0,.68.7,11.19-1.13,19.94-5.61,26.76-1.39,2.14-3.6,4.41-7.59,7.69a135.26,135.26,0,0,1,49,40.61l2.42,2.42v.87c25.85,36.07,40.16,88.51,43.71,160.15l.52,10.38L90,430.15Z"/><g id="_Group_" data-name="&lt;Group&gt;"><path class="cls-2" d="M392.58,417.57l-49,.54c24.32-32.43,36.66-88.69,5.29-157.9C372.51,291.73,388.77,340.84,392.58,417.57Z"/><path class="cls-3" d="M348.86,260.21c31.37,69.21,19,125.47-5.29,157.9l-118.75,1.3a198.06,198.06,0,0,1-36.17-36.57c-23.35-30.21-54.69-84-49.94-118.39,2.61-18.86,43.8-43.37,50.83-47.43a75.78,75.78,0,0,0,1.54,8.35c-.88,11.92.78,22.48,5,31.5,13.16,44,58.92,133.14,83.51,145,27.33,13.15,56.11-45,3.76-140.11a50.79,50.79,0,0,0,2.83-12.86c1.4-1,2.6-9.51,2.6-9.51,2.06-2.55,3.89-8.26,5.31-14,.58-2.28,1.07-4.58,1.51-6.71a126.55,126.55,0,0,1,53.22,41.57S348.86,260.19,348.86,260.21Z"/><path class="cls-4" d="M338.46,134.15c3.24,5.2,4.88,10.25,3.56,14.88-2.89,10.15-32.15,22.86-32.15,22.86-.6-4-1.44-8.08-2.46-12.23Q323,154,338.46,134.15Z"/><path class="cls-5" d="M338.46,134.15Q323,154,307.42,159.66c-4.54-18.73-12.24-38.56-13.79-51.28-.36-3,2.13-6.47,1.8-9.48-.91-8.45-10-23.14-18.66-31.26L280.52,66c7.73,8.65,18.95,20.55,24,29.2C310.77,106.09,330,120.63,338.46,134.15Z"/><path class="cls-6" d="M187.8,205.14a30.72,30.72,0,0,1-8.2-3.91c-1.91-1.43-3.42-6.39-3.76-8.74a110,110,0,0,1-1-16A151.25,151.25,0,0,1,176.48,156c2.63-18.51,8.23-39.87,15.4-67.66,1.36-5.29-5.28-15.76,3.4-23.78a20.45,20.45,0,0,1,3-2.26,44.89,44.89,0,0,1,7-3.58c-2.79,2.31-6.39,23.65-4.55,31,5.92,23.63-21.56,75.23-10.37,96.88,5.2,10,28.56,19.27,39.53,22.06,11.91,3,35.79,4.76,49.18-.54,10.88-4.3,30.1-24.21,31.6-29.1.54,8.18-.43,15.44-4,20.83-1.36,2.09-5.43,5.43-9.7,8.72-4.52,3.48-9.23,6.93-11.13,8.78-2.48,2.43-1.34,5.63-4.13,7.69-10.76,7.93-42.19,7.75-53.48.59-3.05-1.94-3.41-6.45-6.16-8.78-4.92-4.15-15.59-6.52-25.36-9.09C193.57,206.92,190.53,206.08,187.8,205.14Z"/><path class="cls-7" d="M310.59,178c0,.32.07.65.07,1-1.5,4.89-20.73,24.8-31.6,29.1-13.39,5.3-37.27,3.56-49.18.54-11-2.79-34.33-12-39.53-22.06-11.19-21.65,16.29-73.25,10.37-96.88-1.83-7.38,1.76-28.73,4.55-31a0,0,0,0,1,0,0c17.84-7.35,42.55-5.71,64.49,4a26.69,26.69,0,0,1,7,5c8.67,8.12,17.76,22.81,18.66,31.26.33,3-2.16,6.47-1.8,9.48,1.55,12.72,9.25,32.54,13.79,51.28,1,4.16,1.86,8.27,2.46,12.23C310.21,174,310.45,176,310.59,178ZM277.36,86.49c.46.09.43-.33.27-.76-2.51-6.91-10-20.58-21.77-5.67-1,1.3,2.61,6.37,3.25,4.83C265,70.7,273.32,85.82,277.36,86.49ZM277.29,184l-1-2.91c-1.46.49-35.29,11.52-59.76-20.16a8.24,8.24,0,0,1,3.85-1.09l0-3.08c-4.2,0-8.4,2.71-13.12,8.45l2.38,2a33.38,33.38,0,0,1,4.35-4.49c15.23,19.79,34.3,23.73,47.52,23.59A55.75,55.75,0,0,0,277.29,184Zm-5.14-74.86c7.14-2.8,3.1-14.57-3.08-14.5C258.71,94.72,265.93,111.56,272.15,109.11Zm-2.88,51.69c8.54-20.6-.61-54.31-18.9-62.81a4.6,4.6,0,0,0-2.42-.24c-2.52.35-5.67,2.14-6.7,4.93-6.69,18.32-8.3,30.07-8.3,41.26h0c-2.26,4.67-4.49,12.76-3,16.56,3,7.83,13.23,15.42,19.7,16.34,3.19.44,10-4,11.85-5.21l.44-.3a26.81,26.81,0,0,0,6.93-9.51l0,0A3.72,3.72,0,0,0,269.26,160.8ZM235,86.92c1.27.65,3.82-5.18,2.49-5.72-25.46-10.21-28.73.36-31,5.18a.63.63,0,0,0,1,.73C211.27,83.9,217.2,77.79,235,86.92Zm-9.38,22.7c8.78-.1,7.95-14.62.67-14.55C216.55,95.18,216.71,109.72,225.61,109.62Z"/><path class="cls-8" d="M297,208.56l.34.44s-.62,4.22-1.71,9.6c-.44,2.13-.94,4.43-1.51,6.71,0,0-23.65,20.34-33.55,21.6-10.57,1.36-16.21,2.19-31.18-5.61-9.89-5.15-32.66-33.55-32.66-33.55,9.77,2.57,20.44,4.95,25.36,9.09,2.75,2.32,3.11,6.84,6.16,8.78,11.29,7.17,42.73,7.35,53.48-.59,2.79-2.06,1.65-5.26,4.13-7.69C287.75,215.49,292.47,212,297,208.56Z"/><path class="cls-9" d="M294.11,225.31c-1.41,5.78-3.24,11.5-5.31,14-5.87,7.28-23.78,16.21-33,17.58-32.82,4.81-58.21-18.29-66.92-47.84q-.58-2-1.06-4c2.73.94,5.77,1.78,8.92,2.61,0,0,22.77,28.4,32.66,33.55,15,7.81,20.61,7,31.18,5.61C270.45,245.65,294.11,225.31,294.11,225.31Z"/><path class="cls-9" d="M189.54,217c-.34-2.53-.56-5.18-.69-7.92,8.71,29.55,34.1,52.64,66.92,47.84,9.25-1.36,27.15-10.3,33-17.58,0,0-1.2,8.46-2.6,9.51-12.09,9-25.82,17.61-43.24,17.67-25,.12-45.24-13.89-51.88-41.17A75.78,75.78,0,0,1,189.54,217Z"/><path class="cls-9" d="M283.37,261.72c52.35,95.1,23.57,153.26-3.76,140.11-24.59-11.84-70.35-101-83.51-145,8.4,17.86,27,29.6,56,33.62C262.45,291.92,277.13,279.22,283.37,261.72Z"/><path class="cls-8" d="M286.2,248.86a50.79,50.79,0,0,1-2.83,12.86c-6.24,17.5-20.92,30.2-31.27,28.76-29-4-47.6-15.76-56-33.62-4.24-9-5.91-19.58-5-31.5,6.64,27.28,26.87,41.29,51.88,41.17C260.37,266.47,274.11,257.87,286.2,248.86Z"/><path class="cls-5" d="M205.29,58.66a0,0,0,0,0,0,0,44.89,44.89,0,0,0-7,3.58,20.45,20.45,0,0,0-3,2.26l-3.58-1.39c2.8-2.51,5.61-5,8.38-7.37,10.27-8.9,17.47-17.34,31.58-26.81a0,0,0,0,1,0,0,49.25,49.25,0,0,1,19.1-1.78c23.21,2.59,18.9,26.35,26.68,35.38.93,1.08,2,2.26,3.07,3.49l-3.75,1.61a26.69,26.69,0,0,0-7-5C247.84,52.95,223.13,51.31,205.29,58.66Z"/><path class="cls-5" d="M277.63,85.73c.16.43.19.84-.27.76-4-.66-12.37-15.79-18.25-1.6-.64,1.55-4.28-3.52-3.25-4.83C267.66,65.15,275.12,78.82,277.63,85.73Z"/><path class="cls-10" d="M276.3,181.06l1,2.91a55.75,55.75,0,0,1-15.79,2.26c-13.21.14-32.29-3.8-47.52-23.59a33.38,33.38,0,0,0-4.35,4.49l-2.38-2c4.72-5.74,8.92-8.47,13.12-8.45l0,3.08a8.24,8.24,0,0,0-3.85,1.09C241,192.59,274.85,181.56,276.3,181.06Z"/><path d="M269.06,94.61c6.18-.07,10.22,11.7,3.08,14.5C265.93,111.56,258.71,94.72,269.06,94.61Z"/><path class="cls-11" d="M250.36,98c18.29,8.49,27.45,42.21,18.9,62.81-.15.34-.28.68-.45,1l0,0c-1.68,2.71-6.79,4.89-10.2,4.13-6.12-1.38-13.39-9.15-16.76-18.72-4.89-13.88,1.79-36.45,6.1-49.47v0A4.6,4.6,0,0,1,250.36,98Z"/><path class="cls-7" d="M268.81,161.82c.17-.34.3-.68.45-1A3.72,3.72,0,0,1,268.81,161.82Z"/><path class="cls-10" d="M268.8,161.84a26.81,26.81,0,0,1-6.93,9.51l-.44.3c-2.37,1.38-8,.86-10.26-.18-6.34-2.88-17.79-14.27-18.09-21.23-.08-2.09-.14-4.17-.13-6.28,0-11.18,1.61-22.94,8.3-41.26,1-2.8,4.18-4.58,6.7-4.93v0c-4.32,13-11,35.58-6.1,49.47,3.37,9.58,10.64,17.34,16.76,18.72C262,166.73,267.12,164.55,268.8,161.84Z"/><path class="cls-6" d="M251.17,171.46c2.29,1,7.89,1.56,10.26.18-1.8,1.22-8.66,5.65-11.85,5.21-6.47-.91-16.71-8.51-19.7-16.34-1.44-3.8.79-11.89,3-16.56h0c0,2.11,0,4.18.13,6.28C233.38,157.2,244.83,168.58,251.17,171.46Z"/><path class="cls-5" d="M237.49,81.2c1.33.54-1.22,6.37-2.49,5.72-17.79-9.13-23.72-3-27.5.19a.63.63,0,0,1-1-.73C208.75,81.56,212,71,237.49,81.2Z"/><path d="M226.29,95.07c7.28-.08,8.11,14.45-.67,14.55S216.55,95.18,226.29,95.07Z"/><path class="cls-2" d="M224.82,419.4,98.65,420.79c-6.58-88-10.17-162.24,80.95-219.56a30.72,30.72,0,0,0,8.2,3.91q.48,2,1.06,4c.12,2.74.35,5.38.69,7.92-7,4.06-48.22,28.57-50.83,47.43C134,298.8,165.3,352.63,188.65,382.83A198.06,198.06,0,0,0,224.82,419.4Z"/><path class="cls-4" d="M231.65,29c-14.11,9.46-21.31,17.91-31.58,26.81-2.77,2.4-5.58,4.86-8.38,7.37-24.22,21.65-48.27,46.62-44.94,67.6C149.81,150,176.48,156,176.48,156a151.25,151.25,0,0,0-1.67,20.56c-38.29-4-62.09-20.09-58.79-52.6C119.75,87,151.48,98.37,187.81,59,201.88,43.76,216.87,33.18,231.65,29Z"/><path class="cls-5" d="M191.69,63.13l3.58,1.39c-8.68,8-2,18.48-3.4,23.78-7.17,27.79-12.77,49.15-15.4,67.66,0,0-26.66-5.92-29.72-25.23C143.42,109.75,167.47,84.78,191.69,63.13Z"/></g></svg>