<svg id="Layer_1" data-name="Layer 1" xmlns="http://www.w3.org/2000/svg" viewBox="0 0 470.16 440"><defs><style>.cls-1{fill:#fff;}.cls-2{fill:#10213a;}.cls-3{fill:#f4e8c3;}.cls-4{fill:#8a9fbc;}.cls-5{fill:#6a83a0;}.cls-6{fill:#d88361;}.cls-7{fill:#cc8f7a;}.cls-8{fill:#f2b78b;}.cls-9{fill:#aa593d;}.cls-10{fill:#663a28;}.cls-11{fill:#cebf97;}.cls-12{fill:#9b7726;}.cls-13{fill:#d9e7ed;}.cls-14{fill:#ad3821;}.cls-15{fill:#ea6647;}.cls-16{fill:#442318;}</style></defs><title>teddy</title><path class="cls-1" d="M66.65,423.82c2.14-50.9,11.68-97.33,27.59-134.26,17.43-40.44,42.34-68.64,72-81.54l0,0c-1-7.27-1.32-18.79,0-38-9.13-20.4-10.92-35.18-5.32-44a16.29,16.29,0,0,1,10.64-7.27c1.16-8.88,2.23-16.21,2.91-20.79-5.88-9.16-6.55-19.57-1.8-29.77,10.71-23,46.39-39,71.72-39,10.71,0,19.71,2.7,26.32,7.84,20.46,1,45.63,6.4,57.1,25.83,5.34,9,9.35,24.24-1.2,45.73-.07,2,0,4.29.1,6.89a15.12,15.12,0,0,1,11.13,6.33c5.61,7.9,4.42,20.63-4.46,46.63.15,1.36.29,2.73.4,4.09,1.58,17.22.83,29.07-2.46,38.1,1.35.44,2.69.91,4,1.41C402.79,236.68,420,314.19,425.14,423l.49,10.45-175.51.39-13.56,0-70.48.16-99.86.24Z"/><g id="_Group_" data-name="&lt;Group&gt;"><path class="cls-2" d="M415.19,423.47l-165.05.37c3.23-48.08,27.55-101.4,57.29-157.29,5.49,24,10,50.5,10.37,52.68H298.85v13.46l-8,37.8L347.23,383l5.66-45.36V319.23h-34.2l.86-.14c-.07-.44-5-29.47-10.88-54.89,7.5-14.11,15.36-28.38,23.3-42.75C388.57,242.11,409.55,303.48,415.19,423.47Z"/><path class="cls-3" d="M352.89,319.23V337.6l-54-4.92V319.23h18.94a1,1,0,0,0,0,.14l.88-.14Z"/><polygon class="cls-4" points="352.89 337.61 347.23 382.97 290.81 370.48 298.85 332.68 352.89 337.61"/><path class="cls-5" d="M324.71,219.06c2.49.71,4.9,1.5,7.27,2.38-7.94,14.37-15.8,28.64-23.3,42.75-1-4.23-2-8.36-3-12.24C312,241,318.36,230,324.71,219.06Z"/><path class="cls-6" d="M317.86,127.24c17-7.13,17,7,5.49,40h0C321.76,153.78,319.31,139.62,317.86,127.24Z"/><path class="cls-7" d="M323.95,173.43c1.25,13.62,1.22,26.09-2.24,34.71a41.22,41.22,0,0,1-5,8.87,56.93,56.93,0,0,1-4.83,5.86,71.46,71.46,0,0,1-12.28,10.35,88.15,88.15,0,0,1-5.38-20.65c11.52-9,21.54-21.78,29.68-39.14Z"/><path class="cls-8" d="M323.95,173.43h0c-8.15,17.36-18.17,30.11-29.68,39.14a214.48,214.48,0,0,1-2.15-22.63c5.08-4.37,10.07-9.37,15.17-12.73,6-4-5.54-11.06-15.34-15.26.41-15.12,1.46-26.21,1.5-26.49l-1.16-.11c2.12-.23,4-1.38,3.55-5-1-8.06-9.44-3.16-9.44-3.16-9.24-40.09-41.66-25.57-45-7.43h-.28c-2.26-1.13-6.14-1.57-8.31-.39l-.23,0c-1-7.43-5.31-14-14.64-16.69-7.67-2.26-15.59,2.7-20.55,10.35.48-3.62.63-8.08,3.25-14.23,4.16,6.49,5.87-10.79,25.38-17.44,1-.34.25-1.92-.74-2.06a42,42,0,0,0-11.18.53c16.84-11.39,47.71-19.67,56.18-18.68,8.24,1,47.89,40.36,47.89,40.36a24.08,24.08,0,0,0-1.22,4.37c-.46,5.87,0,13.19,1,21.27,1.45,12.38,3.9,26.54,5.45,40C323.54,169.34,323.77,171.4,323.95,173.43ZM283.86,98.22c18.68-16.28-22.29-28.7-30-15.1-.53.93-1.45,2.49-.39,2.29C279.85,80.41,278.44,103,283.86,98.22Z"/><path class="cls-4" d="M316.72,217c2.73.6,5.4,1.29,8,2C318.36,230,312,241,305.64,252c-1.2-4.5-2.4-8.64-3.62-12.24a104.9,104.9,0,0,0,9.86-16.84A56.93,56.93,0,0,0,316.72,217Z"/><path class="cls-9" d="M319.56,319.09l-.86.14h-.9c-.37-2.19-4.89-28.71-10.37-52.68.39-.78.81-1.57,1.25-2.35C314.6,289.61,319.49,318.64,319.56,319.09Z"/><path class="cls-10" d="M318.09,101.59c.65-2,1.25-4,.79-5.33-5.71-16.3-40.85-45-53.3-44-43.25,3.55-68.47,25.57-76.9,35.4a15.41,15.41,0,0,0-3.58,7.78c-27.64-32.86,58-73.41,81.79-48.5,49.39,1.08,67.27,26,50,59A24.08,24.08,0,0,1,318.09,101.59Z"/><path class="cls-7" d="M176.52,168.19c.93-12.93,2.42-26.65,3.92-38.86,1.85-15.12,3.74-27.89,4.67-33.9a15.41,15.41,0,0,1,3.58-7.78c8.43-9.82,33.65-31.85,76.9-35.4,12.45-1,47.59,27.71,53.3,44,.46,1.29-.14,3.33-.79,5.33,0,0-39.65-39.39-47.89-40.36-8.47-1-39.33,7.28-56.18,18.68h0c-10.14,1.73-21.18,6.95-13.44,19-2.61,6.16-2.77,10.62-3.25,14.23v0c-5.47,8.41-7.32,20.11-1.34,29.08l-.25.16c-4.46,10.49-.39,28-.39,28-8.22,4.27-15.2,9.72-13.42,14.13,1.89,4.74,6.26,8.48,11.62,11.75a1.59,1.59,0,0,0,.3.46,2.81,2.81,0,0,1,.85,1.32c-1.06,14.2,15.8,18.85,22.79,21.48a1.07,1.07,0,0,0-1,1.66c12.65,18.75,27.3,25.63,46.07,8.13a.74.74,0,0,0-.49-1.29,83.58,83.58,0,0,0,30.53-14.2A88.33,88.33,0,0,0,298,234.07l.05.14a78.26,78.26,0,0,1-9.4,5.17,82.43,82.43,0,0,1-17.83,6c-14.55,3.1-31.36,2.66-49.49-3.77a112,112,0,0,1-12.88-5.5c-1.46-.72-2.95-1.5-4.41-2.31v0a143.44,143.44,0,0,1-16.77-10.88q-3.65-2.75-7.34-5.86a7.42,7.42,0,0,1-1.89-2.8C174.89,206.71,175,188.42,176.52,168.19Z"/><path d="M318.69,319.23l-.88.14a1,1,0,0,1,0-.14Z"/><path class="cls-9" d="M308.67,264.2c-.44.78-.86,1.57-1.25,2.35-1-4.29-2-8.48-3-12.43l1.25-2.15C306.66,255.84,307.69,260,308.67,264.2Z"/><path class="cls-10" d="M291.9,162c9.81,4.2,21.32,11.31,15.34,15.26-5.1,3.37-10.09,8.36-15.17,12.73C291.62,180.15,291.65,170.43,291.9,162Z"/><path class="cls-9" d="M305.64,252l-1.25,2.15c-1.22-4.64-2.43-8.94-3.65-12.68.44-.56.86-1.13,1.29-1.71C303.24,243.31,304.44,247.46,305.64,252Z"/><path class="cls-5" d="M304.39,254.11c1,4,2,8.15,3,12.43-29.74,55.89-54.06,109.21-57.29,157.29l-13.56,0C245.11,362.24,273.58,307.76,304.39,254.11Z"/><path class="cls-4" d="M311.89,222.87A104.9,104.9,0,0,1,302,239.72c-.79-2.4-1.59-4.53-2.36-6.35l-.05-.14A71.46,71.46,0,0,0,311.89,222.87Z"/><path class="cls-4" d="M244.28,322.35c19.24-17.88,38.93-44,49.93-73.83a59.24,59.24,0,0,0,6.53-7.09c1.22,3.74,2.43,8,3.65,12.68-30.81,53.65-59.28,108.14-67.82,169.76l-70.48.16c-27.73-50.46-31.82-99.09,4.3-206.87,1.39-.63,2.82-1.2,4.25-1.73-1,9.38,1.36,16.14,6.54,20.65-3.69,12.86-6.53,32.82-6.54,52.31,0,3.76.09,7.5.32,11.16,1.15,19,5.52,36.14,15.12,43.69a18.56,18.56,0,0,0,8.78,3.88C208.6,348.65,226.25,339.12,244.28,322.35Z"/><path class="cls-9" d="M302,239.72c-.42.58-.85,1.15-1.29,1.71-.76-2.35-1.52-4.46-2.26-6.31l.37-1.39c.25-.16.51-.32.76-.49l.05.14C300.44,235.18,301.23,237.32,302,239.72Z"/><path class="cls-9" d="M299.61,233.22c-.25.18-.51.34-.76.49s-.49.34-.76.49l-.05-.14a88.33,88.33,0,0,1-5.41-20.28c.55-.39,1.08-.79,1.61-1.22A88.15,88.15,0,0,0,299.61,233.22Z"/><path class="cls-4" d="M298.48,235.11c.74,1.85,1.5,4,2.26,6.31a59.24,59.24,0,0,1-6.53,7.09Q296.65,241.93,298.48,235.11Z"/><path class="cls-9" d="M298.85,233.72l-.37,1.39c-.12-.3-.26-.62-.39-.9C298.36,234.05,298.6,233.89,298.85,233.72Z"/><path class="cls-11" d="M298.09,234.21c.12.28.26.6.39.9q-1.83,6.83-4.27,13.4a49.86,49.86,0,0,1-14.5,9.35q4.74-9,9-18.48A78.26,78.26,0,0,0,298.09,234.21Z"/><path class="cls-12" d="M295.78,130.4c.46,3.58-1.43,4.73-3.55,5l-.6-.05v.07a14.32,14.32,0,0,1-4.53-.74l-.18,0a15.21,15.21,0,0,0-.12-5.2c-.14-.74-.3-1.45-.46-2.15C286.35,127.24,294.76,122.34,295.78,130.4Z"/><path class="cls-11" d="M279.71,257.86a49.86,49.86,0,0,0,14.5-9.35c-11,29.81-30.69,55.95-49.93,73.83.6-4,1.18-7.9,1.64-11.91A329.09,329.09,0,0,0,279.71,257.86Z"/><path class="cls-9" d="M292.24,135.35l1.16.11c0,.28-1.09,11.38-1.5,26.49-.6-.26-1.18-.51-1.76-.72.42-14.3,1.39-24.87,1.5-25.86A3.41,3.41,0,0,0,292.24,135.35Z"/><path class="cls-9" d="M294.23,212.57c-.53.42-1.06.83-1.61,1.22a214.2,214.2,0,0,1-2.24-22.44c.56-.46,1.13-.93,1.69-1.41A214.48,214.48,0,0,0,294.23,212.57Z"/><path d="M291.64,135.3l.6.05a3.41,3.41,0,0,1-.6,0Z"/><path class="cls-9" d="M292.08,189.94c-.56.48-1.13,1-1.69,1.41-.53-10.57-.49-21.09-.25-30.13.58.21,1.16.46,1.76.72C291.65,170.43,291.62,180.15,292.08,189.94Z"/><path class="cls-8" d="M287.1,134.63a14.32,14.32,0,0,0,4.53.74c-.11,1-1.08,11.55-1.5,25.86a54,54,0,0,0-6.28-2.17c-8.66-2.29-24.71-.51-24.71-.51h0a53.67,53.67,0,0,0,1.31-7.55l.23-.78c12,3.46,24.64-5,26.26-15.63Z"/><path class="cls-8" d="M290.38,191.35a214.2,214.2,0,0,0,2.24,22.44A83.58,83.58,0,0,1,262.09,228a.7.7,0,0,0-.35.09c-14.13,7.3-28.68,4-43.64-8.34a1,1,0,0,0-.6-.23,0,0,0,0,1,0,0c-7-2.63-23.85-7.28-22.79-21.48a2.81,2.81,0,0,0-.85-1.32,1.59,1.59,0,0,1-.3-.46,139.11,139.11,0,0,0,14,7.07c8.25,3.79,22.68-12.7,31.7-13.92,9.35-1.27,27.07,11,36.42,9.74C280.84,198.41,285.68,195.25,290.38,191.35Z"/><path class="cls-10" d="M290.14,161.23c-.25,9-.28,19.56.25,30.13-4.71,3.9-9.54,7.06-14.67,7.76-9.35,1.27-27.07-11-36.42-9.74-9,1.22-23.44,17.71-31.7,13.92a139.11,139.11,0,0,1-14-7.07c-1.83-3.79-2.1-23.76,1.8-25.87,8.89-4.64,19.24-7.87,21.48-6.91,11.91,21.55,35.82,21.18,42.3-4.89h0s16.05-1.78,24.71.51A54,54,0,0,1,290.14,161.23Z"/><path class="cls-12" d="M286.8,129.39a15.21,15.21,0,0,1,.12,5.2c-1.62,10.6-14.27,19.08-26.26,15.63a19.68,19.68,0,0,1-4.27-1.76c-5.93-3.28-11.34-9.93-14.71-21.25a15.37,15.37,0,0,1-.63-4.16,16.64,16.64,0,0,1,.28-3.23c3.35-18.15,35.77-32.67,45,7.43C286.5,127.94,286.66,128.65,286.8,129.39Zm-42-2.31c10.18,34.25,42.17,18.8,38.79,1.87C275.29,87.36,239.48,109,244.83,127.08Z"/><path class="cls-10" d="M253.89,83.13c7.67-13.6,48.64-1.18,30,15.1-5.41,4.74-4-17.81-30.35-12.81C252.45,85.61,253.36,84.06,253.89,83.13Z"/><path class="cls-13" d="M283.61,128.95c3.39,16.93-28.61,32.38-38.79-1.87C239.48,109,275.29,87.36,283.61,128.95Z"/><path class="cls-11" d="M288.69,239.38q-4.26,9.45-9,18.48a62.4,62.4,0,0,1-22.51,4.62,141.08,141.08,0,0,0,13.65-17.13A82.43,82.43,0,0,0,288.69,239.38Z"/><path class="cls-3" d="M279.71,257.86a329.09,329.09,0,0,1-33.79,52.58c1.43-12.08,1.82-24.66-1.64-39.09a24.5,24.5,0,0,0,7.43-4,52.65,52.65,0,0,0,5.5-4.89A62.4,62.4,0,0,0,279.71,257.86Z"/><path class="cls-9" d="M262.09,228a.74.74,0,0,1,.49,1.29c-18.77,17.5-33.42,10.62-46.07-8.13a1.07,1.07,0,0,1,1-1.66,0,0,0,0,0,0,0c.21.07.41.16.6.23,15,12.36,29.51,15.64,43.64,8.34Z"/><path class="cls-9" d="M216.84,163.43a49.38,49.38,0,0,1-4.32-10.65l0-.56a12.53,12.53,0,0,0,4-1c15.31,21.64,28.94,24.53,39.9-2.79a19.68,19.68,0,0,0,4.27,1.76l-.23.78a53.67,53.67,0,0,1-1.31,7.55C252.66,184.61,228.74,185,216.84,163.43Z"/><path class="cls-14" d="M270.86,245.36a141.08,141.08,0,0,1-13.65,17.13h0c-10.53-6.6-21.75-9.21-33.44-9.17a22.08,22.08,0,0,1-2.36-11.73C239.5,248,256.31,248.46,270.86,245.36Z"/><path class="cls-15" d="M257.17,262.49h0a52.65,52.65,0,0,1-5.5,4.89l0,0c-14.55-1.69-23.88-6.35-28-14C235.43,253.28,246.64,255.89,257.17,262.49Z"/><path class="cls-14" d="M234.19,272.06a39,39,0,0,1-14-4.71c-1.31-.71-2.61-1.46-3.9-2.29s-2.54-1.68-3.81-2.58c-1-2.72-1.83-5.4-2.5-8a91.6,91.6,0,0,1,13.72-1.16c4.07,7.69,13.4,12.35,28,14l0,0a24.5,24.5,0,0,1-7.43,4A27.66,27.66,0,0,1,234.19,272.06Z"/><path class="cls-15" d="M244.28,271.36c3.46,14.43,3.07,27,1.64,39.09-.21.28-.44.55-.65.83-21.84,8.71-36.93,20.85-46.4,35.86a18.56,18.56,0,0,1-8.78-3.88c-8.64-24.76,2.56-51,26.24-78.19,1.29.83,2.59,1.59,3.9,2.29l-4.67,23.93a2.92,2.92,0,0,0,5.34,2.1l13.3-21.32A27.66,27.66,0,0,0,244.28,271.36Z"/><path class="cls-14" d="M245.27,311.27c.21-.28.44-.55.65-.83-.46,4-1,8-1.64,11.91-18,16.77-35.68,26.3-45.42,24.78C208.33,332.12,223.43,320,245.27,311.27Z"/><path class="cls-6" d="M241.69,127.2c3.37,11.32,8.78,18,14.71,21.25-11,27.32-24.59,24.43-39.9,2.79,9-3.67,16.46-16.91,16.23-28.84h0c2.31-1.16,5.91-.49,8.31.63A15.37,15.37,0,0,0,241.69,127.2Z"/><path class="cls-12" d="M241.05,119.81h.28a16.64,16.64,0,0,0-.28,3.23c-2.4-1.13-6-1.8-8.31-.63h0a20.5,20.5,0,0,0-.21-2.95l.23,0C234.91,118.24,238.79,118.68,241.05,119.81Z"/><path class="cls-14" d="M234.19,272.06l-13.3,21.32a2.92,2.92,0,0,1-5.34-2.1l4.67-23.93A39,39,0,0,0,234.19,272.06Z"/><path class="cls-12" d="M216.5,151.24a12.53,12.53,0,0,1-4,1,11.05,11.05,0,0,1-5.59-1,25.7,25.7,0,0,1-10.9-8.94c-6-9-4.13-20.67,1.34-29.08v0c5-7.65,12.88-12.61,20.55-10.35,9.33,2.73,13.67,9.26,14.64,16.69a20.5,20.5,0,0,1,.21,2.95C233,134.33,225.46,147.58,216.5,151.24Zm-8.77-3.7c16.24,7.51,34.92-33.51,9.33-41C200.57,101.65,182.79,136,207.73,147.54Z"/><path class="cls-10" d="M225.21,79.39c1,.14,1.69,1.73.74,2.06-19.51,6.65-21.22,23.93-25.38,17.44,2.06-4.92,7.09-14.67,13.44-19h0A42,42,0,0,1,225.21,79.39Z"/><path class="cls-14" d="M221.37,241.58a22.08,22.08,0,0,0,2.36,11.73A91.6,91.6,0,0,0,210,254.48c-1.75-6.6-2.43-12.81-1.52-18.4A112,112,0,0,0,221.37,241.58Z"/><path class="cls-13" d="M217.06,106.5c25.59,7.53,6.91,48.56-9.33,41C182.79,136,200.57,101.65,217.06,106.5Z"/><path class="cls-8" d="M216.84,163.43c-2.24-1-12.59,2.28-21.48,6.91,0,0-4.07-17.46.39-28l.25-.16a25.7,25.7,0,0,0,10.9,8.94,11.05,11.05,0,0,0,5.59,1l0,.56A49.38,49.38,0,0,0,216.84,163.43Z"/><path class="cls-14" d="M212.51,262.49c1.27.9,2.54,1.76,3.81,2.58-23.69,27.18-34.89,53.42-26.24,78.19-9.59-7.55-14-24.66-15.12-43.69h0A182.06,182.06,0,0,1,212.51,262.49Z"/><path class="cls-11" d="M210,254.48c.67,2.61,1.52,5.29,2.5,8A182.06,182.06,0,0,0,175,299.56h0c-.23-3.67-.32-7.41-.32-11.16,7.83-10.14,16.14-19.49,25.72-26.69a6.35,6.35,0,0,0,2.4-6.65,33.87,33.87,0,0,1-.78-4.16Q205.9,252.8,210,254.48Z"/><path class="cls-11" d="M208.49,236.08c-.92,5.59-.23,11.8,1.52,18.4q-4.1-1.67-8-3.58a38.78,38.78,0,0,1,2.1-17.13C205.55,234.58,207,235.36,208.49,236.08Z"/><path class="cls-16" d="M214,79.92c-6.35,4.3-11.38,14.06-13.44,19C192.83,86.87,203.87,81.65,214,79.92Z"/><path class="cls-11" d="M204.08,233.75v0A38.78,38.78,0,0,0,202,250.9c-7.78-3.83-14.9-8.5-20.79-14.82,1.9-6.7,4-11.46,6.12-13.21A143.44,143.44,0,0,0,204.08,233.75Z"/><path class="cls-3" d="M202.76,255.06a6.35,6.35,0,0,1-2.4,6.65c-9.58,7.2-17.88,16.54-25.72,26.69,0-19.49,2.86-39.46,6.54-52.31,5.89,6.31,13,11,20.79,14.82A33.87,33.87,0,0,0,202.76,255.06Z"/><path class="cls-16" d="M193.55,196.22c-5.36-3.26-9.74-7-11.62-11.75-1.78-4.41,5.2-9.86,13.42-14.13C191.45,172.46,191.72,192.43,193.55,196.22Z"/><path class="cls-5" d="M180,217q3.68,3.1,7.34,5.86c-2.08,1.75-4.22,6.51-6.12,13.21-5.19-4.52-7.53-11.27-6.54-20.65,1.13-.44,2.28-.83,3.44-1.22A7.42,7.42,0,0,0,180,217Z"/><path class="cls-6" d="M180.13,129.3l.3,0c-1.5,12.21-3,25.93-3.92,38.86C163.69,140.64,165.23,124.4,180.13,129.3Z"/><path class="cls-2" d="M166.09,424l-89.41.21c4.09-97.45,36.1-182.13,93.71-207.09C134.27,324.94,138.36,373.57,166.09,424Z"/></g></svg>